<?xml version="1.0" encoding="UTF-8" standalone="no"?>
<!DOCTYPE svg PUBLIC "-//W3C//DTD SVG 1.0//EN" "http://www.w3.org/TR/2001/REC-SVG-20010904/DTD/svg10.dtd">
<!-- Generated by Microsoft Visio 11.0, SVG Export, v1.0 denied_retention_timing.svg Page-1 -->
<svg xmlns="http://www.w3.org/2000/svg" xmlns:v="http://schemas.microsoft.com/visio/2003/SVGExtensions/" width="5.14474in"
		height="1.66065in" viewBox="0 0 370.421 119.567" xml:space="preserve" color-interpolation-filters="sRGB" class="st8">
	<v:documentProperties v:langID="1033" v:metric="true" v:viewMarkup="false"/>

	<style type="text/css">
	<![CDATA[
		.st1 {fill:none;stroke:none;stroke-linecap:butt;stroke-width:0.5}
		.st2 {fill:#ffffff;stroke:none;stroke-linecap:butt;stroke-width:7.2}
		.st3 {fill:#000000;font-family:Arial;font-size:0.666664em}
		.st4 {stroke:#000000;stroke-linecap:butt;stroke-width:0.5}
		.st5 {marker-end:url(#mrkr4-101);stroke:#000000;stroke-linecap:butt;stroke-width:0.5}
		.st6 {fill:#000000;fill-opacity:1;stroke:#000000;stroke-opacity:1;stroke-width:0.21739130434783}
		.st7 {stroke:#000000;stroke-dasharray:0.25,1;stroke-linecap:butt;stroke-width:0.25}
		.st8 {fill:none;fill-rule:evenodd;font-size:12;overflow:visible;stroke-linecap:square;stroke-miterlimit:3}
	]]>
	</style>

	<defs id="Markers">
		<g id="lend4">
			<path d="M 2 1 L -0 0 L 2 -1 L 2 1 " style="stroke:none"/>
		</g>
		<marker id="mrkr4-101" class="st6" v:arrowType="4" v:arrowSize="1" v:setback="8.48" refX="-8.48" orient="auto"
				markerUnits="strokeWidth">
			<use xlink:href="#lend4" transform="scale(-4.6,-4.6) "/>
		</marker>
	</defs>
	<g v:mID="0" v:index="1" v:groupContext="foregroundPage">
		<title>Page-1</title>
		<v:pageProperties v:drawingScale="0.0393701" v:pageScale="0.0393701" v:drawingUnits="24" v:shadowOffsetX="0"
				v:shadowOffsetY="0" v:shadowType="1" v:shadowScale="0"/>
		<g id="shape2-1" v:mID="2" v:groupContext="shape" transform="translate(51.5236,-90.9587)">
			<title>Signal name block.9</title>
			<desc>CLK</desc>
			<v:textBlock v:margins="rect(0,2,0,0)" v:tabSpace="42.5197"/>
			<v:textRect cx="11.3386" cy="113.897" width="22.68" height="11.3386"/>
			<rect x="0" y="108.228" width="22.6772" height="11.3386" class="st1"/>
			<rect v:rectContext="textBkgnd" x="5.11469" y="109.097" width="15.5624" height="9.59985" class="st2"/>
			<text x="5.11" y="116.3" class="st3" v:langID="1033"><v:paragraph v:horizAlign="2"/><v:tabList/>CLK</text>		</g>
		<g id="shape3-5" v:mID="3" v:groupContext="shape" transform="translate(96.878,-90.9587)">
			<title>Clock.136</title>
			<path d="M0 113.9 L0 108.23 L11.34 108.23 L11.34 119.57 L22.67 119.57 L22.68 113.9" class="st4"/>
		</g>
		<g id="shape4-8" v:mID="4" v:groupContext="shape" transform="translate(119.555,-90.9587)">
			<title>Clock.137</title>
			<path d="M0 113.9 L0 108.23 L11.34 108.23 L11.34 119.57 L22.67 119.57 L22.68 113.9" class="st4"/>
		</g>
		<g id="shape5-11" v:mID="5" v:groupContext="shape" transform="translate(142.232,-90.9587)">
			<title>Clock.138</title>
			<path d="M0 113.9 L0 108.23 L11.34 108.23 L11.34 119.57 L22.67 119.57 L22.68 113.9" class="st4"/>
		</g>
		<g id="shape6-14" v:mID="6" v:groupContext="shape" transform="translate(164.909,-90.9587)">
			<title>Clock.139</title>
			<path d="M0 113.9 L0 108.23 L11.34 108.23 L11.34 119.57 L22.67 119.57 L22.68 113.9" class="st4"/>
		</g>
		<g id="shape7-17" v:mID="7" v:groupContext="shape" transform="translate(187.587,-90.9587)">
			<title>Clock.140</title>
			<path d="M0 113.9 L0 108.23 L11.34 108.23 L11.34 119.57 L22.67 119.57 L22.68 113.9" class="st4"/>
		</g>
		<g id="shape8-20" v:mID="8" v:groupContext="shape" transform="translate(210.264,-90.9587)">
			<title>Clock.141</title>
			<path d="M0 113.9 L0 108.23 L11.34 108.23 L11.34 119.57 L22.67 119.57 L22.68 113.9" class="st4"/>
		</g>
		<g id="shape9-23" v:mID="9" v:groupContext="shape" transform="translate(232.941,-90.9587)">
			<title>Clock.142</title>
			<path d="M0 113.9 L0 108.23 L11.34 108.23 L11.34 119.57 L22.67 119.57 L22.68 113.9" class="st4"/>
		</g>
		<g id="shape10-26" v:mID="10" v:groupContext="shape" transform="translate(255.618,-90.9587)">
			<title>Clock.143</title>
			<path d="M0 113.9 L0 108.23 L11.34 108.23 L11.34 119.57 L22.67 119.57 L22.68 113.9" class="st4"/>
		</g>
		<g id="shape11-29" v:mID="11" v:groupContext="shape" transform="translate(278.295,-90.9587)">
			<title>Clock.144</title>
			<path d="M0 113.9 L0 108.23 L11.34 108.23 L11.34 119.57 L22.67 119.57 L22.68 113.9" class="st4"/>
		</g>
		<g id="shape12-32" v:mID="12" v:groupContext="shape" transform="translate(300.972,-90.9587)">
			<title>Clock.145</title>
			<path d="M0 113.9 L0 108.23 L11.34 108.23 L11.34 119.57 L22.67 119.57 L22.68 113.9" class="st4"/>
		</g>
		<g id="shape13-35" v:mID="13" v:groupContext="shape" transform="translate(323.65,-90.9587)">
			<title>Clock.146</title>
			<path d="M0 113.9 L0 108.23 L11.34 108.23 L11.34 119.57 L22.67 119.57 L22.68 113.9" class="st4"/>
		</g>
		<g id="shape14-38" v:mID="14" v:groupContext="shape" transform="translate(99.7126,153.844) rotate(180)">
			<title>Sheet.14</title>
			<path d="M0 119.57 L25.51 119.57" class="st4"/>
		</g>
		<g id="shape15-41" v:mID="15" v:groupContext="shape" transform="translate(6.16929,-73.9508)">
			<title>Signal name block.185</title>
			<desc>CPUQACTIVE</desc>
			<v:textBlock v:margins="rect(0,2,0,0)" v:tabSpace="42.5197"/>
			<v:textRect cx="34.0157" cy="113.897" width="68.04" height="11.3386"/>
			<rect x="0" y="108.228" width="68.0315" height="11.3386" class="st1"/>
			<rect v:rectContext="textBkgnd" x="14.024" y="109.097" width="52.0074" height="9.59985" class="st2"/>
			<text x="14.02" y="116.3" class="st3" v:langID="1033"><v:paragraph v:horizAlign="2"/><v:tabList/>CPUQACTIVE</text>		</g>
		<g id="shape16-45" v:mID="16" v:groupContext="shape" transform="translate(23.1772,-56.9429)">
			<title>Signal name block.187</title>
			<desc>CPUQREQn</desc>
			<v:textBlock v:margins="rect(0,2,0,0)" v:tabSpace="42.5197"/>
			<v:textRect cx="25.5118" cy="113.897" width="51.03" height="11.3386"/>
			<rect x="0" y="108.228" width="51.0236" height="11.3386" class="st1"/>
			<rect v:rectContext="textBkgnd" x="4.12537" y="109.097" width="44.8984" height="9.59985" class="st2"/>
			<text x="4.13" y="116.3" class="st3" v:langID="1033"><v:paragraph v:horizAlign="2"/><v:tabList/>CPUQREQn</text>		</g>
		<g id="shape17-49" v:mID="17" v:groupContext="shape" transform="translate(6.16929,-39.935)">
			<title>Signal name block.188</title>
			<desc>CPUQACCEPTn</desc>
			<v:textBlock v:margins="rect(0,2,0,0)" v:tabSpace="42.5197"/>
			<v:textRect cx="34.0157" cy="113.897" width="68.04" height="11.3386"/>
			<rect x="0" y="108.228" width="68.0315" height="11.3386" class="st1"/>
			<rect v:rectContext="textBkgnd" x="6.01996" y="109.097" width="60.0114" height="9.59985" class="st2"/>
			<text x="6.02" y="116.3" class="st3" v:langID="1033"><v:paragraph v:horizAlign="2"/><v:tabList/>CPUQACCEPTn</text>		</g>
		<g id="shape18-53" v:mID="18" v:groupContext="shape" transform="translate(6.16929,-22.9272)">
			<title>Signal name block.189</title>
			<desc>CPUQDENY</desc>
			<v:textBlock v:margins="rect(0,2,0,0)" v:tabSpace="42.5197"/>
			<v:textRect cx="34.0157" cy="113.897" width="68.04" height="11.3386"/>
			<rect x="0" y="108.228" width="68.0315" height="11.3386" class="st1"/>
			<rect v:rectContext="textBkgnd" x="20.6917" y="109.097" width="45.3398" height="9.59985" class="st2"/>
			<text x="20.69" y="116.3" class="st3" v:langID="1033"><v:paragraph v:horizAlign="2"/><v:tabList/>CPUQDENY</text>		</g>
		<g id="shape19-57" v:mID="19" v:groupContext="shape" transform="translate(74.2008,-90.9587)">
			<title>Clock.7</title>
			<path d="M0 113.9 L0 108.23 L11.34 108.23 L11.34 119.57 L22.67 119.57 L22.68 113.9" class="st4"/>
		</g>
		<g id="shape20-60" v:mID="20" v:groupContext="shape" transform="translate(119.555,170.852) rotate(180)">
			<title>Sheet.20</title>
			<path d="M0 119.57 L45.35 119.57" class="st4"/>
		</g>
		<g id="shape21-63" v:mID="21" v:groupContext="shape" transform="translate(196.091,170.852) scale(1,-1)">
			<title>0 to 1 - No Glitch.8</title>
			<path d="M0 108.23 L2.83 119.57 L70.87 119.57" class="st4"/>
		</g>
		<g id="shape22-66" v:mID="22" v:groupContext="shape" transform="translate(369.004,187.859) rotate(180)">
			<title>Sheet.22</title>
			<path d="M0 119.57 L294.8 119.57" class="st4"/>
		</g>
		<g id="shape23-69" v:mID="23" v:groupContext="shape" transform="translate(147.902,216.206) rotate(180)">
			<title>Sheet.23</title>
			<path d="M0 119.57 L73.7 119.57" class="st4"/>
		</g>
		<g id="shape24-72" v:mID="24" v:groupContext="shape" transform="translate(266.957,-56.9429)">
			<title>1 to 0 - No Glitch.22</title>
			<path d="M0 108.23 L2.83 119.57 L59.53 119.57" class="st4"/>
		</g>
		<g id="shape25-75" v:mID="25" v:groupContext="shape" transform="translate(346.327,-90.9587)">
			<title>Clock.38</title>
			<path d="M0 113.9 L0 108.23 L11.34 108.23 L11.34 119.57 L22.67 119.57 L22.68 113.9" class="st4"/>
		</g>
		<g id="shape26-78" v:mID="26" v:groupContext="shape" transform="translate(99.7126,-73.9508)">
			<title>1 to 0 - No Glitch.11</title>
			<path d="M0 108.23 L2.83 119.57 L28.35 119.57" class="st4"/>
		</g>
		<g id="shape27-81" v:mID="27" v:groupContext="shape" transform="translate(128.059,-73.9508)">
			<title>0 to 1 - No Glitch.12</title>
			<path d="M0 119.57 L2.83 108.23 L113.39 108.23" class="st4"/>
		</g>
		<g id="shape28-84" v:mID="28" v:groupContext="shape" transform="translate(241.445,-73.9508)">
			<title>1 to 0 - No Glitch.14</title>
			<path d="M0 108.23 L2.83 119.57 L59.53 119.57" class="st4"/>
		</g>
		<g id="shape29-87" v:mID="29" v:groupContext="shape" transform="translate(300.972,-73.9508)">
			<title>0 to 1 - No Glitch.15</title>
			<path d="M0 119.57 L2.83 108.23 L68.03 108.23" class="st4"/>
		</g>
		<g id="shape30-90" v:mID="30" v:groupContext="shape" transform="translate(119.555,-56.9429)">
			<title>1 to 0 - No Glitch.16</title>
			<path d="M0 108.23 L2.83 119.57 L76.54 119.57" class="st4"/>
		</g>
		<g id="shape31-93" v:mID="31" v:groupContext="shape" transform="translate(326.484,-56.9429)">
			<title>0 to 1 - No Glitch.19</title>
			<path d="M0 119.57 L2.83 108.23 L42.52 108.23" class="st4"/>
		</g>
		<g id="shape32-96" v:mID="32" v:groupContext="shape" transform="translate(212.094,-19.9885) rotate(49.5267)">
			<title>Curved line</title>
			<path d="M-0 119.57 A16.5904 16.5904 0 0 1 21.53 119.57 A16.931 16.931 -180 0 0 39.64 122.05 L39.94 121.85" class="st5"/>
		</g>
		<g id="shape33-102" v:mID="33" v:groupContext="shape" transform="translate(217.582,188.928) rotate(-34.7778) scale(1,-1)">
			<title>Curved line.185</title>
			<path d="M-0 119.57 A28.3572 28.3572 0 0 1 28.94 119.57 A28.9394 28.9394 -180 0 0 54.34 121.59 L54.66 121.43"
					class="st5"/>
		</g>
		<g id="shape34-107" v:mID="34" v:groupContext="shape" transform="translate(292.661,-14.8932) rotate(52.8153)">
			<title>Curved line.186</title>
			<path d="M-0 119.57 A15.9114 15.9114 0 0 1 21.03 119.57 A16.2381 16.2381 -180 0 0 38.64 122.09 L38.94 121.89"
					class="st5"/>
		</g>
		<g id="shape35-112" v:mID="35" v:groupContext="shape" transform="translate(294.956,186.773) rotate(-36.9499) scale(1,-1)">
			<title>Curved line.187</title>
			<path d="M0 119.57 A26.8111 26.8111 0 0 1 28.07 119.57 A27.3615 27.3615 -180 0 0 52.62 121.64 L52.94 121.47"
					class="st5"/>
		</g>
		<g id="shape36-117" v:mID="36" v:groupContext="shape" transform="translate(371.713,-3.09347) rotate(59.7611)">
			<title>Curved line.188</title>
			<path d="M0 119.57 A13.8863 13.8863 0 0 1 19.44 119.57 A14.1714 14.1714 -180 0 0 35.51 122.21 L35.81 122" class="st5"/>
		</g>
		<g id="shape37-122" v:mID="37" v:groupContext="shape" transform="translate(366.095,181.761) rotate(-40.6557) scale(1,-1)">
			<title>Curved line.189</title>
			<path d="M0 119.57 A23.1188 23.1188 0 0 1 25.9 119.57 A23.5934 23.5934 -180 0 0 48.29 121.76 L48.61 121.59" class="st5"/>
		</g>
		<g id="shape38-127" v:mID="38" v:groupContext="shape" transform="translate(431.181,-3.29178) rotate(59.7436)">
			<title>Curved line.190</title>
			<path d="M0 119.57 A13.9491 13.9491 0 0 1 19.49 119.57 A14.2355 14.2355 -180 0 0 35.61 122.21 L35.91 122" class="st5"/>
		</g>
		<g id="shape39-132" v:mID="39" v:groupContext="shape" transform="translate(0.5,-5.91929)">
			<title>Signal name block.75</title>
			<desc>STANDBYWFI</desc>
			<v:textBlock v:margins="rect(0,2,0,0)" v:tabSpace="42.5197"/>
			<v:textRect cx="36.8504" cy="113.897" width="73.71" height="11.3386"/>
			<rect x="0" y="108.228" width="73.7008" height="11.3386" class="st1"/>
			<rect v:rectContext="textBkgnd" x="19.2563" y="109.097" width="52.4446" height="9.59985" class="st2"/>
			<text x="19.26" y="116.3" class="st3" v:langID="1033"><v:paragraph v:horizAlign="2"/><v:tabList/>STANDBYWFI</text>		</g>
		<g id="shape41-136" v:mID="41" v:groupContext="shape" transform="translate(88.374,-5.91929)">
			<title>0 to 1 - No Glitch.77</title>
			<path d="M0 119.57 L2.83 108.23 L36.85 108.23" class="st4"/>
		</g>
		<g id="shape42-139" v:mID="42" v:groupContext="shape" transform="translate(312.311,-5.91929)">
			<title>1 to 0 - No Glitch.78</title>
			<path d="M0 108.23 L2.83 119.57 L56.69 119.57" class="st4"/>
		</g>
		<g id="shape43-142" v:mID="43" v:groupContext="shape" transform="translate(147.902,-22.9272)">
			<title>0 to 1 - No Glitch.79</title>
			<path d="M0 119.57 L2.83 108.23 L73.7 108.23" class="st4"/>
		</g>
		<g id="shape44-145" v:mID="44" v:groupContext="shape" transform="translate(221.602,-22.9272)">
			<title>1 to 0 - No Glitch.80</title>
			<path d="M0 108.23 L2.83 119.57 L65.2 119.57" class="st4"/>
		</g>
		<g id="shape45-148" v:mID="45" v:groupContext="shape" transform="translate(286.799,-22.9272)">
			<title>0 to 1 - No Glitch.81</title>
			<path d="M0 119.57 L2.83 108.23 L59.53 108.23" class="st4"/>
		</g>
		<g id="shape46-151" v:mID="46" v:groupContext="shape" transform="translate(346.327,-22.9272)">
			<title>1 to 0 - No Glitch.82</title>
			<path d="M0 108.23 L2.83 119.57 L22.68 119.57" class="st4"/>
		</g>
		<g id="shape47-154" v:mID="47" v:groupContext="shape" transform="translate(125.224,-5.91929)">
			<title>1 to 0 - No Glitch.24</title>
			<path d="M0 108.23 L2.83 119.57 L87.87 119.57" class="st4"/>
		</g>
		<g id="shape48-157" v:mID="48" v:groupContext="shape" transform="translate(213.098,-5.91929)">
			<title>0 to 1 - No Glitch.25</title>
			<path d="M0 119.57 L2.83 108.23 L99.21 108.23" class="st4"/>
		</g>
		<g id="shape49-160" v:mID="49" v:groupContext="shape" transform="translate(216.444,11.6) rotate(90)">
			<title>Time division</title>
			<path d="M0 119.57 L107.72 119.57" class="st7"/>
		</g>
		<g id="shape50-163" v:mID="50" v:groupContext="shape" transform="translate(239.122,11.6) rotate(90)">
			<title>Time division.192</title>
			<path d="M0 119.57 L107.72 119.57" class="st7"/>
		</g>
		<g id="shape51-166" v:mID="51" v:groupContext="shape" transform="translate(261.799,11.6) rotate(90)">
			<title>Time division.193</title>
			<path d="M0 119.57 L107.72 119.57" class="st7"/>
		</g>
		<g id="shape52-169" v:mID="52" v:groupContext="shape" transform="translate(284.476,11.6) rotate(90)">
			<title>Time division.194</title>
			<path d="M0 119.57 L107.72 119.57" class="st7"/>
		</g>
		<g id="shape53-172" v:mID="53" v:groupContext="shape" transform="translate(307.153,11.6) rotate(90)">
			<title>Time division.195</title>
			<path d="M0 119.57 L107.72 119.57" class="st7"/>
		</g>
		<g id="shape54-175" v:mID="54" v:groupContext="shape" transform="translate(307.153,11.6) rotate(90)">
			<title>Time division.196</title>
			<path d="M0 119.57 L107.72 119.57" class="st7"/>
		</g>
		<g id="shape55-178" v:mID="55" v:groupContext="shape" transform="translate(329.83,11.6) rotate(90)">
			<title>Time division.197</title>
			<path d="M0 119.57 L107.72 119.57" class="st7"/>
		</g>
		<g id="shape56-181" v:mID="56" v:groupContext="shape" transform="translate(352.507,11.6) rotate(90)">
			<title>Time division.198</title>
			<path d="M0 119.57 L107.72 119.57" class="st7"/>
		</g>
		<g id="shape57-184" v:mID="57" v:groupContext="shape" transform="translate(352.507,11.6) rotate(90)">
			<title>Time division.199</title>
			<path d="M0 119.57 L107.72 119.57" class="st7"/>
		</g>
		<g id="shape58-187" v:mID="58" v:groupContext="shape" transform="translate(375.185,11.6) rotate(90)">
			<title>Time division.200</title>
			<path d="M0 119.57 L107.72 119.57" class="st7"/>
		</g>
		<g id="shape59-190" v:mID="59" v:groupContext="shape" transform="translate(397.862,11.6) rotate(90)">
			<title>Time division.201</title>
			<path d="M0 119.57 L107.72 119.57" class="st7"/>
		</g>
		<g id="shape60-193" v:mID="60" v:groupContext="shape" transform="translate(420.539,11.6) rotate(90)">
			<title>Time division.202</title>
			<path d="M0 119.57 L107.72 119.57" class="st7"/>
		</g>
		<g id="shape61-196" v:mID="61" v:groupContext="shape" transform="translate(443.216,11.6) rotate(90)">
			<title>Time division.203</title>
			<path d="M0 119.57 L107.72 119.57" class="st7"/>
		</g>
		<g id="shape62-199" v:mID="62" v:groupContext="shape" transform="translate(465.893,11.6) rotate(90)">
			<title>Time division.204</title>
			<path d="M0 119.57 L107.72 119.57" class="st7"/>
		</g>
		<g id="shape63-202" v:mID="63" v:groupContext="shape" transform="translate(193.767,11.6) rotate(90)">
			<title>Time division.205</title>
			<path d="M0 119.57 L107.72 119.57" class="st7"/>
		</g>
		<g id="shape64-205" v:mID="64" v:groupContext="shape" transform="translate(488.57,11.6) rotate(90)">
			<title>Time division.207</title>
			<path d="M0 119.57 L107.72 119.57" class="st7"/>
		</g>
		<g id="shape40-208" v:mID="40" v:groupContext="shape" transform="translate(88.374,233.214) rotate(180)">
			<title>Sheet.40</title>
			<path d="M0 119.57 L14.17 119.57" class="st4"/>
		</g>
	</g>
</svg>
