<?xml version="1.0" encoding="UTF-8" standalone="no"?>
<!DOCTYPE svg PUBLIC "-//W3C//DTD SVG 1.0//EN" "http://www.w3.org/TR/2001/REC-SVG-20010904/DTD/svg10.dtd">
<!-- Generated by Microsoft Visio 11.0, SVG Export, v1.0 fpscr_bit_assignments.svg Page-1 -->
<svg xmlns="http://www.w3.org/2000/svg" xmlns:v="http://schemas.microsoft.com/visio/2003/SVGExtensions/" width="5.44418in"
		height="1.53891in" viewBox="0 0 391.981 110.801" xml:space="preserve" color-interpolation-filters="sRGB" class="st8">
	<v:documentProperties v:langID="1033" v:metric="true" v:viewMarkup="false"/>

	<style type="text/css">
	<![CDATA[
		.st1 {fill:none;stroke:none;stroke-linecap:round;stroke-linejoin:round;stroke-width:0.0169691}
		.st2 {fill:#000000;font-family:Arial;font-size:0.666664em}
		.st3 {stroke:#000000;stroke-linecap:butt;stroke-width:0.8}
		.st4 {stroke:#000000;stroke-dasharray:0.25,0.5;stroke-linecap:butt;stroke-width:0.25}
		.st5 {stroke:#000000;stroke-linecap:butt;stroke-width:0.5}
		.st6 {fill:#000000;font-family:Arial;font-size:0.533318em}
		.st7 {font-size:1.25003em}
		.st8 {fill:none;fill-rule:evenodd;font-size:12;overflow:visible;stroke-linecap:square;stroke-miterlimit:3}
	]]>
	</style>

	<g v:mID="0" v:index="1" v:groupContext="foregroundPage">
		<title>Page-1</title>
		<v:pageProperties v:drawingScale="0.0393701" v:pageScale="0.0393701" v:drawingUnits="24" v:shadowOffsetX="8.50394"
				v:shadowOffsetY="-8.50394"/>
		<g id="shape1-1" v:mID="1" v:groupContext="shape" transform="translate(0.8,-70.8661)">
			<title>Sheet.1</title>
			<desc>N</desc>
			<v:textBlock v:margins="rect(1,1,1,1)" v:tabSpace="42.5197"/>
			<v:textRect cx="5.66929" cy="96.628" width="11.34" height="28.3465"/>
			<rect x="0" y="82.4547" width="11.3386" height="28.3465" class="st1"/>
			<text x="2.78" y="99.03" class="st2" v:langID="1033"><v:paragraph v:horizAlign="1"/><v:tabList/>N</text>		</g>
		<g id="shape2-4" v:mID="2" v:groupContext="shape" transform="translate(12.1386,-99.2126)">
			<title>Sheet.2</title>
			<desc>30</desc>
			<v:textBlock v:margins="rect(0,0,0,0)" v:tabSpace="42.5197"/>
			<v:textRect cx="5.66929" cy="105.132" width="11.34" height="11.3386"/>
			<text x="1.22" y="107.53" class="st2" v:langID="1033"><v:paragraph v:horizAlign="1"/><v:tabList/>30</text>		</g>
		<g id="shape3-6" v:mID="3" v:groupContext="shape" transform="translate(23.4772,-99.2126)">
			<title>Sheet.3</title>
			<desc>29</desc>
			<v:textBlock v:margins="rect(0,0,0,0)" v:tabSpace="42.5197"/>
			<v:textRect cx="5.66929" cy="105.132" width="11.34" height="11.3386"/>
			<text x="1.22" y="107.53" class="st2" v:langID="1033"><v:paragraph v:horizAlign="1"/><v:tabList/>29</text>		</g>
		<g id="shape4-8" v:mID="4" v:groupContext="shape" transform="translate(34.8157,-99.2126)">
			<title>Sheet.4</title>
			<desc>28</desc>
			<v:textBlock v:margins="rect(0,0,0,0)" v:tabSpace="42.5197"/>
			<v:textRect cx="5.66929" cy="105.132" width="11.34" height="11.3386"/>
			<text x="1.22" y="107.53" class="st2" v:langID="1033"><v:paragraph v:horizAlign="1"/><v:tabList/>28</text>		</g>
		<g id="shape5-10" v:mID="5" v:groupContext="shape" transform="translate(284.265,-99.2126)">
			<title>Sheet.5</title>
			<desc>6</desc>
			<v:textBlock v:margins="rect(0,0,0,0)" v:tabSpace="42.5197"/>
			<v:textRect cx="5.66929" cy="105.132" width="11.34" height="11.3386"/>
			<text x="3.44" y="107.53" class="st2" v:langID="1033"><v:paragraph v:horizAlign="1"/><v:tabList/>6</text>		</g>
		<g id="shape6-12" v:mID="6" v:groupContext="shape" transform="translate(295.603,-99.2126)">
			<title>Sheet.6</title>
			<desc>5</desc>
			<v:textBlock v:margins="rect(0,0,0,0)" v:tabSpace="42.5197"/>
			<v:textRect cx="5.66929" cy="105.132" width="11.34" height="11.3386"/>
			<text x="3.44" y="107.53" class="st2" v:langID="1033"><v:paragraph v:horizAlign="1"/><v:tabList/>5</text>		</g>
		<g id="shape7-14" v:mID="7" v:groupContext="shape" transform="translate(306.942,-99.2126)">
			<title>Sheet.7</title>
			<desc>4</desc>
			<v:textBlock v:margins="rect(0,0,0,0)" v:tabSpace="42.5197"/>
			<v:textRect cx="5.66929" cy="105.132" width="11.34" height="11.3386"/>
			<text x="3.44" y="107.53" class="st2" v:langID="1033"><v:paragraph v:horizAlign="1"/><v:tabList/>4</text>		</g>
		<g id="shape8-16" v:mID="8" v:groupContext="shape" transform="translate(318.28,-99.2126)">
			<title>Sheet.8</title>
			<desc>3</desc>
			<v:textBlock v:margins="rect(0,0,0,0)" v:tabSpace="42.5197"/>
			<v:textRect cx="5.66929" cy="105.132" width="11.34" height="11.3386"/>
			<text x="3.44" y="107.53" class="st2" v:langID="1033"><v:paragraph v:horizAlign="1"/><v:tabList/>3</text>		</g>
		<g id="shape9-18" v:mID="9" v:groupContext="shape" transform="translate(329.619,-99.2126)">
			<title>Sheet.9</title>
			<desc>2</desc>
			<v:textBlock v:margins="rect(0,0,0,0)" v:tabSpace="42.5197"/>
			<v:textRect cx="5.66929" cy="105.132" width="11.34" height="11.3386"/>
			<text x="3.44" y="107.53" class="st2" v:langID="1033"><v:paragraph v:horizAlign="1"/><v:tabList/>2</text>		</g>
		<g id="shape10-20" v:mID="10" v:groupContext="shape" transform="translate(340.957,-99.2126)">
			<title>Sheet.10</title>
			<desc>1</desc>
			<v:textBlock v:margins="rect(0,0,0,0)" v:tabSpace="42.5197"/>
			<v:textRect cx="5.66929" cy="105.132" width="11.34" height="11.3386"/>
			<text x="3.44" y="107.53" class="st2" v:langID="1033"><v:paragraph v:horizAlign="1"/><v:tabList/>1</text>		</g>
		<g id="shape11-22" v:mID="11" v:groupContext="shape" transform="translate(12.1386,-70.8661)">
			<title>Sheet.11</title>
			<desc>Z</desc>
			<v:textBlock v:margins="rect(1,1,1,1)" v:tabSpace="42.5197"/>
			<v:textRect cx="5.66929" cy="96.628" width="11.34" height="28.3465"/>
			<rect x="0" y="82.4547" width="11.3386" height="28.3465" class="st1"/>
			<text x="3.23" y="99.03" class="st2" v:langID="1033"><v:paragraph v:horizAlign="1"/><v:tabList/>Z</text>		</g>
		<g id="shape12-25" v:mID="12" v:groupContext="shape" transform="translate(23.4772,-70.8661)">
			<title>Sheet.12</title>
			<desc>C</desc>
			<v:textBlock v:margins="rect(1,1,1,1)" v:tabSpace="42.5197"/>
			<v:textRect cx="5.66929" cy="96.628" width="11.34" height="28.3465"/>
			<rect x="0" y="82.4547" width="11.3386" height="28.3465" class="st1"/>
			<text x="2.78" y="99.03" class="st2" v:langID="1033"><v:paragraph v:horizAlign="1"/><v:tabList/>C</text>		</g>
		<g id="shape13-28" v:mID="13" v:groupContext="shape" transform="translate(34.8157,-70.8661)">
			<title>Sheet.13</title>
			<desc>V</desc>
			<v:textBlock v:margins="rect(1,1,1,1)" v:tabSpace="42.5197"/>
			<v:textRect cx="5.66929" cy="96.628" width="11.34" height="28.3465"/>
			<rect x="0" y="82.4547" width="11.3386" height="28.3465" class="st1"/>
			<text x="3" y="99.03" class="st2" v:langID="1033"><v:paragraph v:horizAlign="1"/><v:tabList/>V</text>		</g>
		<g id="shape14-31" v:mID="14" v:groupContext="shape" transform="translate(12.1386,-70.8661)">
			<title>Sheet.14</title>
			<path d="M0 82.45 L0 110.8" class="st3"/>
		</g>
		<g id="shape15-34" v:mID="15" v:groupContext="shape" transform="translate(23.4772,-70.8661)">
			<title>Sheet.15</title>
			<path d="M0 82.45 L0 110.8" class="st3"/>
		</g>
		<g id="shape16-37" v:mID="16" v:groupContext="shape" transform="translate(34.8157,-70.8661)">
			<title>Sheet.16</title>
			<path d="M0 82.45 L0 110.8" class="st3"/>
		</g>
		<g id="shape17-40" v:mID="17" v:groupContext="shape" transform="translate(46.1543,-70.8661)">
			<title>Sheet.17</title>
			<path d="M0 82.45 L0 110.8" class="st3"/>
		</g>
		<g id="shape18-43" v:mID="18" v:groupContext="shape" transform="translate(318.28,-70.8661)">
			<title>Sheet.18</title>
			<path d="M0 82.45 L0 110.8" class="st3"/>
		</g>
		<g id="shape19-46" v:mID="19" v:groupContext="shape" transform="translate(329.619,-70.8661)">
			<title>Sheet.19</title>
			<path d="M0 82.45 L0 110.8" class="st3"/>
		</g>
		<g id="shape20-49" v:mID="20" v:groupContext="shape" transform="translate(340.957,-70.8661)">
			<title>Sheet.20</title>
			<path d="M0 82.45 L0 110.8" class="st3"/>
		</g>
		<g id="shape21-52" v:mID="21" v:groupContext="shape" transform="translate(352.296,-70.8661)">
			<title>Sheet.21</title>
			<path d="M0 82.45 L0 110.8" class="st3"/>
		</g>
		<g id="shape22-55" v:mID="22" v:groupContext="shape" transform="translate(429.081,0.25) rotate(90)">
			<title>Signal 0</title>
			<path d="M0 110.8 L11.34 110.8" class="st4"/>
		</g>
		<g id="shape23-58" v:mID="23" v:groupContext="shape" transform="translate(363.635,-70.8661) scale(-1,1)">
			<title>64-bit register.156</title>
			<path d="M0 82.45 L362.83 82.45 L362.83 110.8 L0 110.8" class="st3"/>
		</g>
		<g id="shape24-61" v:mID="24" v:groupContext="shape" transform="translate(111.601,0.25) rotate(90)">
			<title>64-bit register.169</title>
			<path d="M0 110.8 L11.34 110.8" class="st4"/>
		</g>
		<g id="shape25-64" v:mID="25" v:groupContext="shape" transform="translate(363.635,-70.8661)">
			<title>64-bit register.157</title>
			<path d="M0 82.45 L0 110.8" class="st3"/>
		</g>
		<g id="shape26-67" v:mID="26" v:groupContext="shape" transform="translate(148.202,-70.8661)">
			<title>64-bit register.39</title>
			<path d="M0 82.45 L0 110.8" class="st3"/>
		</g>
		<g id="shape27-70" v:mID="27" v:groupContext="shape" transform="translate(272.926,-70.8661)">
			<title>64-bit register.42</title>
			<path d="M0 82.45 L0 110.8" class="st3"/>
		</g>
		<g id="shape28-73" v:mID="28" v:groupContext="shape" transform="translate(156.956,0.25) rotate(90)">
			<title>64-bit register.11</title>
			<path d="M0 110.8 L11.34 110.8" class="st4"/>
		</g>
		<g id="shape29-76" v:mID="29" v:groupContext="shape" transform="translate(202.31,0.25) rotate(90)">
			<title>64-bit register.12</title>
			<path d="M0 110.8 L11.34 110.8" class="st4"/>
		</g>
		<g id="shape30-79" v:mID="30" v:groupContext="shape" transform="translate(247.664,0.25) rotate(90)">
			<title>64-bit register.13</title>
			<path d="M0 110.8 L11.34 110.8" class="st4"/>
		</g>
		<g id="shape31-82" v:mID="31" v:groupContext="shape" transform="translate(293.019,0.25) rotate(90)">
			<title>64-bit register.14</title>
			<path d="M0 110.8 L11.34 110.8" class="st4"/>
		</g>
		<g id="shape32-85" v:mID="32" v:groupContext="shape" transform="translate(338.373,0.25) rotate(90)">
			<title>64-bit register.15</title>
			<path d="M0 110.8 L11.34 110.8" class="st4"/>
		</g>
		<g id="shape33-88" v:mID="33" v:groupContext="shape" transform="translate(429.081,0.25) rotate(90)">
			<title>64-bit register.16</title>
			<path d="M0 110.8 L11.34 110.8" class="st4"/>
		</g>
		<g id="shape34-91" v:mID="34" v:groupContext="shape" transform="translate(474.436,0.25) rotate(90)">
			<title>64-bit register.17</title>
			<path d="M0 110.8 L11.34 110.8" class="st4"/>
		</g>
		<g id="shape35-94" v:mID="35" v:groupContext="shape" transform="translate(0.8,-99.2126)">
			<title>64-bit register.179</title>
			<desc>31</desc>
			<v:textBlock v:margins="rect(0,0,0,0)" v:tabSpace="42.5197"/>
			<v:textRect cx="5.66929" cy="105.132" width="11.34" height="11.3386"/>
			<text x="1.22" y="107.53" class="st2" v:langID="1033"><v:paragraph v:horizAlign="1"/><v:tabList/>31</text>		</g>
		<g id="shape36-96" v:mID="36" v:groupContext="shape" transform="translate(352.296,-99.2126)">
			<title>64-bit register.19</title>
			<desc>0</desc>
			<v:textBlock v:margins="rect(0,0,0,0)" v:tabSpace="42.5197"/>
			<v:textRect cx="5.66929" cy="105.132" width="11.34" height="11.3386"/>
			<text x="3.44" y="107.53" class="st2" v:langID="1033"><v:paragraph v:horizAlign="1"/><v:tabList/>0</text>		</g>
		<g id="shape37-98" v:mID="37" v:groupContext="shape" transform="translate(383.727,0.25) rotate(90)">
			<title>64-bit register.21</title>
			<path d="M0 110.8 L11.34 110.8" class="st4"/>
		</g>
		<g id="shape38-101" v:mID="38" v:groupContext="shape" transform="translate(261.587,-99.2126)">
			<title>64-bit register.26</title>
			<desc>8</desc>
			<v:textBlock v:margins="rect(0,0,0,0)" v:tabSpace="42.5197"/>
			<v:textRect cx="5.66929" cy="105.132" width="11.34" height="11.3386"/>
			<text x="3.44" y="107.53" class="st2" v:langID="1033"><v:paragraph v:horizAlign="1"/><v:tabList/>8</text>		</g>
		<g id="shape39-103" v:mID="39" v:groupContext="shape" transform="translate(272.926,-99.2126)">
			<title>64-bit register.27</title>
			<desc>7</desc>
			<v:textBlock v:margins="rect(0,0,0,0)" v:tabSpace="42.5197"/>
			<v:textRect cx="5.66929" cy="105.132" width="11.34" height="11.3386"/>
			<text x="3.44" y="107.53" class="st2" v:langID="1033"><v:paragraph v:horizAlign="1"/><v:tabList/>7</text>		</g>
		<g id="shape40-105" v:mID="40" v:groupContext="shape" transform="translate(170.879,-99.2126)">
			<title>64-bit register.28</title>
			<desc>16</desc>
			<v:textBlock v:margins="rect(0,0,0,0)" v:tabSpace="42.5197"/>
			<v:textRect cx="5.66929" cy="105.132" width="11.34" height="11.3386"/>
			<text x="1.22" y="107.53" class="st2" v:langID="1033"><v:paragraph v:horizAlign="1"/><v:tabList/>16</text>		</g>
		<g id="shape41-107" v:mID="41" v:groupContext="shape" transform="translate(182.217,-99.2126)">
			<title>64-bit register.29</title>
			<desc>15</desc>
			<v:textBlock v:margins="rect(0,0,0,0)" v:tabSpace="42.5197"/>
			<v:textRect cx="5.66929" cy="105.132" width="11.34" height="11.3386"/>
			<text x="1.22" y="107.53" class="st2" v:langID="1033"><v:paragraph v:horizAlign="1"/><v:tabList/>15</text>		</g>
		<g id="shape47-109" v:mID="47" v:groupContext="shape" transform="translate(182.217,-70.8661)">
			<title>64-bit register.55</title>
			<path d="M0 82.45 L0 110.8" class="st3"/>
		</g>
		<g id="shape48-112" v:mID="48" v:groupContext="shape" transform="translate(57.4929,-70.8661)">
			<title>64-bit register.74</title>
			<path d="M0 82.45 L0 110.8" class="st3"/>
		</g>
		<g id="shape49-115" v:mID="49" v:groupContext="shape" transform="translate(68.8315,-70.8661)">
			<title>64-bit register.75</title>
			<path d="M0 82.45 L0 110.8" class="st3"/>
		</g>
		<g id="shape50-118" v:mID="50" v:groupContext="shape" transform="translate(46.1543,-99.2126)">
			<title>64-bit register.76</title>
			<desc>27</desc>
			<v:textBlock v:margins="rect(0,0,0,0)" v:tabSpace="42.5197"/>
			<v:textRect cx="5.66929" cy="105.132" width="11.34" height="11.3386"/>
			<text x="1.22" y="107.53" class="st2" v:langID="1033"><v:paragraph v:horizAlign="1"/><v:tabList/>27</text>		</g>
		<g id="shape51-120" v:mID="51" v:groupContext="shape" transform="translate(57.4929,-99.2126)">
			<title>64-bit register.77</title>
			<desc>26</desc>
			<v:textBlock v:margins="rect(0,0,0,0)" v:tabSpace="42.5197"/>
			<v:textRect cx="5.66929" cy="105.132" width="11.34" height="11.3386"/>
			<text x="1.22" y="107.53" class="st2" v:langID="1033"><v:paragraph v:horizAlign="1"/><v:tabList/>26</text>		</g>
		<g id="shape52-122" v:mID="52" v:groupContext="shape" transform="translate(80.1701,-70.8661)">
			<title>64-bit register.78</title>
			<path d="M0 82.45 L0 110.8" class="st3"/>
		</g>
		<g id="shape53-125" v:mID="53" v:groupContext="shape" transform="translate(91.5087,-70.8661)">
			<title>64-bit register.79</title>
			<path d="M0 82.45 L0 110.8" class="st3"/>
		</g>
		<g id="shape54-128" v:mID="54" v:groupContext="shape" transform="translate(68.8315,-99.2126)">
			<title>64-bit register.80</title>
			<desc>25</desc>
			<v:textBlock v:margins="rect(0,0,0,0)" v:tabSpace="42.5197"/>
			<v:textRect cx="5.66929" cy="105.132" width="11.34" height="11.3386"/>
			<text x="1.22" y="107.53" class="st2" v:langID="1033"><v:paragraph v:horizAlign="1"/><v:tabList/>25</text>		</g>
		<g id="shape55-130" v:mID="55" v:groupContext="shape" transform="translate(80.1701,-99.2126)">
			<title>64-bit register.81</title>
			<desc>24</desc>
			<v:textBlock v:margins="rect(0,0,0,0)" v:tabSpace="42.5197"/>
			<v:textRect cx="5.66929" cy="105.132" width="11.34" height="11.3386"/>
			<text x="1.22" y="107.53" class="st2" v:langID="1033"><v:paragraph v:horizAlign="1"/><v:tabList/>24</text>		</g>
		<g id="shape56-132" v:mID="56" v:groupContext="shape" transform="translate(114.186,-70.8661)">
			<title>64-bit register.82</title>
			<path d="M0 82.45 L0 110.8" class="st3"/>
		</g>
		<g id="shape57-135" v:mID="57" v:groupContext="shape" transform="translate(136.863,-70.8661)">
			<title>64-bit register.83</title>
			<path d="M0 82.45 L0 110.8" class="st3"/>
		</g>
		<g id="shape58-138" v:mID="58" v:groupContext="shape" transform="translate(91.5087,-99.2126)">
			<title>64-bit register.84</title>
			<desc>23</desc>
			<v:textBlock v:margins="rect(0,0,0,0)" v:tabSpace="42.5197"/>
			<v:textRect cx="5.66929" cy="105.132" width="11.34" height="11.3386"/>
			<text x="1.22" y="107.53" class="st2" v:langID="1033"><v:paragraph v:horizAlign="1"/><v:tabList/>23</text>		</g>
		<g id="shape59-140" v:mID="59" v:groupContext="shape" transform="translate(102.847,-99.2126)">
			<title>64-bit register.85</title>
			<desc>22</desc>
			<v:textBlock v:margins="rect(0,0,0,0)" v:tabSpace="42.5197"/>
			<v:textRect cx="5.66929" cy="105.132" width="11.34" height="11.3386"/>
			<text x="1.22" y="107.53" class="st2" v:langID="1033"><v:paragraph v:horizAlign="1"/><v:tabList/>22</text>		</g>
		<g id="shape60-142" v:mID="60" v:groupContext="shape" transform="translate(114.186,-99.2126)">
			<title>64-bit register.86</title>
			<desc>21</desc>
			<v:textBlock v:margins="rect(0,0,0,0)" v:tabSpace="42.5197"/>
			<v:textRect cx="5.66929" cy="105.132" width="11.34" height="11.3386"/>
			<text x="1.22" y="107.53" class="st2" v:langID="1033"><v:paragraph v:horizAlign="1"/><v:tabList/>21</text>		</g>
		<g id="shape61-144" v:mID="61" v:groupContext="shape" transform="translate(125.524,-99.2126)">
			<title>64-bit register.87</title>
			<desc>20</desc>
			<v:textBlock v:margins="rect(0,0,0,0)" v:tabSpace="42.5197"/>
			<v:textRect cx="5.66929" cy="105.132" width="11.34" height="11.3386"/>
			<text x="1.22" y="107.53" class="st2" v:langID="1033"><v:paragraph v:horizAlign="1"/><v:tabList/>20</text>		</g>
		<g id="shape62-146" v:mID="62" v:groupContext="shape" transform="translate(136.863,-99.2126)">
			<title>Sheet.62</title>
			<desc>19</desc>
			<v:textBlock v:margins="rect(0,0,0,0)" v:tabSpace="42.5197"/>
			<v:textRect cx="5.66929" cy="105.132" width="11.34" height="11.3386"/>
			<text x="1.22" y="107.53" class="st2" v:langID="1033"><v:paragraph v:horizAlign="1"/><v:tabList/>19</text>		</g>
		<g id="shape63-148" v:mID="63" v:groupContext="shape" transform="translate(148.202,-99.2126)">
			<title>64-bit register.89</title>
			<desc>18</desc>
			<v:textBlock v:margins="rect(0,0,0,0)" v:tabSpace="42.5197"/>
			<v:textRect cx="5.66929" cy="105.132" width="11.34" height="11.3386"/>
			<text x="1.22" y="107.53" class="st2" v:langID="1033"><v:paragraph v:horizAlign="1"/><v:tabList/>18</text>		</g>
		<g id="shape71-150" v:mID="71" v:groupContext="shape" transform="translate(148.202,-70.8661)">
			<title>64-bit register.116</title>
			<desc>Len</desc>
			<v:textBlock v:margins="rect(1,0,1,0)" v:tabSpace="42.5197"/>
			<v:textRect cx="17.0079" cy="96.628" width="34.02" height="28.3465"/>
			<rect x="0" y="82.4547" width="34.0157" height="28.3465" class="st1"/>
			<text x="10.33" y="99.03" class="st2" v:langID="1033"><v:paragraph v:horizAlign="1"/><v:tabList/>Len</text>		</g>
		<g id="shape72-153" v:mID="72" v:groupContext="shape" transform="translate(40.485,-51.0236)">
			<title>Bit name 1</title>
			<desc>AHP</desc>
			<v:textBlock v:margins="rect(1,1,1,0)" v:tabSpace="42.5197"/>
			<v:textRect cx="-9.92126" cy="110.801" width="19.85" height="11.3386"/>
			<path d="M22.68 93.79 L22.68 110.8 L0 110.8" class="st5"/>
			<text x="-17.45" y="113.2" class="st2" v:langID="2057"><v:paragraph v:horizAlign="2"/><v:tabList/>AHP</text>		</g>
		<g id="shape73-157" v:mID="73" v:groupContext="shape" transform="translate(40.485,-39.685)">
			<title>Bit name 1.56</title>
			<desc>DN</desc>
			<v:textBlock v:margins="rect(1,1,1,0)" v:tabSpace="42.5197"/>
			<v:textRect cx="-7.08661" cy="110.801" width="14.18" height="11.3386"/>
			<path d="M34.02 82.45 L34.02 110.8 L0 110.8" class="st5"/>
			<text x="-12.55" y="113.2" class="st2" v:langID="2057"><v:paragraph v:horizAlign="2"/><v:tabList/>DN</text>		</g>
		<g id="shape74-161" v:mID="74" v:groupContext="shape" transform="translate(40.485,-28.3465)">
			<title>Bit name 1.57</title>
			<desc>FZ</desc>
			<v:textBlock v:margins="rect(1,1,1,0)" v:tabSpace="42.5197"/>
			<v:textRect cx="-5.66929" cy="110.801" width="11.34" height="11.3386"/>
			<path d="M45.35 71.12 L45.35 110.8 L0 110.8" class="st5"/>
			<text x="-10.77" y="113.2" class="st2" v:langID="2057"><v:paragraph v:horizAlign="2"/><v:tabList/>FZ</text>		</g>
		<g id="shape75-165" v:mID="75" v:groupContext="shape" transform="translate(40.485,-17.0079)">
			<title>Bit name 1.58</title>
			<desc>RMode</desc>
			<v:textBlock v:margins="rect(1,1,1,0)" v:tabSpace="42.5197"/>
			<v:textRect cx="-14.1732" cy="110.801" width="28.35" height="11.3386"/>
			<path d="M62.36 59.78 L62.36 110.8 L0 110.8" class="st5"/>
			<text x="-26.79" y="113.2" class="st2" v:langID="2057"><v:paragraph v:horizAlign="2"/><v:tabList/>RMode</text>		</g>
		<g id="shape76-169" v:mID="76" v:groupContext="shape" transform="translate(40.485,-5.66929)">
			<title>Bit name 1.41</title>
			<desc>Stride</desc>
			<v:textBlock v:margins="rect(1,1,1,0)" v:tabSpace="42.5197"/>
			<v:textRect cx="-11.3386" cy="110.801" width="22.68" height="11.3386"/>
			<path d="M85.04 48.44 L85.04 110.8 L0 110.8" class="st5"/>
			<text x="-21.9" y="113.2" class="st2" v:langID="2057"><v:paragraph v:horizAlign="2"/><v:tabList/>Stride</text>		</g>
		<g id="shape78-173" v:mID="78" v:groupContext="shape" transform="translate(182.217,-70.8661)">
			<title>64-bit register.43</title>
			<desc>res0</desc>
			<v:textBlock v:margins="rect(1,0,1,0)" v:tabSpace="42.5197"/>
			<v:textRect cx="45.3543" cy="96.628" width="90.71" height="28.3465"/>
			<rect x="0" y="82.4547" width="90.7087" height="28.3465" class="st1"/>
			<text x="36.55" y="99.03" class="st6" v:langID="2057"><v:paragraph v:horizAlign="1"/><v:tabList/>RES<tspan class="st7">0</tspan></text>		</g>
		<g id="shape85-177" v:mID="85" v:groupContext="shape" transform="translate(284.265,-70.8661)">
			<title>64-bit register.35</title>
			<desc>res0</desc>
			<v:textBlock v:margins="rect(1,0,1,0)" v:tabSpace="42.5197"/>
			<v:textRect cx="11.3386" cy="96.628" width="22.68" height="28.3465"/>
			<rect x="0" y="82.4547" width="22.6772" height="28.3465" class="st1"/>
			<text x="2.53" y="99.03" class="st6" v:langID="2057"><v:paragraph v:horizAlign="1"/><v:tabList/>RES<tspan class="st7">0</tspan></text>		</g>
		<g id="shape86-181" v:mID="86" v:groupContext="shape" transform="translate(40.485,-62.3622)">
			<title>Bit name 1.15</title>
			<desc>QC</desc>
			<v:textBlock v:margins="rect(1,1,1,0)" v:tabSpace="42.5197"/>
			<v:textRect cx="-7.08661" cy="110.801" width="14.18" height="11.3386"/>
			<path d="M11.34 105.13 L11.34 110.8 L0 110.8" class="st5"/>
			<text x="-13" y="113.2" class="st2" v:langID="2057"><v:paragraph v:horizAlign="2"/><v:tabList/>QC</text>		</g>
		<g id="shape87-185" v:mID="87" v:groupContext="shape" transform="translate(284.265,-70.8661)">
			<title>64-bit register.1</title>
			<path d="M0 82.45 L0 110.8" class="st3"/>
		</g>
		<g id="shape88-188" v:mID="88" v:groupContext="shape" transform="translate(306.942,-70.8661)">
			<title>64-bit register.2</title>
			<path d="M0 82.45 L0 110.8" class="st3"/>
		</g>
		<g id="shape89-191" v:mID="89" v:groupContext="shape" transform="translate(369.304,-62.3622) scale(-1,1)">
			<title>Bit name 1.3</title>
			<desc>IOC</desc>
			<v:textBlock v:margins="rect(1,1,1,1)" v:tabSpace="42.5197"/>
			<v:textRect cx="-9.92126" cy="110.801" width="19.85" height="11.3386"/>
			<path d="M11.34 105.13 L11.34 110.8 L0 110.8" class="st5"/>
			<text x="1" y="113.2" transform="scale(-1,1)" class="st2" v:langID="2057"><v:paragraph/><v:tabList/>IOC</text>		</g>
		<g id="shape90-195" v:mID="90" v:groupContext="shape" transform="translate(369.304,-51.0236) scale(-1,1)">
			<title>Bit name 1.4</title>
			<desc>DZC</desc>
			<v:textBlock v:margins="rect(1,1,1,1)" v:tabSpace="42.5197"/>
			<v:textRect cx="-9.92126" cy="110.801" width="19.85" height="11.3386"/>
			<path d="M22.68 93.79 L22.68 110.8 L0 110.8" class="st5"/>
			<text x="1" y="113.2" transform="scale(-1,1)" class="st2" v:langID="2057"><v:paragraph/><v:tabList/>DZC</text>		</g>
		<g id="shape91-199" v:mID="91" v:groupContext="shape" transform="translate(369.304,-39.685) scale(-1,1)">
			<title>Bit name 1.5</title>
			<desc>OFC</desc>
			<v:textBlock v:margins="rect(1,1,1,1)" v:tabSpace="42.5197"/>
			<v:textRect cx="-11.3386" cy="110.801" width="22.68" height="11.3386"/>
			<path d="M34.02 82.45 L34.02 110.8 L0 110.8" class="st5"/>
			<text x="1" y="113.2" transform="scale(-1,1)" class="st2" v:langID="2057"><v:paragraph/><v:tabList/>OFC</text>		</g>
		<g id="shape92-203" v:mID="92" v:groupContext="shape" transform="translate(369.304,-28.3465) scale(-1,1)">
			<title>Bit name 1.6</title>
			<desc>UFC</desc>
			<v:textBlock v:margins="rect(1,1,1,1)" v:tabSpace="42.5197"/>
			<v:textRect cx="-9.92126" cy="110.801" width="19.85" height="11.3386"/>
			<path d="M45.35 71.12 L45.35 110.8 L0 110.8" class="st5"/>
			<text x="1" y="113.2" transform="scale(-1,1)" class="st2" v:langID="2057"><v:paragraph/><v:tabList/>UFC</text>		</g>
		<g id="shape93-207" v:mID="93" v:groupContext="shape" transform="translate(369.304,-17.0079) scale(-1,1)">
			<title>Bit name 1.7</title>
			<desc>IXC</desc>
			<v:textBlock v:margins="rect(1,1,1,1)" v:tabSpace="42.5197"/>
			<v:textRect cx="-8.50394" cy="110.801" width="17.01" height="11.3386"/>
			<path d="M56.69 59.78 L56.69 110.8 L0 110.8" class="st5"/>
			<text x="1" y="113.2" transform="scale(-1,1)" class="st2" v:langID="2057"><v:paragraph/><v:tabList/>IXC</text>		</g>
		<g id="shape94-211" v:mID="94" v:groupContext="shape" transform="translate(289.934,-62.3622) scale(-1,1)">
			<title>Bit name 1.94</title>
			<desc>IDC</desc>
			<v:textBlock v:margins="rect(1,1,1,1)" v:tabSpace="42.5197"/>
			<v:textRect cx="-9.92126" cy="110.801" width="19.85" height="11.3386"/>
			<path d="M11.34 105.13 L11.34 110.8 L0 110.8" class="st5"/>
			<text x="1" y="113.2" transform="scale(-1,1)" class="st2" v:langID="2057"><v:paragraph/><v:tabList/>IDC</text>		</g>
		<g id="shape95-215" v:mID="95" v:groupContext="shape" transform="translate(153.871,-62.3622) scale(-1,1)">
			<title>Bit name 1.95</title>
			<desc>res0</desc>
			<v:textBlock v:margins="rect(1,1,1,1)" v:tabSpace="42.5197"/>
			<v:textRect cx="-11.3386" cy="110.801" width="22.68" height="11.3386"/>
			<path d="M11.34 105.13 L11.34 110.8 L0 110.8" class="st5"/>
			<text x="1" y="113.2" transform="scale(-1,1)" class="st6" v:langID="2057"><v:paragraph/><v:tabList/>RES<tspan
						class="st7">0</tspan></text>		</g>
	</g>
</svg>
