<?xml version="1.0" encoding="UTF-8" standalone="no"?>
<!DOCTYPE svg PUBLIC "-//W3C//DTD SVG 1.0//EN" "http://www.w3.org/TR/2001/REC-SVG-20010904/DTD/svg10.dtd">
<!-- Generated by Microsoft Visio 11.0, SVG Export, v1.0 hcptr_bit_assignments.svg Page-1 -->
<svg xmlns="http://www.w3.org/2000/svg" xmlns:v="http://schemas.microsoft.com/visio/2003/SVGExtensions/" width="5.06159in"
		height="0.908984in" viewBox="0 0 364.435 65.4469" xml:space="preserve" color-interpolation-filters="sRGB" class="st9">
	<v:documentProperties v:langID="1033" v:metric="true" v:viewMarkup="false"/>

	<style type="text/css">
	<![CDATA[
		.st1 {fill:none;stroke:none;stroke-linecap:round;stroke-linejoin:round;stroke-width:0.0169691}
		.st2 {fill:#000000;font-family:Arial;font-size:0.666664em}
		.st3 {fill:#000000;font-family:Arial;font-size:0.533318em}
		.st4 {font-size:1.25003em}
		.st5 {fill:none;visibility:hidden}
		.st6 {stroke:#000000;stroke-linecap:butt;stroke-width:0.8}
		.st7 {stroke:#000000;stroke-dasharray:0.25,0.5;stroke-linecap:butt;stroke-width:0.25}
		.st8 {stroke:#000000;stroke-linecap:butt;stroke-width:0.5}
		.st9 {fill:none;fill-rule:evenodd;font-size:12;overflow:visible;stroke-linecap:square;stroke-miterlimit:3}
	]]>
	</style>

	<g v:mID="0" v:index="1" v:groupContext="foregroundPage">
		<title>Page-1</title>
		<v:pageProperties v:drawingScale="0.0393701" v:pageScale="0.0393701" v:drawingUnits="24" v:shadowOffsetX="0"
				v:shadowOffsetY="0" v:shadowType="1" v:shadowScale="0"/>
		<g id="shape1-1" v:mID="1" v:groupContext="shape" transform="translate(0.8,-25.5118)">
			<title>Sheet.1</title>
			<rect x="0" y="37.1004" width="11.3386" height="28.3465" class="st1"/>
		</g>
		<g id="shape2-3" v:mID="2" v:groupContext="shape" transform="translate(0.8,-53.8583)">
			<title>Sheet.2</title>
			<desc>31</desc>
			<v:textBlock v:margins="rect(0,0,0,0)" v:tabSpace="42.5197"/>
			<v:textRect cx="5.66929" cy="59.7776" width="11.34" height="11.3386"/>
			<text x="1.22" y="62.18" class="st2" v:langID="1033"><v:paragraph v:horizAlign="1"/><v:tabList/>31</text>		</g>
		<g id="shape3-5" v:mID="3" v:groupContext="shape" transform="translate(12.1386,-53.8583)">
			<title>Sheet.3</title>
			<desc>30</desc>
			<v:textBlock v:margins="rect(0,0,0,0)" v:tabSpace="42.5197"/>
			<v:textRect cx="5.66929" cy="59.7776" width="11.34" height="11.3386"/>
			<text x="1.22" y="62.18" class="st2" v:langID="1033"><v:paragraph v:horizAlign="1"/><v:tabList/>30</text>		</g>
		<g id="shape4-7" v:mID="4" v:groupContext="shape" transform="translate(170.879,-53.8583)">
			<title>Sheet.4</title>
			<desc>16</desc>
			<v:textBlock v:margins="rect(0,0,0,0)" v:tabSpace="42.5197"/>
			<v:textRect cx="5.66929" cy="59.7776" width="11.34" height="11.3386"/>
			<text x="1.22" y="62.18" class="st2" v:langID="1033"><v:paragraph v:horizAlign="1"/><v:tabList/>16</text>		</g>
		<g id="shape5-9" v:mID="5" v:groupContext="shape" transform="translate(182.217,-53.8583)">
			<title>Sheet.5</title>
			<desc>15</desc>
			<v:textBlock v:margins="rect(0,0,0,0)" v:tabSpace="42.5197"/>
			<v:textRect cx="5.66929" cy="59.7776" width="11.34" height="11.3386"/>
			<text x="1.22" y="62.18" class="st2" v:langID="1033"><v:paragraph v:horizAlign="1"/><v:tabList/>15</text>		</g>
		<g id="shape6-11" v:mID="6" v:groupContext="shape" transform="translate(193.556,-53.8583)">
			<title>Sheet.6</title>
			<desc>14</desc>
			<v:textBlock v:margins="rect(0,0,0,0)" v:tabSpace="42.5197"/>
			<v:textRect cx="5.66929" cy="59.7776" width="11.34" height="11.3386"/>
			<text x="1.22" y="62.18" class="st2" v:langID="1033"><v:paragraph v:horizAlign="1"/><v:tabList/>14</text>		</g>
		<g id="shape7-13" v:mID="7" v:groupContext="shape" transform="translate(352.296,-53.8583)">
			<title>Sheet.7</title>
			<desc>0</desc>
			<v:textBlock v:margins="rect(0,0,0,0)" v:tabSpace="42.5197"/>
			<v:textRect cx="5.66929" cy="59.7776" width="11.34" height="11.3386"/>
			<text x="3.44" y="62.18" class="st2" v:langID="1033"><v:paragraph v:horizAlign="1"/><v:tabList/>0</text>		</g>
		<g id="shape8-15" v:mID="8" v:groupContext="shape" transform="translate(12.1386,-25.5118)">
			<title>Sheet.8</title>
			<desc>res0</desc>
			<v:textBlock v:margins="rect(1,0,1,0)" v:tabSpace="42.5197"/>
			<v:textRect cx="56.6929" cy="51.2736" width="113.39" height="28.3465"/>
			<rect x="0" y="37.1004" width="113.386" height="28.3465" class="st1"/>
			<text x="47.89" y="53.67" class="st3" v:langID="2057"><v:paragraph v:horizAlign="1"/><v:tabList/>RES<tspan class="st4">0</tspan></text>		</g>
		<g id="shape9-19" v:mID="9" v:groupContext="shape" transform="translate(182.217,-25.5118)">
			<title>Sheet.9</title>
			<rect x="0" y="37.1004" width="11.3386" height="28.3465" class="st1"/>
		</g>
		<g id="shape12-21" v:mID="12" v:groupContext="shape" transform="translate(0.8,-25.5118)">
			<title>Sheet.12</title>
			<rect x="0" y="37.1004" width="362.835" height="28.3465" class="st5"/>
			<rect x="0" y="37.1004" width="362.835" height="28.3465" class="st6"/>
		</g>
		<g id="shape13-24" v:mID="13" v:groupContext="shape" transform="translate(12.1386,-25.5118)">
			<title>Sheet.13</title>
			<path d="M0 37.1 L0 65.45" class="st6"/>
		</g>
		<g id="shape14-27" v:mID="14" v:groupContext="shape" transform="translate(182.217,-25.5118)">
			<title>Sheet.14</title>
			<path d="M0 37.1 L0 65.45" class="st6"/>
		</g>
		<g id="shape15-30" v:mID="15" v:groupContext="shape" transform="translate(193.556,-25.5118)">
			<title>Sheet.15</title>
			<path d="M0 37.1 L0 65.45" class="st6"/>
		</g>
		<g id="shape16-33" v:mID="16" v:groupContext="shape" transform="translate(227.572,-25.5118)">
			<title>Sheet.16</title>
			<path d="M0 37.1 L0 65.45" class="st6"/>
		</g>
		<g id="shape17-36" v:mID="17" v:groupContext="shape" transform="translate(383.727,0.25) rotate(90)">
			<title>Signal 0</title>
			<path d="M0 65.45 L11.34 65.45" class="st7"/>
		</g>
		<g id="shape18-39" v:mID="18" v:groupContext="shape" transform="translate(338.373,0.25) rotate(90)">
			<title>Signal 0.102</title>
			<path d="M0 65.45 L11.34 65.45" class="st7"/>
		</g>
		<g id="shape19-42" v:mID="19" v:groupContext="shape" transform="translate(293.019,0.25) rotate(90)">
			<title>Signal 0.103</title>
			<path d="M0 65.45 L11.34 65.45" class="st7"/>
		</g>
		<g id="shape20-45" v:mID="20" v:groupContext="shape" transform="translate(247.664,0.25) rotate(90)">
			<title>Signal 0.104</title>
			<path d="M0 65.45 L11.34 65.45" class="st7"/>
		</g>
		<g id="shape21-48" v:mID="21" v:groupContext="shape" transform="translate(202.31,0.25) rotate(90)">
			<title>Signal 0.105</title>
			<path d="M0 65.45 L11.34 65.45" class="st7"/>
		</g>
		<g id="shape22-51" v:mID="22" v:groupContext="shape" transform="translate(156.956,0.25) rotate(90)">
			<title>Signal 0.106</title>
			<path d="M0 65.45 L11.34 65.45" class="st7"/>
		</g>
		<g id="shape23-54" v:mID="23" v:groupContext="shape" transform="translate(111.601,0.25) rotate(90)">
			<title>Signal 0.107</title>
			<path d="M0 65.45 L11.34 65.45" class="st7"/>
		</g>
		<g id="shape24-57" v:mID="24" v:groupContext="shape" transform="translate(66.2469,0.25) rotate(90)">
			<title>Signal 0.108</title>
			<path d="M0 65.45 L11.34 65.45" class="st7"/>
		</g>
		<g id="shape25-60" v:mID="25" v:groupContext="shape" transform="translate(429.081,0.25) rotate(90)">
			<title>Signal 0.109</title>
			<path d="M0 65.45 L11.34 65.45" class="st7"/>
		</g>
		<g id="shape30-63" v:mID="30" v:groupContext="shape" transform="translate(216.233,-53.8583)">
			<title>32-bit register.137</title>
			<desc>12</desc>
			<v:textBlock v:margins="rect(0,0,0,0)" v:tabSpace="42.5197"/>
			<v:textRect cx="5.66929" cy="59.7776" width="11.34" height="11.3386"/>
			<text x="1.22" y="62.18" class="st2" v:langID="1033"><v:paragraph v:horizAlign="1"/><v:tabList/>12</text>		</g>
		<g id="shape31-65" v:mID="31" v:groupContext="shape" transform="translate(227.572,-53.8583)">
			<title>32-bit register.7</title>
			<desc>11</desc>
			<v:textBlock v:margins="rect(0,0,0,0)" v:tabSpace="42.5197"/>
			<v:textRect cx="5.66929" cy="59.7776" width="11.34" height="11.3386"/>
			<text x="1.22" y="62.18" class="st2" v:langID="1033"><v:paragraph v:horizAlign="1"/><v:tabList/>11</text>		</g>
		<g id="shape32-67" v:mID="32" v:groupContext="shape" transform="translate(238.91,-53.8583)">
			<title>32-bit register.138</title>
			<desc>10</desc>
			<v:textBlock v:margins="rect(0,0,0,0)" v:tabSpace="42.5197"/>
			<v:textRect cx="5.66929" cy="59.7776" width="11.34" height="11.3386"/>
			<text x="1.22" y="62.18" class="st2" v:langID="1033"><v:paragraph v:horizAlign="1"/><v:tabList/>10</text>		</g>
		<g id="shape33-69" v:mID="33" v:groupContext="shape" transform="translate(238.91,-25.5118)">
			<title>Sheet.33</title>
			<path d="M0 37.1 L0 65.45" class="st6"/>
		</g>
		<g id="shape34-72" v:mID="34" v:groupContext="shape" transform="translate(250.249,-53.8583)">
			<title>32-bit register.140</title>
			<desc>9</desc>
			<v:textBlock v:margins="rect(0,0,0,0)" v:tabSpace="42.5197"/>
			<v:textRect cx="5.66929" cy="59.7776" width="11.34" height="11.3386"/>
			<text x="3.44" y="62.18" class="st2" v:langID="1033"><v:paragraph v:horizAlign="1"/><v:tabList/>9</text>		</g>
		<g id="shape35-74" v:mID="35" v:groupContext="shape" transform="translate(250.249,-25.5118)">
			<title>Sheet.35</title>
			<path d="M0 37.1 L0 65.45" class="st6"/>
		</g>
		<g id="shape41-77" v:mID="41" v:groupContext="shape" transform="translate(125.524,-53.8583)">
			<title>Sheet.41</title>
			<desc>20</desc>
			<v:textBlock v:margins="rect(0,0,0,0)" v:tabSpace="42.5197"/>
			<v:textRect cx="5.66929" cy="59.7776" width="11.34" height="11.3386"/>
			<text x="1.22" y="62.18" class="st2" v:langID="1033"><v:paragraph v:horizAlign="1"/><v:tabList/>20</text>		</g>
		<g id="shape42-79" v:mID="42" v:groupContext="shape" transform="translate(136.863,-53.8583)">
			<title>Sheet.42</title>
			<desc>19</desc>
			<v:textBlock v:margins="rect(0,0,0,0)" v:tabSpace="42.5197"/>
			<v:textRect cx="5.66929" cy="59.7776" width="11.34" height="11.3386"/>
			<text x="1.22" y="62.18" class="st2" v:langID="1033"><v:paragraph v:horizAlign="1"/><v:tabList/>19</text>		</g>
		<g id="shape43-81" v:mID="43" v:groupContext="shape" transform="translate(136.863,-25.5118)">
			<title>Sheet.43</title>
			<path d="M0 37.1 L0 65.45" class="st6"/>
		</g>
		<g id="shape44-84" v:mID="44" v:groupContext="shape" transform="translate(125.524,-25.5118)">
			<title>Sheet.44</title>
			<path d="M0 37.1 L0 65.45" class="st6"/>
		</g>
		<g id="shape48-87" v:mID="48" v:groupContext="shape" transform="translate(114.186,-53.8583)">
			<title>Sheet.48</title>
			<desc>21</desc>
			<v:textBlock v:margins="rect(0,0,0,0)" v:tabSpace="42.5197"/>
			<v:textRect cx="5.66929" cy="59.7776" width="11.34" height="11.3386"/>
			<text x="1.22" y="62.18" class="st2" v:langID="2057"><v:paragraph v:horizAlign="1"/><v:tabList/>21</text>		</g>
		<g id="shape49-89" v:mID="49" v:groupContext="shape" transform="translate(136.863,-25.5118)">
			<title>Sheet.49</title>
			<desc>res0</desc>
			<v:textBlock v:margins="rect(1,0,1,0)" v:tabSpace="42.5197"/>
			<v:textRect cx="22.6772" cy="51.2736" width="45.36" height="28.3465"/>
			<rect x="0" y="37.1004" width="45.3543" height="28.3465" class="st1"/>
			<text x="13.87" y="53.67" class="st3" v:langID="2057"><v:paragraph v:horizAlign="1"/><v:tabList/>RES<tspan class="st4">0</tspan></text>		</g>
		<g id="shape45-93" v:mID="45" v:groupContext="shape" transform="translate(204.894,-25.5118)">
			<title>Sheet.45</title>
			<desc>res1</desc>
			<v:textBlock v:margins="rect(1,0,1,0)" v:tabSpace="42.5197"/>
			<v:textRect cx="11.3386" cy="51.2736" width="22.68" height="28.3465"/>
			<rect x="0" y="37.1004" width="22.6772" height="28.3465" class="st1"/>
			<text x="2.53" y="53.67" class="st3" v:langID="2057"><v:paragraph v:horizAlign="1"/><v:tabList/>RES<tspan class="st4">1</tspan></text>		</g>
		<g id="shape50-97" v:mID="50" v:groupContext="shape" transform="translate(204.894,-53.8583)">
			<title>Sheet.50</title>
			<desc>13</desc>
			<v:textBlock v:margins="rect(0,0,0,0)" v:tabSpace="42.5197"/>
			<v:textRect cx="5.66929" cy="59.7776" width="11.34" height="11.3386"/>
			<text x="1.22" y="62.18" class="st2" v:langID="2057"><v:paragraph v:horizAlign="1"/><v:tabList/>13</text>		</g>
		<g id="shape51-99" v:mID="51" v:groupContext="shape" transform="translate(204.894,-25.5118)">
			<title>Sheet.51</title>
			<path d="M0 37.1 L0 65.45" class="st6"/>
		</g>
		<g id="shape11-102" v:mID="11" v:groupContext="shape" transform="translate(250.249,-25.5118)">
			<title>Sheet.11</title>
			<desc>res1</desc>
			<v:textBlock v:margins="rect(1,0,1,0)" v:tabSpace="42.5197"/>
			<v:textRect cx="56.6929" cy="51.2736" width="113.39" height="28.3465"/>
			<rect x="0" y="37.1004" width="113.386" height="28.3465" class="st1"/>
			<text x="47.89" y="53.67" class="st3" v:langID="2057"><v:paragraph v:horizAlign="1"/><v:tabList/>RES<tspan class="st4">1</tspan></text>		</g>
		<g id="shape52-106" v:mID="52" v:groupContext="shape" transform="translate(250.249,-17.0079) scale(-1,1)">
			<title>Bit name 2</title>
			<desc>TCP10</desc>
			<v:textBlock v:margins="rect(1,0,1,1)" v:tabSpace="42.5197"/>
			<v:textRect cx="-14.1732" cy="65.4469" width="28.35" height="11.3386"/>
			<path d="M5.67 59.78 L5.67 65.45 L0 65.45" class="st8"/>
			<text x="1" y="67.85" transform="scale(-1,1)" class="st2" v:langID="2057"><v:paragraph/><v:tabList/>TCP10</text>		</g>
		<g id="shape38-110" v:mID="38" v:groupContext="shape" transform="translate(250.249,-5.66929) scale(-1,1)">
			<title>Bit name 2.38</title>
			<desc>TCP11</desc>
			<v:textBlock v:margins="rect(1,0,1,1)" v:tabSpace="42.5197"/>
			<v:textRect cx="-14.1732" cy="65.4469" width="28.35" height="11.3386"/>
			<path d="M17.01 48.44 L17.01 65.45 L0 65.45" class="st8"/>
			<text x="1" y="67.85" transform="scale(-1,1)" class="st2" v:langID="2057"><v:paragraph/><v:tabList/>TCP11</text>		</g>
		<g id="shape36-114" v:mID="36" v:groupContext="shape" transform="translate(204.894,-17.0079) scale(-1,1)">
			<title>Bit name 2.36</title>
			<desc>res0</desc>
			<v:textBlock v:margins="rect(1,0,1,1)" v:tabSpace="42.5197"/>
			<v:textRect cx="-9.92126" cy="65.4469" width="19.85" height="11.3386"/>
			<path d="M5.67 59.78 L5.67 65.45 L0 65.45" class="st8"/>
			<text x="1" y="67.85" transform="scale(-1,1)" class="st3" v:langID="2057"><v:paragraph/><v:tabList/>RES<tspan
						class="st4">0</tspan></text>		</g>
		<g id="shape37-119" v:mID="37" v:groupContext="shape" transform="translate(204.894,-5.66929) scale(-1,1)">
			<title>Bit name 2.37</title>
			<desc>TASE</desc>
			<v:textBlock v:margins="rect(1,0,1,1)" v:tabSpace="42.5197"/>
			<v:textRect cx="-11.3386" cy="65.4469" width="22.68" height="11.3386"/>
			<path d="M17.01 48.44 L17.01 65.45 L0 65.45" class="st8"/>
			<text x="1" y="67.85" transform="scale(-1,1)" class="st2" v:langID="2057"><v:paragraph/><v:tabList/>TASE</text>		</g>
		<g id="shape10-123" v:mID="10" v:groupContext="shape" transform="translate(136.863,-17.0079) scale(-1,1)">
			<title>Bit name 2.10</title>
			<desc>TTA</desc>
			<v:textBlock v:margins="rect(1,0,1,1)" v:tabSpace="42.5197"/>
			<v:textRect cx="-8.50394" cy="65.4469" width="17.01" height="11.3386"/>
			<path d="M5.67 59.78 L5.67 65.45 L0 65.45" class="st8"/>
			<text x="1" y="67.85" transform="scale(-1,1)" class="st2" v:langID="2057"><v:paragraph/><v:tabList/>TTA</text>		</g>
		<g id="shape26-127" v:mID="26" v:groupContext="shape" transform="translate(12.1386,-17.0079) scale(-1,1)">
			<title>Bit name 2.26</title>
			<desc>TCPAC</desc>
			<v:textBlock v:margins="rect(1,0,1,1)" v:tabSpace="42.5197"/>
			<v:textRect cx="-15.5906" cy="65.4469" width="31.19" height="11.3386"/>
			<path d="M5.67 59.78 L5.67 65.45 L0 65.45" class="st8"/>
			<text x="2.53" y="67.85" transform="scale(-1,1)" class="st2" v:langID="1033"><v:paragraph v:horizAlign="1"/><v:tabList/>TCPAC</text>		</g>
	</g>
</svg>
