<?xml version="1.0" encoding="UTF-8" standalone="no"?>
<!DOCTYPE svg PUBLIC "-//W3C//DTD SVG 1.0//EN" "http://www.w3.org/TR/2001/REC-SVG-20010904/DTD/svg10.dtd">
<!-- Generated by Microsoft Visio 11.0, SVG Export, v1.0 hcr_el2_bit_assignments.svg Page-1 -->
<svg xmlns="http://www.w3.org/2000/svg" xmlns:v="http://schemas.microsoft.com/visio/2003/SVGExtensions/" width="6.34969in"
		height="3.31056in" viewBox="0 0 457.178 238.36" xml:space="preserve" color-interpolation-filters="sRGB" class="st5">
	<v:documentProperties v:langID="1033" v:metric="true" v:viewMarkup="false"/>

	<style type="text/css">
	<![CDATA[
		.st1 {stroke:#000000;stroke-dasharray:0.25,0.5;stroke-linecap:butt;stroke-width:0.25}
		.st2 {fill:#000000;font-family:Arial;font-size:0.666664em}
		.st3 {stroke:#000000;stroke-linecap:butt;stroke-width:0.8}
		.st4 {fill:none;stroke:none;stroke-linecap:round;stroke-linejoin:round;stroke-width:0.0169691}
		.st5 {fill:none;fill-rule:evenodd;font-size:12;overflow:visible;stroke-linecap:square;stroke-miterlimit:3}
		.st6 {fill:#ffffff;stroke:none;stroke-linecap:butt;stroke-width:0.5}
		.st7 {stroke:#000000;stroke-linecap:butt;stroke-width:0.5}
		.st8 {font-size:1em}
	]]>
	</style>

	<defs id="Masters">
		<symbol id="master6" v:mID="6" class="st5">
			<title>Disconnect</title>
			<g id="group1-209" v:mID="1" v:groupContext="group">
				<title>Disconnect</title>
				<g id="master-shape3-210" v:mID="3" v:groupContext="shape" transform="translate(0.566929,0)">
					<title>Sheet.3</title>
					<rect x="0" y="232.691" width="1.88976" height="5.66929" class="st6"/>
				</g>
				<g id="master-shape4-212" v:mID="4" v:groupContext="shape" transform="translate(237.546,271.81) rotate(99.4623)">
					<title>Sheet.4</title>
					<path d="M0 237.95 C0.15 238.15 0.72 238.32 1.15 238.35 C1.58 238.39 1.86 238.28 2.34 238.04 C2.63 237.9 2.98
								 237.72 3.29 237.59 C4.56 237.09 5.03 237.65 5.75 237.95" class="st7"/>
				</g>
				<g id="master-shape5-215" v:mID="5" v:groupContext="shape" transform="translate(235.656,271.81) rotate(99.4623)">
					<title>Sheet.5</title>
					<path d="M0 237.95 C0.15 238.15 0.72 238.32 1.15 238.35 C1.58 238.39 1.86 238.28 2.34 238.04 C2.63 237.9 2.98
								 237.72 3.29 237.59 C4.56 237.09 5.03 237.65 5.75 237.95" class="st7"/>
				</g>
			</g>
		</symbol>
	</defs>
	<g v:mID="0" v:index="1" v:groupContext="foregroundPage">
		<title>Page-1</title>
		<v:pageProperties v:drawingScale="0.0393701" v:pageScale="0.0393701" v:drawingUnits="24" v:shadowOffsetX="0"
				v:shadowOffsetY="0" v:shadowType="1" v:shadowScale="0"/>
		<g id="shape2-1" v:mID="2" v:groupContext="shape" transform="translate(307.192,0.25) rotate(90)">
			<title>64-bit register.169</title>
			<path d="M0 238.36 L11.34 238.36" class="st1"/>
		</g>
		<g id="shape11-4" v:mID="11" v:groupContext="shape" transform="translate(352.546,0.25) rotate(90)">
			<title>64-bit register.11</title>
			<path d="M0 238.36 L11.34 238.36" class="st1"/>
		</g>
		<g id="shape12-7" v:mID="12" v:groupContext="shape" transform="translate(397.9,1.49016) rotate(90)">
			<title>64-bit register.12</title>
			<path d="M0 238.36 L11.34 238.36" class="st1"/>
		</g>
		<g id="shape13-10" v:mID="13" v:groupContext="shape" transform="translate(443.255,1.49016) rotate(90)">
			<title>64-bit register.13</title>
			<path d="M0 238.36 L11.34 238.36" class="st1"/>
		</g>
		<g id="shape14-13" v:mID="14" v:groupContext="shape" transform="translate(488.609,0.25) rotate(90)">
			<title>64-bit register.14</title>
			<path d="M0 238.36 L11.34 238.36" class="st1"/>
		</g>
		<g id="shape15-16" v:mID="15" v:groupContext="shape" transform="translate(533.963,0.25) rotate(90)">
			<title>64-bit register.15</title>
			<path d="M0 238.36 L11.34 238.36" class="st1"/>
		</g>
		<g id="shape16-19" v:mID="16" v:groupContext="shape" transform="translate(624.672,0.25) rotate(90)">
			<title>64-bit register.16</title>
			<path d="M0 238.36 L11.34 238.36" class="st1"/>
		</g>
		<g id="shape17-22" v:mID="17" v:groupContext="shape" transform="translate(670.026,0.25) rotate(90)">
			<title>64-bit register.17</title>
			<path d="M0 238.36 L11.34 238.36" class="st1"/>
		</g>
		<g id="shape18-25" v:mID="18" v:groupContext="shape" transform="translate(68.8315,-226.772)">
			<title>64-bit register.179</title>
			<desc>31</desc>
			<v:textBlock v:margins="rect(0,0,0,0)" v:tabSpace="42.5197"/>
			<v:textRect cx="5.66929" cy="232.691" width="11.34" height="11.3386"/>
			<text x="1.22" y="235.09" class="st2" v:langID="1033"><v:paragraph v:horizAlign="1"/><v:tabList/>31</text>		</g>
		<g id="shape19-27" v:mID="19" v:groupContext="shape" transform="translate(420.328,-226.772)">
			<title>64-bit register.19</title>
			<desc>0</desc>
			<v:textBlock v:margins="rect(0,0,0,0)" v:tabSpace="42.5197"/>
			<v:textRect cx="5.66929" cy="232.691" width="11.34" height="11.3386"/>
			<text x="3.44" y="235.09" class="st2" v:langID="1033"><v:paragraph v:horizAlign="1"/><v:tabList/>0</text>		</g>
		<g id="shape22-29" v:mID="22" v:groupContext="shape" transform="translate(239.16,0.25) rotate(90)">
			<title>64-bit register.22</title>
			<path d="M0 238.36 L11.34 238.36" class="st1"/>
		</g>
		<g id="shape38-32" v:mID="38" v:groupContext="shape" transform="translate(0.8,-226.772)">
			<title>Sheet.38</title>
			<desc>63</desc>
			<v:textBlock v:margins="rect(0,0,0,0)" v:tabSpace="42.5197"/>
			<v:textRect cx="5.66929" cy="232.691" width="11.34" height="11.3386"/>
			<text x="1.22" y="235.09" class="st2" v:langID="1033"><v:paragraph v:horizAlign="1"/><v:tabList/>63</text>		</g>
		<g id="shape25-34" v:mID="25" v:groupContext="shape" transform="translate(408.989,-226.772)">
			<title>64-bit register.25</title>
			<desc>1</desc>
			<v:textBlock v:margins="rect(0,0,0,0)" v:tabSpace="42.5197"/>
			<v:textRect cx="5.66929" cy="232.691" width="11.34" height="11.3386"/>
			<text x="3.44" y="235.09" class="st2" v:langID="1033"><v:paragraph v:horizAlign="1"/><v:tabList/>1</text>		</g>
		<g id="shape26-36" v:mID="26" v:groupContext="shape" transform="translate(397.65,-226.772)">
			<title>64-bit register.26</title>
			<desc>2</desc>
			<v:textBlock v:margins="rect(0,0,0,0)" v:tabSpace="42.5197"/>
			<v:textRect cx="5.66929" cy="232.691" width="11.34" height="11.3386"/>
			<text x="3.44" y="235.09" class="st2" v:langID="1033"><v:paragraph v:horizAlign="1"/><v:tabList/>2</text>		</g>
		<g id="shape9-38" v:mID="9" v:groupContext="shape" transform="translate(295.603,-226.772)">
			<title>64-bit register.9</title>
			<desc>11</desc>
			<v:textBlock v:margins="rect(0,0,0,0)" v:tabSpace="42.5197"/>
			<v:textRect cx="5.66929" cy="232.691" width="11.34" height="11.3386"/>
			<text x="1.22" y="235.09" class="st2" v:langID="1033"><v:paragraph v:horizAlign="1"/><v:tabList/>11</text>		</g>
		<g id="shape28-40" v:mID="28" v:groupContext="shape" transform="translate(284.265,-226.772)">
			<title>64-bit register.28</title>
			<desc>12</desc>
			<v:textBlock v:margins="rect(0,0,0,0)" v:tabSpace="42.5197"/>
			<v:textRect cx="5.66929" cy="232.691" width="11.34" height="11.3386"/>
			<text x="1.22" y="235.09" class="st2" v:langID="1033"><v:paragraph v:horizAlign="1"/><v:tabList/>12</text>		</g>
		<g id="shape29-42" v:mID="29" v:groupContext="shape" transform="translate(579.318,0.25) rotate(90)">
			<title>64-bit register.29</title>
			<path d="M0 238.36 L11.34 238.36" class="st1"/>
		</g>
		<g id="shape42-45" v:mID="42" v:groupContext="shape" transform="translate(431.666,-198.425) scale(-1,1)">
			<title>64-bit register.42</title>
			<path d="M0 210.01 L430.87 210.01 L430.87 238.36 L0 238.36 L0 210.01" class="st3"/>
		</g>
		<g id="shape44-48" v:mID="44" v:groupContext="shape" transform="translate(114.186,-198.425)">
			<title>64-bit register.44</title>
			<path d="M0 210.01 L0 238.36" class="st3"/>
		</g>
		<g id="shape45-51" v:mID="45" v:groupContext="shape" transform="translate(159.54,-198.425)">
			<title>64-bit register.45</title>
			<path d="M0 210.01 L0 238.36" class="st3"/>
		</g>
		<g id="shape46-54" v:mID="46" v:groupContext="shape" transform="translate(204.894,-198.425)">
			<title>64-bit register.38</title>
			<path d="M0 210.01 L0 238.36" class="st3"/>
		</g>
		<g id="shape47-57" v:mID="47" v:groupContext="shape" transform="translate(250.249,-198.425)">
			<title>64-bit register.39</title>
			<path d="M0 210.01 L0 238.36" class="st3"/>
		</g>
		<g id="shape48-60" v:mID="48" v:groupContext="shape" transform="translate(295.603,-198.425)">
			<title>64-bit register.48</title>
			<path d="M0 210.01 L0 238.36" class="st3"/>
		</g>
		<g id="shape49-63" v:mID="49" v:groupContext="shape" transform="translate(340.957,-198.425)">
			<title>64-bit register.49</title>
			<path d="M0 210.01 L0 238.36" class="st3"/>
		</g>
		<g id="shape50-66" v:mID="50" v:groupContext="shape" transform="translate(386.312,-198.425)">
			<title>64-bit register.50</title>
			<path d="M0 210.01 L0 238.36" class="st3"/>
		</g>
		<g id="shape55-69" v:mID="55" v:groupContext="shape" transform="translate(80.1701,-198.425)">
			<title>64-bit register.59</title>
			<path d="M0 210.01 L0 238.36" class="st3"/>
		</g>
		<g id="shape56-72" v:mID="56" v:groupContext="shape" transform="translate(91.5087,-198.425)">
			<title>64-bit register.60</title>
			<path d="M0 210.01 L0 238.36" class="st3"/>
		</g>
		<g id="shape57-75" v:mID="57" v:groupContext="shape" transform="translate(102.847,-198.425)">
			<title>64-bit register.61</title>
			<path d="M0 210.01 L0 238.36" class="st3"/>
		</g>
		<g id="shape65-78" v:mID="65" v:groupContext="shape" transform="translate(170.879,-198.425)">
			<title>64-bit register.69</title>
			<path d="M0 210.01 L0 238.36" class="st3"/>
		</g>
		<g id="shape66-81" v:mID="66" v:groupContext="shape" transform="translate(125.524,-198.425)">
			<title>64-bit register.70</title>
			<path d="M0 210.01 L0 238.36" class="st3"/>
		</g>
		<g id="shape67-84" v:mID="67" v:groupContext="shape" transform="translate(136.863,-198.425)">
			<title>64-bit register.71</title>
			<path d="M0 210.01 L0 238.36" class="st3"/>
		</g>
		<g id="shape68-87" v:mID="68" v:groupContext="shape" transform="translate(148.202,-198.425)">
			<title>64-bit register.72</title>
			<path d="M0 210.01 L0 238.36" class="st3"/>
		</g>
		<g id="shape69-90" v:mID="69" v:groupContext="shape" transform="translate(182.217,-198.425)">
			<title>64-bit register.73</title>
			<path d="M0 210.01 L0 238.36" class="st3"/>
		</g>
		<g id="shape70-93" v:mID="70" v:groupContext="shape" transform="translate(193.556,-198.425)">
			<title>64-bit register.74</title>
			<path d="M0 210.01 L0 238.36" class="st3"/>
		</g>
		<g id="shape71-96" v:mID="71" v:groupContext="shape" transform="translate(216.233,-198.425)">
			<title>64-bit register.75</title>
			<path d="M0 210.01 L0 238.36" class="st3"/>
		</g>
		<g id="shape72-99" v:mID="72" v:groupContext="shape" transform="translate(227.572,-198.425)">
			<title>64-bit register.76</title>
			<path d="M0 210.01 L0 238.36" class="st3"/>
		</g>
		<g id="shape73-102" v:mID="73" v:groupContext="shape" transform="translate(238.91,-198.425)">
			<title>64-bit register.77</title>
			<path d="M0 210.01 L0 238.36" class="st3"/>
		</g>
		<g id="shape74-105" v:mID="74" v:groupContext="shape" transform="translate(261.587,-198.425)">
			<title>64-bit register.78</title>
			<path d="M0 210.01 L0 238.36" class="st3"/>
		</g>
		<g id="shape75-108" v:mID="75" v:groupContext="shape" transform="translate(272.926,-198.425)">
			<title>64-bit register.79</title>
			<path d="M0 210.01 L0 238.36" class="st3"/>
		</g>
		<g id="shape76-111" v:mID="76" v:groupContext="shape" transform="translate(284.265,-198.425)">
			<title>64-bit register.80</title>
			<path d="M0 210.01 L0 238.36" class="st3"/>
		</g>
		<g id="shape77-114" v:mID="77" v:groupContext="shape" transform="translate(318.28,-198.425)">
			<title>64-bit register.82</title>
			<path d="M0 210.01 L0 238.36" class="st3"/>
		</g>
		<g id="shape78-117" v:mID="78" v:groupContext="shape" transform="translate(329.619,-198.425)">
			<title>64-bit register.83</title>
			<path d="M0 210.01 L0 238.36" class="st3"/>
		</g>
		<g id="shape79-120" v:mID="79" v:groupContext="shape" transform="translate(352.296,-198.425)">
			<title>64-bit register.84</title>
			<path d="M0 210.01 L0 238.36" class="st3"/>
		</g>
		<g id="shape80-123" v:mID="80" v:groupContext="shape" transform="translate(363.635,-198.425)">
			<title>64-bit register.85</title>
			<path d="M0 210.01 L0 238.36" class="st3"/>
		</g>
		<g id="shape81-126" v:mID="81" v:groupContext="shape" transform="translate(374.973,-198.425)">
			<title>64-bit register.86</title>
			<path d="M0 210.01 L0 238.36" class="st3"/>
		</g>
		<g id="shape82-129" v:mID="82" v:groupContext="shape" transform="translate(397.65,-198.425)">
			<title>64-bit register.87</title>
			<path d="M0 210.01 L0 238.36" class="st3"/>
		</g>
		<g id="shape83-132" v:mID="83" v:groupContext="shape" transform="translate(408.989,-198.425)">
			<title>Sheet.83</title>
			<path d="M0 210.01 L0 238.36" class="st3"/>
		</g>
		<g id="shape84-135" v:mID="84" v:groupContext="shape" transform="translate(420.328,-198.425)">
			<title>64-bit register.89</title>
			<path d="M0 210.01 L0 238.36" class="st3"/>
		</g>
		<g id="shape138-138" v:mID="138" v:groupContext="shape" transform="translate(57.4929,-198.425)">
			<title>64-bit register.138</title>
			<path d="M0 210.01 L0 238.36" class="st3"/>
		</g>
		<g id="shape139-141" v:mID="139" v:groupContext="shape" transform="translate(68.8315,-198.425)">
			<title>64-bit register.139</title>
			<path d="M0 210.01 L0 238.36" class="st3"/>
		</g>
		<g id="shape141-144" v:mID="141" v:groupContext="shape" transform="translate(46.1543,-198.425)">
			<title>64-bit register.141</title>
			<path d="M0 210.01 L0 238.36" class="st3"/>
		</g>
		<g id="shape143-147" v:mID="143" v:groupContext="shape" transform="translate(0.8,-198.425)">
			<title>64-bit register.143</title>
			<desc>Reserved</desc>
			<v:textBlock v:margins="rect(1,0,1,0)" v:tabSpace="42.5197"/>
			<v:textRect cx="22.6772" cy="224.187" width="45.36" height="28.3465"/>
			<rect x="0" y="210.014" width="45.3543" height="28.3465" class="st4"/>
			<text x="5.56" y="226.59" class="st2" v:langID="1033"><v:paragraph v:horizAlign="1"/><v:tabList/>Reserved</text>		</g>
		<g id="shape144-150" v:mID="144" v:groupContext="shape" transform="translate(57.4929,-226.772)">
			<title>64-bit register.144</title>
			<desc>32</desc>
			<v:textBlock v:margins="rect(0,0,0,0)" v:tabSpace="42.5197"/>
			<v:textRect cx="5.66929" cy="232.691" width="11.34" height="11.3386"/>
			<text x="1.22" y="235.09" class="st2" v:langID="1033"><v:paragraph v:horizAlign="1"/><v:tabList/>32</text>		</g>
		<g id="shape145-152" v:mID="145" v:groupContext="shape" transform="translate(46.1543,-226.772)">
			<title>64-bit register.145</title>
			<desc>33</desc>
			<v:textBlock v:margins="rect(0,0,0,0)" v:tabSpace="42.5197"/>
			<v:textRect cx="5.66929" cy="232.691" width="11.34" height="11.3386"/>
			<text x="1.22" y="235.09" class="st2" v:langID="1033"><v:paragraph v:horizAlign="1"/><v:tabList/>33</text>		</g>
		<g id="shape146-154" v:mID="146" v:groupContext="shape" transform="translate(34.8157,-226.772)">
			<title>64-bit register.146</title>
			<desc>34</desc>
			<v:textBlock v:margins="rect(0,0,0,0)" v:tabSpace="42.5197"/>
			<v:textRect cx="5.66929" cy="232.691" width="11.34" height="11.3386"/>
			<text x="1.22" y="235.09" class="st2" v:langID="1033"><v:paragraph v:horizAlign="1"/><v:tabList/>34</text>		</g>
		<g id="shape147-156" v:mID="147" v:groupContext="shape" transform="translate(114.186,-226.772)">
			<title>64-bit register.147</title>
			<desc>27</desc>
			<v:textBlock v:margins="rect(0,0,0,0)" v:tabSpace="42.5197"/>
			<v:textRect cx="5.66929" cy="232.691" width="11.34" height="11.3386"/>
			<text x="1.22" y="235.09" class="st2" v:langID="1033"><v:paragraph v:horizAlign="1"/><v:tabList/>27</text>		</g>
		<g id="shape148-158" v:mID="148" v:groupContext="shape" transform="translate(102.847,-226.772)">
			<title>64-bit register.148</title>
			<desc>28</desc>
			<v:textBlock v:margins="rect(0,0,0,0)" v:tabSpace="42.5197"/>
			<v:textRect cx="5.66929" cy="232.691" width="11.34" height="11.3386"/>
			<text x="1.22" y="235.09" class="st2" v:langID="1033"><v:paragraph v:horizAlign="1"/><v:tabList/>28</text>		</g>
		<g id="shape149-160" v:mID="149" v:groupContext="shape" transform="translate(91.5087,-226.772)">
			<title>64-bit register.149</title>
			<desc>29</desc>
			<v:textBlock v:margins="rect(0,0,0,0)" v:tabSpace="42.5197"/>
			<v:textRect cx="5.66929" cy="232.691" width="11.34" height="11.3386"/>
			<text x="1.22" y="235.09" class="st2" v:langID="1033"><v:paragraph v:horizAlign="1"/><v:tabList/>29</text>		</g>
		<g id="shape150-162" v:mID="150" v:groupContext="shape" transform="translate(80.1701,-226.772)">
			<title>64-bit register.150</title>
			<desc>30</desc>
			<v:textBlock v:margins="rect(0,0,0,0)" v:tabSpace="42.5197"/>
			<v:textRect cx="5.66929" cy="232.691" width="11.34" height="11.3386"/>
			<text x="1.22" y="235.09" class="st2" v:langID="1033"><v:paragraph v:horizAlign="1"/><v:tabList/>30</text>		</g>
		<g id="shape151-164" v:mID="151" v:groupContext="shape" transform="translate(159.54,-226.772)">
			<title>64-bit register.151</title>
			<desc>23</desc>
			<v:textBlock v:margins="rect(0,0,0,0)" v:tabSpace="42.5197"/>
			<v:textRect cx="5.66929" cy="232.691" width="11.34" height="11.3386"/>
			<text x="1.22" y="235.09" class="st2" v:langID="1033"><v:paragraph v:horizAlign="1"/><v:tabList/>23</text>		</g>
		<g id="shape152-166" v:mID="152" v:groupContext="shape" transform="translate(148.202,-226.772)">
			<title>64-bit register.152</title>
			<desc>24</desc>
			<v:textBlock v:margins="rect(0,0,0,0)" v:tabSpace="42.5197"/>
			<v:textRect cx="5.66929" cy="232.691" width="11.34" height="11.3386"/>
			<text x="1.22" y="235.09" class="st2" v:langID="1033"><v:paragraph v:horizAlign="1"/><v:tabList/>24</text>		</g>
		<g id="shape153-168" v:mID="153" v:groupContext="shape" transform="translate(136.863,-226.772)">
			<title>64-bit register.153</title>
			<desc>25</desc>
			<v:textBlock v:margins="rect(0,0,0,0)" v:tabSpace="42.5197"/>
			<v:textRect cx="5.66929" cy="232.691" width="11.34" height="11.3386"/>
			<text x="1.22" y="235.09" class="st2" v:langID="1033"><v:paragraph v:horizAlign="1"/><v:tabList/>25</text>		</g>
		<g id="shape154-170" v:mID="154" v:groupContext="shape" transform="translate(125.524,-226.772)">
			<title>64-bit register.154</title>
			<desc>26</desc>
			<v:textBlock v:margins="rect(0,0,0,0)" v:tabSpace="42.5197"/>
			<v:textRect cx="5.66929" cy="232.691" width="11.34" height="11.3386"/>
			<text x="1.22" y="235.09" class="st2" v:langID="1033"><v:paragraph v:horizAlign="1"/><v:tabList/>26</text>		</g>
		<g id="shape155-172" v:mID="155" v:groupContext="shape" transform="translate(204.894,-226.772)">
			<title>64-bit register.155</title>
			<desc>19</desc>
			<v:textBlock v:margins="rect(0,0,0,0)" v:tabSpace="42.5197"/>
			<v:textRect cx="5.66929" cy="232.691" width="11.34" height="11.3386"/>
			<text x="1.22" y="235.09" class="st2" v:langID="1033"><v:paragraph v:horizAlign="1"/><v:tabList/>19</text>		</g>
		<g id="shape156-174" v:mID="156" v:groupContext="shape" transform="translate(193.556,-226.772)">
			<title>64-bit register.156</title>
			<desc>20</desc>
			<v:textBlock v:margins="rect(0,0,0,0)" v:tabSpace="42.5197"/>
			<v:textRect cx="5.66929" cy="232.691" width="11.34" height="11.3386"/>
			<text x="1.22" y="235.09" class="st2" v:langID="1033"><v:paragraph v:horizAlign="1"/><v:tabList/>20</text>		</g>
		<g id="shape157-176" v:mID="157" v:groupContext="shape" transform="translate(182.217,-226.772)">
			<title>64-bit register.157</title>
			<desc>21</desc>
			<v:textBlock v:margins="rect(0,0,0,0)" v:tabSpace="42.5197"/>
			<v:textRect cx="5.66929" cy="232.691" width="11.34" height="11.3386"/>
			<text x="1.22" y="235.09" class="st2" v:langID="1033"><v:paragraph v:horizAlign="1"/><v:tabList/>21</text>		</g>
		<g id="shape158-178" v:mID="158" v:groupContext="shape" transform="translate(170.879,-226.772)">
			<title>64-bit register.158</title>
			<desc>22</desc>
			<v:textBlock v:margins="rect(0,0,0,0)" v:tabSpace="42.5197"/>
			<v:textRect cx="5.66929" cy="232.691" width="11.34" height="11.3386"/>
			<text x="1.22" y="235.09" class="st2" v:langID="1033"><v:paragraph v:horizAlign="1"/><v:tabList/>22</text>		</g>
		<g id="shape159-180" v:mID="159" v:groupContext="shape" transform="translate(250.249,-226.772)">
			<title>64-bit register.159</title>
			<desc>15</desc>
			<v:textBlock v:margins="rect(0,0,0,0)" v:tabSpace="42.5197"/>
			<v:textRect cx="5.66929" cy="232.691" width="11.34" height="11.3386"/>
			<text x="1.22" y="235.09" class="st2" v:langID="1033"><v:paragraph v:horizAlign="1"/><v:tabList/>15</text>		</g>
		<g id="shape160-182" v:mID="160" v:groupContext="shape" transform="translate(238.91,-226.772)">
			<title>64-bit register.160</title>
			<desc>16</desc>
			<v:textBlock v:margins="rect(0,0,0,0)" v:tabSpace="42.5197"/>
			<v:textRect cx="5.66929" cy="232.691" width="11.34" height="11.3386"/>
			<text x="1.22" y="235.09" class="st2" v:langID="1033"><v:paragraph v:horizAlign="1"/><v:tabList/>16</text>		</g>
		<g id="shape161-184" v:mID="161" v:groupContext="shape" transform="translate(227.572,-226.772)">
			<title>64-bit register.161</title>
			<desc>17</desc>
			<v:textBlock v:margins="rect(0,0,0,0)" v:tabSpace="42.5197"/>
			<v:textRect cx="5.66929" cy="232.691" width="11.34" height="11.3386"/>
			<text x="1.22" y="235.09" class="st2" v:langID="1033"><v:paragraph v:horizAlign="1"/><v:tabList/>17</text>		</g>
		<g id="shape162-186" v:mID="162" v:groupContext="shape" transform="translate(216.233,-226.772)">
			<title>64-bit register.162</title>
			<desc>18</desc>
			<v:textBlock v:margins="rect(0,0,0,0)" v:tabSpace="42.5197"/>
			<v:textRect cx="5.66929" cy="232.691" width="11.34" height="11.3386"/>
			<text x="1.22" y="235.09" class="st2" v:langID="1033"><v:paragraph v:horizAlign="1"/><v:tabList/>18</text>		</g>
		<g id="shape163-188" v:mID="163" v:groupContext="shape" transform="translate(330.682,-226.772)">
			<title>64-bit register.163</title>
			<desc>8</desc>
			<v:textBlock v:margins="rect(0,0,0,0)" v:tabSpace="42.5197"/>
			<v:textRect cx="5.66929" cy="232.691" width="11.34" height="11.3386"/>
			<text x="3.44" y="235.09" class="st2" v:langID="1033"><v:paragraph v:horizAlign="1"/><v:tabList/>8</text>		</g>
		<g id="shape164-190" v:mID="164" v:groupContext="shape" transform="translate(306.942,-226.772)">
			<title>64-bit register.164</title>
			<desc>10</desc>
			<v:textBlock v:margins="rect(0,0,0,0)" v:tabSpace="42.5197"/>
			<v:textRect cx="5.66929" cy="232.691" width="11.34" height="11.3386"/>
			<text x="1.22" y="235.09" class="st2" v:langID="1033"><v:paragraph v:horizAlign="1"/><v:tabList/>10</text>		</g>
		<g id="shape165-192" v:mID="165" v:groupContext="shape" transform="translate(272.926,-226.772)">
			<title>64-bit register.165</title>
			<desc>13</desc>
			<v:textBlock v:margins="rect(0,0,0,0)" v:tabSpace="42.5197"/>
			<v:textRect cx="5.66929" cy="232.691" width="11.34" height="11.3386"/>
			<text x="1.22" y="235.09" class="st2" v:langID="1033"><v:paragraph v:horizAlign="1"/><v:tabList/>13</text>		</g>
		<g id="shape166-194" v:mID="166" v:groupContext="shape" transform="translate(261.587,-226.772)">
			<title>64-bit register.166</title>
			<desc>14</desc>
			<v:textBlock v:margins="rect(0,0,0,0)" v:tabSpace="42.5197"/>
			<v:textRect cx="5.66929" cy="232.691" width="11.34" height="11.3386"/>
			<text x="1.22" y="235.09" class="st2" v:langID="1033"><v:paragraph v:horizAlign="1"/><v:tabList/>14</text>		</g>
		<g id="shape167-196" v:mID="167" v:groupContext="shape" transform="translate(363.635,-226.772)">
			<title>64-bit register.167</title>
			<desc>5</desc>
			<v:textBlock v:margins="rect(0,0,0,0)" v:tabSpace="42.5197"/>
			<v:textRect cx="5.66929" cy="232.691" width="11.34" height="11.3386"/>
			<text x="3.44" y="235.09" class="st2" v:langID="1033"><v:paragraph v:horizAlign="1"/><v:tabList/>5</text>		</g>
		<g id="shape168-198" v:mID="168" v:groupContext="shape" transform="translate(352.296,-226.772)">
			<title>64-bit register.168</title>
			<desc>6</desc>
			<v:textBlock v:margins="rect(0,0,0,0)" v:tabSpace="42.5197"/>
			<v:textRect cx="5.66929" cy="232.691" width="11.34" height="11.3386"/>
			<text x="3.44" y="235.09" class="st2" v:langID="1033"><v:paragraph v:horizAlign="1"/><v:tabList/>6</text>		</g>
		<g id="shape169-200" v:mID="169" v:groupContext="shape" transform="translate(340.957,-226.772)">
			<title>Sheet.169</title>
			<desc>7</desc>
			<v:textBlock v:margins="rect(0,0,0,0)" v:tabSpace="42.5197"/>
			<v:textRect cx="5.66929" cy="232.691" width="11.34" height="11.3386"/>
			<text x="3.44" y="235.09" class="st2" v:langID="1033"><v:paragraph v:horizAlign="1"/><v:tabList/>7</text>		</g>
		<g id="shape170-202" v:mID="170" v:groupContext="shape" transform="translate(318.28,-226.772)">
			<title>64-bit register.170</title>
			<desc>9</desc>
			<v:textBlock v:margins="rect(0,0,0,0)" v:tabSpace="42.5197"/>
			<v:textRect cx="5.66929" cy="232.691" width="11.34" height="11.3386"/>
			<text x="3.44" y="235.09" class="st2" v:langID="1033"><v:paragraph v:horizAlign="1"/><v:tabList/>9</text>		</g>
		<g id="shape173-204" v:mID="173" v:groupContext="shape" transform="translate(386.312,-226.772)">
			<title>64-bit register.173</title>
			<desc>3</desc>
			<v:textBlock v:margins="rect(0,0,0,0)" v:tabSpace="42.5197"/>
			<v:textRect cx="5.66929" cy="232.691" width="11.34" height="11.3386"/>
			<text x="3.44" y="235.09" class="st2" v:langID="1033"><v:paragraph v:horizAlign="1"/><v:tabList/>3</text>		</g>
		<g id="shape174-206" v:mID="174" v:groupContext="shape" transform="translate(374.973,-226.772)">
			<title>64-bit register.174</title>
			<desc>4</desc>
			<v:textBlock v:margins="rect(0,0,0,0)" v:tabSpace="42.5197"/>
			<v:textRect cx="5.66929" cy="232.691" width="11.34" height="11.3386"/>
			<text x="3.44" y="235.09" class="st2" v:langID="1033"><v:paragraph v:horizAlign="1"/><v:tabList/>4</text>		</g>
		<use id="shape1-208" v:mID="1" xlink:href="#master6" transform="translate(22.0598,-223.937)">
			<title>Disconnect</title>
		</use>
		<use id="shape6-218" v:mID="6" xlink:href="#master6" transform="translate(22.0598,-195.591)">
			<title>Disconnect.6</title>
		</use>
		<g id="master-shape175-219" v:mID="175" v:groupContext="shape" transform="translate(431.666,-187.087) scale(-1,1)">
			<title>Bit name 2</title>
			<desc>VM</desc>
			<v:textBlock v:margins="rect(1,0,1,2)" v:tabSpace="42.5197"/>
			<v:textRect cx="-8.50394" cy="238.36" width="17.01" height="11.3386"/>
			<path d="M5.67 229.86 L5.67 238.36 L0 238.36" class="st7"/>
			<text x="2" y="240.76" transform="scale(-1,1)" class="st2" v:langID="2057"><v:paragraph/><v:tabList/>VM</text>		</g>
		<g id="master-shape176-223" v:mID="176" v:groupContext="shape" transform="translate(431.666,-175.748) scale(-1,1)">
			<title>Bit name 2.176</title>
			<desc>SWIO</desc>
			<v:textBlock v:margins="rect(1,0,1,2)" v:tabSpace="42.5197"/>
			<v:textRect cx="-12.7559" cy="238.36" width="25.52" height="11.3386"/>
			<path d="M17.01 218.52 L17.01 238.36 L0 238.36" class="st7"/>
			<text x="2" y="240.76" transform="scale(-1,1)" class="st2" v:langID="2057"><v:paragraph/><v:tabList/>SWIO</text>		</g>
		<g id="master-shape103-227" v:mID="103" v:groupContext="shape" transform="translate(431.666,-164.409) scale(-1,1)">
			<title>Bit name 2.103</title>
			<desc>PTW</desc>
			<v:textBlock v:margins="rect(1,0,1,2)" v:tabSpace="42.5197"/>
			<v:textRect cx="-11.3386" cy="238.36" width="22.68" height="11.3386"/>
			<path d="M28.35 207.18 L28.35 238.36 L0 238.36" class="st7"/>
			<text x="2" y="240.76" transform="scale(-1,1)" class="st2" v:langID="2057"><v:paragraph/><v:tabList/>PTW</text>		</g>
		<g id="master-shape105-231" v:mID="105" v:groupContext="shape" transform="translate(431.666,-153.071) scale(-1,1)">
			<title>Bit name 2.105</title>
			<desc>FMO</desc>
			<v:textBlock v:margins="rect(1,0,1,2)" v:tabSpace="42.5197"/>
			<v:textRect cx="-11.3386" cy="238.36" width="22.68" height="11.3386"/>
			<path d="M39.69 195.84 L39.69 238.36 L0 238.36" class="st7"/>
			<text x="2" y="240.76" transform="scale(-1,1)" class="st2" v:langID="2057"><v:paragraph/><v:tabList/>FMO</text>		</g>
		<g id="master-shape102-235" v:mID="102" v:groupContext="shape" transform="translate(431.666,-141.732) scale(-1,1)">
			<title>Bit name 2.102</title>
			<desc>IMO</desc>
			<v:textBlock v:margins="rect(1,0,1,2)" v:tabSpace="42.5197"/>
			<v:textRect cx="-9.92126" cy="238.36" width="19.85" height="11.3386"/>
			<path d="M51.02 184.5 L51.02 238.36 L0 238.36" class="st7"/>
			<text x="2" y="240.76" transform="scale(-1,1)" class="st2" v:langID="2057"><v:paragraph/><v:tabList/>IMO</text>		</g>
		<g id="master-shape100-239" v:mID="100" v:groupContext="shape" transform="translate(431.666,-130.394) scale(-1,1)">
			<title>Bit name 2.100</title>
			<desc>AMO</desc>
			<v:textBlock v:margins="rect(1,0,1,2)" v:tabSpace="42.5197"/>
			<v:textRect cx="-11.3386" cy="238.36" width="22.68" height="11.3386"/>
			<path d="M62.36 173.16 L62.36 238.36 L0 238.36" class="st7"/>
			<text x="2" y="240.76" transform="scale(-1,1)" class="st2" v:langID="2057"><v:paragraph/><v:tabList/>AMO</text>		</g>
		<g id="master-shape99-243" v:mID="99" v:groupContext="shape" transform="translate(431.666,-119.055) scale(-1,1)">
			<title>Bit name 2.99</title>
			<desc>VF</desc>
			<v:textBlock v:margins="rect(1,0,1,2)" v:tabSpace="42.5197"/>
			<v:textRect cx="-7.08661" cy="238.36" width="14.18" height="11.3386"/>
			<path d="M73.7 161.82 L73.7 238.36 L0 238.36" class="st7"/>
			<text x="2" y="240.76" transform="scale(-1,1)" class="st2" v:langID="2057"><v:paragraph/><v:tabList/>VF</text>		</g>
		<g id="master-shape98-247" v:mID="98" v:groupContext="shape" transform="translate(431.666,-107.717) scale(-1,1)">
			<title>Bit name 2.98</title>
			<desc>VI</desc>
			<v:textBlock v:margins="rect(1,0,1,2)" v:tabSpace="42.5197"/>
			<v:textRect cx="-5.66929" cy="238.36" width="11.34" height="11.3386"/>
			<path d="M85.04 150.49 L85.04 238.36 L0 238.36" class="st7"/>
			<text x="2" y="240.76" transform="scale(-1,1)" class="st2" v:langID="2057"><v:paragraph/><v:tabList/>VI</text>		</g>
		<g id="master-shape97-251" v:mID="97" v:groupContext="shape" transform="translate(431.666,-96.378) scale(-1,1)">
			<title>Bit name 2.97</title>
			<desc>VSE</desc>
			<v:textBlock v:margins="rect(1,0,1,2)" v:tabSpace="42.5197"/>
			<v:textRect cx="-9.92126" cy="238.36" width="19.85" height="11.3386"/>
			<path d="M96.38 139.15 L96.38 238.36 L0 238.36" class="st7"/>
			<text x="2" y="240.76" transform="scale(-1,1)" class="st2" v:langID="2057"><v:paragraph/><v:tabList/>VSE</text>		</g>
		<g id="master-shape96-255" v:mID="96" v:groupContext="shape" transform="translate(431.666,-85.0394) scale(-1,1)">
			<title>Bit name 2.96</title>
			<desc>FB</desc>
			<v:textBlock v:margins="rect(1,0,1,2)" v:tabSpace="42.5197"/>
			<v:textRect cx="-7.08661" cy="238.36" width="14.18" height="11.3386"/>
			<path d="M107.72 127.81 L107.72 238.36 L0 238.36" class="st7"/>
			<text x="2" y="240.76" transform="scale(-1,1)" class="st2" v:langID="2057"><v:paragraph/><v:tabList/>FB</text>		</g>
		<g id="master-shape101-259" v:mID="101" v:groupContext="shape" transform="translate(431.666,-73.7008) scale(-1,1)">
			<title>Bit name 2.101</title>
			<desc>BSU</desc>
			<v:textBlock v:margins="rect(1,0,1,2)" v:tabSpace="42.5197"/>
			<v:textRect cx="-9.92126" cy="238.36" width="19.85" height="11.3386"/>
			<path d="M124.72 116.47 L124.72 238.36 L0 238.36" class="st7"/>
			<text x="2" y="240.76" transform="scale(-1,1)" class="st2" v:langID="2057"><v:paragraph/><v:tabList/>BSU</text>		</g>
		<g id="master-shape95-263" v:mID="95" v:groupContext="shape" transform="translate(431.666,-62.3622) scale(-1,1)">
			<title>Bit name 2.95</title>
			<desc>DC</desc>
			<v:textBlock v:margins="rect(1,0,1,2)" v:tabSpace="42.5197"/>
			<v:textRect cx="-8.50394" cy="238.36" width="17.01" height="11.3386"/>
			<path d="M141.73 105.13 L141.73 238.36 L0 238.36" class="st7"/>
			<text x="2" y="240.76" transform="scale(-1,1)" class="st2" v:langID="2057"><v:paragraph/><v:tabList/>DC</text>		</g>
		<g id="master-shape94-267" v:mID="94" v:groupContext="shape" transform="translate(431.666,-51.0236) scale(-1,1)">
			<title>Bit name 2.94</title>
			<desc>TWI</desc>
			<v:textBlock v:margins="rect(1,0,1,2)" v:tabSpace="42.5197"/>
			<v:textRect cx="-9.92126" cy="238.36" width="19.85" height="11.3386"/>
			<path d="M153.07 93.79 L153.07 238.36 L0 238.36" class="st7"/>
			<text x="2" y="240.76" transform="scale(-1,1)" class="st2" v:langID="2057"><v:paragraph/><v:tabList/>TWI</text>		</g>
		<g id="master-shape93-271" v:mID="93" v:groupContext="shape" transform="translate(431.666,-39.685) scale(-1,1)">
			<title>Bit name 2.93</title>
			<desc>TWE</desc>
			<v:textBlock v:margins="rect(1,0,1,2)" v:tabSpace="42.5197"/>
			<v:textRect cx="-11.3386" cy="238.36" width="22.68" height="11.3386"/>
			<path d="M164.41 82.45 L164.41 238.36 L0 238.36" class="st7"/>
			<text x="2" y="240.76" transform="scale(-1,1)" class="st2" v:langID="2057"><v:paragraph/><v:tabList/>TWE</text>		</g>
		<g id="master-shape51-275" v:mID="51" v:groupContext="shape" transform="translate(431.666,-28.3465) scale(-1,1)">
			<title>Bit name 2.51</title>
			<desc>TID0</desc>
			<v:textBlock v:margins="rect(1,0,1,2)" v:tabSpace="42.5197"/>
			<v:textRect cx="-11.3386" cy="238.36" width="22.68" height="11.3386"/>
			<path d="M175.75 71.12 L175.75 238.36 L0 238.36" class="st7"/>
			<text x="2" y="240.76" transform="scale(-1,1)" class="st2" v:langID="1033"><v:paragraph/><v:tabList/>TI<tspan
						class="st8" v:langID="2057">D</tspan>0</text>		</g>
		<g id="master-shape92-280" v:mID="92" v:groupContext="shape" transform="translate(431.666,-17.0079) scale(-1,1)">
			<title>Bit name 2.92</title>
			<desc>TID1</desc>
			<v:textBlock v:margins="rect(1,0,1,2)" v:tabSpace="42.5197"/>
			<v:textRect cx="-11.3386" cy="238.36" width="22.68" height="11.3386"/>
			<path d="M187.09 59.78 L187.09 238.36 L0 238.36" class="st7"/>
			<text x="2" y="240.76" transform="scale(-1,1)" class="st2" v:langID="1033"><v:paragraph/><v:tabList/>TID1</text>		</g>
		<g id="master-shape104-284" v:mID="104" v:groupContext="shape" transform="translate(46.1543,-186.831)">
			<title>Bit name 2.104</title>
			<desc>ID</desc>
			<v:textBlock v:margins="rect(1,2,1,1)" v:tabSpace="42.5197"/>
			<v:textRect cx="-7.08661" cy="238.36" width="14.18" height="11.3386"/>
			<path d="M5.67 229.6 L5.67 238.36 L0 238.36" class="st7"/>
			<text x="-10" y="240.76" class="st2" v:langID="2057"><v:paragraph v:horizAlign="2"/><v:tabList/>ID</text>		</g>
		<g id="master-shape106-288" v:mID="106" v:groupContext="shape" transform="translate(46.1543,-175.748)">
			<title>Bit name 2.106</title>
			<desc>CD</desc>
			<v:textBlock v:margins="rect(1,2,1,1)" v:tabSpace="42.5197"/>
			<v:textRect cx="-8.50394" cy="238.36" width="17.01" height="11.3386"/>
			<path d="M17.01 218.52 L17.01 238.36 L0 238.36" class="st7"/>
			<text x="-13.55" y="240.76" class="st2" v:langID="2057"><v:paragraph v:horizAlign="2"/><v:tabList/>CD</text>		</g>
		<g id="master-shape52-292" v:mID="52" v:groupContext="shape" transform="translate(46.1543,-164.409)">
			<title>Bit name 2.52</title>
			<desc>RW</desc>
			<v:textBlock v:margins="rect(1,2,1,1)" v:tabSpace="42.5197"/>
			<v:textRect cx="-9.92126" cy="238.36" width="19.85" height="11.3386"/>
			<path d="M28.35 207.18 L28.35 238.36 L0 238.36" class="st7"/>
			<text x="-15.33" y="240.76" class="st2" v:langID="2057"><v:paragraph v:horizAlign="2"/><v:tabList/>RW</text>		</g>
		<g id="master-shape54-296" v:mID="54" v:groupContext="shape" transform="translate(46.1543,-153.071)">
			<title>Bit name 2.54</title>
			<desc>TRVM</desc>
			<v:textBlock v:margins="rect(1,2,1,1)" v:tabSpace="42.5197"/>
			<v:textRect cx="-14.1732" cy="238.36" width="28.35" height="11.3386"/>
			<path d="M39.69 195.84 L39.69 238.36 L0 238.36" class="st7"/>
			<text x="-24.66" y="240.76" class="st2" v:langID="2057"><v:paragraph v:horizAlign="2"/><v:tabList/>TRVM</text>		</g>
		<g id="master-shape53-300" v:mID="53" v:groupContext="shape" transform="translate(46.1543,-141.732)">
			<title>Bit name 2.53</title>
			<desc>HCD</desc>
			<v:textBlock v:margins="rect(1,2,1,1)" v:tabSpace="42.5197"/>
			<v:textRect cx="-12.7559" cy="238.36" width="25.52" height="11.3386"/>
			<path d="M51.02 184.5 L51.02 238.36 L0 238.36" class="st7"/>
			<text x="-19.33" y="240.76" class="st2" v:langID="2057"><v:paragraph v:horizAlign="2"/><v:tabList/>HCD</text>		</g>
		<g id="master-shape58-304" v:mID="58" v:groupContext="shape" transform="translate(46.1543,-130.394)">
			<title>Bit name 2.58</title>
			<desc>TDZ</desc>
			<v:textBlock v:margins="rect(1,2,1,1)" v:tabSpace="42.5197"/>
			<v:textRect cx="-11.3386" cy="238.36" width="22.68" height="11.3386"/>
			<path d="M62.36 173.16 L62.36 238.36 L0 238.36" class="st7"/>
			<text x="-17.55" y="240.76" class="st2" v:langID="2057"><v:paragraph v:horizAlign="2"/><v:tabList/>TDZ</text>		</g>
		<g id="master-shape59-308" v:mID="59" v:groupContext="shape" transform="translate(46.1543,-119.055)">
			<title>Bit name 2.59</title>
			<desc>TGE</desc>
			<v:textBlock v:margins="rect(1,2,1,1)" v:tabSpace="42.5197"/>
			<v:textRect cx="-11.3386" cy="238.36" width="22.68" height="11.3386"/>
			<path d="M73.7 161.82 L73.7 238.36 L0 238.36" class="st7"/>
			<text x="-18.45" y="240.76" class="st2" v:langID="2057"><v:paragraph v:horizAlign="2"/><v:tabList/>TGE</text>		</g>
		<g id="master-shape60-312" v:mID="60" v:groupContext="shape" transform="translate(46.1543,-107.717)">
			<title>Bit name 2.60</title>
			<desc>TVM</desc>
			<v:textBlock v:margins="rect(1,2,1,1)" v:tabSpace="42.5197"/>
			<v:textRect cx="-11.3386" cy="238.36" width="22.68" height="11.3386"/>
			<path d="M85.04 150.49 L85.04 238.36 L0 238.36" class="st7"/>
			<text x="-18.89" y="240.76" class="st2" v:langID="2057"><v:paragraph v:horizAlign="2"/><v:tabList/>TVM</text>		</g>
		<g id="master-shape61-316" v:mID="61" v:groupContext="shape" transform="translate(46.1543,-96.378)">
			<title>Bit name 2.61</title>
			<desc>TTLB</desc>
			<v:textBlock v:margins="rect(1,2,1,1)" v:tabSpace="42.5197"/>
			<v:textRect cx="-12.7559" cy="238.36" width="25.52" height="11.3386"/>
			<path d="M96.38 139.15 L96.38 238.36 L0 238.36" class="st7"/>
			<text x="-21.56" y="240.76" class="st2" v:langID="2057"><v:paragraph v:horizAlign="2"/><v:tabList/>TTLB</text>		</g>
		<g id="master-shape62-320" v:mID="62" v:groupContext="shape" transform="translate(46.1543,-85.0394)">
			<title>Bit name 2.62</title>
			<desc>TPU</desc>
			<v:textBlock v:margins="rect(1,2,1,1)" v:tabSpace="42.5197"/>
			<v:textRect cx="-11.3386" cy="238.36" width="22.68" height="11.3386"/>
			<path d="M107.72 127.81 L107.72 238.36 L0 238.36" class="st7"/>
			<text x="-18" y="240.76" class="st2" v:langID="2057"><v:paragraph v:horizAlign="2"/><v:tabList/>TPU</text>		</g>
		<g id="master-shape63-324" v:mID="63" v:groupContext="shape" transform="translate(46.1543,-73.7008)">
			<title>Bit name 2.63</title>
			<desc>TPC</desc>
			<v:textBlock v:margins="rect(1,2,1,1)" v:tabSpace="42.5197"/>
			<v:textRect cx="-11.3386" cy="238.36" width="22.68" height="11.3386"/>
			<path d="M119.06 116.47 L119.06 238.36 L0 238.36" class="st7"/>
			<text x="-18" y="240.76" class="st2" v:langID="2057"><v:paragraph v:horizAlign="2"/><v:tabList/>TPC</text>		</g>
		<g id="master-shape64-328" v:mID="64" v:groupContext="shape" transform="translate(46.1543,-62.3622)">
			<title>Bit name 2.64</title>
			<desc>TSW</desc>
			<v:textBlock v:margins="rect(1,2,1,1)" v:tabSpace="42.5197"/>
			<v:textRect cx="-12.7559" cy="238.36" width="25.52" height="11.3386"/>
			<path d="M130.39 105.13 L130.39 238.36 L0 238.36" class="st7"/>
			<text x="-19.77" y="240.76" class="st2" v:langID="2057"><v:paragraph v:horizAlign="2"/><v:tabList/>TSW</text>		</g>
		<g id="master-shape85-332" v:mID="85" v:groupContext="shape" transform="translate(46.1543,-51.0236)">
			<title>Bit name 2.85</title>
			<desc>TACR</desc>
			<v:textBlock v:margins="rect(1,2,1,1)" v:tabSpace="42.5197"/>
			<v:textRect cx="-14.1732" cy="238.36" width="28.35" height="11.3386"/>
			<path d="M141.73 93.79 L141.73 238.36 L0 238.36" class="st7"/>
			<text x="-23.78" y="240.76" class="st2" v:langID="2057"><v:paragraph v:horizAlign="2"/><v:tabList/>TACR</text>		</g>
		<g id="master-shape86-336" v:mID="86" v:groupContext="shape" transform="translate(46.1543,-39.685)">
			<title>Bit name 2.86</title>
			<desc>TIDCP</desc>
			<v:textBlock v:margins="rect(1,2,1,1)" v:tabSpace="42.5197"/>
			<v:textRect cx="-15.5906" cy="238.36" width="31.19" height="11.3386"/>
			<path d="M153.07 82.45 L153.07 238.36 L0 238.36" class="st7"/>
			<text x="-26" y="240.76" class="st2" v:langID="2057"><v:paragraph v:horizAlign="2"/><v:tabList/>TIDCP</text>		</g>
		<g id="master-shape87-340" v:mID="87" v:groupContext="shape" transform="translate(46.1543,-28.3465)">
			<title>Bit name 2.87</title>
			<desc>TSC</desc>
			<v:textBlock v:margins="rect(1,2,1,1)" v:tabSpace="42.5197"/>
			<v:textRect cx="-11.3386" cy="238.36" width="22.68" height="11.3386"/>
			<path d="M164.41 71.12 L164.41 238.36 L0 238.36" class="st7"/>
			<text x="-18" y="240.76" class="st2" v:langID="2057"><v:paragraph v:horizAlign="2"/><v:tabList/>TSC</text>		</g>
		<g id="master-shape88-344" v:mID="88" v:groupContext="shape" transform="translate(46.1543,-17.0079)">
			<title>Bit name 2.88</title>
			<desc>TID3</desc>
			<v:textBlock v:margins="rect(1,2,1,1)" v:tabSpace="42.5197"/>
			<v:textRect cx="-12.7559" cy="238.36" width="25.52" height="11.3386"/>
			<path d="M175.75 59.78 L175.75 238.36 L0 238.36" class="st7"/>
			<text x="-19.34" y="240.76" class="st2" v:langID="2057"><v:paragraph v:horizAlign="2"/><v:tabList/>TID3</text>		</g>
		<g id="master-shape89-348" v:mID="89" v:groupContext="shape" transform="translate(46.1543,-5.66929)">
			<title>Bit name 2.89</title>
			<desc>TID2</desc>
			<v:textBlock v:margins="rect(1,2,1,1)" v:tabSpace="42.5197"/>
			<v:textRect cx="-12.7559" cy="238.36" width="25.52" height="11.3386"/>
			<path d="M187.09 48.44 L187.09 238.36 L0 238.36" class="st7"/>
			<text x="-19.34" y="240.76" class="st2" v:langID="2057"><v:paragraph v:horizAlign="2"/><v:tabList/>TID2</text>		</g>
	</g>
</svg>
