<?xml version="1.0" encoding="UTF-8" standalone="no"?>
<!DOCTYPE svg PUBLIC "-//W3C//DTD SVG 1.0//EN" "http://www.w3.org/TR/2001/REC-SVG-20010904/DTD/svg10.dtd">
<!-- Generated by Microsoft Visio 11.0, SVG Export, v1.0 hcr_bit_assignmnets.svg Page-1 -->
<svg xmlns="http://www.w3.org/2000/svg" xmlns:v="http://schemas.microsoft.com/visio/2003/SVGExtensions/" width="5.7874in"
		height="2.2082in" viewBox="0 0 416.693 158.99" xml:space="preserve" color-interpolation-filters="sRGB" class="st7">
	<v:documentProperties v:langID="1033" v:metric="true" v:viewMarkup="false"/>

	<style type="text/css">
	<![CDATA[
		.st1 {stroke:#000000;stroke-linecap:butt;stroke-width:0.8}
		.st2 {stroke:#000000;stroke-dasharray:0.25,0.5;stroke-linecap:butt;stroke-width:0.25}
		.st3 {fill:#000000;font-family:Arial;font-size:0.666664em}
		.st4 {stroke:#000000;stroke-linecap:butt;stroke-width:0.5}
		.st5 {fill:#000000;font-family:Arial;font-size:0.533318em}
		.st6 {font-size:1.25003em}
		.st7 {fill:none;fill-rule:evenodd;font-size:12;overflow:visible;stroke-linecap:square;stroke-miterlimit:3}
	]]>
	</style>

	<g v:mID="0" v:index="1" v:groupContext="foregroundPage">
		<title>Page-1</title>
		<v:pageProperties v:drawingScale="0.0393701" v:pageScale="0.0393701" v:drawingUnits="24" v:shadowOffsetX="0"
				v:shadowOffsetY="0" v:shadowType="1" v:shadowScale="0"/>
		<g id="shape1-1" v:mID="1" v:groupContext="shape" transform="translate(391.181,-119.055) scale(-1,1)">
			<title>64-bit register.156</title>
			<path d="M0 130.64 L362.83 130.64 L362.83 158.99 L0 158.99" class="st1"/>
		</g>
		<g id="shape2-4" v:mID="2" v:groupContext="shape" transform="translate(187.337,0.25) rotate(90)">
			<title>64-bit register.169</title>
			<path d="M0 158.99 L11.34 158.99" class="st2"/>
		</g>
		<g id="shape3-7" v:mID="3" v:groupContext="shape" transform="translate(391.181,-119.055)">
			<title>64-bit register.157</title>
			<path d="M0 130.64 L0 158.99" class="st1"/>
		</g>
		<g id="shape4-10" v:mID="4" v:groupContext="shape" transform="translate(73.7008,-119.055)">
			<title>64-bit register.4</title>
			<path d="M0 130.64 L0 158.99" class="st1"/>
		</g>
		<g id="shape5-13" v:mID="5" v:groupContext="shape" transform="translate(119.055,-119.055)">
			<title>64-bit register.7</title>
			<path d="M0 130.64 L0 158.99" class="st1"/>
		</g>
		<g id="shape6-16" v:mID="6" v:groupContext="shape" transform="translate(164.409,-119.055)">
			<title>64-bit register.38</title>
			<path d="M0 130.64 L0 158.99" class="st1"/>
		</g>
		<g id="shape7-19" v:mID="7" v:groupContext="shape" transform="translate(209.764,-119.055)">
			<title>64-bit register.39</title>
			<path d="M0 130.64 L0 158.99" class="st1"/>
		</g>
		<g id="shape8-22" v:mID="8" v:groupContext="shape" transform="translate(255.118,-119.055)">
			<title>64-bit register.41</title>
			<path d="M0 130.64 L0 158.99" class="st1"/>
		</g>
		<g id="shape9-25" v:mID="9" v:groupContext="shape" transform="translate(300.472,-119.055)">
			<title>64-bit register.42</title>
			<path d="M0 130.64 L0 158.99" class="st1"/>
		</g>
		<g id="shape10-28" v:mID="10" v:groupContext="shape" transform="translate(345.827,-119.055)">
			<title>64-bit register.52</title>
			<path d="M0 130.64 L0 158.99" class="st1"/>
		</g>
		<g id="shape11-31" v:mID="11" v:groupContext="shape" transform="translate(232.691,0.25) rotate(90)">
			<title>64-bit register.11</title>
			<path d="M0 158.99 L11.34 158.99" class="st2"/>
		</g>
		<g id="shape12-34" v:mID="12" v:groupContext="shape" transform="translate(278.045,0.25) rotate(90)">
			<title>64-bit register.12</title>
			<path d="M0 158.99 L11.34 158.99" class="st2"/>
		</g>
		<g id="shape13-37" v:mID="13" v:groupContext="shape" transform="translate(323.4,0.25) rotate(90)">
			<title>64-bit register.13</title>
			<path d="M0 158.99 L11.34 158.99" class="st2"/>
		</g>
		<g id="shape14-40" v:mID="14" v:groupContext="shape" transform="translate(368.754,0.25) rotate(90)">
			<title>64-bit register.14</title>
			<path d="M0 158.99 L11.34 158.99" class="st2"/>
		</g>
		<g id="shape15-43" v:mID="15" v:groupContext="shape" transform="translate(414.108,0.25) rotate(90)">
			<title>64-bit register.15</title>
			<path d="M0 158.99 L11.34 158.99" class="st2"/>
		</g>
		<g id="shape16-46" v:mID="16" v:groupContext="shape" transform="translate(504.817,0.25) rotate(90)">
			<title>64-bit register.16</title>
			<path d="M0 158.99 L11.34 158.99" class="st2"/>
		</g>
		<g id="shape17-49" v:mID="17" v:groupContext="shape" transform="translate(550.171,0.25) rotate(90)">
			<title>64-bit register.17</title>
			<path d="M0 158.99 L11.34 158.99" class="st2"/>
		</g>
		<g id="shape18-52" v:mID="18" v:groupContext="shape" transform="translate(28.3465,-147.402)">
			<title>64-bit register.179</title>
			<desc>31</desc>
			<v:textBlock v:margins="rect(0,0,0,0)" v:tabSpace="42.5197"/>
			<v:textRect cx="5.66929" cy="153.321" width="11.34" height="11.3386"/>
			<text x="1.22" y="155.72" class="st3" v:langID="1033"><v:paragraph v:horizAlign="1"/><v:tabList/>31</text>		</g>
		<g id="shape19-54" v:mID="19" v:groupContext="shape" transform="translate(379.843,-147.402)">
			<title>64-bit register.19</title>
			<desc>0</desc>
			<v:textBlock v:margins="rect(0,0,0,0)" v:tabSpace="42.5197"/>
			<v:textRect cx="5.66929" cy="153.321" width="11.34" height="11.3386"/>
			<text x="3.44" y="155.72" class="st3" v:langID="1033"><v:paragraph v:horizAlign="1"/><v:tabList/>0</text>		</g>
		<g id="shape21-56" v:mID="21" v:groupContext="shape" transform="translate(459.463,0.25) rotate(90)">
			<title>64-bit register.21</title>
			<path d="M0 158.99 L11.34 158.99" class="st2"/>
		</g>
		<g id="shape26-59" v:mID="26" v:groupContext="shape" transform="translate(39.685,-147.402)">
			<title>64-bit register.26</title>
			<desc>30</desc>
			<v:textBlock v:margins="rect(0,0,0,0)" v:tabSpace="42.5197"/>
			<v:textRect cx="5.66929" cy="153.321" width="11.34" height="11.3386"/>
			<text x="1.22" y="155.72" class="st3" v:langID="1033"><v:paragraph v:horizAlign="1"/><v:tabList/>30</text>		</g>
		<g id="shape27-61" v:mID="27" v:groupContext="shape" transform="translate(51.0236,-147.402)">
			<title>64-bit register.27</title>
			<desc>29</desc>
			<v:textBlock v:margins="rect(0,0,0,0)" v:tabSpace="42.5197"/>
			<v:textRect cx="5.66929" cy="153.321" width="11.34" height="11.3386"/>
			<text x="1.22" y="155.72" class="st3" v:langID="1033"><v:paragraph v:horizAlign="1"/><v:tabList/>29</text>		</g>
		<g id="shape28-63" v:mID="28" v:groupContext="shape" transform="translate(62.3622,-147.402)">
			<title>64-bit register.28</title>
			<desc>28</desc>
			<v:textBlock v:margins="rect(0,0,0,0)" v:tabSpace="42.5197"/>
			<v:textRect cx="5.66929" cy="153.321" width="11.34" height="11.3386"/>
			<text x="1.22" y="155.72" class="st3" v:langID="1033"><v:paragraph v:horizAlign="1"/><v:tabList/>28</text>		</g>
		<g id="shape29-65" v:mID="29" v:groupContext="shape" transform="translate(73.7008,-147.402)">
			<title>64-bit register.29</title>
			<desc>27</desc>
			<v:textBlock v:margins="rect(0,0,0,0)" v:tabSpace="42.5197"/>
			<v:textRect cx="5.66929" cy="153.321" width="11.34" height="11.3386"/>
			<text x="1.22" y="155.72" class="st3" v:langID="1033"><v:paragraph v:horizAlign="1"/><v:tabList/>27</text>		</g>
		<g id="shape30-67" v:mID="30" v:groupContext="shape" transform="translate(85.0394,-147.402)">
			<title>64-bit register.30</title>
			<desc>26</desc>
			<v:textBlock v:margins="rect(0,0,0,0)" v:tabSpace="42.5197"/>
			<v:textRect cx="5.66929" cy="153.321" width="11.34" height="11.3386"/>
			<text x="1.22" y="155.72" class="st3" v:langID="1033"><v:paragraph v:horizAlign="1"/><v:tabList/>26</text>		</g>
		<g id="shape31-69" v:mID="31" v:groupContext="shape" transform="translate(96.378,-147.402)">
			<title>64-bit register.31</title>
			<desc>25</desc>
			<v:textBlock v:margins="rect(0,0,0,0)" v:tabSpace="42.5197"/>
			<v:textRect cx="5.66929" cy="153.321" width="11.34" height="11.3386"/>
			<text x="1.22" y="155.72" class="st3" v:langID="1033"><v:paragraph v:horizAlign="1"/><v:tabList/>25</text>		</g>
		<g id="shape32-71" v:mID="32" v:groupContext="shape" transform="translate(107.717,-147.402)">
			<title>64-bit register.32</title>
			<desc>24</desc>
			<v:textBlock v:margins="rect(0,0,0,0)" v:tabSpace="42.5197"/>
			<v:textRect cx="5.66929" cy="153.321" width="11.34" height="11.3386"/>
			<text x="1.22" y="155.72" class="st3" v:langID="1033"><v:paragraph v:horizAlign="1"/><v:tabList/>24</text>		</g>
		<g id="shape33-73" v:mID="33" v:groupContext="shape" transform="translate(119.055,-147.402)">
			<title>64-bit register.33</title>
			<desc>23</desc>
			<v:textBlock v:margins="rect(0,0,0,0)" v:tabSpace="42.5197"/>
			<v:textRect cx="5.66929" cy="153.321" width="11.34" height="11.3386"/>
			<text x="1.22" y="155.72" class="st3" v:langID="1033"><v:paragraph v:horizAlign="1"/><v:tabList/>23</text>		</g>
		<g id="shape34-75" v:mID="34" v:groupContext="shape" transform="translate(130.394,-147.402)">
			<title>64-bit register.34</title>
			<desc>22</desc>
			<v:textBlock v:margins="rect(0,0,0,0)" v:tabSpace="42.5197"/>
			<v:textRect cx="5.66929" cy="153.321" width="11.34" height="11.3386"/>
			<text x="1.22" y="155.72" class="st3" v:langID="1033"><v:paragraph v:horizAlign="1"/><v:tabList/>22</text>		</g>
		<g id="shape35-77" v:mID="35" v:groupContext="shape" transform="translate(141.732,-147.402)">
			<title>64-bit register.35</title>
			<desc>21</desc>
			<v:textBlock v:margins="rect(0,0,0,0)" v:tabSpace="42.5197"/>
			<v:textRect cx="5.66929" cy="153.321" width="11.34" height="11.3386"/>
			<text x="1.22" y="155.72" class="st3" v:langID="1033"><v:paragraph v:horizAlign="1"/><v:tabList/>21</text>		</g>
		<g id="shape36-79" v:mID="36" v:groupContext="shape" transform="translate(153.071,-147.402)">
			<title>64-bit register.36</title>
			<desc>20</desc>
			<v:textBlock v:margins="rect(0,0,0,0)" v:tabSpace="42.5197"/>
			<v:textRect cx="5.66929" cy="153.321" width="11.34" height="11.3386"/>
			<text x="1.22" y="155.72" class="st3" v:langID="1033"><v:paragraph v:horizAlign="1"/><v:tabList/>20</text>		</g>
		<g id="shape37-81" v:mID="37" v:groupContext="shape" transform="translate(164.409,-147.402)">
			<title>64-bit register.37</title>
			<desc>19</desc>
			<v:textBlock v:margins="rect(0,0,0,0)" v:tabSpace="42.5197"/>
			<v:textRect cx="5.66929" cy="153.321" width="11.34" height="11.3386"/>
			<text x="1.22" y="155.72" class="st3" v:langID="1033"><v:paragraph v:horizAlign="1"/><v:tabList/>19</text>		</g>
		<g id="shape38-83" v:mID="38" v:groupContext="shape" transform="translate(175.748,-147.402)">
			<title>Sheet.38</title>
			<desc>18</desc>
			<v:textBlock v:margins="rect(0,0,0,0)" v:tabSpace="42.5197"/>
			<v:textRect cx="5.66929" cy="153.321" width="11.34" height="11.3386"/>
			<text x="1.22" y="155.72" class="st3" v:langID="1033"><v:paragraph v:horizAlign="1"/><v:tabList/>18</text>		</g>
		<g id="shape39-85" v:mID="39" v:groupContext="shape" transform="translate(187.087,-147.402)">
			<title>Sheet.39</title>
			<desc>17</desc>
			<v:textBlock v:margins="rect(0,0,0,0)" v:tabSpace="42.5197"/>
			<v:textRect cx="5.66929" cy="153.321" width="11.34" height="11.3386"/>
			<text x="1.22" y="155.72" class="st3" v:langID="1033"><v:paragraph v:horizAlign="1"/><v:tabList/>17</text>		</g>
		<g id="shape40-87" v:mID="40" v:groupContext="shape" transform="translate(198.425,-147.402)">
			<title>64-bit register.40</title>
			<desc>16</desc>
			<v:textBlock v:margins="rect(0,0,0,0)" v:tabSpace="42.5197"/>
			<v:textRect cx="5.66929" cy="153.321" width="11.34" height="11.3386"/>
			<text x="1.22" y="155.72" class="st3" v:langID="1033"><v:paragraph v:horizAlign="1"/><v:tabList/>16</text>		</g>
		<g id="shape41-89" v:mID="41" v:groupContext="shape" transform="translate(209.764,-147.402)">
			<title>Sheet.41</title>
			<desc>15</desc>
			<v:textBlock v:margins="rect(0,0,0,0)" v:tabSpace="42.5197"/>
			<v:textRect cx="5.66929" cy="153.321" width="11.34" height="11.3386"/>
			<text x="1.22" y="155.72" class="st3" v:langID="1033"><v:paragraph v:horizAlign="1"/><v:tabList/>15</text>		</g>
		<g id="shape42-91" v:mID="42" v:groupContext="shape" transform="translate(221.102,-147.402)">
			<title>Sheet.42</title>
			<desc>14</desc>
			<v:textBlock v:margins="rect(0,0,0,0)" v:tabSpace="42.5197"/>
			<v:textRect cx="5.66929" cy="153.321" width="11.34" height="11.3386"/>
			<text x="1.22" y="155.72" class="st3" v:langID="1033"><v:paragraph v:horizAlign="1"/><v:tabList/>14</text>		</g>
		<g id="shape43-93" v:mID="43" v:groupContext="shape" transform="translate(232.441,-147.402)">
			<title>64-bit register.43</title>
			<desc>13</desc>
			<v:textBlock v:margins="rect(0,0,0,0)" v:tabSpace="42.5197"/>
			<v:textRect cx="5.66929" cy="153.321" width="11.34" height="11.3386"/>
			<text x="1.22" y="155.72" class="st3" v:langID="1033"><v:paragraph v:horizAlign="1"/><v:tabList/>13</text>		</g>
		<g id="shape44-95" v:mID="44" v:groupContext="shape" transform="translate(243.78,-147.402)">
			<title>64-bit register.44</title>
			<desc>12</desc>
			<v:textBlock v:margins="rect(0,0,0,0)" v:tabSpace="42.5197"/>
			<v:textRect cx="5.66929" cy="153.321" width="11.34" height="11.3386"/>
			<text x="1.22" y="155.72" class="st3" v:langID="1033"><v:paragraph v:horizAlign="1"/><v:tabList/>12</text>		</g>
		<g id="shape45-97" v:mID="45" v:groupContext="shape" transform="translate(255.118,-147.402)">
			<title>64-bit register.45</title>
			<desc>11</desc>
			<v:textBlock v:margins="rect(0,0,0,0)" v:tabSpace="42.5197"/>
			<v:textRect cx="5.66929" cy="153.321" width="11.34" height="11.3386"/>
			<text x="1.22" y="155.72" class="st3" v:langID="1033"><v:paragraph v:horizAlign="1"/><v:tabList/>11</text>		</g>
		<g id="shape46-99" v:mID="46" v:groupContext="shape" transform="translate(266.457,-147.402)">
			<title>64-bit register.46</title>
			<desc>10</desc>
			<v:textBlock v:margins="rect(0,0,0,0)" v:tabSpace="42.5197"/>
			<v:textRect cx="5.66929" cy="153.321" width="11.34" height="11.3386"/>
			<text x="1.22" y="155.72" class="st3" v:langID="1033"><v:paragraph v:horizAlign="1"/><v:tabList/>10</text>		</g>
		<g id="shape47-101" v:mID="47" v:groupContext="shape" transform="translate(277.795,-147.402)">
			<title>64-bit register.47</title>
			<desc>9</desc>
			<v:textBlock v:margins="rect(0,0,0,0)" v:tabSpace="42.5197"/>
			<v:textRect cx="5.66929" cy="153.321" width="11.34" height="11.3386"/>
			<text x="3.44" y="155.72" class="st3" v:langID="1033"><v:paragraph v:horizAlign="1"/><v:tabList/>9</text>		</g>
		<g id="shape48-103" v:mID="48" v:groupContext="shape" transform="translate(289.134,-147.402)">
			<title>64-bit register.48</title>
			<desc>8</desc>
			<v:textBlock v:margins="rect(0,0,0,0)" v:tabSpace="42.5197"/>
			<v:textRect cx="5.66929" cy="153.321" width="11.34" height="11.3386"/>
			<text x="3.44" y="155.72" class="st3" v:langID="1033"><v:paragraph v:horizAlign="1"/><v:tabList/>8</text>		</g>
		<g id="shape49-105" v:mID="49" v:groupContext="shape" transform="translate(300.472,-147.402)">
			<title>64-bit register.49</title>
			<desc>7</desc>
			<v:textBlock v:margins="rect(0,0,0,0)" v:tabSpace="42.5197"/>
			<v:textRect cx="5.66929" cy="153.321" width="11.34" height="11.3386"/>
			<text x="3.44" y="155.72" class="st3" v:langID="1033"><v:paragraph v:horizAlign="1"/><v:tabList/>7</text>		</g>
		<g id="shape50-107" v:mID="50" v:groupContext="shape" transform="translate(311.811,-147.402)">
			<title>64-bit register.50</title>
			<desc>6</desc>
			<v:textBlock v:margins="rect(0,0,0,0)" v:tabSpace="42.5197"/>
			<v:textRect cx="5.66929" cy="153.321" width="11.34" height="11.3386"/>
			<text x="3.44" y="155.72" class="st3" v:langID="1033"><v:paragraph v:horizAlign="1"/><v:tabList/>6</text>		</g>
		<g id="shape51-109" v:mID="51" v:groupContext="shape" transform="translate(323.15,-147.402)">
			<title>64-bit register.51</title>
			<desc>5</desc>
			<v:textBlock v:margins="rect(0,0,0,0)" v:tabSpace="42.5197"/>
			<v:textRect cx="5.66929" cy="153.321" width="11.34" height="11.3386"/>
			<text x="3.44" y="155.72" class="st3" v:langID="1033"><v:paragraph v:horizAlign="1"/><v:tabList/>5</text>		</g>
		<g id="shape52-111" v:mID="52" v:groupContext="shape" transform="translate(334.488,-147.402)">
			<title>Sheet.52</title>
			<desc>4</desc>
			<v:textBlock v:margins="rect(0,0,0,0)" v:tabSpace="42.5197"/>
			<v:textRect cx="5.66929" cy="153.321" width="11.34" height="11.3386"/>
			<text x="3.44" y="155.72" class="st3" v:langID="1033"><v:paragraph v:horizAlign="1"/><v:tabList/>4</text>		</g>
		<g id="shape53-113" v:mID="53" v:groupContext="shape" transform="translate(345.827,-147.402)">
			<title>64-bit register.53</title>
			<desc>3</desc>
			<v:textBlock v:margins="rect(0,0,0,0)" v:tabSpace="42.5197"/>
			<v:textRect cx="5.66929" cy="153.321" width="11.34" height="11.3386"/>
			<text x="3.44" y="155.72" class="st3" v:langID="1033"><v:paragraph v:horizAlign="1"/><v:tabList/>3</text>		</g>
		<g id="shape54-115" v:mID="54" v:groupContext="shape" transform="translate(357.165,-147.402)">
			<title>64-bit register.54</title>
			<desc>2</desc>
			<v:textBlock v:margins="rect(0,0,0,0)" v:tabSpace="42.5197"/>
			<v:textRect cx="5.66929" cy="153.321" width="11.34" height="11.3386"/>
			<text x="3.44" y="155.72" class="st3" v:langID="1033"><v:paragraph v:horizAlign="1"/><v:tabList/>2</text>		</g>
		<g id="shape55-117" v:mID="55" v:groupContext="shape" transform="translate(368.504,-147.402)">
			<title>64-bit register.55</title>
			<desc>1</desc>
			<v:textBlock v:margins="rect(0,0,0,0)" v:tabSpace="42.5197"/>
			<v:textRect cx="5.66929" cy="153.321" width="11.34" height="11.3386"/>
			<text x="3.44" y="155.72" class="st3" v:langID="1033"><v:paragraph v:horizAlign="1"/><v:tabList/>1</text>		</g>
		<g id="shape59-119" v:mID="59" v:groupContext="shape" transform="translate(39.685,-119.055)">
			<title>64-bit register.59</title>
			<path d="M0 130.64 L0 158.99" class="st1"/>
		</g>
		<g id="shape60-122" v:mID="60" v:groupContext="shape" transform="translate(51.0236,-119.055)">
			<title>64-bit register.60</title>
			<path d="M0 130.64 L0 158.99" class="st1"/>
		</g>
		<g id="shape69-125" v:mID="69" v:groupContext="shape" transform="translate(130.394,-119.055)">
			<title>64-bit register.69</title>
			<path d="M0 130.64 L0 158.99" class="st1"/>
		</g>
		<g id="shape70-128" v:mID="70" v:groupContext="shape" transform="translate(85.0394,-119.055)">
			<title>64-bit register.70</title>
			<path d="M0 130.64 L0 158.99" class="st1"/>
		</g>
		<g id="shape71-131" v:mID="71" v:groupContext="shape" transform="translate(96.378,-119.055)">
			<title>64-bit register.71</title>
			<path d="M0 130.64 L0 158.99" class="st1"/>
		</g>
		<g id="shape72-134" v:mID="72" v:groupContext="shape" transform="translate(107.717,-119.055)">
			<title>64-bit register.72</title>
			<path d="M0 130.64 L0 158.99" class="st1"/>
		</g>
		<g id="shape73-137" v:mID="73" v:groupContext="shape" transform="translate(141.732,-119.055)">
			<title>64-bit register.73</title>
			<path d="M0 130.64 L0 158.99" class="st1"/>
		</g>
		<g id="shape74-140" v:mID="74" v:groupContext="shape" transform="translate(153.071,-119.055)">
			<title>64-bit register.74</title>
			<path d="M0 130.64 L0 158.99" class="st1"/>
		</g>
		<g id="shape75-143" v:mID="75" v:groupContext="shape" transform="translate(175.748,-119.055)">
			<title>64-bit register.75</title>
			<path d="M0 130.64 L0 158.99" class="st1"/>
		</g>
		<g id="shape76-146" v:mID="76" v:groupContext="shape" transform="translate(187.087,-119.055)">
			<title>64-bit register.76</title>
			<path d="M0 130.64 L0 158.99" class="st1"/>
		</g>
		<g id="shape77-149" v:mID="77" v:groupContext="shape" transform="translate(198.425,-119.055)">
			<title>64-bit register.77</title>
			<path d="M0 130.64 L0 158.99" class="st1"/>
		</g>
		<g id="shape78-152" v:mID="78" v:groupContext="shape" transform="translate(221.102,-119.055)">
			<title>64-bit register.78</title>
			<path d="M0 130.64 L0 158.99" class="st1"/>
		</g>
		<g id="shape79-155" v:mID="79" v:groupContext="shape" transform="translate(232.441,-119.055)">
			<title>64-bit register.79</title>
			<path d="M0 130.64 L0 158.99" class="st1"/>
		</g>
		<g id="shape80-158" v:mID="80" v:groupContext="shape" transform="translate(243.78,-119.055)">
			<title>64-bit register.80</title>
			<path d="M0 130.64 L0 158.99" class="st1"/>
		</g>
		<g id="shape82-161" v:mID="82" v:groupContext="shape" transform="translate(277.795,-119.055)">
			<title>64-bit register.82</title>
			<path d="M0 130.64 L0 158.99" class="st1"/>
		</g>
		<g id="shape83-164" v:mID="83" v:groupContext="shape" transform="translate(289.134,-119.055)">
			<title>64-bit register.83</title>
			<path d="M0 130.64 L0 158.99" class="st1"/>
		</g>
		<g id="shape84-167" v:mID="84" v:groupContext="shape" transform="translate(311.811,-119.055)">
			<title>64-bit register.84</title>
			<path d="M0 130.64 L0 158.99" class="st1"/>
		</g>
		<g id="shape85-170" v:mID="85" v:groupContext="shape" transform="translate(323.15,-119.055)">
			<title>64-bit register.85</title>
			<path d="M0 130.64 L0 158.99" class="st1"/>
		</g>
		<g id="shape86-173" v:mID="86" v:groupContext="shape" transform="translate(334.488,-119.055)">
			<title>64-bit register.86</title>
			<path d="M0 130.64 L0 158.99" class="st1"/>
		</g>
		<g id="shape87-176" v:mID="87" v:groupContext="shape" transform="translate(357.165,-119.055)">
			<title>64-bit register.87</title>
			<path d="M0 130.64 L0 158.99" class="st1"/>
		</g>
		<g id="shape88-179" v:mID="88" v:groupContext="shape" transform="translate(368.504,-119.055)">
			<title>Sheet.88</title>
			<path d="M0 130.64 L0 158.99" class="st1"/>
		</g>
		<g id="shape89-182" v:mID="89" v:groupContext="shape" transform="translate(379.843,-119.055)">
			<title>64-bit register.89</title>
			<path d="M0 130.64 L0 158.99" class="st1"/>
		</g>
		<g id="shape63-185" v:mID="63" v:groupContext="shape" transform="translate(255.118,-119.055)">
			<title>64-bit register.63</title>
			<desc>BSU</desc>
			<v:textBlock v:margins="rect(0,0,0,0)" v:tabSpace="42.5197"/>
			<v:textRect cx="11.3386" cy="144.817" width="22.68" height="28.3465"/>
			<text x="3.11" y="147.22" class="st3" v:langID="2057"><v:paragraph v:horizAlign="1"/><v:tabList/>BSU</text>		</g>
		<g id="shape61-187" v:mID="61" v:groupContext="shape" transform="translate(391.181,-107.717) scale(-1,1)">
			<title>Bit name 2</title>
			<desc>VM</desc>
			<v:textBlock v:margins="rect(1,0,1,2)" v:tabSpace="42.5197"/>
			<v:textRect cx="-8.50394" cy="158.99" width="17.01" height="11.3386"/>
			<path d="M5.67 150.49 L5.67 158.99 L0 158.99" class="st4"/>
			<text x="2" y="161.39" transform="scale(-1,1)" class="st3" v:langID="2057"><v:paragraph/><v:tabList/>VM</text>		</g>
		<g id="shape96-191" v:mID="96" v:groupContext="shape" transform="translate(391.181,-96.378) scale(-1,1)">
			<title>Bit name 2.176</title>
			<desc>SWIO</desc>
			<v:textBlock v:margins="rect(1,0,1,2)" v:tabSpace="42.5197"/>
			<v:textRect cx="-12.7559" cy="158.99" width="25.52" height="11.3386"/>
			<path d="M17.01 139.15 L17.01 158.99 L0 158.99" class="st4"/>
			<text x="2" y="161.39" transform="scale(-1,1)" class="st3" v:langID="2057"><v:paragraph/><v:tabList/>SWIO</text>		</g>
		<g id="shape109-195" v:mID="109" v:groupContext="shape" transform="translate(391.181,-85.0394) scale(-1,1)">
			<title>Bit name 2.109</title>
			<desc>PTW</desc>
			<v:textBlock v:margins="rect(1,0,1,2)" v:tabSpace="42.5197"/>
			<v:textRect cx="-11.3386" cy="158.99" width="22.68" height="11.3386"/>
			<path d="M28.35 127.81 L28.35 158.99 L0 158.99" class="st4"/>
			<text x="2" y="161.39" transform="scale(-1,1)" class="st3" v:langID="2057"><v:paragraph/><v:tabList/>PTW</text>		</g>
		<g id="shape121-199" v:mID="121" v:groupContext="shape" transform="translate(391.181,-73.7008) scale(-1,1)">
			<title>Bit name 2.121</title>
			<desc>FMO</desc>
			<v:textBlock v:margins="rect(1,0,1,2)" v:tabSpace="42.5197"/>
			<v:textRect cx="-11.3386" cy="158.99" width="22.68" height="11.3386"/>
			<path d="M39.69 116.47 L39.69 158.99 L0 158.99" class="st4"/>
			<text x="2" y="161.39" transform="scale(-1,1)" class="st3" v:langID="2057"><v:paragraph/><v:tabList/>FMO</text>		</g>
		<g id="shape126-203" v:mID="126" v:groupContext="shape" transform="translate(391.181,-62.3622) scale(-1,1)">
			<title>Bit name 2.126</title>
			<desc>IMO</desc>
			<v:textBlock v:margins="rect(1,0,1,2)" v:tabSpace="42.5197"/>
			<v:textRect cx="-9.92126" cy="158.99" width="19.85" height="11.3386"/>
			<path d="M51.02 105.13 L51.02 158.99 L0 158.99" class="st4"/>
			<text x="2" y="161.39" transform="scale(-1,1)" class="st3" v:langID="2057"><v:paragraph/><v:tabList/>IMO</text>		</g>
		<g id="shape127-207" v:mID="127" v:groupContext="shape" transform="translate(391.181,-51.0236) scale(-1,1)">
			<title>Bit name 2.127</title>
			<desc>AMO</desc>
			<v:textBlock v:margins="rect(1,0,1,2)" v:tabSpace="42.5197"/>
			<v:textRect cx="-11.3386" cy="158.99" width="22.68" height="11.3386"/>
			<path d="M62.36 93.79 L62.36 158.99 L0 158.99" class="st4"/>
			<text x="2" y="161.39" transform="scale(-1,1)" class="st3" v:langID="2057"><v:paragraph/><v:tabList/>AMO</text>		</g>
		<g id="shape141-211" v:mID="141" v:groupContext="shape" transform="translate(391.181,-39.685) scale(-1,1)">
			<title>Bit name 2.141</title>
			<desc>VF</desc>
			<v:textBlock v:margins="rect(1,0,1,2)" v:tabSpace="42.5197"/>
			<v:textRect cx="-7.08661" cy="158.99" width="14.18" height="11.3386"/>
			<path d="M73.7 82.45 L73.7 158.99 L0 158.99" class="st4"/>
			<text x="2" y="161.39" transform="scale(-1,1)" class="st3" v:langID="2057"><v:paragraph/><v:tabList/>VF</text>		</g>
		<g id="shape142-215" v:mID="142" v:groupContext="shape" transform="translate(391.181,-28.3465) scale(-1,1)">
			<title>Bit name 2.98</title>
			<desc>VI</desc>
			<v:textBlock v:margins="rect(1,0,1,2)" v:tabSpace="42.5197"/>
			<v:textRect cx="-5.66929" cy="158.99" width="11.34" height="11.3386"/>
			<path d="M85.04 71.12 L85.04 158.99 L0 158.99" class="st4"/>
			<text x="2" y="161.39" transform="scale(-1,1)" class="st3" v:langID="2057"><v:paragraph/><v:tabList/>VI</text>		</g>
		<g id="shape143-219" v:mID="143" v:groupContext="shape" transform="translate(391.181,-17.0079) scale(-1,1)">
			<title>Bit name 2.97</title>
			<desc>VA</desc>
			<v:textBlock v:margins="rect(1,0,1,2)" v:tabSpace="42.5197"/>
			<v:textRect cx="-7.08661" cy="158.99" width="14.18" height="11.3386"/>
			<path d="M96.38 59.78 L96.38 158.99 L0 158.99" class="st4"/>
			<text x="2" y="161.39" transform="scale(-1,1)" class="st3" v:langID="2057"><v:paragraph/><v:tabList/>VA</text>		</g>
		<g id="shape144-223" v:mID="144" v:groupContext="shape" transform="translate(391.181,-5.66929) scale(-1,1)">
			<title>Bit name 2.96</title>
			<desc>FB</desc>
			<v:textBlock v:margins="rect(1,0,1,2)" v:tabSpace="42.5197"/>
			<v:textRect cx="-7.08661" cy="158.99" width="14.18" height="11.3386"/>
			<path d="M107.72 48.44 L107.72 158.99 L0 158.99" class="st4"/>
			<text x="2" y="161.39" transform="scale(-1,1)" class="st3" v:langID="2057"><v:paragraph/><v:tabList/>FB</text>		</g>
		<g id="shape147-227" v:mID="147" v:groupContext="shape" transform="translate(255.118,-96.378) scale(-1,1)">
			<title>Bit name 2.94</title>
			<desc>TWI</desc>
			<v:textBlock v:margins="rect(1,0,1,2)" v:tabSpace="42.5197"/>
			<v:textRect cx="-9.92126" cy="158.99" width="19.85" height="11.3386"/>
			<path d="M17.01 139.15 L17.01 158.99 L0 158.99" class="st4"/>
			<text x="2" y="161.39" transform="scale(-1,1)" class="st3" v:langID="2057"><v:paragraph/><v:tabList/>TWI</text>		</g>
		<g id="shape148-231" v:mID="148" v:groupContext="shape" transform="translate(255.118,-85.0394) scale(-1,1)">
			<title>Bit name 2.93</title>
			<desc>TWE</desc>
			<v:textBlock v:margins="rect(1,0,1,2)" v:tabSpace="42.5197"/>
			<v:textRect cx="-11.3386" cy="158.99" width="22.68" height="11.3386"/>
			<path d="M28.35 127.81 L28.35 158.99 L0 158.99" class="st4"/>
			<text x="2" y="161.39" transform="scale(-1,1)" class="st3" v:langID="2057"><v:paragraph/><v:tabList/>TWE</text>		</g>
		<g id="shape25-235" v:mID="25" v:groupContext="shape" transform="translate(28.3465,-96.378)">
			<title>Bit name 2.54</title>
			<desc>TRVM</desc>
			<v:textBlock v:margins="rect(1,2,1,1)" v:tabSpace="42.5197"/>
			<v:textRect cx="-14.1732" cy="158.99" width="28.35" height="11.3386"/>
			<path d="M17.01 139.15 L17.01 158.99 L0 158.99" class="st4"/>
			<text x="-24.66" y="161.39" class="st3" v:langID="2057"><v:paragraph v:horizAlign="2"/><v:tabList/>TRVM</text>		</g>
		<g id="shape99-239" v:mID="99" v:groupContext="shape" transform="translate(73.7008,-107.717)">
			<title>Bit name 2.59</title>
			<desc>TGE</desc>
			<v:textBlock v:margins="rect(1,2,1,1)" v:tabSpace="42.5197"/>
			<v:textRect cx="-11.3386" cy="158.99" width="22.68" height="11.3386"/>
			<path d="M5.67 150.49 L5.67 158.99 L0 158.99" class="st4"/>
			<text x="-18.45" y="161.39" class="st3" v:langID="2057"><v:paragraph v:horizAlign="2"/><v:tabList/>TGE</text>		</g>
		<g id="shape100-243" v:mID="100" v:groupContext="shape" transform="translate(73.7008,-96.378)">
			<title>Bit name 2.60</title>
			<desc>TVM</desc>
			<v:textBlock v:margins="rect(1,2,1,1)" v:tabSpace="42.5197"/>
			<v:textRect cx="-11.3386" cy="158.99" width="22.68" height="11.3386"/>
			<path d="M17.01 139.15 L17.01 158.99 L0 158.99" class="st4"/>
			<text x="-18.89" y="161.39" class="st3" v:langID="2057"><v:paragraph v:horizAlign="2"/><v:tabList/>TVM</text>		</g>
		<g id="shape101-247" v:mID="101" v:groupContext="shape" transform="translate(73.7008,-85.0394)">
			<title>Bit name 2.61</title>
			<desc>TTLB</desc>
			<v:textBlock v:margins="rect(1,2,1,1)" v:tabSpace="42.5197"/>
			<v:textRect cx="-12.7559" cy="158.99" width="25.52" height="11.3386"/>
			<path d="M28.35 127.81 L28.35 158.99 L0 158.99" class="st4"/>
			<text x="-21.56" y="161.39" class="st3" v:langID="2057"><v:paragraph v:horizAlign="2"/><v:tabList/>TTLB</text>		</g>
		<g id="shape102-251" v:mID="102" v:groupContext="shape" transform="translate(73.7008,-73.7008)">
			<title>Bit name 2.102</title>
			<desc>TPU</desc>
			<v:textBlock v:margins="rect(1,2,1,1)" v:tabSpace="42.5197"/>
			<v:textRect cx="-11.3386" cy="158.99" width="22.68" height="11.3386"/>
			<path d="M39.69 116.47 L39.69 158.99 L0 158.99" class="st4"/>
			<text x="-18" y="161.39" class="st3" v:langID="2057"><v:paragraph v:horizAlign="2"/><v:tabList/>TPU</text>		</g>
		<g id="shape103-255" v:mID="103" v:groupContext="shape" transform="translate(73.7008,-62.3622)">
			<title>Bit name 2.63</title>
			<desc>TPC</desc>
			<v:textBlock v:margins="rect(1,2,1,1)" v:tabSpace="42.5197"/>
			<v:textRect cx="-11.3386" cy="158.99" width="22.68" height="11.3386"/>
			<path d="M51.02 105.13 L51.02 158.99 L0 158.99" class="st4"/>
			<text x="-18" y="161.39" class="st3" v:langID="2057"><v:paragraph v:horizAlign="2"/><v:tabList/>TPC</text>		</g>
		<g id="shape104-259" v:mID="104" v:groupContext="shape" transform="translate(73.7008,-51.0236)">
			<title>Bit name 2.64</title>
			<desc>TSW</desc>
			<v:textBlock v:margins="rect(1,2,1,1)" v:tabSpace="42.5197"/>
			<v:textRect cx="-12.7559" cy="158.99" width="25.52" height="11.3386"/>
			<path d="M62.36 93.79 L62.36 158.99 L0 158.99" class="st4"/>
			<text x="-19.77" y="161.39" class="st3" v:langID="2057"><v:paragraph v:horizAlign="2"/><v:tabList/>TSW</text>		</g>
		<g id="shape105-263" v:mID="105" v:groupContext="shape" transform="translate(73.7008,-39.685)">
			<title>Bit name 2.85</title>
			<desc>TAC</desc>
			<v:textBlock v:margins="rect(1,2,1,1)" v:tabSpace="42.5197"/>
			<v:textRect cx="-11.3386" cy="158.99" width="22.68" height="11.3386"/>
			<path d="M73.7 82.45 L73.7 158.99 L0 158.99" class="st4"/>
			<text x="-18" y="161.39" class="st3" v:langID="2057"><v:paragraph v:horizAlign="2"/><v:tabList/>TAC</text>		</g>
		<g id="shape106-267" v:mID="106" v:groupContext="shape" transform="translate(73.7008,-28.3465)">
			<title>Bit name 2.86</title>
			<desc>TIDCP</desc>
			<v:textBlock v:margins="rect(1,2,1,1)" v:tabSpace="42.5197"/>
			<v:textRect cx="-15.5906" cy="158.99" width="31.19" height="11.3386"/>
			<path d="M85.04 71.12 L85.04 158.99 L0 158.99" class="st4"/>
			<text x="-26" y="161.39" class="st3" v:langID="2057"><v:paragraph v:horizAlign="2"/><v:tabList/>TIDCP</text>		</g>
		<g id="shape107-271" v:mID="107" v:groupContext="shape" transform="translate(73.7008,-17.0079)">
			<title>Bit name 2.87</title>
			<desc>TSC</desc>
			<v:textBlock v:margins="rect(1,2,1,1)" v:tabSpace="42.5197"/>
			<v:textRect cx="-11.3386" cy="158.99" width="22.68" height="11.3386"/>
			<path d="M96.38 59.78 L96.38 158.99 L0 158.99" class="st4"/>
			<text x="-18" y="161.39" class="st3" v:langID="2057"><v:paragraph v:horizAlign="2"/><v:tabList/>TSC</text>		</g>
		<g id="shape62-275" v:mID="62" v:groupContext="shape" transform="translate(28.3465,-107.717)">
			<title>Bit name 2.62</title>
			<desc>res0</desc>
			<v:textBlock v:margins="rect(1,0,1,2)" v:tabSpace="42.5197"/>
			<v:textRect cx="-11.3386" cy="158.99" width="22.68" height="11.3386"/>
			<path d="M5.67 150.49 L5.67 158.99 L0 158.99" class="st4"/>
			<text x="-20.68" y="161.39" class="st5" v:langID="2057"><v:paragraph/><v:tabList/>RES<tspan class="st6">0</tspan></text>		</g>
		<g id="shape22-280" v:mID="22" v:groupContext="shape" transform="translate(51.0236,-119.055)">
			<title>64-bit register.22</title>
			<desc>res0</desc>
			<v:textBlock v:margins="rect(0,0,0,0)" v:tabSpace="42.5197"/>
			<v:textRect cx="11.3386" cy="144.817" width="22.68" height="28.3465"/>
			<text x="2.53" y="147.22" class="st5" v:langID="2057"><v:paragraph v:horizAlign="1"/><v:tabList/>RES<tspan class="st6">0</tspan></text>		</g>
		<g id="shape56-283" v:mID="56" v:groupContext="shape" transform="translate(255.118,-107.717) scale(-1,1)">
			<title>Bit name 2.56</title>
			<desc>DC</desc>
			<v:textBlock v:margins="rect(1,0,1,2)" v:tabSpace="42.5197"/>
			<v:textRect cx="-8.50394" cy="158.99" width="17.01" height="11.3386"/>
			<path d="M5.67 150.49 L5.67 158.99 L0 158.99" class="st4"/>
			<text x="2" y="161.39" transform="scale(-1,1)" class="st3" v:langID="2057"><v:paragraph/><v:tabList/>DC</text>		</g>
		<g id="shape57-287" v:mID="57" v:groupContext="shape" transform="translate(255.118,-73.7008) scale(-1,1)">
			<title>Bit name 2.57</title>
			<desc>TID0</desc>
			<v:textBlock v:margins="rect(1,0,1,2)" v:tabSpace="42.5197"/>
			<v:textRect cx="-11.3386" cy="158.99" width="22.68" height="11.3386"/>
			<path d="M39.69 116.47 L39.69 158.99 L0 158.99" class="st4"/>
			<text x="2" y="161.39" transform="scale(-1,1)" class="st3" v:langID="2057"><v:paragraph/><v:tabList/>TID0</text>		</g>
		<g id="shape24-291" v:mID="24" v:groupContext="shape" transform="translate(255.118,-62.3622) scale(-1,1)">
			<title>Bit name 2.24</title>
			<desc>TID1</desc>
			<v:textBlock v:margins="rect(1,0,1,2)" v:tabSpace="42.5197"/>
			<v:textRect cx="-11.3386" cy="158.99" width="22.68" height="11.3386"/>
			<path d="M51.02 105.13 L51.02 158.99 L0 158.99" class="st4"/>
			<text x="2" y="161.39" transform="scale(-1,1)" class="st3" v:langID="2057"><v:paragraph/><v:tabList/>TID1</text>		</g>
		<g id="shape23-295" v:mID="23" v:groupContext="shape" transform="translate(255.118,-51.0236) scale(-1,1)">
			<title>Bit name 2.23</title>
			<desc>TID2</desc>
			<v:textBlock v:margins="rect(1,0,1,2)" v:tabSpace="42.5197"/>
			<v:textRect cx="-11.3386" cy="158.99" width="22.68" height="11.3386"/>
			<path d="M62.36 93.79 L62.36 158.99 L0 158.99" class="st4"/>
			<text x="2" y="161.39" transform="scale(-1,1)" class="st3" v:langID="2057"><v:paragraph/><v:tabList/>TID2</text>		</g>
		<g id="shape58-299" v:mID="58" v:groupContext="shape" transform="translate(255.118,-39.685) scale(-1,1)">
			<title>Bit name 2.58</title>
			<desc>TID3</desc>
			<v:textBlock v:margins="rect(1,0,1,2)" v:tabSpace="42.5197"/>
			<v:textRect cx="-11.3386" cy="158.99" width="22.68" height="11.3386"/>
			<path d="M73.7 82.45 L73.7 158.99 L0 158.99" class="st4"/>
			<text x="2" y="161.39" transform="scale(-1,1)" class="st3" v:langID="2057"><v:paragraph/><v:tabList/>TID3</text>		</g>
	</g>
</svg>
