<?xml version="1.0" encoding="UTF-8" standalone="no"?>
<!DOCTYPE svg PUBLIC "-//W3C//DTD SVG 1.0//EN" "http://www.w3.org/TR/2001/REC-SVG-20010904/DTD/svg10.dtd">
<!-- Generated by Microsoft Visio 11.0, SVG Export, v1.0 hdcr_bit_assignments.svg Page-1 -->
<svg xmlns="http://www.w3.org/2000/svg" xmlns:v="http://schemas.microsoft.com/visio/2003/SVGExtensions/" width="5.06159in"
		height="1.22394in" viewBox="0 0 364.435 88.124" xml:space="preserve" color-interpolation-filters="sRGB" class="st9">
	<v:documentProperties v:langID="1033" v:metric="true" v:viewMarkup="false"/>

	<style type="text/css">
	<![CDATA[
		.st1 {fill:#000000;font-family:Arial;font-size:0.666664em}
		.st2 {fill:none;stroke:none;stroke-linecap:round;stroke-linejoin:round;stroke-width:0.0169691}
		.st3 {fill:#000000;font-family:Arial;font-size:0.533318em}
		.st4 {font-size:1.25003em}
		.st5 {fill:none;visibility:hidden}
		.st6 {stroke:#000000;stroke-linecap:butt;stroke-width:0.8}
		.st7 {stroke:#000000;stroke-dasharray:0.25,0.5;stroke-linecap:butt;stroke-width:0.25}
		.st8 {stroke:#000000;stroke-linecap:butt;stroke-width:0.5}
		.st9 {fill:none;fill-rule:evenodd;font-size:12;overflow:visible;stroke-linecap:square;stroke-miterlimit:3}
	]]>
	</style>

	<g v:mID="0" v:index="1" v:groupContext="foregroundPage">
		<title>Page-1</title>
		<v:pageProperties v:drawingScale="0.0393701" v:pageScale="0.0393701" v:drawingUnits="24" v:shadowOffsetX="0"
				v:shadowOffsetY="0" v:shadowType="1" v:shadowScale="0"/>
		<g id="shape1-1" v:mID="1" v:groupContext="shape" transform="translate(0.8,-76.5354)">
			<title>Sheet.1</title>
			<desc>31</desc>
			<v:textBlock v:margins="rect(0,0,0,0)" v:tabSpace="42.5197"/>
			<v:textRect cx="5.66929" cy="82.4547" width="11.34" height="11.3386"/>
			<text x="1.22" y="84.85" class="st1" v:langID="1033"><v:paragraph v:horizAlign="1"/><v:tabList/>31</text>		</g>
		<g id="shape2-3" v:mID="2" v:groupContext="shape" transform="translate(227.572,-76.5354)">
			<title>Sheet.2</title>
			<desc>11</desc>
			<v:textBlock v:margins="rect(0,0,0,0)" v:tabSpace="42.5197"/>
			<v:textRect cx="5.66929" cy="82.4547" width="11.34" height="11.3386"/>
			<text x="1.22" y="84.85" class="st1" v:langID="1033"><v:paragraph v:horizAlign="1"/><v:tabList/>11</text>		</g>
		<g id="shape3-5" v:mID="3" v:groupContext="shape" transform="translate(238.91,-76.5354)">
			<title>Sheet.3</title>
			<desc>10</desc>
			<v:textBlock v:margins="rect(0,0,0,0)" v:tabSpace="42.5197"/>
			<v:textRect cx="5.66929" cy="82.4547" width="11.34" height="11.3386"/>
			<text x="1.22" y="84.85" class="st1" v:langID="1033"><v:paragraph v:horizAlign="1"/><v:tabList/>10</text>		</g>
		<g id="shape4-7" v:mID="4" v:groupContext="shape" transform="translate(250.249,-76.5354)">
			<title>Sheet.4</title>
			<desc>9</desc>
			<v:textBlock v:margins="rect(0,0,0,0)" v:tabSpace="42.5197"/>
			<v:textRect cx="5.66929" cy="82.4547" width="11.34" height="11.3386"/>
			<text x="3.44" y="84.85" class="st1" v:langID="1033"><v:paragraph v:horizAlign="1"/><v:tabList/>9</text>		</g>
		<g id="shape5-9" v:mID="5" v:groupContext="shape" transform="translate(261.587,-76.5354)">
			<title>Sheet.5</title>
			<desc>8</desc>
			<v:textBlock v:margins="rect(0,0,0,0)" v:tabSpace="42.5197"/>
			<v:textRect cx="5.66929" cy="82.4547" width="11.34" height="11.3386"/>
			<text x="3.44" y="84.85" class="st1" v:langID="1033"><v:paragraph v:horizAlign="1"/><v:tabList/>8</text>		</g>
		<g id="shape6-11" v:mID="6" v:groupContext="shape" transform="translate(272.926,-76.5354)">
			<title>Sheet.6</title>
			<desc>7</desc>
			<v:textBlock v:margins="rect(0,0,0,0)" v:tabSpace="42.5197"/>
			<v:textRect cx="5.66929" cy="82.4547" width="11.34" height="11.3386"/>
			<text x="3.44" y="84.85" class="st1" v:langID="1033"><v:paragraph v:horizAlign="1"/><v:tabList/>7</text>		</g>
		<g id="shape7-13" v:mID="7" v:groupContext="shape" transform="translate(284.265,-76.5354)">
			<title>Sheet.7</title>
			<desc>6</desc>
			<v:textBlock v:margins="rect(0,0,0,0)" v:tabSpace="42.5197"/>
			<v:textRect cx="5.66929" cy="82.4547" width="11.34" height="11.3386"/>
			<text x="3.44" y="84.85" class="st1" v:langID="1033"><v:paragraph v:horizAlign="1"/><v:tabList/>6</text>		</g>
		<g id="shape8-15" v:mID="8" v:groupContext="shape" transform="translate(295.603,-76.5354)">
			<title>Sheet.8</title>
			<desc>5</desc>
			<v:textBlock v:margins="rect(0,0,0,0)" v:tabSpace="42.5197"/>
			<v:textRect cx="5.66929" cy="82.4547" width="11.34" height="11.3386"/>
			<text x="3.44" y="84.85" class="st1" v:langID="1033"><v:paragraph v:horizAlign="1"/><v:tabList/>5</text>		</g>
		<g id="shape9-17" v:mID="9" v:groupContext="shape" transform="translate(306.942,-76.5354)">
			<title>Sheet.9</title>
			<desc>4</desc>
			<v:textBlock v:margins="rect(0,0,0,0)" v:tabSpace="42.5197"/>
			<v:textRect cx="5.66929" cy="82.4547" width="11.34" height="11.3386"/>
			<text x="3.44" y="84.85" class="st1" v:langID="1033"><v:paragraph v:horizAlign="1"/><v:tabList/>4</text>		</g>
		<g id="shape10-19" v:mID="10" v:groupContext="shape" transform="translate(352.296,-76.5354)">
			<title>Sheet.10</title>
			<desc>0</desc>
			<v:textBlock v:margins="rect(0,0,0,0)" v:tabSpace="42.5197"/>
			<v:textRect cx="5.66929" cy="82.4547" width="11.34" height="11.3386"/>
			<text x="3.44" y="84.85" class="st1" v:langID="1033"><v:paragraph v:horizAlign="1"/><v:tabList/>0</text>		</g>
		<g id="shape11-21" v:mID="11" v:groupContext="shape" transform="translate(0.8,-48.189)">
			<title>Sheet.11</title>
			<desc>res0</desc>
			<v:textBlock v:margins="rect(1,0,1,0)" v:tabSpace="42.5197"/>
			<v:textRect cx="113.386" cy="73.9508" width="226.78" height="28.3465"/>
			<rect x="0" y="59.7776" width="226.772" height="28.3465" class="st2"/>
			<text x="104.58" y="76.35" class="st3" v:langID="2057"><v:paragraph v:horizAlign="1"/><v:tabList/>RES<tspan class="st4">0</tspan></text>		</g>
		<g id="shape12-25" v:mID="12" v:groupContext="shape" transform="translate(306.942,-48.189)">
			<title>Sheet.12</title>
			<desc>HPMN</desc>
			<v:textBlock v:margins="rect(1,0,1,0)" v:tabSpace="42.5197"/>
			<v:textRect cx="28.3465" cy="73.9508" width="56.7" height="28.3465"/>
			<rect x="0" y="59.7776" width="56.6929" height="28.3465" class="st2"/>
			<text x="16.57" y="76.35" class="st1" v:langID="1033"><v:paragraph v:horizAlign="1"/><v:tabList/>HPMN</text>		</g>
		<g id="shape13-28" v:mID="13" v:groupContext="shape" transform="translate(0.8,-48.189)">
			<title>Sheet.13</title>
			<rect x="0" y="59.7776" width="362.835" height="28.3465" class="st5"/>
			<rect x="0" y="59.7776" width="362.835" height="28.3465" class="st6"/>
		</g>
		<g id="shape14-31" v:mID="14" v:groupContext="shape" transform="translate(238.91,-48.189)">
			<title>Sheet.14</title>
			<path d="M0 59.78 L0 88.12" class="st6"/>
		</g>
		<g id="shape15-34" v:mID="15" v:groupContext="shape" transform="translate(250.249,-48.189)">
			<title>Sheet.15</title>
			<path d="M0 59.78 L0 88.12" class="st6"/>
		</g>
		<g id="shape16-37" v:mID="16" v:groupContext="shape" transform="translate(261.587,-48.189)">
			<title>Sheet.16</title>
			<path d="M0 59.78 L0 88.12" class="st6"/>
		</g>
		<g id="shape17-40" v:mID="17" v:groupContext="shape" transform="translate(272.926,-48.189)">
			<title>Sheet.17</title>
			<path d="M0 59.78 L0 88.12" class="st6"/>
		</g>
		<g id="shape18-43" v:mID="18" v:groupContext="shape" transform="translate(284.265,-48.189)">
			<title>Sheet.18</title>
			<path d="M0 59.78 L0 88.12" class="st6"/>
		</g>
		<g id="shape19-46" v:mID="19" v:groupContext="shape" transform="translate(295.603,-48.189)">
			<title>Sheet.19</title>
			<path d="M0 59.78 L0 88.12" class="st6"/>
		</g>
		<g id="shape20-49" v:mID="20" v:groupContext="shape" transform="translate(306.942,-48.189)">
			<title>Sheet.20</title>
			<path d="M0 59.78 L0 88.12" class="st6"/>
		</g>
		<g id="shape21-52" v:mID="21" v:groupContext="shape" transform="translate(406.404,0.25) rotate(90)">
			<title>Signal 0</title>
			<path d="M0 88.12 L11.34 88.12" class="st7"/>
		</g>
		<g id="shape22-55" v:mID="22" v:groupContext="shape" transform="translate(361.05,0.25) rotate(90)">
			<title>Signal 0.102</title>
			<path d="M0 88.12 L11.34 88.12" class="st7"/>
		</g>
		<g id="shape23-58" v:mID="23" v:groupContext="shape" transform="translate(315.696,0.25) rotate(90)">
			<title>Signal 0.103</title>
			<path d="M0 88.12 L11.34 88.12" class="st7"/>
		</g>
		<g id="shape24-61" v:mID="24" v:groupContext="shape" transform="translate(270.341,0.25) rotate(90)">
			<title>Signal 0.104</title>
			<path d="M0 88.12 L11.34 88.12" class="st7"/>
		</g>
		<g id="shape25-64" v:mID="25" v:groupContext="shape" transform="translate(224.987,0.25) rotate(90)">
			<title>Signal 0.105</title>
			<path d="M0 88.12 L11.34 88.12" class="st7"/>
		</g>
		<g id="shape26-67" v:mID="26" v:groupContext="shape" transform="translate(179.633,0.25) rotate(90)">
			<title>Signal 0.106</title>
			<path d="M0 88.12 L11.34 88.12" class="st7"/>
		</g>
		<g id="shape27-70" v:mID="27" v:groupContext="shape" transform="translate(134.278,0.25) rotate(90)">
			<title>Signal 0.107</title>
			<path d="M0 88.12 L11.34 88.12" class="st7"/>
		</g>
		<g id="shape28-73" v:mID="28" v:groupContext="shape" transform="translate(88.924,0.25) rotate(90)">
			<title>Signal 0.108</title>
			<path d="M0 88.12 L11.34 88.12" class="st7"/>
		</g>
		<g id="shape29-76" v:mID="29" v:groupContext="shape" transform="translate(451.759,0.25) rotate(90)">
			<title>Signal 0.109</title>
			<path d="M0 88.12 L11.34 88.12" class="st7"/>
		</g>
		<g id="shape42-79" v:mID="42" v:groupContext="shape" transform="translate(216.233,-76.5354)">
			<title>32-bit register.213</title>
			<desc>12</desc>
			<v:textBlock v:margins="rect(0,0,0,0)" v:tabSpace="42.5197"/>
			<v:textRect cx="5.66929" cy="82.4547" width="11.34" height="11.3386"/>
			<text x="1.22" y="84.85" class="st1" v:langID="1033"><v:paragraph v:horizAlign="1"/><v:tabList/>12</text>		</g>
		<g id="shape43-81" v:mID="43" v:groupContext="shape" transform="translate(227.572,-48.189)">
			<title>32-bit register.214</title>
			<path d="M0 59.78 L0 88.12" class="st6"/>
		</g>
		<g id="shape46-84" v:mID="46" v:groupContext="shape" transform="translate(312.611,-39.685) scale(-1,1)">
			<title>Bit name 2</title>
			<desc>TPMCR</desc>
			<v:textBlock v:margins="rect(1,0,1,1)" v:tabSpace="42.5197"/>
			<v:textRect cx="-15.5906" cy="88.124" width="31.19" height="11.3386"/>
			<path d="M11.34 82.45 L11.34 88.12 L0 88.12" class="st8"/>
			<text x="1.87" y="90.52" transform="scale(-1,1)" class="st1" v:langID="1033"><v:paragraph v:horizAlign="1"/><v:tabList/>TPMCR</text>		</g>
		<g id="shape30-88" v:mID="30" v:groupContext="shape" transform="translate(312.611,-28.3465) scale(-1,1)">
			<title>Bit name 2.30</title>
			<desc>TPM</desc>
			<v:textBlock v:margins="rect(1,0,1,1)" v:tabSpace="42.5197"/>
			<v:textRect cx="-9.92126" cy="88.124" width="19.85" height="11.3386"/>
			<path d="M22.68 71.12 L22.68 88.12 L0 88.12" class="st8"/>
			<text x="1.98" y="90.52" transform="scale(-1,1)" class="st1" v:langID="1033"><v:paragraph v:horizAlign="1"/><v:tabList/>TPM</text>		</g>
		<g id="shape31-92" v:mID="31" v:groupContext="shape" transform="translate(312.611,-17.0079) scale(-1,1)">
			<title>Bit name 2.31</title>
			<desc>HPME</desc>
			<v:textBlock v:margins="rect(1,0,1,1)" v:tabSpace="42.5197"/>
			<v:textRect cx="-12.7559" cy="88.124" width="25.52" height="11.3386"/>
			<path d="M34.02 59.78 L34.02 88.12 L0 88.12" class="st8"/>
			<text x="1.7" y="90.52" transform="scale(-1,1)" class="st1" v:langID="1033"><v:paragraph v:horizAlign="1"/><v:tabList/>HPME</text>		</g>
		<g id="shape32-96" v:mID="32" v:groupContext="shape" transform="translate(312.611,-5.66929) scale(-1,1)">
			<title>Bit name 2.32</title>
			<desc>TDE</desc>
			<v:textBlock v:margins="rect(1,0,1,1)" v:tabSpace="42.5197"/>
			<v:textRect cx="-9.92126" cy="88.124" width="19.85" height="11.3386"/>
			<path d="M45.35 48.44 L45.35 88.12 L0 88.12" class="st8"/>
			<text x="2.42" y="90.52" transform="scale(-1,1)" class="st1" v:langID="2057"><v:paragraph v:horizAlign="1"/><v:tabList/>TDE</text>		</g>
		<g id="shape33-100" v:mID="33" v:groupContext="shape" transform="translate(221.902,-39.685)">
			<title>Bit name 1</title>
			<desc>TDRA</desc>
			<v:textBlock v:margins="rect(1,1,1,0)" v:tabSpace="42.5197"/>
			<v:textRect cx="-12.7559" cy="88.124" width="25.52" height="11.3386"/>
			<path d="M11.34 82.45 L11.34 88.12 L0 88.12" class="st8"/>
			<text x="-24.14" y="90.52" class="st1" v:langID="1033"><v:paragraph v:horizAlign="1"/><v:tabList/>TDRA</text>		</g>
		<g id="shape38-104" v:mID="38" v:groupContext="shape" transform="translate(221.902,-28.3465)">
			<title>Bit name 1.38</title>
			<desc>TDOSA</desc>
			<v:textBlock v:margins="rect(1,1,1,0)" v:tabSpace="42.5197"/>
			<v:textRect cx="-15.5906" cy="88.124" width="31.19" height="11.3386"/>
			<path d="M22.68 71.12 L22.68 88.12 L0 88.12" class="st8"/>
			<text x="-29.87" y="90.52" class="st1" v:langID="2057"><v:paragraph v:horizAlign="1"/><v:tabList/>TDOSA</text>		</g>
		<g id="shape34-108" v:mID="34" v:groupContext="shape" transform="translate(221.902,-17.0079)">
			<title>Bit name 1.34</title>
			<desc>TDA</desc>
			<v:textBlock v:margins="rect(1,1,1,0)" v:tabSpace="42.5197"/>
			<v:textRect cx="-9.92126" cy="88.124" width="19.85" height="11.3386"/>
			<path d="M34.02 59.78 L34.02 88.12 L0 88.12" class="st8"/>
			<text x="-18.42" y="90.52" class="st1" v:langID="2057"><v:paragraph v:horizAlign="1"/><v:tabList/>TDA</text>		</g>
	</g>
</svg>
