<?xml version="1.0" encoding="UTF-8" standalone="no"?>
<!DOCTYPE svg PUBLIC "-//W3C//DTD SVG 1.0//EN" "http://www.w3.org/TR/2001/REC-SVG-20010904/DTD/svg10.dtd">
<!-- Generated by Microsoft Visio 11.0, SVG Export, v1.0 pmsrr_bit_assignmnets.svg Page-1 -->
<svg xmlns="http://www.w3.org/2000/svg" xmlns:v="http://schemas.microsoft.com/visio/2003/SVGExtensions/" width="5.06159in"
		height="1.58522in" viewBox="0 0 364.435 114.136" xml:space="preserve" color-interpolation-filters="sRGB" class="st7">
	<v:documentProperties v:langID="1033" v:viewMarkup="false"/>

	<style type="text/css">
	<![CDATA[
		.st1 {stroke:#000000;stroke-linecap:butt;stroke-width:0.8}
		.st2 {stroke:#000000;stroke-dasharray:0.25,0.5;stroke-linecap:butt;stroke-width:0.25}
		.st3 {fill:#000000;font-family:Arial;font-size:0.666664em}
		.st4 {fill:none;stroke:none;stroke-linecap:round;stroke-linejoin:round;stroke-width:0.0169691}
		.st5 {fill:none;stroke:none;stroke-linecap:butt;stroke-width:0.5}
		.st6 {stroke:#000000;stroke-linecap:butt;stroke-width:0.5}
		.st7 {fill:none;fill-rule:evenodd;font-size:12;overflow:visible;stroke-linecap:square;stroke-miterlimit:3}
	]]>
	</style>

	<g v:mID="0" v:index="1" v:groupContext="foregroundPage">
		<title>Page-1</title>
		<v:pageProperties v:drawingScale="0.0393701" v:pageScale="0.0393701" v:drawingUnits="24" v:shadowOffsetX="0"
				v:shadowOffsetY="0" v:shadowType="1" v:shadowScale="0"/>
		<g id="shape1-1" v:mID="1" v:groupContext="shape" transform="translate(363.635,-74.2008) scale(-1,1)">
			<title>64-bit register.156</title>
			<path d="M0 85.79 L362.83 85.79 L362.83 114.14 L0 114.14" class="st1"/>
		</g>
		<g id="shape2-4" v:mID="2" v:groupContext="shape" transform="translate(114.936,0.25) rotate(90)">
			<title>64-bit register.169</title>
			<path d="M0 114.14 L11.34 114.14" class="st2"/>
		</g>
		<g id="shape3-7" v:mID="3" v:groupContext="shape" transform="translate(363.635,-74.2008)">
			<title>64-bit register.157</title>
			<path d="M0 85.79 L0 114.14" class="st1"/>
		</g>
		<g id="shape11-10" v:mID="11" v:groupContext="shape" transform="translate(160.29,0.25) rotate(90)">
			<title>64-bit register.11</title>
			<path d="M0 114.14 L11.34 114.14" class="st2"/>
		</g>
		<g id="shape12-13" v:mID="12" v:groupContext="shape" transform="translate(205.644,0.25) rotate(90)">
			<title>64-bit register.12</title>
			<path d="M0 114.14 L11.34 114.14" class="st2"/>
		</g>
		<g id="shape13-16" v:mID="13" v:groupContext="shape" transform="translate(250.999,0.25) rotate(90)">
			<title>64-bit register.13</title>
			<path d="M0 114.14 L11.34 114.14" class="st2"/>
		</g>
		<g id="shape14-19" v:mID="14" v:groupContext="shape" transform="translate(296.353,0.25) rotate(90)">
			<title>64-bit register.14</title>
			<path d="M0 114.14 L11.34 114.14" class="st2"/>
		</g>
		<g id="shape15-22" v:mID="15" v:groupContext="shape" transform="translate(341.707,0.25) rotate(90)">
			<title>64-bit register.15</title>
			<path d="M0 114.14 L11.34 114.14" class="st2"/>
		</g>
		<g id="shape16-25" v:mID="16" v:groupContext="shape" transform="translate(432.416,0.25) rotate(90)">
			<title>64-bit register.16</title>
			<path d="M0 114.14 L11.34 114.14" class="st2"/>
		</g>
		<g id="shape17-28" v:mID="17" v:groupContext="shape" transform="translate(477.77,0.25) rotate(90)">
			<title>64-bit register.17</title>
			<path d="M0 114.14 L11.34 114.14" class="st2"/>
		</g>
		<g id="shape18-31" v:mID="18" v:groupContext="shape" transform="translate(0.8,-102.547)">
			<title>64-bit register.179</title>
			<desc>31</desc>
			<v:textBlock v:margins="rect(0,0,0,0)" v:tabSpace="42.5197"/>
			<v:textRect cx="5.66929" cy="108.467" width="11.34" height="11.3386"/>
			<text x="1.22" y="110.87" class="st3" v:langID="1033"><v:paragraph v:horizAlign="1"/><v:tabList/>31</text>		</g>
		<g id="shape19-33" v:mID="19" v:groupContext="shape" transform="translate(352.296,-102.547)">
			<title>64-bit register.19</title>
			<desc>0</desc>
			<v:textBlock v:margins="rect(0,0,0,0)" v:tabSpace="42.5197"/>
			<v:textRect cx="5.66929" cy="108.467" width="11.34" height="11.3386"/>
			<text x="3.44" y="110.87" class="st3" v:langID="1033"><v:paragraph v:horizAlign="1"/><v:tabList/>0</text>		</g>
		<g id="shape20-35" v:mID="20" v:groupContext="shape" transform="translate(12.1386,-74.2008)">
			<title>64-bit register.88</title>
			<desc>Reserved</desc>
			<v:textBlock v:margins="rect(1,0,1,0)" v:tabSpace="42.5197"/>
			<v:textRect cx="141.732" cy="99.9626" width="283.47" height="28.3465"/>
			<rect x="0" y="85.7894" width="283.465" height="28.3465" class="st4"/>
			<text x="124.61" y="102.36" class="st3" v:langID="1033"><v:paragraph v:horizAlign="1"/><v:tabList/>Reserved</text>		</g>
		<g id="shape21-38" v:mID="21" v:groupContext="shape" transform="translate(387.062,0.25) rotate(90)">
			<title>64-bit register.21</title>
			<path d="M0 114.14 L11.34 114.14" class="st2"/>
		</g>
		<g id="shape41-41" v:mID="41" v:groupContext="shape" transform="translate(270.091,-57.1929)">
			<title>Sheet.41</title>
			<desc>RP5</desc>
			<v:textBlock v:margins="rect(1,2,1,0)" v:tabSpace="42.5197"/>
			<v:textRect cx="11.3386" cy="108.467" width="22.68" height="11.3386"/>
			<rect x="0" y="102.797" width="22.6772" height="11.3386" class="st5"/>
			<text x="5.11" y="110.87" class="st3" v:langID="1033"><v:paragraph v:horizAlign="2"/><v:tabList/>RP5</text>		</g>
		<g id="shape43-44" v:mID="43" v:groupContext="shape" transform="translate(340.957,-102.547)">
			<title>64-bit register.43</title>
			<desc>1</desc>
			<v:textBlock v:margins="rect(0,0,0,0)" v:tabSpace="42.5197"/>
			<v:textRect cx="5.66929" cy="108.467" width="11.34" height="11.3386"/>
			<text x="3.44" y="110.87" class="st3" v:langID="1033"><v:paragraph v:horizAlign="1"/><v:tabList/>1</text>		</g>
		<g id="shape45-46" v:mID="45" v:groupContext="shape" transform="translate(352.296,-74.2008)">
			<title>64-bit register.45</title>
			<path d="M0 85.79 L0 114.14" class="st1"/>
		</g>
		<g id="shape72-49" v:mID="72" v:groupContext="shape" transform="translate(301.272,-62.8622) scale(-1,1)">
			<title>Sheet.72</title>
			<path d="M0 105.63 L0 114.14 L5.67 114.14" class="st6"/>
		</g>
		<g id="shape73-52" v:mID="73" v:groupContext="shape" transform="translate(12.1386,-74.2008)">
			<title>64-bit register.73</title>
			<path d="M0 85.79 L0 114.14" class="st1"/>
		</g>
		<g id="shape74-55" v:mID="74" v:groupContext="shape" transform="translate(14.9732,-57.1929)">
			<title>Sheet.74</title>
			<desc>RC</desc>
			<v:textBlock v:margins="rect(1,2,1,0)" v:tabSpace="42.5197"/>
			<v:textRect cx="8.50394" cy="108.467" width="17.01" height="11.3386"/>
			<rect x="0" y="102.797" width="17.0079" height="11.3386" class="st5"/>
			<text x="0" y="110.87" class="st3" v:langID="1033"><v:paragraph/><v:tabList/>RC</text>		</g>
		<g id="shape75-58" v:mID="75" v:groupContext="shape" transform="translate(6.46929,-62.8622)">
			<title>Sheet.75</title>
			<path d="M0 105.63 L0 114.14 L5.67 114.14" class="st6"/>
		</g>
		<g id="shape76-61" v:mID="76" v:groupContext="shape" transform="translate(329.619,-102.547)">
			<title>64-bit register.76</title>
			<desc>2</desc>
			<v:textBlock v:margins="rect(0,0,0,0)" v:tabSpace="42.5197"/>
			<v:textRect cx="5.66929" cy="108.467" width="11.34" height="11.3386"/>
			<text x="3.44" y="110.87" class="st3" v:langID="1033"><v:paragraph v:horizAlign="1"/><v:tabList/>2</text>		</g>
		<g id="shape77-63" v:mID="77" v:groupContext="shape" transform="translate(318.28,-102.547)">
			<title>64-bit register.77</title>
			<desc>3</desc>
			<v:textBlock v:margins="rect(0,0,0,0)" v:tabSpace="42.5197"/>
			<v:textRect cx="5.66929" cy="108.467" width="11.34" height="11.3386"/>
			<text x="3.44" y="110.87" class="st3" v:langID="1033"><v:paragraph v:horizAlign="1"/><v:tabList/>3</text>		</g>
		<g id="shape78-65" v:mID="78" v:groupContext="shape" transform="translate(306.942,-102.547)">
			<title>64-bit register.78</title>
			<desc>4</desc>
			<v:textBlock v:margins="rect(0,0,0,0)" v:tabSpace="42.5197"/>
			<v:textRect cx="5.66929" cy="108.467" width="11.34" height="11.3386"/>
			<text x="3.44" y="110.87" class="st3" v:langID="1033"><v:paragraph v:horizAlign="1"/><v:tabList/>4</text>		</g>
		<g id="shape79-67" v:mID="79" v:groupContext="shape" transform="translate(295.603,-102.547)">
			<title>64-bit register.79</title>
			<desc>5</desc>
			<v:textBlock v:margins="rect(0,0,0,0)" v:tabSpace="42.5197"/>
			<v:textRect cx="5.66929" cy="108.467" width="11.34" height="11.3386"/>
			<text x="3.44" y="110.87" class="st3" v:langID="1033"><v:paragraph v:horizAlign="1"/><v:tabList/>5</text>		</g>
		<g id="shape80-69" v:mID="80" v:groupContext="shape" transform="translate(284.265,-102.547)">
			<title>64-bit register.80</title>
			<desc>6</desc>
			<v:textBlock v:margins="rect(0,0,0,0)" v:tabSpace="42.5197"/>
			<v:textRect cx="5.66929" cy="108.467" width="11.34" height="11.3386"/>
			<text x="3.44" y="110.87" class="st3" v:langID="1033"><v:paragraph v:horizAlign="1"/><v:tabList/>6</text>		</g>
		<g id="shape81-71" v:mID="81" v:groupContext="shape" transform="translate(295.603,-74.2008)">
			<title>64-bit register.81</title>
			<path d="M0 85.79 L0 114.14" class="st1"/>
		</g>
		<g id="shape82-74" v:mID="82" v:groupContext="shape" transform="translate(306.942,-74.2008)">
			<title>64-bit register.82</title>
			<path d="M0 85.79 L0 114.14" class="st1"/>
		</g>
		<g id="shape83-77" v:mID="83" v:groupContext="shape" transform="translate(318.28,-74.2008)">
			<title>64-bit register.83</title>
			<path d="M0 85.79 L0 114.14" class="st1"/>
		</g>
		<g id="shape84-80" v:mID="84" v:groupContext="shape" transform="translate(329.619,-74.2008)">
			<title>64-bit register.84</title>
			<path d="M0 85.79 L0 114.14" class="st1"/>
		</g>
		<g id="shape85-83" v:mID="85" v:groupContext="shape" transform="translate(340.957,-74.2008)">
			<title>64-bit register.85</title>
			<path d="M0 85.79 L0 114.14" class="st1"/>
		</g>
		<g id="shape86-86" v:mID="86" v:groupContext="shape" transform="translate(312.611,-51.5236) scale(-1,1)">
			<title>Sheet.86</title>
			<path d="M0 94.29 L0 114.14 L17.01 114.14" class="st6"/>
		</g>
		<g id="shape87-89" v:mID="87" v:groupContext="shape" transform="translate(323.95,-40.185) scale(-1,1)">
			<title>Sheet.87</title>
			<path d="M0 82.95 L0 114.14 L28.35 114.14" class="st6"/>
		</g>
		<g id="shape88-92" v:mID="88" v:groupContext="shape" transform="translate(335.288,-28.8465) scale(-1,1)">
			<title>Sheet.88</title>
			<path d="M0 71.62 L0 114.14 L39.69 114.14" class="st6"/>
		</g>
		<g id="shape89-95" v:mID="89" v:groupContext="shape" transform="translate(346.627,-17.5079) scale(-1,1)">
			<title>Sheet.89</title>
			<path d="M0 60.28 L0 114.14 L51.02 114.14" class="st6"/>
		</g>
		<g id="shape90-98" v:mID="90" v:groupContext="shape" transform="translate(357.965,-6.16929) scale(-1,1)">
			<title>Sheet.90</title>
			<path d="M0 48.94 L0 114.14 L62.36 114.14" class="st6"/>
		</g>
		<g id="shape91-101" v:mID="91" v:groupContext="shape" transform="translate(270.091,-45.8543)">
			<title>Sheet.91</title>
			<desc>RP4</desc>
			<v:textBlock v:margins="rect(1,2,1,0)" v:tabSpace="42.5197"/>
			<v:textRect cx="11.3386" cy="108.467" width="22.68" height="11.3386"/>
			<rect x="0" y="102.797" width="22.6772" height="11.3386" class="st5"/>
			<text x="5.11" y="110.87" class="st3" v:langID="1033"><v:paragraph v:horizAlign="2"/><v:tabList/>RP4</text>		</g>
		<g id="shape92-104" v:mID="92" v:groupContext="shape" transform="translate(270.091,-34.5157)">
			<title>Sheet.92</title>
			<desc>RP3</desc>
			<v:textBlock v:margins="rect(1,2,1,0)" v:tabSpace="42.5197"/>
			<v:textRect cx="11.3386" cy="108.467" width="22.68" height="11.3386"/>
			<rect x="0" y="102.797" width="22.6772" height="11.3386" class="st5"/>
			<text x="5.11" y="110.87" class="st3" v:langID="1033"><v:paragraph v:horizAlign="2"/><v:tabList/>RP3</text>		</g>
		<g id="shape93-107" v:mID="93" v:groupContext="shape" transform="translate(270.091,-23.1772)">
			<title>Sheet.93</title>
			<desc>RP2</desc>
			<v:textBlock v:margins="rect(1,2,1,0)" v:tabSpace="42.5197"/>
			<v:textRect cx="11.3386" cy="108.467" width="22.68" height="11.3386"/>
			<rect x="0" y="102.797" width="22.6772" height="11.3386" class="st5"/>
			<text x="5.11" y="110.87" class="st3" v:langID="1033"><v:paragraph v:horizAlign="2"/><v:tabList/>RP2</text>		</g>
		<g id="shape94-110" v:mID="94" v:groupContext="shape" transform="translate(270.091,-11.8386)">
			<title>Sheet.94</title>
			<desc>RP1</desc>
			<v:textBlock v:margins="rect(1,2,1,0)" v:tabSpace="42.5197"/>
			<v:textRect cx="11.3386" cy="108.467" width="22.68" height="11.3386"/>
			<rect x="0" y="102.797" width="22.6772" height="11.3386" class="st5"/>
			<text x="5.11" y="110.87" class="st3" v:langID="1033"><v:paragraph v:horizAlign="2"/><v:tabList/>RP1</text>		</g>
		<g id="shape95-113" v:mID="95" v:groupContext="shape" transform="translate(270.091,-0.5)">
			<title>Sheet.95</title>
			<desc>RP0</desc>
			<v:textBlock v:margins="rect(1,2,1,0)" v:tabSpace="42.5197"/>
			<v:textRect cx="11.3386" cy="108.467" width="22.68" height="11.3386"/>
			<rect x="0" y="102.797" width="22.6772" height="11.3386" class="st5"/>
			<text x="5.11" y="110.87" class="st3" v:langID="1033"><v:paragraph v:horizAlign="2"/><v:tabList/>RP0</text>		</g>
		<g id="shape96-116" v:mID="96" v:groupContext="shape" transform="translate(12.1386,-102.547)">
			<title>64-bit register.96</title>
			<desc>30</desc>
			<v:textBlock v:margins="rect(0,0,0,0)" v:tabSpace="42.5197"/>
			<v:textRect cx="5.66929" cy="108.467" width="11.34" height="11.3386"/>
			<text x="1.22" y="110.87" class="st3" v:langID="1033"><v:paragraph v:horizAlign="1"/><v:tabList/>30</text>		</g>
	</g>
</svg>
