<?xml version="1.0" encoding="UTF-8" standalone="no"?>
<!DOCTYPE svg PUBLIC "-//W3C//DTD SVG 1.0//EN" "http://www.w3.org/TR/2001/REC-SVG-20010904/DTD/svg10.dtd">
<!-- Generated by Microsoft Visio 11.0, SVG Export, v1.0 pmu_block_diagram.svg Page-1 -->
<svg xmlns="http://www.w3.org/2000/svg" xmlns:v="http://schemas.microsoft.com/visio/2003/SVGExtensions/" width="5.7083in"
		height="4.26586in" viewBox="0 0 410.997 307.142" xml:space="preserve" color-interpolation-filters="sRGB" class="st11">
	<v:documentProperties v:langID="1033" v:metric="true" v:viewMarkup="false"/>

	<style type="text/css">
	<![CDATA[
		.st1 {fill:none;stroke:#000000;stroke-linecap:butt;stroke-width:0.5}
		.st2 {fill:#000000;font-family:Arial;font-size:0.666664em}
		.st3 {font-size:1em}
		.st4 {marker-end:url(#mrkr4-42);stroke:#000000;stroke-linecap:butt;stroke-width:0.5}
		.st5 {fill:#000000;fill-opacity:1;stroke:#000000;stroke-opacity:1;stroke-width:0.21739130434783}
		.st6 {fill:#ffffff;stroke:none;stroke-linecap:butt;stroke-width:7.2}
		.st7 {fill:#000000;font-family:Arial;font-size:0.666664em;font-weight:bold}
		.st8 {marker-end:url(#mrkr4-42);marker-start:url(#mrkr4-52);stroke:#000000;stroke-linecap:butt;stroke-width:0.5}
		.st9 {marker-end:url(#mrkr4-42);marker-start:url(#mrkr10-67);stroke:#000000;stroke-linecap:butt;stroke-width:0.5}
		.st10 {stroke:#000000;stroke-linecap:butt;stroke-width:0.5}
		.st11 {fill:none;fill-rule:evenodd;font-size:12;overflow:visible;stroke-linecap:square;stroke-miterlimit:3}
	]]>
	</style>

	<defs id="Markers">
		<g id="lend4">
			<path d="M 2 1 L -0 0 L 2 -1 L 2 1 " style="stroke:none"/>
		</g>
		<marker id="mrkr4-42" class="st5" v:arrowType="4" v:arrowSize="1" v:setback="9.2" refX="-9.2" orient="auto"
				markerUnits="strokeWidth">
			<use xlink:href="#lend4" transform="scale(-4.6,-4.6) "/>
		</marker>
		<marker id="mrkr4-52" class="st5" v:arrowType="4" v:arrowSize="1" v:setback="8.48" refX="8.48" orient="auto"
				markerUnits="strokeWidth">
			<use xlink:href="#lend4" transform="scale(4.6) "/>
		</marker>
		<g id="lend10">
			<path
					d="M 0 0.75 C -0.414214 0.75 -0.75 0.414214 -0.75 -0 -0.75 -0.414214 -0.414214 -0.75 -0 -0.75 0.414214 -0.75 0.75 -0.414214 0.75 -0 0.75 0.414214 0.414214 0.75 0 0.75 Z "
					style="stroke:none"/>
		</g>
		<marker id="mrkr10-67" class="st5" v:arrowType="10" v:arrowSize="1" v:setback="2.73" refX="2.73" orient="auto"
				markerUnits="strokeWidth">
			<use xlink:href="#lend10" transform="scale(4.6) "/>
		</marker>
	</defs>
	<g v:mID="0" v:index="1" v:groupContext="foregroundPage">
		<title>Page-1</title>
		<v:pageProperties v:drawingScale="0.0393701" v:pageScale="0.0393701" v:drawingUnits="24" v:shadowOffsetX="0"
				v:shadowOffsetY="0" v:shadowType="1" v:shadowScale="0"/>
		<g id="shape1-1" v:mID="1" v:groupContext="shape" transform="translate(179.083,-272.626)">
			<title>Block</title>
			<desc>Cycle counter</desc>
			<v:textBlock v:margins="rect(2,2,2,2)" v:tabSpace="42.5197"/>
			<v:textRect cx="28.3465" cy="290.134" width="56.7" height="34.0157"/>
			<rect x="0" y="273.126" width="56.6929" height="34.0157" class="st1"/>
			<text x="3.89" y="292.53" class="st2" v:langID="1033"><v:paragraph v:horizAlign="1"/><v:tabList/>Cycle counter</text>		</g>
		<g id="shape2-4" v:mID="2" v:groupContext="shape" transform="translate(179.083,-227.272)">
			<title>Block.2</title>
			<desc>Performance counter</desc>
			<v:textBlock v:margins="rect(2,2,2,2)" v:tabSpace="42.5197"/>
			<v:textRect cx="28.3465" cy="290.134" width="56.7" height="34.0157"/>
			<rect x="0" y="273.126" width="56.6929" height="34.0157" class="st1"/>
			<text x="5.45" y="287.73" class="st2" v:langID="1033"><v:paragraph v:horizAlign="1"/><v:tabList/>Performance <tspan
						x="15" dy="1.2em" class="st3">counter</tspan></text>		</g>
		<g id="shape3-8" v:mID="3" v:groupContext="shape" transform="translate(179.083,-181.917)">
			<title>Block.3</title>
			<desc>Performance counter</desc>
			<v:textBlock v:margins="rect(2,2,2,2)" v:tabSpace="42.5197"/>
			<v:textRect cx="28.3465" cy="290.134" width="56.7" height="34.0157"/>
			<rect x="0" y="273.126" width="56.6929" height="34.0157" class="st1"/>
			<text x="5.45" y="287.73" class="st2" v:langID="1033"><v:paragraph v:horizAlign="1"/><v:tabList/>Performance <tspan
						x="15" dy="1.2em" class="st3">counter</tspan></text>		</g>
		<g id="shape4-12" v:mID="4" v:groupContext="shape" transform="translate(179.083,-136.563)">
			<title>Block.4</title>
			<desc>Performance counter</desc>
			<v:textBlock v:margins="rect(2,2,2,2)" v:tabSpace="42.5197"/>
			<v:textRect cx="28.3465" cy="290.134" width="56.7" height="34.0157"/>
			<rect x="0" y="273.126" width="56.6929" height="34.0157" class="st1"/>
			<text x="5.45" y="287.73" class="st2" v:langID="1033"><v:paragraph v:horizAlign="1"/><v:tabList/>Performance <tspan
						x="15" dy="1.2em" class="st3">counter</tspan></text>		</g>
		<g id="shape5-16" v:mID="5" v:groupContext="shape" transform="translate(179.083,-91.2087)">
			<title>Block.5</title>
			<desc>Performance counter</desc>
			<v:textBlock v:margins="rect(2,2,2,2)" v:tabSpace="42.5197"/>
			<v:textRect cx="28.3465" cy="290.134" width="56.7" height="34.0157"/>
			<rect x="0" y="273.126" width="56.6929" height="34.0157" class="st1"/>
			<text x="5.45" y="287.73" class="st2" v:langID="1033"><v:paragraph v:horizAlign="1"/><v:tabList/>Performance <tspan
						x="15" dy="1.2em" class="st3">counter</tspan></text>		</g>
		<g id="shape6-20" v:mID="6" v:groupContext="shape" transform="translate(179.083,-45.8543)">
			<title>Block.6</title>
			<desc>Performance counter</desc>
			<v:textBlock v:margins="rect(2,2,2,2)" v:tabSpace="42.5197"/>
			<v:textRect cx="28.3465" cy="290.134" width="56.7" height="34.0157"/>
			<rect x="0" y="273.126" width="56.6929" height="34.0157" class="st1"/>
			<text x="5.45" y="287.73" class="st2" v:langID="1033"><v:paragraph v:horizAlign="1"/><v:tabList/>Performance <tspan
						x="15" dy="1.2em" class="st3">counter</tspan></text>		</g>
		<g id="shape7-24" v:mID="7" v:groupContext="shape" transform="translate(179.083,-0.5)">
			<title>Block.7</title>
			<desc>Performance counter</desc>
			<v:textBlock v:margins="rect(2,2,2,2)" v:tabSpace="42.5197"/>
			<v:textRect cx="28.3465" cy="290.134" width="56.7" height="34.0157"/>
			<rect x="0" y="273.126" width="56.6929" height="34.0157" class="st1"/>
			<text x="5.45" y="287.73" class="st2" v:langID="1033"><v:paragraph v:horizAlign="1"/><v:tabList/>Performance <tspan
						x="15" dy="1.2em" class="st3">counter</tspan></text>		</g>
		<g id="shape8-28" v:mID="8" v:groupContext="shape" transform="translate(82.7047,-221.602)">
			<title>Block.8</title>
			<desc>Count Enable Set/Clear and Event Selection registers</desc>
			<v:textBlock v:margins="rect(2,2,2,2)" v:tabSpace="42.5197"/>
			<v:textRect cx="28.3465" cy="275.961" width="56.7" height="62.3622"/>
			<rect x="0" y="244.78" width="56.6929" height="62.3622" class="st1"/>
			<text x="4.11" y="259.16" class="st2" v:langID="1033"><v:paragraph v:horizAlign="1"/><v:tabList/>Count Enable <tspan
						x="3.89" dy="1.2em" class="st3">Set</tspan>/Clear<tspan class="st3" v:langID="2057"> </tspan><tspan
						class="st3" v:langID="2057">and</tspan> <tspan x="18.12" dy="1.2em" class="st3">Event </tspan><tspan
						x="11.89" dy="1.2em" class="st3">Selection </tspan><tspan x="13.01" dy="1.2em" class="st3" v:langID="2057">r</tspan>egisters</text>		</g>
		<g id="shape9-37" v:mID="9" v:groupContext="shape" transform="translate(133.728,-298.138)">
			<title>Signal 2</title>
			<desc>CLK </desc>
			<v:textBlock v:margins="rect(2,2,2,2)" v:tabSpace="42.5197"/>
			<v:textRect cx="19.8425" cy="307.142" width="39.69" height="11.3386"/>
			<path d="M0 307.14 L40.75 307.14" class="st4"/>
			<rect v:rectContext="textBkgnd" x="9.39908" y="302.342" width="20.8867" height="9.59985" class="st6"/>
			<text x="11.62" y="309.54" class="st7" v:langID="1033"><v:paragraph v:horizAlign="1"/><v:tabList/>C<tspan class="st3"
						v:langID="2057">LK</tspan> </text>		</g>
		<g id="shape11-46" v:mID="11" v:groupContext="shape" transform="translate(167.744,-26.0118)">
			<title>Sheet.11</title>
			<path d="M7.1 52.02 L6.74 52.02 L0 52.02 L0 307.14 L6.74 307.14" class="st8"/>
		</g>
		<g id="shape12-54" v:mID="12" v:groupContext="shape" transform="translate(156.406,-9.00394)">
			<title>Sheet.12</title>
			<path d="M18.44 80.37 L18.08 80.37 L0 80.37 L0 307.14 L18.08 307.14" class="st8"/>
		</g>
		<g id="shape18-61" v:mID="18" v:groupContext="shape" transform="translate(156.406,-190.421)">
			<title>Signal 2.18</title>
			<path d="M1.36 307.14 L1.72 307.14 L18.08 307.14" class="st9"/>
		</g>
		<g id="shape22-69" v:mID="22" v:groupContext="shape" transform="translate(235.776,-153.571)">
			<title>Signal 2.22</title>
			<path d="M0 307.14 L40.75 307.14" class="st4"/>
		</g>
		<g id="shape23-74" v:mID="23" v:groupContext="shape" transform="translate(281.13,-113.886)">
			<title>Block.23</title>
			<desc>Interrupt and overflow registers</desc>
			<v:textBlock v:margins="rect(2,2,2,2)" v:tabSpace="42.5197"/>
			<v:textRect cx="28.3465" cy="267.457" width="56.7" height="79.3701"/>
			<rect x="0" y="227.772" width="56.6929" height="79.3701" class="st1"/>
			<text x="5.67" y="260.26" class="st2" v:langID="1033"><v:paragraph v:horizAlign="1"/><v:tabList/>Interrupt and<v:newlineChar/><tspan
						x="13.45" dy="1.2em" class="st3">overflow<v:newlineChar/></tspan><tspan x="13.01" dy="1.2em" class="st3">registers</tspan></text>		</g>
		<g id="shape24-79" v:mID="24" v:groupContext="shape" transform="translate(235.776,-164.909)">
			<title>Sheet.24</title>
			<path d="M0 273.13 L11.34 273.13 L11.34 307.14 L40.75 307.14" class="st4"/>
		</g>
		<g id="shape25-84" v:mID="25" v:groupContext="shape" transform="translate(235.776,-176.248)">
			<title>Sheet.25</title>
			<path d="M0 239.11 L22.68 239.11 L22.68 307.14 L40.75 307.14" class="st4"/>
		</g>
		<g id="shape26-89" v:mID="26" v:groupContext="shape" transform="translate(235.776,-187.587)">
			<title>Sheet.26</title>
			<path d="M0 205.09 L34.02 205.09 L34.02 307.14 L40.75 307.14" class="st4"/>
		</g>
		<g id="shape17-94" v:mID="17" v:groupContext="shape" transform="translate(167.744,-252.783)">
			<title>Signal 2.17</title>
			<path d="M1.36 307.14 L1.72 307.14 L6.74 307.14" class="st9"/>
		</g>
		<g id="shape31-101" v:mID="31" v:groupContext="shape" transform="translate(139.398,-252.783)">
			<title>Signal 0.31</title>
			<path d="M0 307.14 L28.35 307.14" class="st10"/>
		</g>
		<g id="shape41-104" v:mID="41" v:groupContext="shape" transform="translate(82.7047,-31.6811)">
			<title>Block.41</title>
			<desc>Events from other units</desc>
			<v:textBlock v:margins="rect(2,2,2,2)" v:tabSpace="42.5197"/>
			<v:textRect cx="28.3465" cy="284.465" width="56.7" height="45.3543"/>
			<rect x="0" y="261.787" width="56.6929" height="45.3543" class="st1"/>
			<text x="7.01" y="282.06" class="st2" v:langID="1033"><v:paragraph v:horizAlign="1"/><v:tabList/>Events from <tspan
						x="9.67" dy="1.2em" class="st3">other units</tspan></text>		</g>
		<g id="shape42-108" v:mID="42" v:groupContext="shape" transform="translate(139.398,-54.3583)">
			<title>Signal 0.42</title>
			<path d="M0 307.14 L17.01 307.14" class="st10"/>
		</g>
		<g id="shape43-111" v:mID="43" v:groupContext="shape" transform="translate(235.776,472.051) scale(1,-1)">
			<title>Sheet.43</title>
			<path d="M0 273.13 L11.34 273.13 L11.34 307.14 L40.75 307.14" class="st4"/>
		</g>
		<g id="shape44-116" v:mID="44" v:groupContext="shape" transform="translate(235.776,483.39) scale(1,-1)">
			<title>Sheet.44</title>
			<path d="M0 239.11 L22.68 239.11 L22.68 307.14 L40.75 307.14" class="st4"/>
		</g>
		<g id="shape45-121" v:mID="45" v:groupContext="shape" transform="translate(235.776,494.728) scale(1,-1)">
			<title>Sheet.45</title>
			<path d="M0 205.09 L34.02 205.09 L34.02 307.14 L40.75 307.14" class="st4"/>
		</g>
		<g id="shape46-126" v:mID="46" v:groupContext="shape" transform="translate(337.823,-153.571)">
			<title>Signal 2.46</title>
			<desc>nPMUIRQ </desc>
			<v:textBlock v:margins="rect(2,2,2,2)" v:tabSpace="42.5197"/>
			<v:textRect cx="31.1811" cy="307.142" width="62.37" height="11.3386"/>
			<path d="M0 307.14 L63.43 307.14" class="st4"/>
			<rect v:rectContext="textBkgnd" x="10.5153" y="302.342" width="41.3317" height="9.59985" class="st6"/>
			<text x="12.74" y="309.54" class="st7" v:langID="1033"><v:paragraph v:horizAlign="1"/><v:tabList/>nPMUIRQ </text>		</g>
		<g id="shape10-133" v:mID="10" v:groupContext="shape" transform="translate(0.5,-230.106)">
			<title>Block.10</title>
			<desc>System control, processor, and APB interface</desc>
			<v:textBlock v:margins="rect(2,2,2,2)" v:tabSpace="42.5197"/>
			<v:textRect cx="29.7638" cy="284.465" width="59.53" height="45.3543"/>
			<rect x="0" y="261.787" width="59.5276" height="45.3543" class="st1"/>
			<text x="2.2" y="277.26" class="st2" v:langID="1033"><v:paragraph v:horizAlign="1"/><v:tabList/>System control, <tspan
						x="3.3" dy="1.2em" class="st3">processor</tspan>, and<v:newlineChar/><tspan x="5.31" dy="1.2em" class="st3">APB interface</tspan></text>		</g>
		<g id="shape27-138" v:mID="27" v:groupContext="shape" transform="translate(60.0276,-252.783)">
			<title>Signal 0</title>
			<path d="M0 307.14 L22.68 307.14" class="st10"/>
		</g>
		<g id="shape28-141" v:mID="28" v:groupContext="shape" transform="translate(167.744,-207.429)">
			<title>Signal 2.28</title>
			<path d="M1.36 307.14 L1.72 307.14 L6.74 307.14" class="st9"/>
		</g>
		<g id="shape15-148" v:mID="15" v:groupContext="shape" transform="translate(156.406,-145.067)">
			<title>Signal 2.15</title>
			<path d="M1.36 307.14 L1.72 307.14 L18.08 307.14" class="st9"/>
		</g>
		<g id="shape19-155" v:mID="19" v:groupContext="shape" transform="translate(167.744,-162.075)">
			<title>Signal 2.19</title>
			<path d="M1.36 307.14 L1.72 307.14 L6.74 307.14" class="st9"/>
		</g>
		<g id="shape29-162" v:mID="29" v:groupContext="shape" transform="translate(156.406,-99.7126)">
			<title>Signal 2.29</title>
			<path d="M1.36 307.14 L1.72 307.14 L18.08 307.14" class="st9"/>
		</g>
		<g id="shape32-169" v:mID="32" v:groupContext="shape" transform="translate(167.744,-116.72)">
			<title>Signal 2.32</title>
			<path d="M1.36 307.14 L1.72 307.14 L6.74 307.14" class="st9"/>
		</g>
		<g id="shape13-176" v:mID="13" v:groupContext="shape" transform="translate(156.406,-54.3583)">
			<title>Signal 2.13</title>
			<path d="M1.36 307.14 L1.72 307.14 L18.08 307.14" class="st9"/>
		</g>
		<g id="shape14-183" v:mID="14" v:groupContext="shape" transform="translate(167.744,-71.3661)">
			<title>Signal 2.14</title>
			<path d="M1.36 307.14 L1.72 307.14 L6.74 307.14" class="st9"/>
		</g>
	</g>
</svg>
