<?xml version="1.0" encoding="UTF-8" standalone="no"?>
<!DOCTYPE svg PUBLIC "-//W3C//DTD SVG 1.0//EN" "http://www.w3.org/TR/2001/REC-SVG-20010904/DTD/svg10.dtd">
<!-- Generated by Microsoft Visio 11.0, SVG Export, v1.0 powerup_reset_timing.svg Page-1 -->
<svg xmlns="http://www.w3.org/2000/svg" xmlns:v="http://schemas.microsoft.com/visio/2003/SVGExtensions/" width="6.15562in"
		height="1.34525in" viewBox="0 0 443.205 96.858" xml:space="preserve" color-interpolation-filters="sRGB" class="st11">
	<v:documentProperties v:langID="1033" v:metric="true" v:viewMarkup="false"/>

	<style type="text/css">
	<![CDATA[
		.st1 {marker-end:url(#mrkr4-9);marker-start:url(#mrkr4-7);stroke:#000000;stroke-linecap:butt;stroke-width:0.5}
		.st2 {fill:#000000;fill-opacity:1;stroke:#000000;stroke-opacity:1;stroke-width:0.21739130434783}
		.st3 {fill:#ffffff;stroke:none;stroke-linecap:butt;stroke-width:7.2}
		.st4 {fill:#000000;font-family:Arial;font-size:0.666664em}
		.st5 {font-size:1em;font-weight:bold}
		.st6 {fill:none;stroke:none;stroke-linecap:butt;stroke-width:0.5}
		.st7 {fill:#000000;font-family:Arial;font-size:0.666664em;font-weight:bold}
		.st8 {font-size:1em}
		.st9 {font-size:1em;font-weight:normal}
		.st10 {stroke:#000000;stroke-linecap:butt;stroke-width:0.5}
		.st11 {fill:none;fill-rule:evenodd;font-size:12;overflow:visible;stroke-linecap:square;stroke-miterlimit:3}
		.st12 {fill:#ffffff;stroke:none;stroke-linecap:butt;stroke-width:0.5}
		.st13 {fill:#c0c0c0;stroke:#000000;stroke-linecap:butt;stroke-width:0.5}
		.st14 {stroke:#000000;stroke-dasharray:0.24,0.96;stroke-linecap:butt;stroke-width:0.24}
	]]>
	</style>

	<defs id="Masters">
		<symbol id="master5" v:mID="5" class="st11">
			<title>Disconnect</title>
			<g id="group23-100" v:mID="23" v:groupContext="group">
				<title>Disconnect</title>
				<g id="master-shape24-101" v:mID="24" v:groupContext="shape" transform="translate(0.566929,0)">
					<title>Sheet.24</title>
					<rect x="0" y="91.1887" width="1.88976" height="5.66929" class="st12"/>
				</g>
				<g id="master-shape25-103" v:mID="25" v:groupContext="shape" transform="translate(97.969,107.044) rotate(99.4623)">
					<title>Sheet.25</title>
					<path d="M0 96.45 C0.15 96.65 0.72 96.82 1.15 96.85 C1.58 96.88 1.86 96.78 2.34 96.54 C2.63 96.4 2.98 96.21 3.29
								 96.09 C4.56 95.59 5.03 96.14 5.75 96.45" class="st10"/>
				</g>
				<g id="master-shape26-106" v:mID="26" v:groupContext="shape" transform="translate(96.0793,107.044) rotate(99.4623)">
					<title>Sheet.26</title>
					<path d="M0 96.45 C0.15 96.65 0.72 96.82 1.15 96.85 C1.58 96.88 1.86 96.78 2.34 96.54 C2.63 96.4 2.98 96.21 3.29
								 96.09 C4.56 95.59 5.03 96.14 5.75 96.45" class="st10"/>
				</g>
			</g>
		</symbol>

		<symbol id="master6" v:mID="6" class="st11">
			<title>0 to 1</title>
			<g id="group27-110" v:mID="27" v:groupContext="group">
				<title>0 to 1</title>
				<g id="master-shape28-111" v:mID="28" v:groupContext="shape" transform="translate(5.66929,0) scale(-1,1)">
					<title>Sheet.28</title>
					<path d="M2.83 96.86 L0 85.52 L2.83 85.52 L5.67 96.86 L2.83 96.86 Z" class="st13"/>
				</g>
			</g>
		</symbol>
	</defs>
	<defs id="Markers">
		<g id="lend4">
			<path d="M 2 1 L -0 0 L 2 -1 L 2 1 " style="stroke:none"/>
		</g>
		<marker id="mrkr4-7" class="st2" v:arrowType="4" v:arrowSize="1" v:setback="8.48" refX="8.48" orient="auto"
				markerUnits="strokeWidth">
			<use xlink:href="#lend4" transform="scale(4.6) "/>
		</marker>
		<marker id="mrkr4-9" class="st2" v:arrowType="4" v:arrowSize="1" v:setback="9.2" refX="-9.2" orient="auto"
				markerUnits="strokeWidth">
			<use xlink:href="#lend4" transform="scale(-4.6,-4.6) "/>
		</marker>
	</defs>
	<g v:mID="0" v:index="1" v:groupContext="foregroundPage">
		<title>Page-1</title>
		<v:pageProperties v:drawingScale="0.0393701" v:pageScale="0.0393701" v:drawingUnits="24" v:shadowOffsetX="0"
				v:shadowOffsetY="0" v:shadowType="1" v:shadowScale="0"/>
		<g id="shape108-1" v:mID="108" v:groupContext="shape" transform="translate(79.8701,-11.5786)">
			<title>Signal 2.108</title>
			<desc>16 PCLKDBG cycles minimum</desc>
			<v:textBlock v:margins="rect(1,1,1,1)" v:tabSpace="42.5197"/>
			<v:textRect cx="147.402" cy="96.858" width="294.81" height="0"/>
			<path d="M4.24 96.86 L4.6 96.86 L290.2 96.86" class="st1"/>
			<rect v:rectContext="textBkgnd" x="92.5052" y="92.058" width="109.793" height="9.59985" class="st3"/>
			<text x="92.51" y="99.26" class="st4" v:langID="1033"><v:paragraph v:horizAlign="1"/><v:tabList/>16 <tspan class="st5">PCLKDBG</tspan> cycles minimum</text>		</g>
		<g id="shape110-13" v:mID="110" v:groupContext="shape" transform="translate(79.8701,-28.5865)">
			<title>Signal 2.110</title>
			<desc>16 CLK cycles minimum</desc>
			<v:textBlock v:margins="rect(1,1,1,1)" v:tabSpace="42.5197"/>
			<v:textRect cx="113.386" cy="96.858" width="226.78" height="0"/>
			<path d="M4.24 96.86 L4.6 96.86 L222.17 96.86" class="st1"/>
			<rect v:rectContext="textBkgnd" x="70.0461" y="92.058" width="86.6797" height="9.59985" class="st3"/>
			<text x="70.05" y="99.26" class="st4" v:langID="1033"><v:paragraph v:horizAlign="1"/><v:tabList/>16 <tspan class="st5">CLK</tspan> cycles minimum</text>		</g>
		<g id="shape109-23" v:mID="109" v:groupContext="shape" transform="translate(79.8701,-48.429)">
			<title>Signal 2.109</title>
			<desc>16 CLK cycles minimum</desc>
			<v:textBlock v:margins="rect(1,1,1,1)" v:tabSpace="42.5197"/>
			<v:textRect cx="113.386" cy="96.858" width="226.78" height="0"/>
			<path d="M4.24 96.86 L4.6 96.86 L222.17 96.86" class="st1"/>
			<rect v:rectContext="textBkgnd" x="70.0461" y="92.058" width="86.6797" height="9.59985" class="st3"/>
			<text x="70.05" y="99.26" class="st4" v:langID="1033"><v:paragraph v:horizAlign="1"/><v:tabList/>16 <tspan class="st5">CLK</tspan> cycles minimum</text>		</g>
		<g id="shape1-33" v:mID="1" v:groupContext="shape" transform="translate(57.1929,-79.6101)">
			<title>Signal name block.9</title>
			<desc>CLK</desc>
			<v:textBlock v:margins="rect(0,2,0,0)" v:tabSpace="42.5197"/>
			<v:textRect cx="11.3386" cy="91.1887" width="22.68" height="11.3386"/>
			<rect x="0" y="85.5194" width="22.6772" height="11.3386" class="st6"/>
			<text x="4.24" y="93.59" class="st7" v:langID="1033"><v:paragraph v:horizAlign="2"/><v:tabList/>CLK</text>		</g>
		<g id="shape2-36" v:mID="2" v:groupContext="shape" transform="translate(0.5,-62.6022)">
			<title>Signal name block.85</title>
			<desc>nCPUPORESET[N:0]</desc>
			<v:textBlock v:margins="rect(0,1,0,0)" v:tabSpace="42.5197"/>
			<v:textRect cx="39.685" cy="91.1887" width="79.38" height="11.3386"/>
			<rect x="0" y="85.5194" width="79.3701" height="11.3386" class="st6"/>
			<text x="0.14" y="93.59" class="st7" v:langID="1033"><v:paragraph v:horizAlign="2"/><v:tabList/>nCPUPORESET[<tspan
						class="st8" v:langID="2057">N</tspan>:0]</text>		</g>
		<g id="shape3-40" v:mID="3" v:groupContext="shape" transform="translate(17.5079,-5.90929)">
			<title>Signal name block.10</title>
			<desc>nPRESETDBG</desc>
			<v:textBlock v:margins="rect(0,1,0,0)" v:tabSpace="42.5197"/>
			<v:textRect cx="31.1811" cy="91.1887" width="62.37" height="11.3386"/>
			<rect x="0" y="85.5194" width="62.3622" height="11.3386" class="st6"/>
			<text x="6.69" y="93.59" class="st7" v:langID="1033"><v:paragraph v:horizAlign="2"/><v:tabList/>nPRESETDBG</text>		</g>
		<g id="shape5-43" v:mID="5" v:groupContext="shape" transform="translate(14.6732,-22.9172)">
			<title>Signal name block.110</title>
			<desc>nL2RESET</desc>
			<v:textBlock v:margins="rect(0,1,0,0)" v:tabSpace="42.5197"/>
			<v:textRect cx="32.5984" cy="91.1887" width="65.2" height="11.3386"/>
			<rect x="0" y="85.5194" width="65.1969" height="11.3386" class="st6"/>
			<text x="23.3" y="93.59" class="st7" v:langID="1033"><v:paragraph v:horizAlign="2"/><v:tabList/>nL2RESET</text>		</g>
		<g id="shape6-46" v:mID="6" v:groupContext="shape" transform="translate(0.5,-42.7597)">
			<title>Signal name block.111</title>
			<desc>nCORERESET[N:0] optional</desc>
			<v:textBlock v:margins="rect(0,1,0,0)" v:tabSpace="42.5197"/>
			<v:textRect cx="39.685" cy="91.1887" width="79.38" height="11.3386"/>
			<rect x="0" y="85.5194" width="79.3701" height="11.3386" class="st6"/>
			<text x="5.48" y="88.79" class="st7" v:langID="1033"><v:paragraph v:horizAlign="2"/><v:tabList/>nCORERESET[<tspan
						class="st8" v:langID="2057">N</tspan>:0]<v:newlineChar/><v:paragraph v:horizAlign="1"/><tspan x="25.17"
						dy="1.2em" class="st9">optional</tspan></text>		</g>
		<g id="shape7-51" v:mID="7" v:groupContext="shape" transform="translate(79.8701,-79.6101)">
			<title>Clock.134</title>
			<path d="M0 91.19 L0 85.52 L11.34 85.52 L11.34 96.86 L22.67 96.86 L22.68 91.19" class="st10"/>
		</g>
		<g id="shape8-54" v:mID="8" v:groupContext="shape" transform="translate(102.547,-79.6101)">
			<title>Clock.135</title>
			<path d="M0 91.19 L0 85.52 L11.34 85.52 L11.34 96.86 L22.67 96.86 L22.68 91.19" class="st10"/>
		</g>
		<g id="shape9-57" v:mID="9" v:groupContext="shape" transform="translate(125.224,-79.6101)">
			<title>Clock.136</title>
			<path d="M0 91.19 L0 85.52 L11.34 85.52 L11.34 96.86 L22.67 96.86 L22.68 91.19" class="st10"/>
		</g>
		<g id="shape10-60" v:mID="10" v:groupContext="shape" transform="translate(147.902,-79.6101)">
			<title>Clock.137</title>
			<path d="M0 91.19 L0 85.52 L11.34 85.52 L11.34 96.86 L22.67 96.86 L22.68 91.19" class="st10"/>
		</g>
		<g id="shape11-63" v:mID="11" v:groupContext="shape" transform="translate(170.579,-79.6101)">
			<title>Clock.138</title>
			<path d="M0 91.19 L0 85.52 L11.34 85.52 L11.34 96.86 L22.67 96.86 L22.68 91.19" class="st10"/>
		</g>
		<g id="shape12-66" v:mID="12" v:groupContext="shape" transform="translate(193.256,-79.6101)">
			<title>Clock.139</title>
			<path d="M0 91.19 L0 85.52 L11.34 85.52 L11.34 96.86 L22.67 96.86 L22.68 91.19" class="st10"/>
		</g>
		<g id="shape13-69" v:mID="13" v:groupContext="shape" transform="translate(215.933,-79.6101)">
			<title>Clock.140</title>
			<path d="M0 91.19 L0 85.52 L11.34 85.52 L11.34 96.86 L22.67 96.86 L22.68 91.19" class="st10"/>
		</g>
		<g id="shape14-72" v:mID="14" v:groupContext="shape" transform="translate(238.61,-79.6101)">
			<title>Clock.141</title>
			<path d="M0 91.19 L0 85.52 L11.34 85.52 L11.34 96.86 L22.67 96.86 L22.68 91.19" class="st10"/>
		</g>
		<g id="shape15-75" v:mID="15" v:groupContext="shape" transform="translate(261.287,-79.6101)">
			<title>Clock.142</title>
			<path d="M0 91.19 L0 85.52 L11.34 85.52 L11.34 96.86 L22.67 96.86 L22.68 91.19" class="st10"/>
		</g>
		<g id="shape16-78" v:mID="16" v:groupContext="shape" transform="translate(283.965,-79.6101)">
			<title>Clock.143</title>
			<path d="M0 91.19 L0 85.52 L11.34 85.52 L11.34 96.86 L22.67 96.86 L22.68 91.19" class="st10"/>
		</g>
		<g id="shape17-81" v:mID="17" v:groupContext="shape" transform="translate(306.642,-79.6101)">
			<title>Clock.144</title>
			<path d="M0 91.19 L0 85.52 L11.34 85.52 L11.34 96.86 L22.67 96.86 L22.68 91.19" class="st10"/>
		</g>
		<g id="shape18-84" v:mID="18" v:groupContext="shape" transform="translate(329.319,-79.6101)">
			<title>Clock.145</title>
			<path d="M0 91.19 L0 85.52 L11.34 85.52 L11.34 96.86 L22.67 96.86 L22.68 91.19" class="st10"/>
		</g>
		<g id="shape19-87" v:mID="19" v:groupContext="shape" transform="translate(351.996,-79.6101)">
			<title>Clock.146</title>
			<path d="M0 91.19 L0 85.52 L11.34 85.52 L11.34 96.86 L22.67 96.86 L22.68 91.19" class="st10"/>
		</g>
		<g id="shape20-90" v:mID="20" v:groupContext="shape" transform="translate(374.673,-79.6101)">
			<title>Clock.147</title>
			<path d="M0 91.19 L0 85.52 L11.34 85.52 L11.34 96.86 L22.67 96.86 L22.68 91.19" class="st10"/>
		</g>
		<g id="shape21-93" v:mID="21" v:groupContext="shape" transform="translate(397.35,-79.6101)">
			<title>Clock.148</title>
			<path d="M0 91.19 L0 85.52 L11.34 85.52 L11.34 96.86 L22.67 96.86 L22.68 91.19" class="st10"/>
		</g>
		<g id="shape22-96" v:mID="22" v:groupContext="shape" transform="translate(420.028,-79.6101)">
			<title>Clock.149</title>
			<path d="M0 91.19 L0 85.52 L11.34 85.52 L11.34 96.86 L22.67 96.86 L22.68 91.19" class="st10"/>
		</g>
		<use id="shape23-99" v:mID="23" xlink:href="#master5" transform="translate(197.508,-88.114)">
			<title>Disconnect</title>
		</use>
		<use id="shape27-109" v:mID="27" xlink:href="#master6" transform="translate(309.476,-62.6022)">
			<title>0 to 1</title>
		</use>
		<g id="shape29-113" v:mID="29" v:groupContext="shape" transform="translate(403.5,0.24) rotate(90)">
			<title>Domain line</title>
			<path d="M0 96.86 L96.38 96.86" class="st14"/>
		</g>
		<g id="shape30-116" v:mID="30" v:groupContext="shape" transform="translate(315.146,-73.9408)">
			<title>Sheet.30</title>
			<path d="M0 96.86 L127.56 96.86" class="st10"/>
		</g>
		<g id="shape31-119" v:mID="31" v:groupContext="shape" transform="translate(309.476,131.114) rotate(180)">
			<title>Sheet.31</title>
			<path d="M0 96.86 L229.61 96.86" class="st10"/>
		</g>
		<g id="shape32-122" v:mID="32" v:groupContext="shape" transform="translate(176.728,0.24) rotate(90)">
			<title>Domain line.163</title>
			<path d="M0 96.86 L96.38 96.86" class="st14"/>
		</g>
		<g id="shape33-125" v:mID="33" v:groupContext="shape" transform="translate(79.8701,-68.2715)">
			<title>Signal 2</title>
			<desc>16 CLK cycles minimum</desc>
			<v:textBlock v:margins="rect(1,1,1,1)" v:tabSpace="42.5197"/>
			<v:textRect cx="113.386" cy="96.858" width="226.78" height="0"/>
			<path d="M4.24 96.86 L4.6 96.86 L222.17 96.86" class="st1"/>
			<rect v:rectContext="textBkgnd" x="70.0461" y="92.058" width="86.6797" height="9.59985" class="st3"/>
			<text x="70.05" y="99.26" class="st4" v:langID="1033"><v:paragraph v:horizAlign="1"/><v:tabList/>16 <tspan class="st5">CLK</tspan> cycles minimum</text>		</g>
		<use id="shape34-135" v:mID="34" xlink:href="#master5" transform="translate(197.508,-59.7676)">
			<title>Disconnect.165</title>
		</use>
		<use id="shape38-136" v:mID="38" xlink:href="#master6" transform="translate(309.476,-42.7597)">
			<title>0 to 1.1</title>
		</use>
		<g id="master-shape40-137" v:mID="40" v:groupContext="shape" transform="translate(315.146,-54.0983)">
			<title>Sheet.40</title>
			<path d="M0 96.86 L127.56 96.86" class="st10"/>
		</g>
		<g id="master-shape41-140" v:mID="41" v:groupContext="shape" transform="translate(309.476,150.956) rotate(180)">
			<title>Sheet.41</title>
			<path d="M0 96.86 L226.77 96.86" class="st10"/>
		</g>
		<use id="shape42-143" v:mID="42" xlink:href="#master5" transform="translate(197.508,-39.925)">
			<title>Disconnect.7</title>
		</use>
		<use id="shape46-144" v:mID="46" xlink:href="#master6" transform="translate(309.476,-22.9172)">
			<title>0 to 1.11</title>
		</use>
		<g id="master-shape48-145" v:mID="48" v:groupContext="shape" transform="translate(315.146,-34.2557)">
			<title>Sheet.48</title>
			<path d="M0 96.86 L127.56 96.86" class="st10"/>
		</g>
		<g id="master-shape49-148" v:mID="49" v:groupContext="shape" transform="translate(309.476,170.799) rotate(180)">
			<title>Sheet.49</title>
			<path d="M0 96.86 L229.61 96.86" class="st10"/>
		</g>
		<use id="shape50-151" v:mID="50" xlink:href="#master5" transform="translate(197.508,-20.0825)">
			<title>Disconnect.18</title>
		</use>
		<use id="shape54-152" v:mID="54" xlink:href="#master6" transform="translate(377.508,-5.90929)">
			<title>0 to 1.22</title>
		</use>
		<g id="master-shape56-153" v:mID="56" v:groupContext="shape" transform="translate(383.177,-17.2479)">
			<title>Sheet.56</title>
			<path d="M0 96.86 L59.53 96.86" class="st10"/>
		</g>
		<g id="master-shape57-156" v:mID="57" v:groupContext="shape" transform="translate(377.508,187.807) rotate(180)">
			<title>Sheet.57</title>
			<path d="M0 96.86 L297.64 96.86" class="st10"/>
		</g>
		<use id="shape74-159" v:mID="74" xlink:href="#master5" transform="translate(334.988,-71.1061)">
			<title>Disconnect.44</title>
		</use>
		<use id="shape78-160" v:mID="78" xlink:href="#master5" transform="translate(334.988,-51.2636)">
			<title>Disconnect.48</title>
		</use>
		<use id="shape82-161" v:mID="82" xlink:href="#master5" transform="translate(334.988,-31.4211)">
			<title>Disconnect.52</title>
		</use>
		<use id="shape86-162" v:mID="86" xlink:href="#master5" transform="translate(334.988,-3.07465)">
			<title>Disconnect.56</title>
		</use>
		<g id="master-shape107-163" v:mID="107" v:groupContext="shape" transform="translate(176.728,11.5786) rotate(90)">
			<title>Sheet.107</title>
			<path d="M0 96.86 L5.67 96.86" class="st10"/>
		</g>
		<g id="master-shape113-166" v:mID="113" v:groupContext="shape" transform="translate(471.531,0.24) rotate(90)">
			<title>Domain line.113</title>
			<path d="M0 96.86 L96.38 96.86" class="st14"/>
		</g>
		<use id="shape114-169" v:mID="114" xlink:href="#master5" transform="translate(334.988,-88.114)">
			<title>Disconnect.114</title>
		</use>
		<use id="shape118-170" v:mID="118" xlink:href="#master5" transform="translate(197.508,-3.07465)">
			<title>Disconnect.118</title>
		</use>
	</g>
</svg>
