<?xml version="1.0" encoding="UTF-8" standalone="no"?>
<!DOCTYPE svg PUBLIC "-//W3C//DTD SVG 1.0//EN" "http://www.w3.org/TR/2001/REC-SVG-20010904/DTD/svg10.dtd">
<!-- Generated by Microsoft Visio 11.0, SVG Export, v1.0 scr_bit_assignments.svg Page-1 -->
<svg xmlns="http://www.w3.org/2000/svg" xmlns:v="http://schemas.microsoft.com/visio/2003/SVGExtensions/" width="5.12922in"
		height="1.53891in" viewBox="0 0 369.304 110.801" xml:space="preserve" color-interpolation-filters="sRGB" class="st9">
	<v:documentProperties v:langID="1033" v:metric="true" v:viewMarkup="false"/>

	<style type="text/css">
	<![CDATA[
		.st1 {fill:#000000;font-family:Arial;font-size:0.666664em}
		.st2 {fill:none;stroke:none;stroke-linecap:round;stroke-linejoin:round;stroke-width:0.0169691}
		.st3 {fill:#000000;font-family:Arial;font-size:0.533318em}
		.st4 {font-size:1.25003em}
		.st5 {fill:none;visibility:hidden}
		.st6 {stroke:#000000;stroke-linecap:butt;stroke-width:0.8}
		.st7 {stroke:#000000;stroke-dasharray:0.25,0.5;stroke-linecap:butt;stroke-width:0.25}
		.st8 {stroke:#000000;stroke-linecap:butt;stroke-width:0.5}
		.st9 {fill:none;fill-rule:evenodd;font-size:12;overflow:visible;stroke-linecap:square;stroke-miterlimit:3}
	]]>
	</style>

	<g v:mID="0" v:index="1" v:groupContext="foregroundPage">
		<title>Page-1</title>
		<v:pageProperties v:drawingScale="0.0393701" v:pageScale="0.0393701" v:drawingUnits="24" v:shadowOffsetX="0"
				v:shadowOffsetY="0" v:shadowType="1" v:shadowScale="0"/>
		<g id="shape2-1" v:mID="2" v:groupContext="shape" transform="translate(0.8,-99.2126)">
			<title>Sheet.2</title>
			<desc>31</desc>
			<v:textBlock v:margins="rect(0,0,0,0)" v:tabSpace="42.5197"/>
			<v:textRect cx="5.66929" cy="105.132" width="11.34" height="11.3386"/>
			<text x="1.22" y="107.53" class="st1" v:langID="1033"><v:paragraph v:horizAlign="1"/><v:tabList/>31</text>		</g>
		<g id="shape3-3" v:mID="3" v:groupContext="shape" transform="translate(238.91,-99.2126)">
			<title>Sheet.3</title>
			<desc>10</desc>
			<v:textBlock v:margins="rect(0,0,0,0)" v:tabSpace="42.5197"/>
			<v:textRect cx="5.66929" cy="105.132" width="11.34" height="11.3386"/>
			<text x="1.22" y="107.53" class="st1" v:langID="1033"><v:paragraph v:horizAlign="1"/><v:tabList/>10</text>		</g>
		<g id="shape4-5" v:mID="4" v:groupContext="shape" transform="translate(250.249,-99.2126)">
			<title>Sheet.4</title>
			<desc>9</desc>
			<v:textBlock v:margins="rect(0,0,0,0)" v:tabSpace="42.5197"/>
			<v:textRect cx="5.66929" cy="105.132" width="11.34" height="11.3386"/>
			<text x="3.44" y="107.53" class="st1" v:langID="1033"><v:paragraph v:horizAlign="1"/><v:tabList/>9</text>		</g>
		<g id="shape5-7" v:mID="5" v:groupContext="shape" transform="translate(261.587,-99.2126)">
			<title>Sheet.5</title>
			<desc>8</desc>
			<v:textBlock v:margins="rect(0,0,0,0)" v:tabSpace="42.5197"/>
			<v:textRect cx="5.66929" cy="105.132" width="11.34" height="11.3386"/>
			<text x="3.44" y="107.53" class="st1" v:langID="1033"><v:paragraph v:horizAlign="1"/><v:tabList/>8</text>		</g>
		<g id="shape6-9" v:mID="6" v:groupContext="shape" transform="translate(272.926,-99.2126)">
			<title>Sheet.6</title>
			<desc>7</desc>
			<v:textBlock v:margins="rect(0,0,0,0)" v:tabSpace="42.5197"/>
			<v:textRect cx="5.66929" cy="105.132" width="11.34" height="11.3386"/>
			<text x="3.44" y="107.53" class="st1" v:langID="1033"><v:paragraph v:horizAlign="1"/><v:tabList/>7</text>		</g>
		<g id="shape7-11" v:mID="7" v:groupContext="shape" transform="translate(284.265,-99.2126)">
			<title>Sheet.7</title>
			<desc>6</desc>
			<v:textBlock v:margins="rect(0,0,0,0)" v:tabSpace="42.5197"/>
			<v:textRect cx="5.66929" cy="105.132" width="11.34" height="11.3386"/>
			<text x="3.44" y="107.53" class="st1" v:langID="1033"><v:paragraph v:horizAlign="1"/><v:tabList/>6</text>		</g>
		<g id="shape8-13" v:mID="8" v:groupContext="shape" transform="translate(295.603,-99.2126)">
			<title>Sheet.8</title>
			<desc>5</desc>
			<v:textBlock v:margins="rect(0,0,0,0)" v:tabSpace="42.5197"/>
			<v:textRect cx="5.66929" cy="105.132" width="11.34" height="11.3386"/>
			<text x="3.44" y="107.53" class="st1" v:langID="1033"><v:paragraph v:horizAlign="1"/><v:tabList/>5</text>		</g>
		<g id="shape9-15" v:mID="9" v:groupContext="shape" transform="translate(306.942,-99.2126)">
			<title>Sheet.9</title>
			<desc>4</desc>
			<v:textBlock v:margins="rect(0,0,0,0)" v:tabSpace="42.5197"/>
			<v:textRect cx="5.66929" cy="105.132" width="11.34" height="11.3386"/>
			<text x="3.44" y="107.53" class="st1" v:langID="1033"><v:paragraph v:horizAlign="1"/><v:tabList/>4</text>		</g>
		<g id="shape10-17" v:mID="10" v:groupContext="shape" transform="translate(318.28,-99.2126)">
			<title>Sheet.10</title>
			<desc>3</desc>
			<v:textBlock v:margins="rect(0,0,0,0)" v:tabSpace="42.5197"/>
			<v:textRect cx="5.66929" cy="105.132" width="11.34" height="11.3386"/>
			<text x="3.44" y="107.53" class="st1" v:langID="1033"><v:paragraph v:horizAlign="1"/><v:tabList/>3</text>		</g>
		<g id="shape11-19" v:mID="11" v:groupContext="shape" transform="translate(329.619,-99.2126)">
			<title>Sheet.11</title>
			<desc>2</desc>
			<v:textBlock v:margins="rect(0,0,0,0)" v:tabSpace="42.5197"/>
			<v:textRect cx="5.66929" cy="105.132" width="11.34" height="11.3386"/>
			<text x="3.44" y="107.53" class="st1" v:langID="1033"><v:paragraph v:horizAlign="1"/><v:tabList/>2</text>		</g>
		<g id="shape12-21" v:mID="12" v:groupContext="shape" transform="translate(340.957,-99.2126)">
			<title>Sheet.12</title>
			<desc>1</desc>
			<v:textBlock v:margins="rect(0,0,0,0)" v:tabSpace="42.5197"/>
			<v:textRect cx="5.66929" cy="105.132" width="11.34" height="11.3386"/>
			<text x="3.44" y="107.53" class="st1" v:langID="1033"><v:paragraph v:horizAlign="1"/><v:tabList/>1</text>		</g>
		<g id="shape13-23" v:mID="13" v:groupContext="shape" transform="translate(352.296,-99.2126)">
			<title>Sheet.13</title>
			<desc>0</desc>
			<v:textBlock v:margins="rect(0,0,0,0)" v:tabSpace="42.5197"/>
			<v:textRect cx="5.66929" cy="105.132" width="11.34" height="11.3386"/>
			<text x="3.44" y="107.53" class="st1" v:langID="1033"><v:paragraph v:horizAlign="1"/><v:tabList/>0</text>		</g>
		<g id="shape14-25" v:mID="14" v:groupContext="shape" transform="translate(3.63465,-70.8661)">
			<title>Sheet.14</title>
			<desc>res0</desc>
			<v:textBlock v:margins="rect(1,0,1,0)" v:tabSpace="42.5197"/>
			<v:textRect cx="99.2126" cy="96.628" width="198.43" height="28.3465"/>
			<rect x="0" y="82.4547" width="198.425" height="28.3465" class="st2"/>
			<text x="90.41" y="99.03" class="st3" v:langID="2057"><v:paragraph v:horizAlign="1"/><v:tabList/>RES<tspan class="st4">0</tspan></text>		</g>
		<g id="shape15-29" v:mID="15" v:groupContext="shape" transform="translate(0.8,-70.8661)">
			<title>Sheet.15</title>
			<rect x="0" y="82.4547" width="362.835" height="28.3465" class="st5"/>
			<rect x="0" y="82.4547" width="362.835" height="28.3465" class="st6"/>
		</g>
		<g id="shape16-32" v:mID="16" v:groupContext="shape" transform="translate(250.249,-70.8661)">
			<title>Sheet.16</title>
			<path d="M0 82.45 L0 110.8" class="st6"/>
		</g>
		<g id="shape17-35" v:mID="17" v:groupContext="shape" transform="translate(261.587,-70.8661)">
			<title>Sheet.17</title>
			<path d="M0 82.45 L0 110.8" class="st6"/>
		</g>
		<g id="shape18-38" v:mID="18" v:groupContext="shape" transform="translate(272.926,-70.8661)">
			<title>Sheet.18</title>
			<path d="M0 82.45 L0 110.8" class="st6"/>
		</g>
		<g id="shape19-41" v:mID="19" v:groupContext="shape" transform="translate(284.265,-70.8661)">
			<title>Sheet.19</title>
			<path d="M0 82.45 L0 110.8" class="st6"/>
		</g>
		<g id="shape20-44" v:mID="20" v:groupContext="shape" transform="translate(295.603,-70.8661)">
			<title>Sheet.20</title>
			<path d="M0 82.45 L0 110.8" class="st6"/>
		</g>
		<g id="shape21-47" v:mID="21" v:groupContext="shape" transform="translate(306.942,-70.8661)">
			<title>Sheet.21</title>
			<path d="M0 82.45 L0 110.8" class="st6"/>
		</g>
		<g id="shape22-50" v:mID="22" v:groupContext="shape" transform="translate(318.28,-70.8661)">
			<title>Sheet.22</title>
			<path d="M0 82.45 L0 110.8" class="st6"/>
		</g>
		<g id="shape23-53" v:mID="23" v:groupContext="shape" transform="translate(329.619,-70.8661)">
			<title>Sheet.23</title>
			<path d="M0 82.45 L0 110.8" class="st6"/>
		</g>
		<g id="shape24-56" v:mID="24" v:groupContext="shape" transform="translate(340.957,-70.8661)">
			<title>Sheet.24</title>
			<path d="M0 82.45 L0 110.8" class="st6"/>
		</g>
		<g id="shape25-59" v:mID="25" v:groupContext="shape" transform="translate(352.296,-70.8661)">
			<title>Sheet.25</title>
			<path d="M0 82.45 L0 110.8" class="st6"/>
		</g>
		<g id="shape26-62" v:mID="26" v:groupContext="shape" transform="translate(429.081,0.25) rotate(90)">
			<title>Signal 0</title>
			<path d="M0 110.8 L11.34 110.8" class="st7"/>
		</g>
		<g id="shape27-65" v:mID="27" v:groupContext="shape" transform="translate(383.727,0.25) rotate(90)">
			<title>Signal 0.102</title>
			<path d="M0 110.8 L11.34 110.8" class="st7"/>
		</g>
		<g id="shape28-68" v:mID="28" v:groupContext="shape" transform="translate(338.373,0.25) rotate(90)">
			<title>Signal 0.103</title>
			<path d="M0 110.8 L11.34 110.8" class="st7"/>
		</g>
		<g id="shape29-71" v:mID="29" v:groupContext="shape" transform="translate(293.019,0.25) rotate(90)">
			<title>Signal 0.104</title>
			<path d="M0 110.8 L11.34 110.8" class="st7"/>
		</g>
		<g id="shape30-74" v:mID="30" v:groupContext="shape" transform="translate(247.664,0.25) rotate(90)">
			<title>Signal 0.105</title>
			<path d="M0 110.8 L11.34 110.8" class="st7"/>
		</g>
		<g id="shape31-77" v:mID="31" v:groupContext="shape" transform="translate(202.31,0.25) rotate(90)">
			<title>Signal 0.106</title>
			<path d="M0 110.8 L11.34 110.8" class="st7"/>
		</g>
		<g id="shape32-80" v:mID="32" v:groupContext="shape" transform="translate(156.956,0.25) rotate(90)">
			<title>Signal 0.107</title>
			<path d="M0 110.8 L11.34 110.8" class="st7"/>
		</g>
		<g id="shape33-83" v:mID="33" v:groupContext="shape" transform="translate(111.601,0.25) rotate(90)">
			<title>Signal 0.108</title>
			<path d="M0 110.8 L11.34 110.8" class="st7"/>
		</g>
		<g id="shape34-86" v:mID="34" v:groupContext="shape" transform="translate(474.436,0.25) rotate(90)">
			<title>Signal 0.109</title>
			<path d="M0 110.8 L11.34 110.8" class="st7"/>
		</g>
		<g id="shape55-89" v:mID="55" v:groupContext="shape" transform="translate(227.572,-70.8661)">
			<title>32-bit register.88</title>
			<path d="M0 82.45 L0 110.8" class="st6"/>
		</g>
		<g id="shape56-92" v:mID="56" v:groupContext="shape" transform="translate(216.233,-70.8661)">
			<title>32-bit register.108</title>
			<path d="M0 82.45 L0 110.8" class="st6"/>
		</g>
		<g id="shape57-95" v:mID="57" v:groupContext="shape" transform="translate(204.894,-70.8661)">
			<title>32-bit register.109</title>
			<path d="M0 82.45 L0 110.8" class="st6"/>
		</g>
		<g id="shape64-98" v:mID="64" v:groupContext="shape" transform="translate(227.572,-99.2126)">
			<title>32-bit register.25</title>
			<desc>11</desc>
			<v:textBlock v:margins="rect(0,0,0,0)" v:tabSpace="42.5197"/>
			<v:textRect cx="5.66929" cy="105.132" width="11.34" height="11.3386"/>
			<text x="1.22" y="107.53" class="st1" v:langID="1033"><v:paragraph v:horizAlign="1"/><v:tabList/>11</text>		</g>
		<g id="shape65-100" v:mID="65" v:groupContext="shape" transform="translate(216.233,-99.2126)">
			<title>32-bit register.117</title>
			<desc>12</desc>
			<v:textBlock v:margins="rect(0,0,0,0)" v:tabSpace="42.5197"/>
			<v:textRect cx="5.66929" cy="105.132" width="11.34" height="11.3386"/>
			<text x="1.22" y="107.53" class="st1" v:langID="1033"><v:paragraph v:horizAlign="1"/><v:tabList/>12</text>		</g>
		<g id="shape66-102" v:mID="66" v:groupContext="shape" transform="translate(204.894,-99.2126)">
			<title>32-bit register.118</title>
			<desc>13</desc>
			<v:textBlock v:margins="rect(0,0,0,0)" v:tabSpace="42.5197"/>
			<v:textRect cx="5.66929" cy="105.132" width="11.34" height="11.3386"/>
			<text x="1.22" y="107.53" class="st1" v:langID="1033"><v:paragraph v:horizAlign="1"/><v:tabList/>13</text>		</g>
		<g id="shape67-104" v:mID="67" v:groupContext="shape" transform="translate(193.556,-99.2126)">
			<title>32-bit register.119</title>
			<desc>14</desc>
			<v:textBlock v:margins="rect(0,0,0,0)" v:tabSpace="42.5197"/>
			<v:textRect cx="5.66929" cy="105.132" width="11.34" height="11.3386"/>
			<text x="1.22" y="107.53" class="st1" v:langID="1033"><v:paragraph v:horizAlign="1"/><v:tabList/>14</text>		</g>
		<g id="shape1-106" v:mID="1" v:groupContext="shape" transform="translate(227.572,-70.8661)">
			<title>Sheet.1</title>
			<desc>res0</desc>
			<v:textBlock v:margins="rect(1,0,1,0)" v:tabSpace="42.5197"/>
			<v:textRect cx="11.3386" cy="96.628" width="22.68" height="28.3465"/>
			<rect x="0" y="82.4547" width="22.6772" height="28.3465" class="st2"/>
			<text x="2.53" y="99.03" class="st3" v:langID="2057"><v:paragraph v:horizAlign="1"/><v:tabList/>RES<tspan class="st4">0</tspan></text>		</g>
		<g id="shape58-110" v:mID="58" v:groupContext="shape" transform="translate(352.296,-70.8661)">
			<title>Sheet.58</title>
			<desc>NS</desc>
			<v:textBlock v:margins="rect(1,0,1,0)" v:tabSpace="42.5197"/>
			<v:textRect cx="5.66929" cy="96.628" width="11.34" height="28.3465"/>
			<rect x="0" y="82.4547" width="11.3386" height="28.3465" class="st2"/>
			<text x="0.11" y="99.03" class="st1" v:langID="2057"><v:paragraph v:horizAlign="1"/><v:tabList/>NS</text>		</g>
		<g id="shape61-113" v:mID="61" v:groupContext="shape" transform="translate(318.28,-70.8661)">
			<title>Sheet.61</title>
			<desc>EA</desc>
			<v:textBlock v:margins="rect(1,0,1,0)" v:tabSpace="42.5197"/>
			<v:textRect cx="5.66929" cy="96.628" width="11.34" height="28.3465"/>
			<rect x="0" y="82.4547" width="11.3386" height="28.3465" class="st2"/>
			<text x="0.33" y="99.03" class="st1" v:langID="2057"><v:paragraph v:horizAlign="1"/><v:tabList/>EA</text>		</g>
		<g id="shape47-116" v:mID="47" v:groupContext="shape" transform="translate(352.296,-62.3622) scale(-1,1)">
			<title>Bit name 2</title>
			<desc>IRQ</desc>
			<v:textBlock v:margins="rect(1,0,1,1)" v:tabSpace="42.5197"/>
			<v:textRect cx="-8.50394" cy="110.801" width="17.01" height="11.3386"/>
			<path d="M5.67 105.13 L5.67 110.8 L0 110.8" class="st8"/>
			<text x="1" y="113.2" transform="scale(-1,1)" class="st1" v:langID="2057"><v:paragraph/><v:tabList/>IRQ</text>		</g>
		<g id="shape48-120" v:mID="48" v:groupContext="shape" transform="translate(352.296,-51.0236) scale(-1,1)">
			<title>Bit name 2.48</title>
			<desc>FIQ</desc>
			<v:textBlock v:margins="rect(1,0,1,1)" v:tabSpace="42.5197"/>
			<v:textRect cx="-8.50394" cy="110.801" width="17.01" height="11.3386"/>
			<path d="M17.01 93.79 L17.01 110.8 L0 110.8" class="st8"/>
			<text x="1" y="113.2" transform="scale(-1,1)" class="st1" v:langID="2057"><v:paragraph/><v:tabList/>FIQ</text>		</g>
		<g id="shape49-124" v:mID="49" v:groupContext="shape" transform="translate(318.28,-62.3622) scale(-1,1)">
			<title>Bit name 2.49</title>
			<desc>FW</desc>
			<v:textBlock v:margins="rect(1,0,1,1)" v:tabSpace="42.5197"/>
			<v:textRect cx="-7.08661" cy="110.801" width="14.18" height="11.3386"/>
			<path d="M5.67 105.13 L5.67 110.8 L0 110.8" class="st8"/>
			<text x="1" y="113.2" transform="scale(-1,1)" class="st1" v:langID="2057"><v:paragraph/><v:tabList/>FW</text>		</g>
		<g id="shape50-128" v:mID="50" v:groupContext="shape" transform="translate(318.28,-51.0236) scale(-1,1)">
			<title>Bit name 2.50</title>
			<desc>AW</desc>
			<v:textBlock v:margins="rect(1,0,1,1)" v:tabSpace="42.5197"/>
			<v:textRect cx="-8.50394" cy="110.801" width="17.01" height="11.3386"/>
			<path d="M17.01 93.79 L17.01 110.8 L0 110.8" class="st8"/>
			<text x="1" y="113.2" transform="scale(-1,1)" class="st1" v:langID="2057"><v:paragraph/><v:tabList/>AW</text>		</g>
		<g id="shape43-132" v:mID="43" v:groupContext="shape" transform="translate(318.28,-39.685) scale(-1,1)">
			<title>Bit name 2.43</title>
			<desc>nET</desc>
			<v:textBlock v:margins="rect(1,0,1,1)" v:tabSpace="42.5197"/>
			<v:textRect cx="-8.50394" cy="110.801" width="17.01" height="11.3386"/>
			<path d="M28.35 82.45 L28.35 110.8 L0 110.8" class="st8"/>
			<text x="1" y="113.2" transform="scale(-1,1)" class="st1" v:langID="2057"><v:paragraph/><v:tabList/>nET</text>		</g>
		<g id="shape41-136" v:mID="41" v:groupContext="shape" transform="translate(318.28,-28.3465) scale(-1,1)">
			<title>Bit name 2.41</title>
			<desc>SCD</desc>
			<v:textBlock v:margins="rect(1,0,1,1)" v:tabSpace="42.5197"/>
			<v:textRect cx="-9.92126" cy="110.801" width="19.85" height="11.3386"/>
			<path d="M39.69 71.12 L39.69 110.8 L0 110.8" class="st8"/>
			<text x="1" y="113.2" transform="scale(-1,1)" class="st1" v:langID="2057"><v:paragraph/><v:tabList/>SCD</text>		</g>
		<g id="shape39-140" v:mID="39" v:groupContext="shape" transform="translate(318.28,-17.0079) scale(-1,1)">
			<title>Bit name 2.39</title>
			<desc>HCE</desc>
			<v:textBlock v:margins="rect(1,0,1,1)" v:tabSpace="42.5197"/>
			<v:textRect cx="-9.92126" cy="110.801" width="19.85" height="11.3386"/>
			<path d="M51.02 59.78 L51.02 110.8 L0 110.8" class="st8"/>
			<text x="1" y="113.2" transform="scale(-1,1)" class="st1" v:langID="2057"><v:paragraph/><v:tabList/>HCE</text>		</g>
		<g id="shape37-144" v:mID="37" v:groupContext="shape" transform="translate(318.28,-5.66929) scale(-1,1)">
			<title>Bit name 2.37</title>
			<desc>SIF</desc>
			<v:textBlock v:margins="rect(1,0,1,1)" v:tabSpace="42.5197"/>
			<v:textRect cx="-7.08661" cy="110.801" width="14.18" height="11.3386"/>
			<path d="M62.36 48.44 L62.36 110.8 L0 110.8" class="st8"/>
			<text x="1" y="113.2" transform="scale(-1,1)" class="st1" v:langID="2057"><v:paragraph/><v:tabList/>SIF</text>		</g>
		<g id="shape35-148" v:mID="35" v:groupContext="shape" transform="translate(227.572,-62.3622) scale(-1,1)">
			<title>Bit name 2.35</title>
			<desc>TWI</desc>
			<v:textBlock v:margins="rect(1,0,1,1)" v:tabSpace="42.5197"/>
			<v:textRect cx="-8.50394" cy="110.801" width="17.01" height="11.3386"/>
			<path d="M5.67 105.13 L5.67 110.8 L0 110.8" class="st8"/>
			<text x="1" y="113.2" transform="scale(-1,1)" class="st1" v:langID="2057"><v:paragraph/><v:tabList/>TWI</text>		</g>
		<g id="shape36-152" v:mID="36" v:groupContext="shape" transform="translate(227.572,-51.0236) scale(-1,1)">
			<title>Bit name 2.36</title>
			<desc>TWE</desc>
			<v:textBlock v:margins="rect(1,0,1,1)" v:tabSpace="42.5197"/>
			<v:textRect cx="-9.92126" cy="110.801" width="19.85" height="11.3386"/>
			<path d="M17.01 93.79 L17.01 110.8 L0 110.8" class="st8"/>
			<text x="1" y="113.2" transform="scale(-1,1)" class="st1" v:langID="2057"><v:paragraph/><v:tabList/>TWE</text>		</g>
	</g>
</svg>
