<?xml version="1.0" encoding="UTF-8" standalone="no"?>
<!DOCTYPE svg PUBLIC "-//W3C//DTD SVG 1.0//EN" "http://www.w3.org/TR/2001/REC-SVG-20010904/DTD/svg10.dtd">
<!-- Generated by Microsoft Visio 11.0, SVG Export, v1.0 sctlr_bit_assignments.svg Page-1 -->
<svg xmlns="http://www.w3.org/2000/svg" xmlns:v="http://schemas.microsoft.com/visio/2003/SVGExtensions/" width="5.06159in"
		height="1.53891in" viewBox="0 0 364.435 110.801" xml:space="preserve" color-interpolation-filters="sRGB" class="st10">
	<v:documentProperties v:langID="1033" v:metric="true" v:viewMarkup="false"/>

	<style type="text/css">
	<![CDATA[
		.st1 {fill:#000000;font-family:Arial;font-size:0.666664em}
		.st2 {fill:#ffffff;visibility:hidden}
		.st3 {stroke:#000000;stroke-linecap:butt;stroke-width:0.8}
		.st4 {stroke:#000000;stroke-dasharray:0.25,0.5;stroke-linecap:butt;stroke-width:0.25}
		.st5 {fill:none;stroke:none;stroke-linecap:round;stroke-linejoin:round;stroke-width:0.0169691}
		.st6 {fill:#000000;font-family:Arial;font-size:0.533318em}
		.st7 {font-size:1.25003em}
		.st8 {stroke:#000000;stroke-linecap:butt;stroke-width:0.5}
		.st9 {font-size:1em}
		.st10 {fill:none;fill-rule:evenodd;font-size:12;overflow:visible;stroke-linecap:square;stroke-miterlimit:3}
	]]>
	</style>

	<g v:mID="0" v:index="1" v:groupContext="foregroundPage">
		<title>Page-1</title>
		<v:pageProperties v:drawingScale="0.0393701" v:pageScale="0.0393701" v:drawingUnits="24" v:shadowOffsetX="8.50394"
				v:shadowOffsetY="-8.50394"/>
		<g id="shape2-1" v:mID="2" v:groupContext="shape" transform="translate(0.8,-99.2126)">
			<title>Sheet.2</title>
			<desc>31</desc>
			<v:textBlock v:margins="rect(0,0,0,0)" v:tabSpace="42.5197"/>
			<v:textRect cx="5.66929" cy="105.132" width="11.34" height="11.3386"/>
			<text x="1.22" y="107.53" class="st1" v:langID="2057"><v:paragraph v:horizAlign="1"/><v:tabList/>31</text>		</g>
		<g id="shape3-3" v:mID="3" v:groupContext="shape" transform="translate(12.1386,-99.2126)">
			<title>Sheet.3</title>
			<desc>30</desc>
			<v:textBlock v:margins="rect(0,0,0,0)" v:tabSpace="42.5197"/>
			<v:textRect cx="5.66929" cy="105.132" width="11.34" height="11.3386"/>
			<text x="1.22" y="107.53" class="st1" v:langID="2057"><v:paragraph v:horizAlign="1"/><v:tabList/>30</text>		</g>
		<g id="shape4-5" v:mID="4" v:groupContext="shape" transform="translate(23.4772,-99.2126)">
			<title>Sheet.4</title>
			<desc>29</desc>
			<v:textBlock v:margins="rect(0,0,0,0)" v:tabSpace="42.5197"/>
			<v:textRect cx="5.66929" cy="105.132" width="11.34" height="11.3386"/>
			<text x="1.22" y="107.53" class="st1" v:langID="2057"><v:paragraph v:horizAlign="1"/><v:tabList/>29</text>		</g>
		<g id="shape5-7" v:mID="5" v:groupContext="shape" transform="translate(34.8157,-99.2126)">
			<title>Sheet.5</title>
			<desc>28</desc>
			<v:textBlock v:margins="rect(0,0,0,0)" v:tabSpace="42.5197"/>
			<v:textRect cx="5.66929" cy="105.132" width="11.34" height="11.3386"/>
			<text x="1.22" y="107.53" class="st1" v:langID="2057"><v:paragraph v:horizAlign="1"/><v:tabList/>28</text>		</g>
		<g id="shape6-9" v:mID="6" v:groupContext="shape" transform="translate(46.1543,-99.2126)">
			<title>Sheet.6</title>
			<desc>27</desc>
			<v:textBlock v:margins="rect(0,0,0,0)" v:tabSpace="42.5197"/>
			<v:textRect cx="5.66929" cy="105.132" width="11.34" height="11.3386"/>
			<text x="1.22" y="107.53" class="st1" v:langID="2057"><v:paragraph v:horizAlign="1"/><v:tabList/>27</text>		</g>
		<g id="shape7-11" v:mID="7" v:groupContext="shape" transform="translate(57.4929,-99.2126)">
			<title>Sheet.7</title>
			<desc>26</desc>
			<v:textBlock v:margins="rect(0,0,0,0)" v:tabSpace="42.5197"/>
			<v:textRect cx="5.66929" cy="105.132" width="11.34" height="11.3386"/>
			<text x="1.22" y="107.53" class="st1" v:langID="2057"><v:paragraph v:horizAlign="1"/><v:tabList/>26</text>		</g>
		<g id="shape8-13" v:mID="8" v:groupContext="shape" transform="translate(68.8315,-99.2126)">
			<title>Sheet.8</title>
			<desc>25</desc>
			<v:textBlock v:margins="rect(0,0,0,0)" v:tabSpace="42.5197"/>
			<v:textRect cx="5.66929" cy="105.132" width="11.34" height="11.3386"/>
			<text x="1.22" y="107.53" class="st1" v:langID="2057"><v:paragraph v:horizAlign="1"/><v:tabList/>25</text>		</g>
		<g id="shape9-15" v:mID="9" v:groupContext="shape" transform="translate(80.1701,-99.2126)">
			<title>Sheet.9</title>
			<desc>24</desc>
			<v:textBlock v:margins="rect(0,0,0,0)" v:tabSpace="42.5197"/>
			<v:textRect cx="5.66929" cy="105.132" width="11.34" height="11.3386"/>
			<text x="1.22" y="107.53" class="st1" v:langID="2057"><v:paragraph v:horizAlign="1"/><v:tabList/>24</text>		</g>
		<g id="shape10-17" v:mID="10" v:groupContext="shape" transform="translate(193.556,-99.2126)">
			<title>Sheet.10</title>
			<desc>14</desc>
			<v:textBlock v:margins="rect(0,0,0,0)" v:tabSpace="42.5197"/>
			<v:textRect cx="5.66929" cy="105.132" width="11.34" height="11.3386"/>
			<text x="1.22" y="107.53" class="st1" v:langID="2057"><v:paragraph v:horizAlign="1"/><v:tabList/>14</text>		</g>
		<g id="shape11-19" v:mID="11" v:groupContext="shape" transform="translate(204.894,-99.2126)">
			<title>Sheet.11</title>
			<desc>13</desc>
			<v:textBlock v:margins="rect(0,0,0,0)" v:tabSpace="42.5197"/>
			<v:textRect cx="5.66929" cy="105.132" width="11.34" height="11.3386"/>
			<text x="1.22" y="107.53" class="st1" v:langID="2057"><v:paragraph v:horizAlign="1"/><v:tabList/>13</text>		</g>
		<g id="shape12-21" v:mID="12" v:groupContext="shape" transform="translate(216.233,-99.2126)">
			<title>Sheet.12</title>
			<desc>12</desc>
			<v:textBlock v:margins="rect(0,0,0,0)" v:tabSpace="42.5197"/>
			<v:textRect cx="5.66929" cy="105.132" width="11.34" height="11.3386"/>
			<text x="1.22" y="107.53" class="st1" v:langID="2057"><v:paragraph v:horizAlign="1"/><v:tabList/>12</text>		</g>
		<g id="shape13-23" v:mID="13" v:groupContext="shape" transform="translate(227.572,-99.2126)">
			<title>Sheet.13</title>
			<desc>11</desc>
			<v:textBlock v:margins="rect(0,0,0,0)" v:tabSpace="42.5197"/>
			<v:textRect cx="5.66929" cy="105.132" width="11.34" height="11.3386"/>
			<text x="1.22" y="107.53" class="st1" v:langID="2057"><v:paragraph v:horizAlign="1"/><v:tabList/>11</text>		</g>
		<g id="shape14-25" v:mID="14" v:groupContext="shape" transform="translate(238.91,-99.2126)">
			<title>Sheet.14</title>
			<desc>10</desc>
			<v:textBlock v:margins="rect(0,0,0,0)" v:tabSpace="42.5197"/>
			<v:textRect cx="5.66929" cy="105.132" width="11.34" height="11.3386"/>
			<text x="1.22" y="107.53" class="st1" v:langID="2057"><v:paragraph v:horizAlign="1"/><v:tabList/>10</text>		</g>
		<g id="shape15-27" v:mID="15" v:groupContext="shape" transform="translate(318.28,-99.2126)">
			<title>Sheet.15</title>
			<desc>3</desc>
			<v:textBlock v:margins="rect(0,0,0,0)" v:tabSpace="42.5197"/>
			<v:textRect cx="5.66929" cy="105.132" width="11.34" height="11.3386"/>
			<text x="3.44" y="107.53" class="st1" v:langID="2057"><v:paragraph v:horizAlign="1"/><v:tabList/>3</text>		</g>
		<g id="shape16-29" v:mID="16" v:groupContext="shape" transform="translate(329.619,-99.2126)">
			<title>Sheet.16</title>
			<desc>2</desc>
			<v:textBlock v:margins="rect(0,0,0,0)" v:tabSpace="42.5197"/>
			<v:textRect cx="5.66929" cy="105.132" width="11.34" height="11.3386"/>
			<text x="3.44" y="107.53" class="st1" v:langID="2057"><v:paragraph v:horizAlign="1"/><v:tabList/>2</text>		</g>
		<g id="shape17-31" v:mID="17" v:groupContext="shape" transform="translate(340.957,-99.2126)">
			<title>Sheet.17</title>
			<desc>1</desc>
			<v:textBlock v:margins="rect(0,0,0,0)" v:tabSpace="42.5197"/>
			<v:textRect cx="5.66929" cy="105.132" width="11.34" height="11.3386"/>
			<text x="3.44" y="107.53" class="st1" v:langID="2057"><v:paragraph v:horizAlign="1"/><v:tabList/>1</text>		</g>
		<g id="shape18-33" v:mID="18" v:groupContext="shape" transform="translate(352.296,-99.2126)">
			<title>Sheet.18</title>
			<desc>0</desc>
			<v:textBlock v:margins="rect(0,0,0,0)" v:tabSpace="42.5197"/>
			<v:textRect cx="5.66929" cy="105.132" width="11.34" height="11.3386"/>
			<text x="3.44" y="107.53" class="st1" v:langID="2057"><v:paragraph v:horizAlign="1"/><v:tabList/>0</text>		</g>
		<g id="shape19-35" v:mID="19" v:groupContext="shape" transform="translate(0.8,-70.8661)">
			<title>Sheet.19</title>
			<rect x="0" y="82.4547" width="362.835" height="28.3465" class="st2"/>
			<rect x="0" y="82.4547" width="362.835" height="28.3465" class="st3"/>
		</g>
		<g id="shape20-38" v:mID="20" v:groupContext="shape" transform="translate(12.1386,-70.8661)">
			<title>Sheet.20</title>
			<path d="M0 82.45 L0 110.8" class="st3"/>
		</g>
		<g id="shape21-41" v:mID="21" v:groupContext="shape" transform="translate(23.4772,-70.8661)">
			<title>Sheet.21</title>
			<path d="M0 82.45 L0 110.8" class="st3"/>
		</g>
		<g id="shape22-44" v:mID="22" v:groupContext="shape" transform="translate(34.8157,-70.8661)">
			<title>Sheet.22</title>
			<path d="M0 82.45 L0 110.8" class="st3"/>
		</g>
		<g id="shape23-47" v:mID="23" v:groupContext="shape" transform="translate(46.1543,-70.8661)">
			<title>Sheet.23</title>
			<path d="M0 82.45 L0 110.8" class="st3"/>
		</g>
		<g id="shape24-50" v:mID="24" v:groupContext="shape" transform="translate(68.8315,-70.8661)">
			<title>Sheet.24</title>
			<path d="M0 82.45 L0 110.8" class="st3"/>
		</g>
		<g id="shape25-53" v:mID="25" v:groupContext="shape" transform="translate(80.1701,-70.8661)">
			<title>Sheet.25</title>
			<path d="M0 82.45 L0 110.8" class="st3"/>
		</g>
		<g id="shape26-56" v:mID="26" v:groupContext="shape" transform="translate(204.894,-70.8661)">
			<title>Sheet.26</title>
			<path d="M0 82.45 L0 110.8" class="st3"/>
		</g>
		<g id="shape27-59" v:mID="27" v:groupContext="shape" transform="translate(216.233,-70.8661)">
			<title>Sheet.27</title>
			<path d="M0 82.45 L0 110.8" class="st3"/>
		</g>
		<g id="shape28-62" v:mID="28" v:groupContext="shape" transform="translate(227.572,-70.8661)">
			<title>Sheet.28</title>
			<path d="M0 82.45 L0 110.8" class="st3"/>
		</g>
		<g id="shape29-65" v:mID="29" v:groupContext="shape" transform="translate(329.619,-70.8661)">
			<title>Sheet.29</title>
			<path d="M0 82.45 L0 110.8" class="st3"/>
		</g>
		<g id="shape30-68" v:mID="30" v:groupContext="shape" transform="translate(340.957,-70.8661)">
			<title>Sheet.30</title>
			<path d="M0 82.45 L0 110.8" class="st3"/>
		</g>
		<g id="shape31-71" v:mID="31" v:groupContext="shape" transform="translate(352.296,-70.8661)">
			<title>Sheet.31</title>
			<path d="M0 82.45 L0 110.8" class="st3"/>
		</g>
		<g id="shape32-74" v:mID="32" v:groupContext="shape" transform="translate(429.081,0.25) rotate(90)">
			<title>Signal 0</title>
			<path d="M0 110.8 L11.34 110.8" class="st4"/>
		</g>
		<g id="shape33-77" v:mID="33" v:groupContext="shape" transform="translate(383.727,0.25) rotate(90)">
			<title>Signal 0.102</title>
			<path d="M0 110.8 L11.34 110.8" class="st4"/>
		</g>
		<g id="shape34-80" v:mID="34" v:groupContext="shape" transform="translate(338.373,0.25) rotate(90)">
			<title>Signal 0.103</title>
			<path d="M0 110.8 L11.34 110.8" class="st4"/>
		</g>
		<g id="shape35-83" v:mID="35" v:groupContext="shape" transform="translate(293.019,0.25) rotate(90)">
			<title>Signal 0.104</title>
			<path d="M0 110.8 L11.34 110.8" class="st4"/>
		</g>
		<g id="shape36-86" v:mID="36" v:groupContext="shape" transform="translate(247.664,0.25) rotate(90)">
			<title>Signal 0.105</title>
			<path d="M0 110.8 L11.34 110.8" class="st4"/>
		</g>
		<g id="shape37-89" v:mID="37" v:groupContext="shape" transform="translate(202.31,0.25) rotate(90)">
			<title>Signal 0.106</title>
			<path d="M0 110.8 L11.34 110.8" class="st4"/>
		</g>
		<g id="shape38-92" v:mID="38" v:groupContext="shape" transform="translate(156.956,0.25) rotate(90)">
			<title>Signal 0.107</title>
			<path d="M0 110.8 L11.34 110.8" class="st4"/>
		</g>
		<g id="shape39-95" v:mID="39" v:groupContext="shape" transform="translate(111.601,0.25) rotate(90)">
			<title>Signal 0.108</title>
			<path d="M0 110.8 L11.34 110.8" class="st4"/>
		</g>
		<g id="shape40-98" v:mID="40" v:groupContext="shape" transform="translate(474.436,0.25) rotate(90)">
			<title>Signal 0.109</title>
			<path d="M0 110.8 L11.34 110.8" class="st4"/>
		</g>
		<g id="shape41-101" v:mID="41" v:groupContext="shape" transform="translate(352.296,-70.8661)">
			<title>Sheet.41</title>
			<desc>M</desc>
			<v:textBlock v:margins="rect(1,1,1,1)" v:tabSpace="42.5197"/>
			<v:textRect cx="5.66929" cy="96.628" width="11.34" height="28.3465"/>
			<rect x="0" y="82.4547" width="11.3386" height="28.3465" class="st5"/>
			<text x="2.34" y="99.03" class="st1" v:langID="1033"><v:paragraph v:horizAlign="1"/><v:tabList/>M</text>		</g>
		<g id="shape42-104" v:mID="42" v:groupContext="shape" transform="translate(216.233,-70.8661)">
			<title>Sheet.42</title>
			<desc>I</desc>
			<v:textBlock v:margins="rect(1,1,1,1)" v:tabSpace="42.5197"/>
			<v:textRect cx="5.66929" cy="96.628" width="11.34" height="28.3465"/>
			<rect x="0" y="82.4547" width="11.3386" height="28.3465" class="st5"/>
			<text x="4.56" y="99.03" class="st1" v:langID="1033"><v:paragraph v:horizAlign="1"/><v:tabList/>I</text>		</g>
		<g id="shape47-107" v:mID="47" v:groupContext="shape" transform="translate(204.894,-70.8661)">
			<title>Sheet.47</title>
			<desc>V</desc>
			<v:textBlock v:margins="rect(1,1,1,1)" v:tabSpace="42.5197"/>
			<v:textRect cx="5.66929" cy="96.628" width="11.34" height="28.3465"/>
			<rect x="0" y="82.4547" width="11.3386" height="28.3465" class="st5"/>
			<text x="3" y="99.03" class="st1" v:langID="1033"><v:paragraph v:horizAlign="1"/><v:tabList/>V</text>		</g>
		<g id="shape48-110" v:mID="48" v:groupContext="shape" transform="translate(329.619,-70.8661)">
			<title>Sheet.48</title>
			<desc>C</desc>
			<v:textBlock v:margins="rect(1,1,1,1)" v:tabSpace="42.5197"/>
			<v:textRect cx="5.66929" cy="96.628" width="11.34" height="28.3465"/>
			<rect x="0" y="82.4547" width="11.3386" height="28.3465" class="st5"/>
			<text x="2.78" y="99.03" class="st1" v:langID="1033"><v:paragraph v:horizAlign="1"/><v:tabList/>C</text>		</g>
		<g id="shape49-113" v:mID="49" v:groupContext="shape" transform="translate(340.957,-70.8661)">
			<title>Sheet.49</title>
			<desc>A</desc>
			<v:textBlock v:margins="rect(1,1,1,1)" v:tabSpace="42.5197"/>
			<v:textRect cx="5.66929" cy="96.628" width="11.34" height="28.3465"/>
			<rect x="0" y="82.4547" width="11.3386" height="28.3465" class="st5"/>
			<text x="3" y="99.03" class="st1" v:langID="1033"><v:paragraph v:horizAlign="1"/><v:tabList/>A</text>		</g>
		<g id="shape58-116" v:mID="58" v:groupContext="shape" transform="translate(148.202,-99.2126)">
			<title>32-bit register.176</title>
			<desc>18</desc>
			<v:textBlock v:margins="rect(0,0,0,0)" v:tabSpace="42.5197"/>
			<v:textRect cx="5.66929" cy="105.132" width="11.34" height="11.3386"/>
			<text x="1.22" y="107.53" class="st1" v:langID="1033"><v:paragraph v:horizAlign="1"/><v:tabList/>18</text>		</g>
		<g id="shape59-118" v:mID="59" v:groupContext="shape" transform="translate(148.202,-70.8661)">
			<title>32-bit Register.184</title>
			<path d="M0 82.45 L0 110.8" class="st3"/>
		</g>
		<g id="shape60-121" v:mID="60" v:groupContext="shape" transform="translate(114.186,-99.2126)">
			<title>32-bit register.186</title>
			<desc>21</desc>
			<v:textBlock v:margins="rect(0,0,0,0)" v:tabSpace="42.5197"/>
			<v:textRect cx="5.66929" cy="105.132" width="11.34" height="11.3386"/>
			<text x="1.22" y="107.53" class="st1" v:langID="1033"><v:paragraph v:horizAlign="1"/><v:tabList/>21</text>		</g>
		<g id="shape61-123" v:mID="61" v:groupContext="shape" transform="translate(125.524,-99.2126)">
			<title>32-bit register.187</title>
			<desc>20</desc>
			<v:textBlock v:margins="rect(0,0,0,0)" v:tabSpace="42.5197"/>
			<v:textRect cx="5.66929" cy="105.132" width="11.34" height="11.3386"/>
			<text x="1.22" y="107.53" class="st1" v:langID="1033"><v:paragraph v:horizAlign="1"/><v:tabList/>20</text>		</g>
		<g id="shape62-125" v:mID="62" v:groupContext="shape" transform="translate(136.863,-99.2126)">
			<title>32-bit register.188</title>
			<desc>19</desc>
			<v:textBlock v:margins="rect(0,0,0,0)" v:tabSpace="42.5197"/>
			<v:textRect cx="5.66929" cy="105.132" width="11.34" height="11.3386"/>
			<text x="1.22" y="107.53" class="st1" v:langID="1033"><v:paragraph v:horizAlign="1"/><v:tabList/>19</text>		</g>
		<g id="shape63-127" v:mID="63" v:groupContext="shape" transform="translate(125.524,-70.8661)">
			<title>32-bit Register.189</title>
			<path d="M0 82.45 L0 110.8" class="st3"/>
		</g>
		<g id="shape64-130" v:mID="64" v:groupContext="shape" transform="translate(136.863,-70.8661)">
			<title>32-bit Register.190</title>
			<path d="M0 82.45 L0 110.8" class="st3"/>
		</g>
		<g id="shape70-133" v:mID="70" v:groupContext="shape" transform="translate(250.249,-99.2126)">
			<title>32-bit register.203</title>
			<desc>9</desc>
			<v:textBlock v:margins="rect(0,0,0,0)" v:tabSpace="42.5197"/>
			<v:textRect cx="5.66929" cy="105.132" width="11.34" height="11.3386"/>
			<text x="3.44" y="107.53" class="st1" v:langID="1033"><v:paragraph v:horizAlign="1"/><v:tabList/>9</text>		</g>
		<g id="shape72-135" v:mID="72" v:groupContext="shape" transform="translate(148.202,-70.8661)">
			<title>Sheet.72</title>
			<v:textBlock v:margins="rect(1,1,1,1)" v:tabSpace="42.5197"/>
			<rect x="0" y="82.4547" width="56.6929" height="28.3465" class="st5"/>
		</g>
		<g id="shape73-137" v:mID="73" v:groupContext="shape" transform="translate(261.587,-99.2126)">
			<title>32-bit register.224</title>
			<desc>8</desc>
			<v:textBlock v:margins="rect(0,0,0,0)" v:tabSpace="42.5197"/>
			<v:textRect cx="5.66929" cy="105.132" width="11.34" height="11.3386"/>
			<text x="3.44" y="107.53" class="st1" v:langID="1033"><v:paragraph v:horizAlign="1"/><v:tabList/>8</text>		</g>
		<g id="shape74-139" v:mID="74" v:groupContext="shape" transform="translate(261.587,-70.8661)">
			<title>32-bit Register.30</title>
			<path d="M0 82.45 L0 110.8" class="st3"/>
		</g>
		<g id="shape75-142" v:mID="75" v:groupContext="shape" transform="translate(272.926,-70.8661)">
			<title>32-bit Register.226</title>
			<path d="M0 82.45 L0 110.8" class="st3"/>
		</g>
		<g id="shape76-145" v:mID="76" v:groupContext="shape" transform="translate(284.265,-70.8661)">
			<title>32-bit Register.227</title>
			<path d="M0 82.45 L0 110.8" class="st3"/>
		</g>
		<g id="shape77-148" v:mID="77" v:groupContext="shape" transform="translate(272.926,-99.2126)">
			<title>32-bit register.228</title>
			<desc>7</desc>
			<v:textBlock v:margins="rect(0,0,0,0)" v:tabSpace="42.5197"/>
			<v:textRect cx="5.66929" cy="105.132" width="11.34" height="11.3386"/>
			<text x="3.44" y="107.53" class="st1" v:langID="1033"><v:paragraph v:horizAlign="1"/><v:tabList/>7</text>		</g>
		<g id="shape78-150" v:mID="78" v:groupContext="shape" transform="translate(284.265,-99.2126)">
			<title>32-bit register.229</title>
			<desc>6</desc>
			<v:textBlock v:margins="rect(0,0,0,0)" v:tabSpace="42.5197"/>
			<v:textRect cx="5.66929" cy="105.132" width="11.34" height="11.3386"/>
			<text x="3.44" y="107.53" class="st1" v:langID="1033"><v:paragraph v:horizAlign="1"/><v:tabList/>6</text>		</g>
		<g id="shape79-152" v:mID="79" v:groupContext="shape" transform="translate(295.603,-70.8661)">
			<title>32-bit Register.230</title>
			<path d="M0 82.45 L0 110.8" class="st3"/>
		</g>
		<g id="shape90-155" v:mID="90" v:groupContext="shape" transform="translate(306.942,-70.8661)">
			<title>32-bit Register.241</title>
			<path d="M0 82.45 L0 110.8" class="st3"/>
		</g>
		<g id="shape91-158" v:mID="91" v:groupContext="shape" transform="translate(295.603,-99.2126)">
			<title>32-bit register.242</title>
			<desc>5</desc>
			<v:textBlock v:margins="rect(0,0,0,0)" v:tabSpace="42.5197"/>
			<v:textRect cx="5.66929" cy="105.132" width="11.34" height="11.3386"/>
			<text x="3.44" y="107.53" class="st1" v:langID="1033"><v:paragraph v:horizAlign="1"/><v:tabList/>5</text>		</g>
		<g id="shape93-160" v:mID="93" v:groupContext="shape" transform="translate(159.54,-70.8661)">
			<title>32-bit Register.244</title>
			<path d="M0 82.45 L0 110.8" class="st3"/>
		</g>
		<g id="shape94-163" v:mID="94" v:groupContext="shape" transform="translate(170.879,-70.8661)">
			<title>32-bit Register.245</title>
			<path d="M0 82.45 L0 110.8" class="st3"/>
		</g>
		<g id="shape95-166" v:mID="95" v:groupContext="shape" transform="translate(182.217,-70.8661)">
			<title>32-bit Register.246</title>
			<path d="M0 82.45 L0 110.8" class="st3"/>
		</g>
		<g id="shape96-169" v:mID="96" v:groupContext="shape" transform="translate(159.54,-99.2126)">
			<title>32-bit register.247</title>
			<desc>17</desc>
			<v:textBlock v:margins="rect(0,0,0,0)" v:tabSpace="42.5197"/>
			<v:textRect cx="5.66929" cy="105.132" width="11.34" height="11.3386"/>
			<text x="1.22" y="107.53" class="st1" v:langID="1033"><v:paragraph v:horizAlign="1"/><v:tabList/>17</text>		</g>
		<g id="shape97-171" v:mID="97" v:groupContext="shape" transform="translate(170.879,-99.2126)">
			<title>32-bit register.248</title>
			<desc>16</desc>
			<v:textBlock v:margins="rect(0,0,0,0)" v:tabSpace="42.5197"/>
			<v:textRect cx="5.66929" cy="105.132" width="11.34" height="11.3386"/>
			<text x="1.22" y="107.53" class="st1" v:langID="1033"><v:paragraph v:horizAlign="1"/><v:tabList/>16</text>		</g>
		<g id="shape98-173" v:mID="98" v:groupContext="shape" transform="translate(182.217,-99.2126)">
			<title>32-bit register.249</title>
			<desc>15</desc>
			<v:textBlock v:margins="rect(0,0,0,0)" v:tabSpace="42.5197"/>
			<v:textRect cx="5.66929" cy="105.132" width="11.34" height="11.3386"/>
			<text x="1.22" y="107.53" class="st1" v:langID="1033"><v:paragraph v:horizAlign="1"/><v:tabList/>15</text>		</g>
		<g id="shape107-175" v:mID="107" v:groupContext="shape" transform="translate(306.942,-99.2126)">
			<title>32-bit register.253</title>
			<desc>4</desc>
			<v:textBlock v:margins="rect(0,0,0,0)" v:tabSpace="42.5197"/>
			<v:textRect cx="5.66929" cy="105.132" width="11.34" height="11.3386"/>
			<text x="3.44" y="107.53" class="st1" v:langID="1033"><v:paragraph v:horizAlign="1"/><v:tabList/>4</text>		</g>
		<g id="shape108-177" v:mID="108" v:groupContext="shape" transform="translate(238.91,-70.8661)">
			<title>Sheet.108</title>
			<desc>res0</desc>
			<v:textBlock v:margins="rect(1,1,1,1)" v:tabSpace="42.5197"/>
			<v:textRect cx="11.3386" cy="96.628" width="22.68" height="28.3465"/>
			<rect x="0" y="82.4547" width="22.6772" height="28.3465" class="st5"/>
			<text x="2.53" y="99.03" class="st6" v:langID="2057"><v:paragraph v:horizAlign="1"/><v:tabList/>RES<tspan class="st7">0</tspan></text>		</g>
		<g id="shape71-181" v:mID="71" v:groupContext="shape" transform="translate(238.91,-70.8661)">
			<title>32-bit Register.71</title>
			<path d="M0 82.45 L0 110.8" class="st3"/>
		</g>
		<g id="shape80-184" v:mID="80" v:groupContext="shape" transform="translate(182.217,-70.8661)">
			<title>Sheet.80</title>
			<desc>res0</desc>
			<v:textBlock v:margins="rect(1,1,1,1)" v:tabSpace="42.5197"/>
			<v:textRect cx="11.3386" cy="96.628" width="22.68" height="28.3465"/>
			<rect x="0" y="82.4547" width="22.6772" height="28.3465" class="st5"/>
			<text x="2.53" y="99.03" class="st6" v:langID="2057"><v:paragraph v:horizAlign="1"/><v:tabList/>RES<tspan class="st7">0</tspan></text>		</g>
		<g id="shape99-188" v:mID="99" v:groupContext="shape" transform="translate(91.5087,-70.8661)">
			<title>Sheet.99</title>
			<desc>res1</desc>
			<v:textBlock v:margins="rect(1,1,1,1)" v:tabSpace="42.5197"/>
			<v:textRect cx="11.3386" cy="96.628" width="22.68" height="28.3465"/>
			<rect x="0" y="82.4547" width="22.6772" height="28.3465" class="st5"/>
			<text x="2.53" y="99.03" class="st6" v:langID="2057"><v:paragraph v:horizAlign="1"/><v:tabList/>RES<tspan class="st7">1</tspan></text>		</g>
		<g id="shape100-192" v:mID="100" v:groupContext="shape" transform="translate(91.5087,-99.2126)">
			<title>32-bit Register.100</title>
			<desc>23</desc>
			<v:textBlock v:margins="rect(0,0,0,0)" v:tabSpace="42.5197"/>
			<v:textRect cx="5.66929" cy="105.132" width="11.34" height="11.3386"/>
			<text x="1.22" y="107.53" class="st1" v:langID="2057"><v:paragraph v:horizAlign="1"/><v:tabList/>23</text>		</g>
		<g id="shape109-194" v:mID="109" v:groupContext="shape" transform="translate(102.847,-99.2126)">
			<title>32-bit Register.109</title>
			<desc>22</desc>
			<v:textBlock v:margins="rect(0,0,0,0)" v:tabSpace="42.5197"/>
			<v:textRect cx="5.66929" cy="105.132" width="11.34" height="11.3386"/>
			<text x="1.22" y="107.53" class="st1" v:langID="2057"><v:paragraph v:horizAlign="1"/><v:tabList/>22</text>		</g>
		<g id="shape110-196" v:mID="110" v:groupContext="shape" transform="translate(114.186,-70.8661)">
			<title>32-bit Register.110</title>
			<path d="M0 82.45 L0 110.8" class="st3"/>
		</g>
		<g id="shape111-199" v:mID="111" v:groupContext="shape" transform="translate(91.5087,-70.8661)">
			<title>32-bit Register.111</title>
			<path d="M0 82.45 L0 110.8" class="st3"/>
		</g>
		<g id="shape112-202" v:mID="112" v:groupContext="shape" transform="translate(46.1543,-70.8661)">
			<title>Sheet.112</title>
			<desc>res0</desc>
			<v:textBlock v:margins="rect(1,1,1,1)" v:tabSpace="42.5197"/>
			<v:textRect cx="11.3386" cy="96.628" width="22.68" height="28.3465"/>
			<rect x="0" y="82.4547" width="22.6772" height="28.3465" class="st5"/>
			<text x="2.53" y="99.03" class="st6" v:langID="2057"><v:paragraph v:horizAlign="1"/><v:tabList/>RES<tspan class="st7">0</tspan></text>		</g>
		<g id="shape43-206" v:mID="43" v:groupContext="shape" transform="translate(306.942,-62.3622) scale(-1,1)">
			<title>Bit name 2</title>
			<desc>CP15BEN</desc>
			<v:textBlock v:margins="rect(1,0,1,1)" v:tabSpace="42.5197"/>
			<v:textRect cx="-19.8425" cy="110.801" width="39.69" height="11.3386"/>
			<path d="M5.67 105.13 L5.67 110.8 L0 110.8" class="st8"/>
			<text x="1" y="113.2" transform="scale(-1,1)" class="st1" v:langID="2057"><v:paragraph/><v:tabList/>CP15BEN</text>		</g>
		<g id="shape51-210" v:mID="51" v:groupContext="shape" transform="translate(306.942,-51.0236) scale(-1,1)">
			<title>Bit name 2.51</title>
			<desc>THEE</desc>
			<v:textBlock v:margins="rect(1,0,1,1)" v:tabSpace="42.5197"/>
			<v:textRect cx="-12.7559" cy="110.801" width="25.52" height="11.3386"/>
			<path d="M17.01 93.79 L17.01 110.8 L0 110.8" class="st8"/>
			<text x="1" y="113.2" transform="scale(-1,1)" class="st1" v:langID="2057"><v:paragraph/><v:tabList/>THEE</text>		</g>
		<g id="shape81-214" v:mID="81" v:groupContext="shape" transform="translate(306.942,-70.8661)">
			<title>Sheet.81</title>
			<desc>res1</desc>
			<v:textBlock v:margins="rect(1,1,1,1)" v:tabSpace="42.5197"/>
			<v:textRect cx="11.3386" cy="96.628" width="22.68" height="28.3465"/>
			<rect x="0" y="82.4547" width="22.6772" height="28.3465" class="st5"/>
			<text x="2.53" y="99.03" class="st6" v:langID="2057"><v:paragraph v:horizAlign="1"/><v:tabList/>RES<tspan class="st7">1</tspan></text>		</g>
		<g id="shape82-218" v:mID="82" v:groupContext="shape" transform="translate(306.942,-39.685) scale(-1,1)">
			<title>Bit name 2.82</title>
			<desc>ITD</desc>
			<v:textBlock v:margins="rect(1,0,1,1)" v:tabSpace="42.5197"/>
			<v:textRect cx="-8.50394" cy="110.801" width="17.01" height="11.3386"/>
			<path d="M28.35 82.45 L28.35 110.8 L0 110.8" class="st8"/>
			<text x="1" y="113.2" transform="scale(-1,1)" class="st1" v:langID="2057"><v:paragraph/><v:tabList/>ITD</text>		</g>
		<g id="shape83-222" v:mID="83" v:groupContext="shape" transform="translate(306.942,-28.3465) scale(-1,1)">
			<title>Bit name 2.83</title>
			<desc>SED</desc>
			<v:textBlock v:margins="rect(1,0,1,1)" v:tabSpace="42.5197"/>
			<v:textRect cx="-9.92126" cy="110.801" width="19.85" height="11.3386"/>
			<path d="M39.69 71.12 L39.69 110.8 L0 110.8" class="st8"/>
			<text x="1" y="113.2" transform="scale(-1,1)" class="st1" v:langID="2057"><v:paragraph/><v:tabList/>SED</text>		</g>
		<g id="shape84-226" v:mID="84" v:groupContext="shape" transform="translate(238.91,-62.3622) scale(-1,1)">
			<title>Bit name 2.84</title>
			<desc>res1</desc>
			<v:textBlock v:margins="rect(1,0,1,1)" v:tabSpace="42.5197"/>
			<v:textRect cx="-9.92126" cy="110.801" width="19.85" height="11.3386"/>
			<path d="M5.67 105.13 L5.67 110.8 L0 110.8" class="st8"/>
			<text x="1" y="113.2" transform="scale(-1,1)" class="st6" v:langID="2057"><v:paragraph/><v:tabList/>RES<tspan
						class="st7">1</tspan></text>		</g>
		<g id="shape85-231" v:mID="85" v:groupContext="shape" transform="translate(182.217,-62.3622) scale(-1,1)">
			<title>Bit name 2.85</title>
			<desc>nTWI</desc>
			<v:textBlock v:margins="rect(1,0,1,1)" v:tabSpace="42.5197"/>
			<v:textRect cx="-11.3386" cy="110.801" width="22.68" height="11.3386"/>
			<path d="M5.67 105.13 L5.67 110.8 L0 110.8" class="st8"/>
			<text x="1" y="113.2" transform="scale(-1,1)" class="st1" v:langID="1033"><v:paragraph/><v:tabList/>nTWI</text>		</g>
		<g id="shape86-235" v:mID="86" v:groupContext="shape" transform="translate(182.217,-51.0236) scale(-1,1)">
			<title>Bit name 2.86</title>
			<desc>res0</desc>
			<v:textBlock v:margins="rect(1,0,1,1)" v:tabSpace="42.5197"/>
			<v:textRect cx="-9.92126" cy="110.801" width="19.85" height="11.3386"/>
			<path d="M17.01 93.79 L17.01 110.8 L0 110.8" class="st8"/>
			<text x="1" y="113.2" transform="scale(-1,1)" class="st6" v:langID="2057"><v:paragraph/><v:tabList/>RES<tspan
						class="st7">0</tspan></text>		</g>
		<g id="shape87-240" v:mID="87" v:groupContext="shape" transform="translate(182.217,-39.685) scale(-1,1)">
			<title>Bit name 2.87</title>
			<desc>nTWE</desc>
			<v:textBlock v:margins="rect(1,0,1,1)" v:tabSpace="42.5197"/>
			<v:textRect cx="-12.7559" cy="110.801" width="25.52" height="11.3386"/>
			<path d="M28.35 82.45 L28.35 110.8 L0 110.8" class="st8"/>
			<text x="1" y="113.2" transform="scale(-1,1)" class="st1" v:langID="1033"><v:paragraph/><v:tabList/>nTWE</text>		</g>
		<g id="shape88-244" v:mID="88" v:groupContext="shape" transform="translate(182.217,-28.3465) scale(-1,1)">
			<title>Bit name 2.88</title>
			<desc>WXN</desc>
			<v:textBlock v:margins="rect(1,0,1,1)" v:tabSpace="42.5197"/>
			<v:textRect cx="-11.3386" cy="110.801" width="22.68" height="11.3386"/>
			<path d="M39.69 71.12 L39.69 110.8 L0 110.8" class="st8"/>
			<text x="1" y="113.2" transform="scale(-1,1)" class="st1" v:langID="1033"><v:paragraph/><v:tabList/>WXN</text>		</g>
		<g id="shape65-248" v:mID="65" v:groupContext="shape" transform="translate(182.217,-17.0079) scale(-1,1)">
			<title>Bit name 2.65</title>
			<desc>UWXN</desc>
			<v:textBlock v:margins="rect(1,0,1,1)" v:tabSpace="42.5197"/>
			<v:textRect cx="-14.1732" cy="110.801" width="28.35" height="11.3386"/>
			<path d="M51.02 59.78 L51.02 110.8 L0 110.8" class="st8"/>
			<text x="1" y="113.2" transform="scale(-1,1)" class="st1" v:langID="2057"><v:paragraph/><v:tabList/>U<tspan class="st9"
						v:langID="1033">WXN</tspan></text>		</g>
		<g id="shape66-253" v:mID="66" v:groupContext="shape" transform="translate(182.217,-5.66929) scale(-1,1)">
			<title>Bit name 2.66</title>
			<desc>res0</desc>
			<v:textBlock v:margins="rect(1,0,1,1)" v:tabSpace="42.5197"/>
			<v:textRect cx="-9.92126" cy="110.801" width="19.85" height="11.3386"/>
			<path d="M62.36 48.44 L62.36 110.8 L0 110.8" class="st8"/>
			<text x="1" y="113.2" transform="scale(-1,1)" class="st6" v:langID="2057"><v:paragraph/><v:tabList/>RES<tspan
						class="st7">0</tspan></text>		</g>
		<g id="shape67-258" v:mID="67" v:groupContext="shape" transform="translate(91.5087,-62.3622) scale(-1,1)">
			<title>Bit name 2.67</title>
			<desc>res0</desc>
			<v:textBlock v:margins="rect(1,0,1,1)" v:tabSpace="42.5197"/>
			<v:textRect cx="-9.92126" cy="110.801" width="19.85" height="11.3386"/>
			<path d="M5.67 105.13 L5.67 110.8 L0 110.8" class="st8"/>
			<text x="1" y="113.2" transform="scale(-1,1)" class="st6" v:langID="2057"><v:paragraph/><v:tabList/>RES<tspan
						class="st7">0</tspan></text>		</g>
		<g id="shape68-263" v:mID="68" v:groupContext="shape" transform="translate(91.5087,-51.0236) scale(-1,1)">
			<title>Bit name 2.68</title>
			<desc>EE</desc>
			<v:textBlock v:margins="rect(1,0,1,1)" v:tabSpace="42.5197"/>
			<v:textRect cx="-7.08661" cy="110.801" width="14.18" height="11.3386"/>
			<path d="M17.01 93.79 L17.01 110.8 L0 110.8" class="st8"/>
			<text x="1" y="113.2" transform="scale(-1,1)" class="st1" v:langID="2057"><v:paragraph/><v:tabList/>EE</text>		</g>
		<g id="shape44-267" v:mID="44" v:groupContext="shape" transform="translate(46.1543,-62.3622) scale(-1,1)">
			<title>Bit name 2.44</title>
			<desc>TRE</desc>
			<v:textBlock v:margins="rect(1,0,1,1)" v:tabSpace="42.5197"/>
			<v:textRect cx="-9.92126" cy="110.801" width="19.85" height="11.3386"/>
			<path d="M5.67 105.13 L5.67 110.8 L0 110.8" class="st8"/>
			<text x="1" y="113.2" transform="scale(-1,1)" class="st1" v:langID="2057"><v:paragraph/><v:tabList/>TRE</text>		</g>
		<g id="shape50-271" v:mID="50" v:groupContext="shape" transform="translate(46.1543,-51.0236) scale(-1,1)">
			<title>Bit name 2.50</title>
			<desc>AFE</desc>
			<v:textBlock v:margins="rect(1,0,1,1)" v:tabSpace="42.5197"/>
			<v:textRect cx="-8.50394" cy="110.801" width="17.01" height="11.3386"/>
			<path d="M17.01 93.79 L17.01 110.8 L0 110.8" class="st8"/>
			<text x="1" y="113.2" transform="scale(-1,1)" class="st1" v:langID="2057"><v:paragraph/><v:tabList/>AFE</text>		</g>
		<g id="shape52-275" v:mID="52" v:groupContext="shape" transform="translate(46.1543,-39.685) scale(-1,1)">
			<title>Bit name 2.52</title>
			<desc>TE</desc>
			<v:textBlock v:margins="rect(1,0,1,1)" v:tabSpace="42.5197"/>
			<v:textRect cx="-7.08661" cy="110.801" width="14.18" height="11.3386"/>
			<path d="M28.35 82.45 L28.35 110.8 L0 110.8" class="st8"/>
			<text x="1" y="113.2" transform="scale(-1,1)" class="st1" v:langID="2057"><v:paragraph/><v:tabList/>TE</text>		</g>
		<g id="shape53-279" v:mID="53" v:groupContext="shape" transform="translate(46.1543,-28.3465) scale(-1,1)">
			<title>Bit name 2.53</title>
			<desc>res0</desc>
			<v:textBlock v:margins="rect(1,0,1,1)" v:tabSpace="42.5197"/>
			<v:textRect cx="-9.92126" cy="110.801" width="19.85" height="11.3386"/>
			<path d="M39.69 71.12 L39.69 110.8 L0 110.8" class="st8"/>
			<text x="1" y="113.2" transform="scale(-1,1)" class="st6" v:langID="2057"><v:paragraph/><v:tabList/>RES<tspan
						class="st7">0</tspan></text>		</g>
	</g>
</svg>
