<?xml version="1.0" encoding="UTF-8" standalone="no"?>
<!DOCTYPE svg PUBLIC "-//W3C//DTD SVG 1.0//EN" "http://www.w3.org/TR/2001/REC-SVG-20010904/DTD/svg10.dtd">
<!-- Generated by Microsoft Visio 11.0, SVG Export, v1.0 tcr_el1_bit_assignments.svg Page-1 -->
<svg xmlns="http://www.w3.org/2000/svg" xmlns:v="http://schemas.microsoft.com/visio/2003/SVGExtensions/" width="6.71514in"
		height="1.22394in" viewBox="0 0 483.49 88.124" xml:space="preserve" color-interpolation-filters="sRGB" class="st8">
	<v:documentProperties v:langID="1033" v:metric="true" v:viewMarkup="false"/>

	<style type="text/css">
	<![CDATA[
		.st1 {stroke:#000000;stroke-dasharray:0.25,0.5;stroke-linecap:butt;stroke-width:0.25}
		.st2 {stroke:#000000;stroke-linecap:butt;stroke-width:0.8}
		.st3 {fill:#000000;font-family:Arial;font-size:0.666664em}
		.st4 {fill:none;stroke:none;stroke-linecap:round;stroke-linejoin:round;stroke-width:0.0169691}
		.st5 {stroke:#000000;stroke-linecap:butt;stroke-width:0.5}
		.st6 {fill:#000000;font-family:Arial;font-size:0.533318em}
		.st7 {font-size:1.25003em}
		.st8 {fill:none;fill-rule:evenodd;font-size:12;overflow:visible;stroke-linecap:square;stroke-miterlimit:3}
		.st9 {fill:#ffffff;stroke:none;stroke-linecap:butt;stroke-width:0.5}
	]]>
	</style>

	<defs id="Masters">
		<symbol id="master8" v:mID="8" class="st8">
			<title>Disconnect</title>
			<g id="group40-251" v:mID="40" v:groupContext="group">
				<title>Disconnect</title>
				<g id="master-shape44-252" v:mID="44" v:groupContext="shape" transform="translate(0.566929,0)">
					<title>Sheet.44</title>
					<rect x="0" y="82.4547" width="1.88976" height="5.66929" class="st9"/>
				</g>
				<g id="master-shape46-254" v:mID="46" v:groupContext="shape" transform="translate(89.3539,96.8746) rotate(99.4623)">
					<title>Sheet.46</title>
					<path d="M0 87.71 C0.15 87.92 0.72 88.09 1.15 88.12 C1.58 88.15 1.86 88.04 2.34 87.81 C2.63 87.67 2.98 87.48
								 3.29 87.36 C4.56 86.86 5.03 87.41 5.75 87.71" class="st5"/>
				</g>
				<g id="master-shape47-257" v:mID="47" v:groupContext="shape" transform="translate(87.4642,96.8746) rotate(99.4623)">
					<title>Sheet.47</title>
					<path d="M0 87.71 C0.15 87.92 0.72 88.09 1.15 88.12 C1.58 88.15 1.86 88.04 2.34 87.81 C2.63 87.67 2.98 87.48
								 3.29 87.36 C4.56 86.86 5.03 87.41 5.75 87.71" class="st5"/>
				</g>
			</g>
		</symbol>
	</defs>
	<g v:mID="0" v:index="1" v:groupContext="foregroundPage">
		<title>Page-1</title>
		<v:pageProperties v:drawingScale="0.0393701" v:pageScale="0.0393701" v:drawingUnits="24" v:shadowOffsetX="8.50394"
				v:shadowOffsetY="-8.50394"/>
		<g id="shape1-1" v:mID="1" v:groupContext="shape" transform="translate(88.924,0.25) rotate(90)">
			<title>64-bit register.89</title>
			<path d="M0 88.12 L11.34 88.12" class="st1"/>
		</g>
		<g id="shape2-4" v:mID="2" v:groupContext="shape" transform="translate(253.333,0.25) rotate(90)">
			<title>64-bit register.90</title>
			<path d="M0 88.12 L11.34 88.12" class="st1"/>
		</g>
		<g id="shape3-7" v:mID="3" v:groupContext="shape" transform="translate(298.688,0.25) rotate(90)">
			<title>64-bit register.91</title>
			<path d="M0 88.12 L11.34 88.12" class="st1"/>
		</g>
		<g id="shape4-10" v:mID="4" v:groupContext="shape" transform="translate(344.042,0.25) rotate(90)">
			<title>64-bit register.92</title>
			<path d="M0 88.12 L11.34 88.12" class="st1"/>
		</g>
		<g id="shape5-13" v:mID="5" v:groupContext="shape" transform="translate(389.396,0.25) rotate(90)">
			<title>64-bit register.93</title>
			<path d="M0 88.12 L11.34 88.12" class="st1"/>
		</g>
		<g id="shape6-16" v:mID="6" v:groupContext="shape" transform="translate(434.751,0.25) rotate(90)">
			<title>64-bit register.94</title>
			<path d="M0 88.12 L11.34 88.12" class="st1"/>
		</g>
		<g id="shape7-19" v:mID="7" v:groupContext="shape" transform="translate(480.105,0.25) rotate(90)">
			<title>64-bit register.95</title>
			<path d="M0 88.12 L11.34 88.12" class="st1"/>
		</g>
		<g id="shape8-22" v:mID="8" v:groupContext="shape" transform="translate(525.459,0.25) rotate(90)">
			<title>64-bit register.96</title>
			<path d="M0 88.12 L11.34 88.12" class="st1"/>
		</g>
		<g id="shape9-25" v:mID="9" v:groupContext="shape" transform="translate(570.814,0.25) rotate(90)">
			<title>64-bit register.97</title>
			<path d="M0 88.12 L11.34 88.12" class="st1"/>
		</g>
		<g id="shape10-28" v:mID="10" v:groupContext="shape" transform="translate(391.981,-48.189)">
			<title>64-bit register.206</title>
			<path d="M0 59.78 L0 88.12" class="st2"/>
		</g>
		<g id="shape11-31" v:mID="11" v:groupContext="shape" transform="translate(346.627,-48.189)">
			<title>64-bit register.207</title>
			<path d="M0 59.78 L0 88.12" class="st2"/>
		</g>
		<g id="shape12-34" v:mID="12" v:groupContext="shape" transform="translate(301.272,-48.189)">
			<title>64-bit register.208</title>
			<path d="M0 59.78 L0 88.12" class="st2"/>
		</g>
		<g id="shape13-37" v:mID="13" v:groupContext="shape" transform="translate(380.643,-76.5354)">
			<title>64-bit register.210</title>
			<desc>8</desc>
			<v:textBlock v:margins="rect(0,0,0,0)" v:tabSpace="42.5197"/>
			<v:textRect cx="5.66929" cy="82.4547" width="11.34" height="11.3386"/>
			<text x="3.44" y="84.85" class="st3" v:langID="1033"><v:paragraph v:horizAlign="1"/><v:tabList/>8</text>		</g>
		<g id="shape14-39" v:mID="14" v:groupContext="shape" transform="translate(391.981,-76.5354)">
			<title>64-bit register.211</title>
			<desc>7</desc>
			<v:textBlock v:margins="rect(0,0,0,0)" v:tabSpace="42.5197"/>
			<v:textRect cx="5.66929" cy="82.4547" width="11.34" height="11.3386"/>
			<text x="3.44" y="84.85" class="st3" v:langID="1033"><v:paragraph v:horizAlign="1"/><v:tabList/>7</text>		</g>
		<g id="shape15-41" v:mID="15" v:groupContext="shape" transform="translate(335.288,-76.5354)">
			<title>64-bit register.212</title>
			<desc>12</desc>
			<v:textBlock v:margins="rect(0,0,0,0)" v:tabSpace="42.5197"/>
			<v:textRect cx="5.66929" cy="82.4547" width="11.34" height="11.3386"/>
			<text x="1.22" y="84.85" class="st3" v:langID="1033"><v:paragraph v:horizAlign="1"/><v:tabList/>12</text>		</g>
		<g id="shape16-43" v:mID="16" v:groupContext="shape" transform="translate(346.627,-76.5354)">
			<title>64-bit register.213</title>
			<desc>11</desc>
			<v:textBlock v:margins="rect(0,0,0,0)" v:tabSpace="42.5197"/>
			<v:textRect cx="5.66929" cy="82.4547" width="11.34" height="11.3386"/>
			<text x="1.22" y="84.85" class="st3" v:langID="1033"><v:paragraph v:horizAlign="1"/><v:tabList/>11</text>		</g>
		<g id="shape17-45" v:mID="17" v:groupContext="shape" transform="translate(289.934,-76.5354)">
			<title>64-bit register.214</title>
			<desc>16</desc>
			<v:textBlock v:margins="rect(0,0,0,0)" v:tabSpace="42.5197"/>
			<v:textRect cx="5.66929" cy="82.4547" width="11.34" height="11.3386"/>
			<text x="1.22" y="84.85" class="st3" v:langID="1033"><v:paragraph v:horizAlign="1"/><v:tabList/>16</text>		</g>
		<g id="shape18-47" v:mID="18" v:groupContext="shape" transform="translate(301.272,-76.5354)">
			<title>64-bit register.215</title>
			<desc>15</desc>
			<v:textBlock v:margins="rect(0,0,0,0)" v:tabSpace="42.5197"/>
			<v:textRect cx="5.66929" cy="82.4547" width="11.34" height="11.3386"/>
			<text x="1.22" y="84.85" class="st3" v:langID="1033"><v:paragraph v:horizAlign="1"/><v:tabList/>15</text>		</g>
		<g id="shape19-49" v:mID="19" v:groupContext="shape" transform="translate(414.658,-48.189)">
			<title>64-bit register.46</title>
			<path d="M0 59.78 L0 88.12" class="st2"/>
		</g>
		<g id="shape20-52" v:mID="20" v:groupContext="shape" transform="translate(403.32,-48.189)">
			<title>64-bit register.47</title>
			<path d="M0 59.78 L0 88.12" class="st2"/>
		</g>
		<g id="shape21-55" v:mID="21" v:groupContext="shape" transform="translate(369.304,-48.189)">
			<title>64-bit register.49</title>
			<path d="M0 59.78 L0 88.12" class="st2"/>
		</g>
		<g id="shape22-58" v:mID="22" v:groupContext="shape" transform="translate(323.95,-48.189)">
			<title>64-bit register.52</title>
			<path d="M0 59.78 L0 88.12" class="st2"/>
		</g>
		<g id="shape23-61" v:mID="23" v:groupContext="shape" transform="translate(312.611,-48.189)">
			<title>64-bit register.53</title>
			<path d="M0 59.78 L0 88.12" class="st2"/>
		</g>
		<g id="shape24-64" v:mID="24" v:groupContext="shape" transform="translate(210.564,-48.189)">
			<title>Sheet.24</title>
			<path d="M0 59.78 L0 88.12" class="st2"/>
		</g>
		<g id="shape25-67" v:mID="25" v:groupContext="shape" transform="translate(187.887,-48.189)">
			<title>Sheet.25</title>
			<path d="M0 59.78 L0 88.12" class="st2"/>
		</g>
		<g id="shape26-70" v:mID="26" v:groupContext="shape" transform="translate(165.209,-76.5354)">
			<title>64-bit register.103</title>
			<desc>27</desc>
			<v:textBlock v:margins="rect(0,0,0,0)" v:tabSpace="42.5197"/>
			<v:textRect cx="5.66929" cy="82.4547" width="11.34" height="11.3386"/>
			<text x="1.22" y="84.85" class="st3" v:langID="1033"><v:paragraph v:horizAlign="1"/><v:tabList/>27</text>		</g>
		<g id="shape27-72" v:mID="27" v:groupContext="shape" transform="translate(176.548,-76.5354)">
			<title>64-bit register.104</title>
			<desc>26</desc>
			<v:textBlock v:margins="rect(0,0,0,0)" v:tabSpace="42.5197"/>
			<v:textRect cx="5.66929" cy="82.4547" width="11.34" height="11.3386"/>
			<text x="1.22" y="84.85" class="st3" v:langID="1033"><v:paragraph v:horizAlign="1"/><v:tabList/>26</text>		</g>
		<g id="shape28-74" v:mID="28" v:groupContext="shape" transform="translate(187.887,-76.5354)">
			<title>64-bit register.105</title>
			<desc>25</desc>
			<v:textBlock v:margins="rect(0,0,0,0)" v:tabSpace="42.5197"/>
			<v:textRect cx="5.66929" cy="82.4547" width="11.34" height="11.3386"/>
			<text x="1.22" y="84.85" class="st3" v:langID="1033"><v:paragraph v:horizAlign="1"/><v:tabList/>25</text>		</g>
		<g id="shape29-76" v:mID="29" v:groupContext="shape" transform="translate(199.225,-76.5354)">
			<title>64-bit register.106</title>
			<desc>24</desc>
			<v:textBlock v:margins="rect(0,0,0,0)" v:tabSpace="42.5197"/>
			<v:textRect cx="5.66929" cy="82.4547" width="11.34" height="11.3386"/>
			<text x="1.22" y="84.85" class="st3" v:langID="1033"><v:paragraph v:horizAlign="1"/><v:tabList/>24</text>		</g>
		<g id="shape30-78" v:mID="30" v:groupContext="shape" transform="translate(210.564,-76.5354)">
			<title>64-bit register.107</title>
			<desc>23</desc>
			<v:textBlock v:margins="rect(0,0,0,0)" v:tabSpace="42.5197"/>
			<v:textRect cx="5.66929" cy="82.4547" width="11.34" height="11.3386"/>
			<text x="1.22" y="84.85" class="st3" v:langID="1033"><v:paragraph v:horizAlign="1"/><v:tabList/>23</text>		</g>
		<g id="shape31-80" v:mID="31" v:groupContext="shape" transform="translate(312.611,-76.5354)">
			<title>64-bit register.100</title>
			<desc>14</desc>
			<v:textBlock v:margins="rect(0,0,0,0)" v:tabSpace="42.5197"/>
			<v:textRect cx="5.66929" cy="82.4547" width="11.34" height="11.3386"/>
			<text x="1.22" y="84.85" class="st3" v:langID="1033"><v:paragraph v:horizAlign="1"/><v:tabList/>14</text>		</g>
		<g id="shape32-82" v:mID="32" v:groupContext="shape" transform="translate(323.95,-76.5354)">
			<title>64-bit register.101</title>
			<desc>13</desc>
			<v:textBlock v:margins="rect(0,0,0,0)" v:tabSpace="42.5197"/>
			<v:textRect cx="5.66929" cy="82.4547" width="11.34" height="11.3386"/>
			<text x="1.22" y="84.85" class="st3" v:langID="1033"><v:paragraph v:horizAlign="1"/><v:tabList/>13</text>		</g>
		<g id="shape33-84" v:mID="33" v:groupContext="shape" transform="translate(357.965,-76.5354)">
			<title>64-bit register.50</title>
			<desc>10</desc>
			<v:textBlock v:margins="rect(0,0,0,0)" v:tabSpace="42.5197"/>
			<v:textRect cx="5.66929" cy="82.4547" width="11.34" height="11.3386"/>
			<text x="1.22" y="84.85" class="st3" v:langID="1033"><v:paragraph v:horizAlign="1"/><v:tabList/>10</text>		</g>
		<g id="shape34-86" v:mID="34" v:groupContext="shape" transform="translate(369.304,-76.5354)">
			<title>64-bit register.102</title>
			<desc>9</desc>
			<v:textBlock v:margins="rect(0,0,0,0)" v:tabSpace="42.5197"/>
			<v:textRect cx="5.66929" cy="82.4547" width="11.34" height="11.3386"/>
			<text x="3.44" y="84.85" class="st3" v:langID="1033"><v:paragraph v:horizAlign="1"/><v:tabList/>9</text>		</g>
		<g id="shape35-88" v:mID="35" v:groupContext="shape" transform="translate(403.32,-76.5354)">
			<title>64-bit register.108</title>
			<desc>6</desc>
			<v:textBlock v:margins="rect(0,0,0,0)" v:tabSpace="42.5197"/>
			<v:textRect cx="5.66929" cy="82.4547" width="11.34" height="11.3386"/>
			<text x="3.44" y="84.85" class="st3" v:langID="1033"><v:paragraph v:horizAlign="1"/><v:tabList/>6</text>		</g>
		<g id="shape36-90" v:mID="36" v:groupContext="shape" transform="translate(414.658,-76.5354)">
			<title>64-bit register.109</title>
			<desc>5</desc>
			<v:textBlock v:margins="rect(0,0,0,0)" v:tabSpace="42.5197"/>
			<v:textRect cx="5.66929" cy="82.4547" width="11.34" height="11.3386"/>
			<text x="3.44" y="84.85" class="st3" v:langID="1033"><v:paragraph v:horizAlign="1"/><v:tabList/>5</text>		</g>
		<g id="shape37-92" v:mID="37" v:groupContext="shape" transform="translate(414.658,-48.189)">
			<title>Sheet.37</title>
			<desc>T0SZ</desc>
			<v:textBlock v:margins="rect(1,1,1,1)" v:tabSpace="42.5197"/>
			<v:textRect cx="34.0157" cy="73.9508" width="68.04" height="28.3465"/>
			<rect x="0" y="59.7776" width="68.0315" height="28.3465" class="st4"/>
			<text x="24.24" y="76.35" class="st3" v:langID="1033"><v:paragraph v:horizAlign="1"/><v:tabList/>T0SZ</text>		</g>
		<g id="shape39-95" v:mID="39" v:groupContext="shape" transform="translate(0.8,-48.189)">
			<title>64-bit register.16</title>
			<path d="M0 59.78 L481.89 59.78 L481.89 88.12 L0 88.12 L0 59.78" class="st2"/>
		</g>
		<g id="shape41-98" v:mID="41" v:groupContext="shape" transform="translate(119.855,-48.189)">
			<title>64-bit register.122</title>
			<path d="M0 59.78 L0 88.12" class="st2"/>
		</g>
		<g id="shape42-101" v:mID="42" v:groupContext="shape" transform="translate(471.351,-76.5354)">
			<title>64-bit register.1</title>
			<desc>0</desc>
			<v:textBlock v:margins="rect(0,0,0,0)" v:tabSpace="42.5197"/>
			<v:textRect cx="5.66929" cy="82.4547" width="11.34" height="11.3386"/>
			<text x="3.44" y="84.85" class="st3" v:langID="1033"><v:paragraph v:horizAlign="1"/><v:tabList/>0</text>		</g>
		<g id="shape43-103" v:mID="43" v:groupContext="shape" transform="translate(119.855,-76.5354)">
			<title>64-bit register.2</title>
			<desc>31</desc>
			<v:textBlock v:margins="rect(0,0,0,0)" v:tabSpace="42.5197"/>
			<v:textRect cx="5.66929" cy="82.4547" width="11.34" height="11.3386"/>
			<text x="1.22" y="84.85" class="st3" v:langID="1033"><v:paragraph v:horizAlign="1"/><v:tabList/>31</text>		</g>
		<g id="shape45-105" v:mID="45" v:groupContext="shape" transform="translate(0.8,-76.5354)">
			<title>64-bit register.4</title>
			<desc>63</desc>
			<v:textBlock v:margins="rect(0,0,0,0)" v:tabSpace="42.5197"/>
			<v:textRect cx="5.66929" cy="82.4547" width="11.34" height="11.3386"/>
			<text x="1.22" y="84.85" class="st3" v:langID="1033"><v:paragraph v:horizAlign="1"/><v:tabList/>63</text>		</g>
		<g id="shape54-107" v:mID="54" v:groupContext="shape" transform="translate(131.194,-48.189)">
			<title>64-bit register.22</title>
			<path d="M0 59.78 L0 88.12" class="st2"/>
		</g>
		<g id="shape55-110" v:mID="55" v:groupContext="shape" transform="translate(142.532,-48.189)">
			<title>64-bit register.127</title>
			<path d="M0 59.78 L0 88.12" class="st2"/>
		</g>
		<g id="shape56-113" v:mID="56" v:groupContext="shape" transform="translate(165.209,-48.189)">
			<title>64-bit register.129</title>
			<path d="M0 59.78 L0 88.12" class="st2"/>
		</g>
		<g id="shape57-116" v:mID="57" v:groupContext="shape" transform="translate(131.194,-76.5354)">
			<title>64-bit register.130</title>
			<desc>30</desc>
			<v:textBlock v:margins="rect(0,0,0,0)" v:tabSpace="42.5197"/>
			<v:textRect cx="5.66929" cy="82.4547" width="11.34" height="11.3386"/>
			<text x="1.22" y="84.85" class="st3" v:langID="1033"><v:paragraph v:horizAlign="1"/><v:tabList/>30</text>		</g>
		<g id="shape58-118" v:mID="58" v:groupContext="shape" transform="translate(142.532,-76.5354)">
			<title>64-bit register.131</title>
			<desc>29</desc>
			<v:textBlock v:margins="rect(0,0,0,0)" v:tabSpace="42.5197"/>
			<v:textRect cx="5.66929" cy="82.4547" width="11.34" height="11.3386"/>
			<text x="1.22" y="84.85" class="st3" v:langID="1033"><v:paragraph v:horizAlign="1"/><v:tabList/>29</text>		</g>
		<g id="shape59-120" v:mID="59" v:groupContext="shape" transform="translate(153.871,-76.5354)">
			<title>64-bit register.132</title>
			<desc>28</desc>
			<v:textBlock v:margins="rect(0,0,0,0)" v:tabSpace="42.5197"/>
			<v:textRect cx="5.66929" cy="82.4547" width="11.34" height="11.3386"/>
			<text x="1.22" y="84.85" class="st3" v:langID="1033"><v:paragraph v:horizAlign="1"/><v:tabList/>28</text>		</g>
		<g id="shape60-122" v:mID="60" v:groupContext="shape" transform="translate(221.902,-48.189)">
			<title>Sheet.60</title>
			<path d="M0 59.78 L0 88.12" class="st2"/>
		</g>
		<g id="shape61-125" v:mID="61" v:groupContext="shape" transform="translate(233.241,-48.189)">
			<title>Sheet.61</title>
			<path d="M0 59.78 L0 88.12" class="st2"/>
		</g>
		<g id="shape62-128" v:mID="62" v:groupContext="shape" transform="translate(221.902,-76.5354)">
			<title>64-bit register.135</title>
			<desc>22</desc>
			<v:textBlock v:margins="rect(0,0,0,0)" v:tabSpace="42.5197"/>
			<v:textRect cx="5.66929" cy="82.4547" width="11.34" height="11.3386"/>
			<text x="1.22" y="84.85" class="st3" v:langID="1033"><v:paragraph v:horizAlign="1"/><v:tabList/>22</text>		</g>
		<g id="shape63-130" v:mID="63" v:groupContext="shape" transform="translate(233.241,-76.5354)">
			<title>64-bit register.136</title>
			<desc>21</desc>
			<v:textBlock v:margins="rect(0,0,0,0)" v:tabSpace="42.5197"/>
			<v:textRect cx="5.66929" cy="82.4547" width="11.34" height="11.3386"/>
			<text x="1.22" y="84.85" class="st3" v:langID="1033"><v:paragraph v:horizAlign="1"/><v:tabList/>21</text>		</g>
		<g id="shape77-132" v:mID="77" v:groupContext="shape" transform="translate(233.241,-48.189)">
			<title>Sheet.77</title>
			<desc>T1SZ</desc>
			<v:textBlock v:margins="rect(1,1,1,1)" v:tabSpace="42.5197"/>
			<v:textRect cx="34.0157" cy="73.9508" width="68.04" height="28.3465"/>
			<rect x="0" y="59.7776" width="68.0315" height="28.3465" class="st4"/>
			<text x="24.24" y="76.35" class="st3" v:langID="1033"><v:paragraph v:horizAlign="1"/><v:tabList/>T1SZ</text>		</g>
		<g id="shape78-135" v:mID="78" v:groupContext="shape" transform="translate(142.532,-48.189)">
			<title>Sheet.78</title>
			<desc>SH1</desc>
			<v:textBlock v:margins="rect(1,1,1,1)" v:tabSpace="42.5197"/>
			<v:textRect cx="11.3386" cy="73.9508" width="22.68" height="28.3465"/>
			<rect x="0" y="59.7776" width="22.6772" height="28.3465" class="st4"/>
			<text x="3.56" y="76.35" class="st3" v:langID="1033"><v:paragraph v:horizAlign="1"/><v:tabList/>SH1</text>		</g>
		<g id="shape79-138" v:mID="79" v:groupContext="shape" transform="translate(323.95,-48.189)">
			<title>Sheet.79</title>
			<desc>SH0</desc>
			<v:textBlock v:margins="rect(1,1,1,1)" v:tabSpace="42.5197"/>
			<v:textRect cx="11.3386" cy="73.9508" width="22.68" height="28.3465"/>
			<rect x="0" y="59.7776" width="22.6772" height="28.3465" class="st4"/>
			<text x="3.56" y="76.35" class="st3" v:langID="1033"><v:paragraph v:horizAlign="1"/><v:tabList/>SH0</text>		</g>
		<g id="shape80-141" v:mID="80" v:groupContext="shape" transform="translate(420.328,-39.685) scale(-1,1)">
			<title>Bit name 2</title>
			<desc>res0</desc>
			<v:textBlock v:margins="rect(1,0,1,1)" v:tabSpace="42.5197"/>
			<v:textRect cx="-9.92126" cy="88.124" width="19.85" height="11.3386"/>
			<path d="M11.34 82.45 L11.34 88.12 L0 88.12" class="st5"/>
			<text x="1" y="90.52" transform="scale(-1,1)" class="st6" v:langID="2057"><v:paragraph/><v:tabList/>RES<tspan
						class="st7">0</tspan></text>		</g>
		<g id="shape81-146" v:mID="81" v:groupContext="shape" transform="translate(420.328,-28.3465) scale(-1,1)">
			<title>Bit name 2.54</title>
			<desc>EPD0</desc>
			<v:textBlock v:margins="rect(1,0,1,1)" v:tabSpace="42.5197"/>
			<v:textRect cx="-11.3386" cy="88.124" width="22.68" height="11.3386"/>
			<path d="M22.68 71.12 L22.68 88.12 L0 88.12" class="st5"/>
			<text x="1" y="90.52" transform="scale(-1,1)" class="st3" v:langID="2057"><v:paragraph/><v:tabList/>EPD0</text>		</g>
		<g id="shape82-150" v:mID="82" v:groupContext="shape" transform="translate(420.328,-17.0079) scale(-1,1)">
			<title>Bit name 2.55</title>
			<desc>IRGN0</desc>
			<v:textBlock v:margins="rect(1,0,1,1)" v:tabSpace="42.5197"/>
			<v:textRect cx="-14.1732" cy="88.124" width="28.35" height="11.3386"/>
			<path d="M39.69 59.78 L39.69 88.12 L0 88.12" class="st5"/>
			<text x="1" y="90.52" transform="scale(-1,1)" class="st3" v:langID="2057"><v:paragraph/><v:tabList/>IRGN0</text>		</g>
		<g id="shape83-154" v:mID="83" v:groupContext="shape" transform="translate(420.328,-5.66929) scale(-1,1)">
			<title>Bit name 2.56</title>
			<desc>ORGN0</desc>
			<v:textBlock v:margins="rect(1,0,1,1)" v:tabSpace="42.5197"/>
			<v:textRect cx="-15.5906" cy="88.124" width="31.19" height="11.3386"/>
			<path d="M62.36 48.44 L62.36 88.12 L0 88.12" class="st5"/>
			<text x="1" y="90.52" transform="scale(-1,1)" class="st3" v:langID="2057"><v:paragraph/><v:tabList/>ORGN0</text>		</g>
		<g id="shape84-158" v:mID="84" v:groupContext="shape" transform="translate(221.902,-48.189)">
			<title>Sheet.84</title>
			<desc>A1</desc>
			<v:textBlock v:margins="rect(1,0,1,0)" v:tabSpace="42.5197"/>
			<v:textRect cx="5.66929" cy="73.9508" width="11.34" height="28.3465"/>
			<rect x="0" y="59.7776" width="11.3386" height="28.3465" class="st4"/>
			<text x="0.78" y="76.35" class="st3" v:langID="2057"><v:paragraph v:horizAlign="1"/><v:tabList/>A1</text>		</g>
		<g id="shape85-161" v:mID="85" v:groupContext="shape" transform="translate(329.619,-39.685) scale(-1,1)">
			<title>Bit name 2.17</title>
			<desc>TG0</desc>
			<v:textBlock v:margins="rect(1,0,1,1)" v:tabSpace="42.5197"/>
			<v:textRect cx="-8.50394" cy="88.124" width="17.01" height="11.3386"/>
			<path d="M11.34 82.45 L11.34 88.12 L0 88.12" class="st5"/>
			<text x="1" y="90.52" transform="scale(-1,1)" class="st3" v:langID="2057"><v:paragraph/><v:tabList/>TG0</text>		</g>
		<g id="shape86-165" v:mID="86" v:groupContext="shape" transform="translate(329.619,-28.3465) scale(-1,1)">
			<title>Bit name 2.18</title>
			<desc>res0</desc>
			<v:textBlock v:margins="rect(1,0,1,1)" v:tabSpace="42.5197"/>
			<v:textRect cx="-9.92126" cy="88.124" width="19.85" height="11.3386"/>
			<path d="M22.68 71.12 L22.68 88.12 L0 88.12" class="st5"/>
			<text x="1" y="90.52" transform="scale(-1,1)" class="st6" v:langID="2057"><v:paragraph/><v:tabList/>RES<tspan
						class="st7">0</tspan></text>		</g>
		<g id="shape87-170" v:mID="87" v:groupContext="shape" transform="translate(227.572,-39.685) scale(-1,1)">
			<title>Bit name 2.15</title>
			<desc>EPD1</desc>
			<v:textBlock v:margins="rect(1,0,1,1)" v:tabSpace="42.5197"/>
			<v:textRect cx="-11.3386" cy="88.124" width="22.68" height="11.3386"/>
			<path d="M11.34 82.45 L11.34 88.12 L0 88.12" class="st5"/>
			<text x="1" y="90.52" transform="scale(-1,1)" class="st3" v:langID="2057"><v:paragraph/><v:tabList/>EPD1</text>		</g>
		<g id="shape88-174" v:mID="88" v:groupContext="shape" transform="translate(227.572,-28.3465) scale(-1,1)">
			<title>Bit name 2.19</title>
			<desc>IRGN1</desc>
			<v:textBlock v:margins="rect(1,0,1,1)" v:tabSpace="42.5197"/>
			<v:textRect cx="-14.1732" cy="88.124" width="28.35" height="11.3386"/>
			<path d="M28.35 71.12 L28.35 88.12 L0 88.12" class="st5"/>
			<text x="1" y="90.52" transform="scale(-1,1)" class="st3" v:langID="2057"><v:paragraph/><v:tabList/>IRGN1</text>		</g>
		<g id="shape89-178" v:mID="89" v:groupContext="shape" transform="translate(227.572,-17.0079) scale(-1,1)">
			<title>Bit name 2.35</title>
			<desc>ORGN1</desc>
			<v:textBlock v:margins="rect(1,0,1,1)" v:tabSpace="42.5197"/>
			<v:textRect cx="-15.5906" cy="88.124" width="31.19" height="11.3386"/>
			<path d="M51.02 59.78 L51.02 88.12 L0 88.12" class="st5"/>
			<text x="1" y="90.52" transform="scale(-1,1)" class="st3" v:langID="2057"><v:paragraph/><v:tabList/>ORGN1</text>		</g>
		<g id="shape90-182" v:mID="90" v:groupContext="shape" transform="translate(148.202,-39.685) scale(-1,1)">
			<title>Bit name 2.42</title>
			<desc>TG1</desc>
			<v:textBlock v:margins="rect(1,0,1,1)" v:tabSpace="42.5197"/>
			<v:textRect cx="-8.50394" cy="88.124" width="17.01" height="11.3386"/>
			<path d="M11.34 82.45 L11.34 88.12 L0 88.12" class="st5"/>
			<text x="1" y="90.52" transform="scale(-1,1)" class="st3" v:langID="2057"><v:paragraph/><v:tabList/>TG1</text>		</g>
		<g id="shape91-186" v:mID="91" v:groupContext="shape" transform="translate(148.202,-28.3465) scale(-1,1)">
			<title>Bit name 2.43</title>
			<desc>res1</desc>
			<v:textBlock v:margins="rect(1,0,1,1)" v:tabSpace="42.5197"/>
			<v:textRect cx="-9.92126" cy="88.124" width="19.85" height="11.3386"/>
			<path d="M22.68 71.12 L22.68 88.12 L0 88.12" class="st5"/>
			<text x="1" y="90.52" transform="scale(-1,1)" class="st6" v:langID="2057"><v:paragraph/><v:tabList/>RES<tspan
						class="st7">1</tspan></text>		</g>
		<g id="shape92-191" v:mID="92" v:groupContext="shape" transform="translate(117.27,0.25) rotate(90)">
			<title>Sheet.92</title>
			<path d="M0 88.12 L11.34 88.12" class="st1"/>
		</g>
		<g id="shape93-194" v:mID="93" v:groupContext="shape" transform="translate(162.625,0.25) rotate(90)">
			<title>Sheet.93</title>
			<path d="M0 88.12 L11.34 88.12" class="st1"/>
		</g>
		<g id="shape94-197" v:mID="94" v:groupContext="shape" transform="translate(207.979,0.597441) rotate(90)">
			<title>Sheet.94</title>
			<path d="M0 88.12 L11.34 88.12" class="st1"/>
		</g>
		<g id="shape96-200" v:mID="96" v:groupContext="shape" transform="translate(108.517,-76.5354)">
			<title>Sheet.96</title>
			<desc>32</desc>
			<v:textBlock v:margins="rect(0,0,0,0)" v:tabSpace="42.5197"/>
			<v:textRect cx="5.66929" cy="82.4547" width="11.34" height="11.3386"/>
			<text x="1.22" y="84.85" class="st3" v:langID="1033"><v:paragraph v:horizAlign="1"/><v:tabList/>32</text>		</g>
		<g id="shape97-202" v:mID="97" v:groupContext="shape" transform="translate(74.5008,-48.189)">
			<title>Sheet.97</title>
			<path d="M0 59.78 L0 88.12" class="st2"/>
		</g>
		<g id="shape98-205" v:mID="98" v:groupContext="shape" transform="translate(85.8394,-48.189)">
			<title>64-bit register.98</title>
			<path d="M0 59.78 L0 88.12" class="st2"/>
		</g>
		<g id="shape99-208" v:mID="99" v:groupContext="shape" transform="translate(85.8394,-76.5354)">
			<title>64-bit register.99</title>
			<desc>34</desc>
			<v:textBlock v:margins="rect(0,0,0,0)" v:tabSpace="42.5197"/>
			<v:textRect cx="5.66929" cy="82.4547" width="11.34" height="11.3386"/>
			<text x="1.22" y="84.85" class="st3" v:langID="1033"><v:paragraph v:horizAlign="1"/><v:tabList/>34</text>		</g>
		<g id="shape104-210" v:mID="104" v:groupContext="shape" transform="translate(40.485,-76.5354)">
			<title>Sheet.104</title>
			<desc>38</desc>
			<v:textBlock v:margins="rect(0,0,0,0)" v:tabSpace="42.5197"/>
			<v:textRect cx="5.66929" cy="82.4547" width="11.34" height="11.3386"/>
			<text x="1.22" y="84.85" class="st3" v:langID="1033"><v:paragraph v:horizAlign="1"/><v:tabList/>38</text>		</g>
		<g id="shape105-212" v:mID="105" v:groupContext="shape" transform="translate(51.8236,-76.5354)">
			<title>Sheet.105</title>
			<desc>37</desc>
			<v:textBlock v:margins="rect(0,0,0,0)" v:tabSpace="42.5197"/>
			<v:textRect cx="5.66929" cy="82.4547" width="11.34" height="11.3386"/>
			<text x="1.22" y="84.85" class="st3" v:langID="1033"><v:paragraph v:horizAlign="1"/><v:tabList/>37</text>		</g>
		<g id="shape106-214" v:mID="106" v:groupContext="shape" transform="translate(63.1622,-76.5354)">
			<title>Sheet.106</title>
			<desc>36</desc>
			<v:textBlock v:margins="rect(0,0,0,0)" v:tabSpace="42.5197"/>
			<v:textRect cx="5.66929" cy="82.4547" width="11.34" height="11.3386"/>
			<text x="1.22" y="84.85" class="st3" v:langID="1033"><v:paragraph v:horizAlign="1"/><v:tabList/>36</text>		</g>
		<g id="shape107-216" v:mID="107" v:groupContext="shape" transform="translate(74.5008,-76.5354)">
			<title>Sheet.107</title>
			<desc>35</desc>
			<v:textBlock v:margins="rect(0,0,0,0)" v:tabSpace="42.5197"/>
			<v:textRect cx="5.66929" cy="82.4547" width="11.34" height="11.3386"/>
			<text x="1.22" y="84.85" class="st3" v:langID="1033"><v:paragraph v:horizAlign="1"/><v:tabList/>35</text>		</g>
		<g id="shape108-218" v:mID="108" v:groupContext="shape" transform="translate(63.1622,-48.189)">
			<title>Sheet.108</title>
			<path d="M0 59.78 L0 88.12" class="st2"/>
		</g>
		<g id="shape109-221" v:mID="109" v:groupContext="shape" transform="translate(51.8236,-48.189)">
			<title>Sheet.109</title>
			<path d="M0 59.78 L0 88.12" class="st2"/>
		</g>
		<g id="shape110-224" v:mID="110" v:groupContext="shape" transform="translate(40.485,-48.189)">
			<title>64-bit register.110</title>
			<path d="M0 59.78 L0 88.12" class="st2"/>
		</g>
		<g id="shape95-227" v:mID="95" v:groupContext="shape" transform="translate(85.8394,-47.8415)">
			<title>Sheet.95</title>
			<desc>IPS</desc>
			<v:textBlock v:margins="rect(1,1,1,1)" v:tabSpace="42.5197"/>
			<v:textRect cx="17.0079" cy="73.9508" width="34.02" height="28.3465"/>
			<rect x="0" y="59.7776" width="34.0157" height="28.3465" class="st4"/>
			<text x="10.56" y="76.35" class="st3" v:langID="2057"><v:paragraph v:horizAlign="1"/><v:tabList/>IPS</text>		</g>
		<g id="shape101-230" v:mID="101" v:groupContext="shape" transform="translate(91.5087,-39.685) scale(-1,1)">
			<title>Bit name 2.101</title>
			<desc>res0</desc>
			<v:textBlock v:margins="rect(1,0,1,1)" v:tabSpace="42.5197"/>
			<v:textRect cx="-9.92126" cy="88.124" width="19.85" height="11.3386"/>
			<path d="M11.34 82.45 L11.34 88.12 L0 88.12" class="st5"/>
			<text x="1" y="90.52" transform="scale(-1,1)" class="st6" v:langID="2057"><v:paragraph/><v:tabList/>RES<tspan
						class="st7">0</tspan></text>		</g>
		<g id="shape102-235" v:mID="102" v:groupContext="shape" transform="translate(91.5087,-28.3465) scale(-1,1)">
			<title>Bit name 2.102</title>
			<desc>TBI0</desc>
			<v:textBlock v:margins="rect(1,0,1,1)" v:tabSpace="42.5197"/>
			<v:textRect cx="-9.92126" cy="88.124" width="19.85" height="11.3386"/>
			<path d="M34.02 71.12 L34.02 88.12 L0 88.12" class="st5"/>
			<text x="1" y="90.52" transform="scale(-1,1)" class="st3" v:langID="2057"><v:paragraph/><v:tabList/>TBI0</text>		</g>
		<g id="shape103-239" v:mID="103" v:groupContext="shape" transform="translate(63.1622,-48.189)">
			<title>Sheet.103</title>
			<desc>AS</desc>
			<v:textBlock v:margins="rect(1,0,1,0)" v:tabSpace="42.5197"/>
			<v:textRect cx="5.66929" cy="73.9508" width="11.34" height="28.3465"/>
			<rect x="0" y="59.7776" width="11.3386" height="28.3465" class="st4"/>
			<text x="0.33" y="76.35" class="st3" v:langID="2057"><v:paragraph v:horizAlign="1"/><v:tabList/>AS</text>		</g>
		<g id="shape100-242" v:mID="100" v:groupContext="shape" transform="translate(91.5087,-17.0079) scale(-1,1)">
			<title>Bit name 2.100</title>
			<desc>TBI1</desc>
			<v:textBlock v:margins="rect(1,0,1,1)" v:tabSpace="42.5197"/>
			<v:textRect cx="-9.92126" cy="88.124" width="19.85" height="11.3386"/>
			<path d="M45.35 59.78 L45.35 88.12 L0 88.12" class="st5"/>
			<text x="1" y="90.52" transform="scale(-1,1)" class="st3" v:langID="2057"><v:paragraph/><v:tabList/>TBI1</text>		</g>
		<g id="shape38-246" v:mID="38" v:groupContext="shape" transform="translate(0.8,-48.189)">
			<title>Sheet.38</title>
			<desc>res0</desc>
			<v:textBlock v:margins="rect(1,1,1,1)" v:tabSpace="42.5197"/>
			<v:textRect cx="19.8425" cy="73.9508" width="39.69" height="28.3465"/>
			<rect x="0" y="59.7776" width="39.685" height="28.3465" class="st4"/>
			<text x="11.04" y="76.35" class="st6" v:langID="2057"><v:paragraph v:horizAlign="1"/><v:tabList/>RES<tspan class="st7">0</tspan></text>		</g>
		<use id="shape40-250" v:mID="40" xlink:href="#master8" transform="translate(19.2252,-73.7008)">
			<title>Disconnect</title>
		</use>
		<use id="shape48-260" v:mID="48" xlink:href="#master8" transform="translate(19.2252,-45.3543)">
			<title>Disconnect.48</title>
		</use>
		<g id="master-shape52-261" v:mID="52" v:groupContext="shape" transform="translate(29.1465,-76.5354)">
			<title>Sheet.52</title>
			<desc>39</desc>
			<v:textBlock v:margins="rect(0,0,0,0)" v:tabSpace="42.5197"/>
			<v:textRect cx="5.66929" cy="82.4547" width="11.34" height="11.3386"/>
			<text x="1.22" y="84.85" class="st3" v:langID="2057"><v:paragraph v:horizAlign="1"/><v:tabList/>39</text>		</g>
	</g>
</svg>
