<?xml version="1.0" encoding="UTF-8" standalone="no"?>
<!DOCTYPE svg PUBLIC "-//W3C//DTD SVG 1.0//EN" "http://www.w3.org/TR/2001/REC-SVG-20010904/DTD/svg10.dtd">
<!-- Generated by Microsoft Visio 11.0, SVG Export, v1.0 trcidr0_bit_assignmnets.svg Page-1 -->
<svg xmlns="http://www.w3.org/2000/svg" xmlns:v="http://schemas.microsoft.com/visio/2003/SVGExtensions/" width="5.72672in"
		height="1.58522in" viewBox="0 0 412.324 114.136" xml:space="preserve" color-interpolation-filters="sRGB" class="st7">
	<v:documentProperties v:langID="1033" v:viewMarkup="false"/>

	<style type="text/css">
	<![CDATA[
		.st1 {stroke:#000000;stroke-linecap:butt;stroke-width:0.8}
		.st2 {stroke:#000000;stroke-dasharray:0.25,0.5;stroke-linecap:butt;stroke-width:0.25}
		.st3 {fill:#000000;font-family:Arial;font-size:0.666664em}
		.st4 {fill:none;stroke:none;stroke-linecap:round;stroke-linejoin:round;stroke-width:0.0169691}
		.st5 {stroke:#000000;stroke-linecap:butt;stroke-width:0.5}
		.st6 {fill:none;stroke:none;stroke-linecap:butt;stroke-width:0.5}
		.st7 {fill:none;fill-rule:evenodd;font-size:12;overflow:visible;stroke-linecap:square;stroke-miterlimit:3}
	]]>
	</style>

	<g v:mID="0" v:index="1" v:groupContext="foregroundPage">
		<title>Page-1</title>
		<v:pageProperties v:drawingScale="0.0393701" v:pageScale="0.0393701" v:drawingUnits="24" v:shadowOffsetX="0"
				v:shadowOffsetY="0" v:shadowType="1" v:shadowScale="0"/>
		<g id="shape1-1" v:mID="1" v:groupContext="shape" transform="translate(363.635,-74.2008) scale(-1,1)">
			<title>64-bit register.156</title>
			<path d="M0 85.79 L362.83 85.79 L362.83 114.14 L0 114.14" class="st1"/>
		</g>
		<g id="shape2-4" v:mID="2" v:groupContext="shape" transform="translate(114.936,0.25) rotate(90)">
			<title>64-bit register.169</title>
			<path d="M0 114.14 L11.34 114.14" class="st2"/>
		</g>
		<g id="shape3-7" v:mID="3" v:groupContext="shape" transform="translate(363.635,-74.2008)">
			<title>64-bit register.157</title>
			<path d="M0 85.79 L0 114.14" class="st1"/>
		</g>
		<g id="shape4-10" v:mID="4" v:groupContext="shape" transform="translate(170.879,-74.2008)">
			<title>64-bit register.4</title>
			<path d="M0 85.79 L0 114.14" class="st1"/>
		</g>
		<g id="shape5-13" v:mID="5" v:groupContext="shape" transform="translate(193.556,-74.2008)">
			<title>64-bit register.7</title>
			<path d="M0 85.79 L0 114.14" class="st1"/>
		</g>
		<g id="shape6-16" v:mID="6" v:groupContext="shape" transform="translate(204.894,-74.2008)">
			<title>64-bit register.38</title>
			<path d="M0 85.79 L0 114.14" class="st1"/>
		</g>
		<g id="shape7-19" v:mID="7" v:groupContext="shape" transform="translate(227.572,-74.2008)">
			<title>64-bit register.39</title>
			<path d="M0 85.79 L0 114.14" class="st1"/>
		</g>
		<g id="shape8-22" v:mID="8" v:groupContext="shape" transform="translate(295.603,-74.2008)">
			<title>64-bit register.41</title>
			<path d="M0 85.79 L0 114.14" class="st1"/>
		</g>
		<g id="shape9-25" v:mID="9" v:groupContext="shape" transform="translate(306.942,-74.2008)">
			<title>64-bit register.42</title>
			<path d="M0 85.79 L0 114.14" class="st1"/>
		</g>
		<g id="shape10-28" v:mID="10" v:groupContext="shape" transform="translate(352.296,-74.2008)">
			<title>64-bit register.52</title>
			<path d="M0 85.79 L0 114.14" class="st1"/>
		</g>
		<g id="shape11-31" v:mID="11" v:groupContext="shape" transform="translate(160.29,0.25) rotate(90)">
			<title>64-bit register.11</title>
			<path d="M0 114.14 L11.34 114.14" class="st2"/>
		</g>
		<g id="shape12-34" v:mID="12" v:groupContext="shape" transform="translate(205.644,0.25) rotate(90)">
			<title>64-bit register.12</title>
			<path d="M0 114.14 L11.34 114.14" class="st2"/>
		</g>
		<g id="shape13-37" v:mID="13" v:groupContext="shape" transform="translate(250.999,0.25) rotate(90)">
			<title>64-bit register.13</title>
			<path d="M0 114.14 L11.34 114.14" class="st2"/>
		</g>
		<g id="shape14-40" v:mID="14" v:groupContext="shape" transform="translate(296.353,0.25) rotate(90)">
			<title>64-bit register.14</title>
			<path d="M0 114.14 L11.34 114.14" class="st2"/>
		</g>
		<g id="shape15-43" v:mID="15" v:groupContext="shape" transform="translate(341.707,0.25) rotate(90)">
			<title>64-bit register.15</title>
			<path d="M0 114.14 L11.34 114.14" class="st2"/>
		</g>
		<g id="shape16-46" v:mID="16" v:groupContext="shape" transform="translate(432.416,0.25) rotate(90)">
			<title>64-bit register.16</title>
			<path d="M0 114.14 L11.34 114.14" class="st2"/>
		</g>
		<g id="shape17-49" v:mID="17" v:groupContext="shape" transform="translate(477.77,0.25) rotate(90)">
			<title>64-bit register.17</title>
			<path d="M0 114.14 L11.34 114.14" class="st2"/>
		</g>
		<g id="shape18-52" v:mID="18" v:groupContext="shape" transform="translate(0.8,-102.547)">
			<title>64-bit register.179</title>
			<desc>31</desc>
			<v:textBlock v:margins="rect(0,0,0,0)" v:tabSpace="42.5197"/>
			<v:textRect cx="5.66929" cy="108.467" width="11.34" height="11.3386"/>
			<text x="1.22" y="110.87" class="st3" v:langID="1033"><v:paragraph v:horizAlign="1"/><v:tabList/>31</text>		</g>
		<g id="shape19-54" v:mID="19" v:groupContext="shape" transform="translate(352.296,-102.547)">
			<title>64-bit register.19</title>
			<desc>0</desc>
			<v:textBlock v:margins="rect(0,0,0,0)" v:tabSpace="42.5197"/>
			<v:textRect cx="5.66929" cy="108.467" width="11.34" height="11.3386"/>
			<text x="3.44" y="110.87" class="st3" v:langID="1033"><v:paragraph v:horizAlign="1"/><v:tabList/>0</text>		</g>
		<g id="shape20-56" v:mID="20" v:groupContext="shape" transform="translate(91.5087,-74.2008)">
			<title>64-bit register.88</title>
			<desc>Reserved</desc>
			<v:textBlock v:margins="rect(1,0,1,0)" v:tabSpace="42.5197"/>
			<v:textRect cx="39.685" cy="99.9626" width="79.38" height="28.3465"/>
			<rect x="0" y="85.7894" width="79.3701" height="28.3465" class="st4"/>
			<text x="22.57" y="102.36" class="st3" v:langID="1033"><v:paragraph v:horizAlign="1"/><v:tabList/>Reserved</text>		</g>
		<g id="shape21-59" v:mID="21" v:groupContext="shape" transform="translate(387.062,0.25) rotate(90)">
			<title>64-bit register.21</title>
			<path d="M0 114.14 L11.34 114.14" class="st2"/>
		</g>
		<g id="shape22-62" v:mID="22" v:groupContext="shape" transform="translate(29.1465,-62.8622)">
			<title>Sheet.22</title>
			<path d="M0 105.63 L0 114.14 L5.67 114.14" class="st5"/>
		</g>
		<g id="shape23-65" v:mID="23" v:groupContext="shape" transform="translate(37.6504,-57.1929)">
			<title>Sheet.23</title>
			<desc>COMMOPT</desc>
			<v:textBlock v:margins="rect(1,2,1,0)" v:tabSpace="42.5197"/>
			<v:textRect cx="22.6772" cy="108.467" width="45.36" height="11.3386"/>
			<rect x="0" y="102.797" width="45.3543" height="11.3386" class="st6"/>
			<text x="0" y="110.87" class="st3" v:langID="1033"><v:paragraph/><v:tabList/>COMMOPT</text>		</g>
		<g id="shape24-68" v:mID="24" v:groupContext="shape" transform="translate(12.1386,-51.5236)">
			<title>Sheet.24</title>
			<path d="M0 94.29 L0 114.14 L22.68 114.14" class="st5"/>
		</g>
		<g id="shape25-71" v:mID="25" v:groupContext="shape" transform="translate(37.6504,-45.8543)">
			<title>Sheet.25</title>
			<desc>Reserved</desc>
			<v:textBlock v:margins="rect(1,2,1,0)" v:tabSpace="42.5197"/>
			<v:textRect cx="19.8425" cy="108.467" width="39.69" height="11.3386"/>
			<rect x="0" y="102.797" width="39.685" height="11.3386" class="st6"/>
			<text x="0" y="110.87" class="st3" v:langID="1033"><v:paragraph/><v:tabList/>Reserved</text>		</g>
		<g id="shape26-74" v:mID="26" v:groupContext="shape" transform="translate(329.619,-74.2008)">
			<title>64-bit register.26</title>
			<path d="M0 85.79 L0 114.14" class="st1"/>
		</g>
		<g id="shape27-77" v:mID="27" v:groupContext="shape" transform="translate(295.603,-102.547)">
			<title>64-bit register.27</title>
			<desc>5</desc>
			<v:textBlock v:margins="rect(0,0,0,0)" v:tabSpace="42.5197"/>
			<v:textRect cx="5.66929" cy="108.467" width="11.34" height="11.3386"/>
			<text x="3.44" y="110.87" class="st3" v:langID="1033"><v:paragraph v:horizAlign="1"/><v:tabList/>5</text>		</g>
		<g id="shape28-79" v:mID="28" v:groupContext="shape" transform="translate(306.942,-102.547)">
			<title>64-bit register.28</title>
			<desc>4</desc>
			<v:textBlock v:margins="rect(0,0,0,0)" v:tabSpace="42.5197"/>
			<v:textRect cx="5.66929" cy="108.467" width="11.34" height="11.3386"/>
			<text x="3.44" y="110.87" class="st3" v:langID="1033"><v:paragraph v:horizAlign="1"/><v:tabList/>4</text>		</g>
		<g id="shape29-81" v:mID="29" v:groupContext="shape" transform="translate(318.28,-102.547)">
			<title>64-bit register.29</title>
			<desc>3</desc>
			<v:textBlock v:margins="rect(0,0,0,0)" v:tabSpace="42.5197"/>
			<v:textRect cx="5.66929" cy="108.467" width="11.34" height="11.3386"/>
			<text x="3.44" y="110.87" class="st3" v:langID="1033"><v:paragraph v:horizAlign="1"/><v:tabList/>3</text>		</g>
		<g id="shape30-83" v:mID="30" v:groupContext="shape" transform="translate(329.619,-102.547)">
			<title>64-bit register.30</title>
			<desc>2</desc>
			<v:textBlock v:margins="rect(0,0,0,0)" v:tabSpace="42.5197"/>
			<v:textRect cx="5.66929" cy="108.467" width="11.34" height="11.3386"/>
			<text x="3.44" y="110.87" class="st3" v:langID="1033"><v:paragraph v:horizAlign="1"/><v:tabList/>2</text>		</g>
		<g id="shape31-85" v:mID="31" v:groupContext="shape" transform="translate(340.957,-102.547)">
			<title>64-bit register.31</title>
			<desc>1</desc>
			<v:textBlock v:margins="rect(0,0,0,0)" v:tabSpace="42.5197"/>
			<v:textRect cx="5.66929" cy="108.467" width="11.34" height="11.3386"/>
			<text x="3.44" y="110.87" class="st3" v:langID="1033"><v:paragraph v:horizAlign="1"/><v:tabList/>1</text>		</g>
		<g id="shape32-87" v:mID="32" v:groupContext="shape" transform="translate(272.926,-74.2008)">
			<title>64-bit register.32</title>
			<path d="M0 85.79 L0 114.14" class="st1"/>
		</g>
		<g id="shape33-90" v:mID="33" v:groupContext="shape" transform="translate(284.265,-74.2008)">
			<title>64-bit register.33</title>
			<path d="M0 85.79 L0 114.14" class="st1"/>
		</g>
		<g id="shape34-93" v:mID="34" v:groupContext="shape" transform="translate(250.249,-74.2008)">
			<title>64-bit register.34</title>
			<path d="M0 85.79 L0 114.14" class="st1"/>
		</g>
		<g id="shape35-96" v:mID="35" v:groupContext="shape" transform="translate(261.587,-74.2008)">
			<title>64-bit register.35</title>
			<path d="M0 85.79 L0 114.14" class="st1"/>
		</g>
		<g id="shape36-99" v:mID="36" v:groupContext="shape" transform="translate(238.91,-102.547)">
			<title>64-bit register.36</title>
			<desc>10</desc>
			<v:textBlock v:margins="rect(0,0,0,0)" v:tabSpace="42.5197"/>
			<v:textRect cx="5.66929" cy="108.467" width="11.34" height="11.3386"/>
			<text x="1.22" y="110.87" class="st3" v:langID="1033"><v:paragraph v:horizAlign="1"/><v:tabList/>10</text>		</g>
		<g id="shape37-101" v:mID="37" v:groupContext="shape" transform="translate(250.249,-102.547)">
			<title>64-bit register.37</title>
			<desc>9</desc>
			<v:textBlock v:margins="rect(0,0,0,0)" v:tabSpace="42.5197"/>
			<v:textRect cx="5.66929" cy="108.467" width="11.34" height="11.3386"/>
			<text x="3.44" y="110.87" class="st3" v:langID="1033"><v:paragraph v:horizAlign="1"/><v:tabList/>9</text>		</g>
		<g id="shape38-103" v:mID="38" v:groupContext="shape" transform="translate(261.587,-102.547)">
			<title>Sheet.38</title>
			<desc>8</desc>
			<v:textBlock v:margins="rect(0,0,0,0)" v:tabSpace="42.5197"/>
			<v:textRect cx="5.66929" cy="108.467" width="11.34" height="11.3386"/>
			<text x="3.44" y="110.87" class="st3" v:langID="1033"><v:paragraph v:horizAlign="1"/><v:tabList/>8</text>		</g>
		<g id="shape39-105" v:mID="39" v:groupContext="shape" transform="translate(272.926,-102.547)">
			<title>Sheet.39</title>
			<desc>7</desc>
			<v:textBlock v:margins="rect(0,0,0,0)" v:tabSpace="42.5197"/>
			<v:textRect cx="5.66929" cy="108.467" width="11.34" height="11.3386"/>
			<text x="3.44" y="110.87" class="st3" v:langID="1033"><v:paragraph v:horizAlign="1"/><v:tabList/>7</text>		</g>
		<g id="shape40-107" v:mID="40" v:groupContext="shape" transform="translate(285.682,-102.547)">
			<title>64-bit register.40</title>
			<desc>6</desc>
			<v:textBlock v:margins="rect(0,0,0,0)" v:tabSpace="42.5197"/>
			<v:textRect cx="5.66929" cy="108.467" width="11.34" height="11.3386"/>
			<text x="3.44" y="110.87" class="st3" v:langID="1033"><v:paragraph v:horizAlign="1"/><v:tabList/>6</text>		</g>
		<g id="shape41-109" v:mID="41" v:groupContext="shape" transform="translate(204.894,-102.547)">
			<title>Sheet.41</title>
			<desc>13</desc>
			<v:textBlock v:margins="rect(0,0,0,0)" v:tabSpace="42.5197"/>
			<v:textRect cx="5.66929" cy="108.467" width="11.34" height="11.3386"/>
			<text x="1.22" y="110.87" class="st3" v:langID="1033"><v:paragraph v:horizAlign="1"/><v:tabList/>13</text>		</g>
		<g id="shape42-111" v:mID="42" v:groupContext="shape" transform="translate(216.233,-102.547)">
			<title>Sheet.42</title>
			<desc>12</desc>
			<v:textBlock v:margins="rect(0,0,0,0)" v:tabSpace="42.5197"/>
			<v:textRect cx="5.66929" cy="108.467" width="11.34" height="11.3386"/>
			<text x="1.22" y="110.87" class="st3" v:langID="1033"><v:paragraph v:horizAlign="1"/><v:tabList/>12</text>		</g>
		<g id="shape43-113" v:mID="43" v:groupContext="shape" transform="translate(227.572,-102.547)">
			<title>64-bit register.43</title>
			<desc>11</desc>
			<v:textBlock v:margins="rect(0,0,0,0)" v:tabSpace="42.5197"/>
			<v:textRect cx="5.66929" cy="108.467" width="11.34" height="11.3386"/>
			<text x="1.22" y="110.87" class="st3" v:langID="1033"><v:paragraph v:horizAlign="1"/><v:tabList/>11</text>		</g>
		<g id="shape44-115" v:mID="44" v:groupContext="shape" transform="translate(193.556,-102.547)">
			<title>Sheet.44</title>
			<desc>14</desc>
			<v:textBlock v:margins="rect(0,0,0,0)" v:tabSpace="42.5197"/>
			<v:textRect cx="5.66929" cy="108.467" width="11.34" height="11.3386"/>
			<text x="1.22" y="110.87" class="st3" v:langID="1033"><v:paragraph v:horizAlign="1"/><v:tabList/>14</text>		</g>
		<g id="shape45-117" v:mID="45" v:groupContext="shape" transform="translate(182.217,-102.547)">
			<title>Sheet.45</title>
			<desc>15</desc>
			<v:textBlock v:margins="rect(0,0,0,0)" v:tabSpace="42.5197"/>
			<v:textRect cx="5.66929" cy="108.467" width="11.34" height="11.3386"/>
			<text x="1.22" y="110.87" class="st3" v:langID="1033"><v:paragraph v:horizAlign="1"/><v:tabList/>15</text>		</g>
		<g id="shape46-119" v:mID="46" v:groupContext="shape" transform="translate(170.879,-102.547)">
			<title>Sheet.46</title>
			<desc>16</desc>
			<v:textBlock v:margins="rect(0,0,0,0)" v:tabSpace="42.5197"/>
			<v:textRect cx="5.66929" cy="108.467" width="11.34" height="11.3386"/>
			<text x="1.22" y="110.87" class="st3" v:langID="1033"><v:paragraph v:horizAlign="1"/><v:tabList/>16</text>		</g>
		<g id="shape47-121" v:mID="47" v:groupContext="shape" transform="translate(159.54,-102.547)">
			<title>Sheet.47</title>
			<desc>17</desc>
			<v:textBlock v:margins="rect(0,0,0,0)" v:tabSpace="42.5197"/>
			<v:textRect cx="5.66929" cy="108.467" width="11.34" height="11.3386"/>
			<text x="1.22" y="110.87" class="st3" v:langID="1033"><v:paragraph v:horizAlign="1"/><v:tabList/>17</text>		</g>
		<g id="shape48-123" v:mID="48" v:groupContext="shape" transform="translate(80.1701,-102.547)">
			<title>64-bit register.48</title>
			<desc>24</desc>
			<v:textBlock v:margins="rect(0,0,0,0)" v:tabSpace="42.5197"/>
			<v:textRect cx="5.66929" cy="108.467" width="11.34" height="11.3386"/>
			<text x="1.22" y="110.87" class="st3" v:langID="1033"><v:paragraph v:horizAlign="1"/><v:tabList/>24</text>		</g>
		<g id="shape49-125" v:mID="49" v:groupContext="shape" transform="translate(91.5087,-102.547)">
			<title>64-bit register.49</title>
			<desc>23</desc>
			<v:textBlock v:margins="rect(0,0,0,0)" v:tabSpace="42.5197"/>
			<v:textRect cx="5.66929" cy="108.467" width="11.34" height="11.3386"/>
			<text x="1.22" y="110.87" class="st3" v:langID="1033"><v:paragraph v:horizAlign="1"/><v:tabList/>23</text>		</g>
		<g id="shape50-127" v:mID="50" v:groupContext="shape" transform="translate(91.5087,-74.2008)">
			<title>64-bit register.50</title>
			<path d="M0 85.79 L0 114.14" class="st1"/>
		</g>
		<g id="shape51-130" v:mID="51" v:groupContext="shape" transform="translate(12.1386,-102.547)">
			<title>64-bit register.51</title>
			<desc>30</desc>
			<v:textBlock v:margins="rect(0,0,0,0)" v:tabSpace="42.5197"/>
			<v:textRect cx="5.66929" cy="108.467" width="11.34" height="11.3386"/>
			<text x="1.22" y="110.87" class="st3" v:langID="1033"><v:paragraph v:horizAlign="1"/><v:tabList/>30</text>		</g>
		<g id="shape52-132" v:mID="52" v:groupContext="shape" transform="translate(23.4772,-102.547)">
			<title>Sheet.52</title>
			<desc>29</desc>
			<v:textBlock v:margins="rect(0,0,0,0)" v:tabSpace="42.5197"/>
			<v:textRect cx="5.66929" cy="108.467" width="11.34" height="11.3386"/>
			<text x="1.22" y="110.87" class="st3" v:langID="1033"><v:paragraph v:horizAlign="1"/><v:tabList/>29</text>		</g>
		<g id="shape53-134" v:mID="53" v:groupContext="shape" transform="translate(34.8157,-102.547)">
			<title>Sheet.53</title>
			<desc>28</desc>
			<v:textBlock v:margins="rect(0,0,0,0)" v:tabSpace="42.5197"/>
			<v:textRect cx="5.66929" cy="108.467" width="11.34" height="11.3386"/>
			<text x="1.22" y="110.87" class="st3" v:langID="1033"><v:paragraph v:horizAlign="1"/><v:tabList/>28</text>		</g>
		<g id="shape54-136" v:mID="54" v:groupContext="shape" transform="translate(23.4772,-74.2008)">
			<title>64-bit register.54</title>
			<path d="M0 85.79 L0 114.14" class="st1"/>
		</g>
		<g id="shape55-139" v:mID="55" v:groupContext="shape" transform="translate(34.8157,-74.2008)">
			<title>64-bit register.55</title>
			<path d="M0 85.79 L0 114.14" class="st1"/>
		</g>
		<g id="shape56-142" v:mID="56" v:groupContext="shape" transform="translate(34.8157,-74.2008)">
			<title>64-bit register.56</title>
			<desc>TSSIZE</desc>
			<v:textBlock v:margins="rect(1,0,1,0)" v:tabSpace="42.5197"/>
			<v:textRect cx="28.3465" cy="99.9626" width="56.7" height="28.3465"/>
			<rect x="0" y="85.7894" width="56.6929" height="28.3465" class="st4"/>
			<text x="14.34" y="102.36" class="st3" v:langID="1033"><v:paragraph v:horizAlign="1"/><v:tabList/>TSSIZE</text>		</g>
		<g id="shape57-145" v:mID="57" v:groupContext="shape" transform="translate(182.217,-62.8622) scale(-1,1)">
			<title>Sheet.57</title>
			<path d="M0 105.63 L0 114.14 L5.67 114.14" class="st5"/>
		</g>
		<g id="shape58-148" v:mID="58" v:groupContext="shape" transform="translate(199.225,-51.5236) scale(-1,1)">
			<title>Sheet.58</title>
			<path d="M0 94.29 L0 114.14 L22.68 114.14" class="st5"/>
		</g>
		<g id="shape59-151" v:mID="59" v:groupContext="shape" transform="translate(216.233,-40.185) scale(-1,1)">
			<title>Sheet.59</title>
			<path d="M0 82.95 L0 114.14 L39.69 114.14" class="st5"/>
		</g>
		<g id="shape60-154" v:mID="60" v:groupContext="shape" transform="translate(238.91,-28.8465) scale(-1,1)">
			<title>Sheet.60</title>
			<path d="M0 71.62 L0 114.14 L62.36 114.14" class="st5"/>
		</g>
		<g id="shape61-157" v:mID="61" v:groupContext="shape" transform="translate(255.918,-17.5079) scale(-1,1)">
			<title>Sheet.61</title>
			<path d="M0 60.28 L0 114.14 L79.37 114.14" class="st5"/>
		</g>
		<g id="shape62-160" v:mID="62" v:groupContext="shape" transform="translate(267.257,-6.16929) scale(-1,1)">
			<title>Sheet.62</title>
			<path d="M0 48.94 L0 114.14 L90.71 114.14" class="st5"/>
		</g>
		<g id="shape63-163" v:mID="63" v:groupContext="shape" transform="translate(134.028,-0.5)">
			<title>Sheet.63</title>
			<desc>Reserved</desc>
			<v:textBlock v:margins="rect(1,2,1,0)" v:tabSpace="42.5197"/>
			<v:textRect cx="19.8425" cy="108.467" width="39.69" height="11.3386"/>
			<rect x="0" y="102.797" width="39.685" height="11.3386" class="st6"/>
			<text x="3.45" y="110.87" class="st3" v:langID="1033"><v:paragraph v:horizAlign="2"/><v:tabList/>Reserved</text>		</g>
		<g id="shape64-166" v:mID="64" v:groupContext="shape" transform="translate(125.524,-11.8386)">
			<title>Sheet.64</title>
			<desc>RETSTACK</desc>
			<v:textBlock v:margins="rect(1,2,1,0)" v:tabSpace="42.5197"/>
			<v:textRect cx="24.0945" cy="108.467" width="48.19" height="11.3386"/>
			<rect x="0" y="102.797" width="48.189" height="11.3386" class="st6"/>
			<text x="3.52" y="110.87" class="st3" v:langID="1033"><v:paragraph v:horizAlign="2"/><v:tabList/>RETSTACK</text>		</g>
		<g id="shape65-169" v:mID="65" v:groupContext="shape" transform="translate(125.524,-23.1772)">
			<title>Sheet.65</title>
			<desc>NUMEVENT</desc>
			<v:textBlock v:margins="rect(1,2,1,0)" v:tabSpace="42.5197"/>
			<v:textRect cx="24.0945" cy="108.467" width="48.19" height="11.3386"/>
			<rect x="0" y="102.797" width="48.189" height="11.3386" class="st6"/>
			<text x="1.3" y="110.87" class="st3" v:langID="1033"><v:paragraph v:horizAlign="2"/><v:tabList/>NUMEVENT</text>		</g>
		<g id="shape66-172" v:mID="66" v:groupContext="shape" transform="translate(145.367,-45.8543)">
			<title>Sheet.66</title>
			<desc>QFILT</desc>
			<v:textBlock v:margins="rect(1,2,1,0)" v:tabSpace="42.5197"/>
			<v:textRect cx="14.1732" cy="108.467" width="28.35" height="11.3386"/>
			<rect x="0" y="102.797" width="28.3465" height="11.3386" class="st6"/>
			<text x="3.68" y="110.87" class="st3" v:langID="1033"><v:paragraph v:horizAlign="2"/><v:tabList/>QFILT</text>		</g>
		<g id="shape67-175" v:mID="67" v:groupContext="shape" transform="translate(139.698,-57.1929)">
			<title>Sheet.67</title>
			<desc>QSUPP</desc>
			<v:textBlock v:margins="rect(1,2,1,0)" v:tabSpace="42.5197"/>
			<v:textRect cx="17.0079" cy="108.467" width="34.02" height="11.3386"/>
			<rect x="0" y="102.797" width="34.0157" height="11.3386" class="st6"/>
			<text x="4.01" y="110.87" class="st3" v:langID="1033"><v:paragraph v:horizAlign="2"/><v:tabList/>QSUPP</text>		</g>
		<g id="shape68-178" v:mID="68" v:groupContext="shape" transform="translate(125.524,-34.5157)">
			<title>Sheet.68</title>
			<desc>CONDTYPE</desc>
			<v:textBlock v:margins="rect(1,2,1,0)" v:tabSpace="42.5197"/>
			<v:textRect cx="24.0945" cy="108.467" width="48.19" height="11.3386"/>
			<rect x="0" y="102.797" width="48.189" height="11.3386" class="st6"/>
			<text x="1.74" y="110.87" class="st3" v:langID="1033"><v:paragraph v:horizAlign="2"/><v:tabList/>CONDTYPE</text>		</g>
		<g id="shape69-181" v:mID="69" v:groupContext="shape" transform="translate(357.965,-62.8622)">
			<title>Sheet.69</title>
			<path d="M0 105.63 L0 114.14 L5.67 114.14" class="st5"/>
		</g>
		<g id="shape70-184" v:mID="70" v:groupContext="shape" transform="translate(366.469,-45.8543)">
			<title>Sheet.70</title>
			<desc>INSTP0</desc>
			<v:textBlock v:margins="rect(1,2,1,0)" v:tabSpace="42.5197"/>
			<v:textRect cx="22.6772" cy="108.467" width="45.36" height="11.3386"/>
			<rect x="0" y="102.797" width="45.3543" height="11.3386" class="st6"/>
			<text x="0" y="110.87" class="st3" v:langID="1033"><v:paragraph/><v:tabList/>INSTP0</text>		</g>
		<g id="shape71-187" v:mID="71" v:groupContext="shape" transform="translate(340.957,-51.5236)">
			<title>Sheet.71</title>
			<path d="M0 94.29 L0 114.14 L22.68 114.14" class="st5"/>
		</g>
		<g id="shape72-190" v:mID="72" v:groupContext="shape" transform="translate(318.28,-40.185)">
			<title>Sheet.72</title>
			<path d="M0 82.95 L0 114.14 L45.35 114.14" class="st5"/>
		</g>
		<g id="shape73-193" v:mID="73" v:groupContext="shape" transform="translate(301.272,-28.8465)">
			<title>Sheet.73</title>
			<path d="M0 71.62 L0 114.14 L62.36 114.14" class="st5"/>
		</g>
		<g id="shape74-196" v:mID="74" v:groupContext="shape" transform="translate(289.934,-17.5079)">
			<title>Sheet.74</title>
			<path d="M0 60.28 L0 114.14 L73.7 114.14" class="st5"/>
		</g>
		<g id="shape75-199" v:mID="75" v:groupContext="shape" transform="translate(278.595,-6.16929)">
			<title>Sheet.75</title>
			<path d="M0 48.94 L0 114.14 L85.04 114.14" class="st5"/>
		</g>
		<g id="shape76-202" v:mID="76" v:groupContext="shape" transform="translate(366.469,-57.1929)">
			<title>Sheet.76</title>
			<desc>Reserved</desc>
			<v:textBlock v:margins="rect(1,2,1,0)" v:tabSpace="42.5197"/>
			<v:textRect cx="19.8425" cy="108.467" width="39.69" height="11.3386"/>
			<rect x="0" y="102.797" width="39.685" height="11.3386" class="st6"/>
			<text x="0" y="110.87" class="st3" v:langID="1033"><v:paragraph/><v:tabList/>Reserved</text>		</g>
		<g id="shape77-205" v:mID="77" v:groupContext="shape" transform="translate(366.469,-34.5157)">
			<title>Sheet.77</title>
			<desc>TRCDATA</desc>
			<v:textBlock v:margins="rect(1,2,1,0)" v:tabSpace="42.5197"/>
			<v:textRect cx="21.2598" cy="108.467" width="42.52" height="11.3386"/>
			<rect x="0" y="102.797" width="42.5197" height="11.3386" class="st6"/>
			<text x="0" y="110.87" class="st3" v:langID="1033"><v:paragraph/><v:tabList/>TRCDATA</text>		</g>
		<g id="shape78-208" v:mID="78" v:groupContext="shape" transform="translate(366.469,-22.1142)">
			<title>Sheet.78</title>
			<desc>TRCBB</desc>
			<v:textBlock v:margins="rect(1,2,1,0)" v:tabSpace="42.5197"/>
			<v:textRect cx="21.2598" cy="108.467" width="42.52" height="11.3386"/>
			<rect x="0" y="102.797" width="42.5197" height="11.3386" class="st6"/>
			<text x="0" y="110.87" class="st3" v:langID="1033"><v:paragraph/><v:tabList/>TRCBB</text>		</g>
		<g id="shape79-211" v:mID="79" v:groupContext="shape" transform="translate(366.469,-11.8386)">
			<title>Sheet.79</title>
			<desc>TRCCOND</desc>
			<v:textBlock v:margins="rect(1,2,1,0)" v:tabSpace="42.5197"/>
			<v:textRect cx="21.2598" cy="108.467" width="42.52" height="11.3386"/>
			<rect x="0" y="102.797" width="42.5197" height="11.3386" class="st6"/>
			<text x="0" y="110.87" class="st3" v:langID="1033"><v:paragraph/><v:tabList/>TRCCOND</text>		</g>
		<g id="shape80-214" v:mID="80" v:groupContext="shape" transform="translate(366.469,-0.5)">
			<title>Sheet.80</title>
			<desc>TRCCCI</desc>
			<v:textBlock v:margins="rect(1,2,1,0)" v:tabSpace="42.5197"/>
			<v:textRect cx="21.2598" cy="108.467" width="42.52" height="11.3386"/>
			<rect x="0" y="102.797" width="42.5197" height="11.3386" class="st6"/>
			<text x="0" y="110.87" class="st3" v:langID="1033"><v:paragraph/><v:tabList/>TRCCCI</text>		</g>
	</g>
</svg>
