<?xml version="1.0" encoding="UTF-8" standalone="no"?>
<!DOCTYPE svg PUBLIC "-//W3C//DTD SVG 1.0//EN" "http://www.w3.org/TR/2001/REC-SVG-20010904/DTD/svg10.dtd">
<!-- Generated by Microsoft Visio 11.0, SVG Export, v1.0 warm_reset_timing.svg Page-1 -->
<svg xmlns="http://www.w3.org/2000/svg" xmlns:v="http://schemas.microsoft.com/visio/2003/SVGExtensions/" width="5.25011in"
		height="1.26651in" viewBox="0 0 378.008 91.1887" xml:space="preserve" color-interpolation-filters="sRGB" class="st6">
	<v:documentProperties v:langID="1033" v:metric="true" v:viewMarkup="false"/>

	<style type="text/css">
	<![CDATA[
		.st1 {fill:none;stroke:none;stroke-linecap:butt;stroke-width:0.5}
		.st2 {fill:#ffffff;stroke:none;stroke-linecap:butt;stroke-width:7.2}
		.st3 {fill:#000000;font-family:Arial;font-size:0.666664em}
		.st4 {font-size:1em}
		.st5 {stroke:#000000;stroke-linecap:butt;stroke-width:0.5}
		.st6 {fill:none;fill-rule:evenodd;font-size:12;overflow:visible;stroke-linecap:square;stroke-miterlimit:3}
		.st7 {fill:#ffffff;stroke:none;stroke-linecap:butt;stroke-width:0.5}
		.st8 {stroke:#000000;stroke-dasharray:0.24,0.96;stroke-linecap:butt;stroke-width:0.24}
		.st9 {marker-end:url(#mrkr4-94);marker-start:url(#mrkr4-92);stroke:#000000;stroke-linecap:butt;stroke-width:0.5}
		.st10 {fill:#000000;fill-opacity:1;stroke:#000000;stroke-opacity:1;stroke-width:0.21739130434783}
		.st11 {font-size:1em;font-weight:bold}
		.st12 {fill:#c0c0c0;stroke:#000000;stroke-linecap:butt;stroke-width:0.5}
	]]>
	</style>

	<defs id="Masters">
		<symbol id="master6" v:mID="6" class="st6">
			<title>Disconnect</title>
			<g id="group23-65" v:mID="23" v:groupContext="group">
				<title>Disconnect</title>
				<g id="master-shape24-66" v:mID="24" v:groupContext="shape" transform="translate(0.566929,1.42109E-014)">
					<title>Sheet.24</title>
					<rect x="0" y="85.5194" width="1.88976" height="5.66929" class="st7"/>
				</g>
				<g id="master-shape25-68" v:mID="25" v:groupContext="shape" transform="translate(92.3769,100.443) rotate(99.4623)">
					<title>Sheet.25</title>
					<path d="M0 90.78 C0.15 90.98 0.72 91.15 1.15 91.18 C1.58 91.22 1.86 91.11 2.34 90.87 C2.63 90.73 2.98 90.55
								 3.29 90.42 C4.56 89.92 5.03 90.47 5.75 90.78" class="st5"/>
				</g>
				<g id="master-shape26-71" v:mID="26" v:groupContext="shape" transform="translate(90.4871,100.443) rotate(99.4623)">
					<title>Sheet.26</title>
					<path d="M0 90.78 C0.15 90.98 0.72 91.15 1.15 91.18 C1.58 91.22 1.86 91.11 2.34 90.87 C2.63 90.73 2.98 90.55
								 3.29 90.42 C4.56 89.92 5.03 90.47 5.75 90.78" class="st5"/>
				</g>
			</g>
		</symbol>

		<symbol id="master7" v:mID="7" class="st6">
			<title>0 to 1</title>
			<g id="group20-121" v:mID="20" v:groupContext="group">
				<title>0 to 1</title>
				<g id="master-shape21-122" v:mID="21" v:groupContext="shape"
						transform="translate(5.66929,1.42109E-014) scale(-1,1)">
					<title>Sheet.21</title>
					<path d="M2.83 91.19 L0 79.85 L2.83 79.85 L5.67 91.19 L2.83 91.19 Z" class="st12"/>
				</g>
			</g>
		</symbol>
	</defs>
	<defs id="Markers">
		<g id="lend4">
			<path d="M 2 1 L -0 0 L 2 -1 L 2 1 " style="stroke:none"/>
		</g>
		<marker id="mrkr4-92" class="st10" v:arrowType="4" v:arrowSize="1" v:setback="8.48" refX="8.48" orient="auto"
				markerUnits="strokeWidth">
			<use xlink:href="#lend4" transform="scale(4.6) "/>
		</marker>
		<marker id="mrkr4-94" class="st10" v:arrowType="4" v:arrowSize="1" v:setback="9.2" refX="-9.2" orient="auto"
				markerUnits="strokeWidth">
			<use xlink:href="#lend4" transform="scale(-4.6,-4.6) "/>
		</marker>
	</defs>
	<g v:mID="0" v:index="1" v:groupContext="foregroundPage">
		<title>Page-1</title>
		<v:pageProperties v:drawingScale="0.0393701" v:pageScale="0.0393701" v:drawingUnits="24" v:shadowOffsetX="0"
				v:shadowOffsetY="0" v:shadowType="1" v:shadowScale="0"/>
		<g id="shape1-1" v:mID="1" v:groupContext="shape" transform="translate(60.0276,-73.9408)">
			<title>Signal name block.9</title>
			<desc>CLK</desc>
			<v:textBlock v:margins="rect(0,2,0,0)" v:tabSpace="42.5197"/>
			<v:textRect cx="11.3386" cy="85.5194" width="22.68" height="11.3386"/>
			<rect x="0" y="79.8501" width="22.6772" height="11.3386" class="st1"/>
			<rect v:rectContext="textBkgnd" x="5.11469" y="80.7194" width="15.5624" height="9.59985" class="st2"/>
			<text x="5.11" y="87.92" class="st3" v:langID="1033"><v:paragraph v:horizAlign="2"/><v:tabList/>CLK</text>		</g>
		<g id="shape2-5" v:mID="2" v:groupContext="shape" transform="translate(0.5,-56.9329)">
			<title>Signal name block.85</title>
			<desc>nCPUPORESET[N:0]</desc>
			<v:textBlock v:margins="rect(0,1,0,0)" v:tabSpace="42.5197"/>
			<v:textRect cx="41.1024" cy="85.5194" width="82.21" height="11.3386"/>
			<rect x="0" y="79.8501" width="82.2047" height="11.3386" class="st1"/>
			<rect v:rectContext="textBkgnd" x="4.7406" y="80.7194" width="76.464" height="9.59985" class="st2"/>
			<text x="4.74" y="87.92" class="st3" v:langID="1033"><v:paragraph v:horizAlign="2"/><v:tabList/>nCPUPORESET[N<tspan
						class="st4" v:langID="2057">:</tspan><tspan class="st4" v:langID="2057">0</tspan>]</text>		</g>
		<g id="shape3-11" v:mID="3" v:groupContext="shape" transform="translate(20.3425,-22.9172)">
			<title>Signal name block.10</title>
			<desc>nPRESETDBG</desc>
			<v:textBlock v:margins="rect(0,1,0,0)" v:tabSpace="42.5197"/>
			<v:textRect cx="31.1811" cy="85.5194" width="62.37" height="11.3386"/>
			<rect x="0" y="79.8501" width="62.3622" height="11.3386" class="st1"/>
			<rect v:rectContext="textBkgnd" x="7.56985" y="80.7194" width="53.7924" height="9.59985" class="st2"/>
			<text x="7.57" y="87.92" class="st3" v:langID="1033"><v:paragraph v:horizAlign="2"/><v:tabList/>nPRESETDBG</text>		</g>
		<g id="shape4-15" v:mID="4" v:groupContext="shape" transform="translate(37.3504,-39.925)">
			<title>Signal name block.77</title>
			<desc>nL2RESET</desc>
			<v:textBlock v:margins="rect(0,1,0,0)" v:tabSpace="42.5197"/>
			<v:textRect cx="22.6772" cy="85.5194" width="45.36" height="11.3386"/>
			<rect x="0" y="79.8501" width="45.3543" height="11.3386" class="st1"/>
			<rect v:rectContext="textBkgnd" x="4.33521" y="80.7194" width="40.0191" height="9.59985" class="st2"/>
			<text x="4.34" y="87.92" class="st3" v:langID="1033"><v:paragraph v:horizAlign="2"/><v:tabList/>nL2RESET</text>		</g>
		<g id="shape6-19" v:mID="6" v:groupContext="shape" transform="translate(9.00394,-5.90929)">
			<title>Signal name block.111</title>
			<desc>nCORERESET[N:0]</desc>
			<v:textBlock v:margins="rect(0,1,0,0)" v:tabSpace="42.5197"/>
			<v:textRect cx="36.8504" cy="85.5194" width="73.71" height="11.3386"/>
			<rect x="0" y="79.8501" width="73.7008" height="11.3386" class="st1"/>
			<rect v:rectContext="textBkgnd" x="1.57242" y="80.7194" width="71.1282" height="9.59985" class="st2"/>
			<text x="1.57" y="87.92" class="st3" v:langID="1033"><v:paragraph v:horizAlign="2"/><v:tabList/>nCORERESET[N<tspan
						class="st4" v:langID="2057">:</tspan><tspan class="st4" v:langID="2057">0</tspan>]</text>		</g>
		<g id="shape7-25" v:mID="7" v:groupContext="shape" transform="translate(82.7047,-73.9408)">
			<title>Clock.134</title>
			<path d="M0 85.52 L0 79.85 L11.34 79.85 L11.34 91.19 L22.67 91.19 L22.68 85.52" class="st5"/>
		</g>
		<g id="shape8-28" v:mID="8" v:groupContext="shape" transform="translate(105.382,-73.9408)">
			<title>Clock.135</title>
			<path d="M0 85.52 L0 79.85 L11.34 79.85 L11.34 91.19 L22.67 91.19 L22.68 85.52" class="st5"/>
		</g>
		<g id="shape9-31" v:mID="9" v:groupContext="shape" transform="translate(128.059,-73.9408)">
			<title>Clock.136</title>
			<path d="M0 85.52 L0 79.85 L11.34 79.85 L11.34 91.19 L22.67 91.19 L22.68 85.52" class="st5"/>
		</g>
		<g id="shape10-34" v:mID="10" v:groupContext="shape" transform="translate(150.736,-73.9408)">
			<title>Clock.137</title>
			<path d="M0 85.52 L0 79.85 L11.34 79.85 L11.34 91.19 L22.67 91.19 L22.68 85.52" class="st5"/>
		</g>
		<g id="shape11-37" v:mID="11" v:groupContext="shape" transform="translate(173.413,-73.9408)">
			<title>Clock.138</title>
			<path d="M0 85.52 L0 79.85 L11.34 79.85 L11.34 91.19 L22.67 91.19 L22.68 85.52" class="st5"/>
		</g>
		<g id="shape12-40" v:mID="12" v:groupContext="shape" transform="translate(196.091,-73.9408)">
			<title>Clock.139</title>
			<path d="M0 85.52 L0 79.85 L11.34 79.85 L11.34 91.19 L22.67 91.19 L22.68 85.52" class="st5"/>
		</g>
		<g id="shape13-43" v:mID="13" v:groupContext="shape" transform="translate(218.768,-73.9408)">
			<title>Clock.140</title>
			<path d="M0 85.52 L0 79.85 L11.34 79.85 L11.34 91.19 L22.67 91.19 L22.68 85.52" class="st5"/>
		</g>
		<g id="shape14-46" v:mID="14" v:groupContext="shape" transform="translate(241.445,-73.9408)">
			<title>Clock.141</title>
			<path d="M0 85.52 L0 79.85 L11.34 79.85 L11.34 91.19 L22.67 91.19 L22.68 85.52" class="st5"/>
		</g>
		<g id="shape15-49" v:mID="15" v:groupContext="shape" transform="translate(264.122,-73.9408)">
			<title>Clock.142</title>
			<path d="M0 85.52 L0 79.85 L11.34 79.85 L11.34 91.19 L22.67 91.19 L22.68 85.52" class="st5"/>
		</g>
		<g id="shape16-52" v:mID="16" v:groupContext="shape" transform="translate(286.799,-73.9408)">
			<title>Clock.143</title>
			<path d="M0 85.52 L0 79.85 L11.34 79.85 L11.34 91.19 L22.67 91.19 L22.68 85.52" class="st5"/>
		</g>
		<g id="shape17-55" v:mID="17" v:groupContext="shape" transform="translate(309.476,-73.9408)">
			<title>Clock.144</title>
			<path d="M0 85.52 L0 79.85 L11.34 79.85 L11.34 91.19 L22.67 91.19 L22.68 85.52" class="st5"/>
		</g>
		<g id="shape18-58" v:mID="18" v:groupContext="shape" transform="translate(332.154,-73.9408)">
			<title>Clock.145</title>
			<path d="M0 85.52 L0 79.85 L11.34 79.85 L11.34 91.19 L22.67 91.19 L22.68 85.52" class="st5"/>
		</g>
		<g id="shape19-61" v:mID="19" v:groupContext="shape" transform="translate(354.831,-73.9408)">
			<title>Clock.146</title>
			<path d="M0 85.52 L0 79.85 L11.34 79.85 L11.34 91.19 L22.67 91.19 L22.68 85.52" class="st5"/>
		</g>
		<use id="shape23-64" v:mID="23" xlink:href="#master6" transform="translate(245.697,-82.4447)">
			<title>Disconnect</title>
		</use>
		<g id="shape29-74" v:mID="29" v:groupContext="shape" transform="translate(400.665,0.24) rotate(90)">
			<title>Domain line</title>
			<path d="M0 91.19 L90.71 91.19" class="st8"/>
		</g>
		<g id="shape30-77" v:mID="30" v:groupContext="shape" transform="translate(346.327,-68.2715)">
			<title>Sheet.30</title>
			<path d="M0 91.19 L31.18 91.19" class="st5"/>
		</g>
		<g id="shape31-80" v:mID="31" v:groupContext="shape" transform="translate(346.327,114.106) rotate(180)">
			<title>Sheet.31</title>
			<path d="M0 91.19 L263.62 91.19" class="st5"/>
		</g>
		<g id="shape32-83" v:mID="32" v:groupContext="shape" transform="translate(264.602,0.24) rotate(90)">
			<title>Domain line.163</title>
			<path d="M0 91.19 L90.71 91.19" class="st8"/>
		</g>
		<g id="shape33-86" v:mID="33" v:groupContext="shape" transform="translate(173.413,-17.2479)">
			<title>Signal 2</title>
			<desc>16 CLK cycles minimum</desc>
			<v:textBlock v:margins="rect(1,1,1,1)" v:tabSpace="42.5197"/>
			<v:textRect cx="68.0315" cy="91.1887" width="136.07" height="0"/>
			<path d="M4.24 91.19 L4.6 91.19 L131.46 91.19" class="st9"/>
			<rect v:rectContext="textBkgnd" x="24.6915" y="86.3887" width="86.6797" height="9.59985" class="st2"/>
			<text x="24.69" y="93.59" class="st3" v:langID="1033"><v:paragraph v:horizAlign="1"/><v:tabList/>16 <tspan class="st11">CLK</tspan> cycles minimum</text>		</g>
		<use id="shape34-98" v:mID="34" xlink:href="#master6" transform="translate(245.697,-65.4369)">
			<title>Disconnect.165</title>
		</use>
		<g id="master-shape49-99" v:mID="49" v:groupContext="shape" transform="translate(346.327,-51.2636)">
			<title>Sheet.49</title>
			<path d="M0 91.19 L31.18 91.19" class="st5"/>
		</g>
		<g id="master-shape50-102" v:mID="50" v:groupContext="shape" transform="translate(346.327,131.114) rotate(180)">
			<title>Sheet.50</title>
			<path d="M0 91.19 L263.62 91.19" class="st5"/>
		</g>
		<use id="shape52-105" v:mID="52" xlink:href="#master6" transform="translate(245.697,-48.429)">
			<title>Disconnect.18</title>
		</use>
		<g id="master-shape58-106" v:mID="58" v:groupContext="shape" transform="translate(346.327,-34.2557)">
			<title>Sheet.58</title>
			<path d="M0 91.19 L31.18 91.19" class="st5"/>
		</g>
		<g id="master-shape59-109" v:mID="59" v:groupContext="shape" transform="translate(346.327,148.122) rotate(180)">
			<title>Sheet.59</title>
			<path d="M0 91.19 L263.62 91.19" class="st5"/>
		</g>
		<use id="shape61-112" v:mID="61" xlink:href="#master6" transform="translate(245.697,-31.4211)">
			<title>Disconnect.27</title>
		</use>
		<g id="master-shape67-113" v:mID="67" v:groupContext="shape" transform="translate(340.657,-17.2479)">
			<title>Sheet.67</title>
			<path d="M0 91.19 L36.85 91.19" class="st5"/>
		</g>
		<g id="master-shape68-116" v:mID="68" v:groupContext="shape" transform="translate(334.988,176.468) rotate(180)">
			<title>Sheet.68</title>
			<path d="M0 91.19 L175.75 91.19" class="st5"/>
		</g>
		<use id="shape70-119" v:mID="70" xlink:href="#master6" transform="translate(245.697,-3.07465)">
			<title>Disconnect.36</title>
		</use>
		<use id="shape20-120" v:mID="20" xlink:href="#master7" transform="translate(334.988,-5.90929)">
			<title>0 to 1</title>
		</use>
		<use id="shape22-124" v:mID="22" xlink:href="#master7" transform="translate(159.24,-5.90929) scale(-1,1)">
			<title>0 to 1.22</title>
		</use>
		<g id="master-shape28-125" v:mID="28" v:groupContext="shape" transform="translate(153.571,165.129) rotate(180)">
			<title>Sheet.28</title>
			<path d="M0 91.19 L70.87 91.19" class="st5"/>
		</g>
		<g id="master-shape74-128" v:mID="74" v:groupContext="shape" transform="translate(173.893,11.5786) rotate(90)">
			<title>Sheet.74</title>
			<path d="M0 91.19 L5.67 91.19" class="st5"/>
		</g>
	</g>
</svg>
